<svg width="24" height="24" viewBox="0 0 24 24" fill="none" xmlns="http://www.w3.org/2000/svg">
<path d="M11 4C9.21997 4 7.47991 4.52784 5.99987 5.51677C4.51983 6.50571 3.36627 7.91131 2.68508 9.55585C2.0039 11.2004 1.82567 13.01 2.17293 14.7558C2.5202 16.5016 3.37737 18.1053 4.63604 19.364C5.89471 20.6226 7.49836 21.4798 9.24419 21.8271C10.99 22.1743 12.7996 21.9961 14.4442 21.3149C16.0887 20.6337 17.4943 19.4802 18.4832 18.0001C19.4722 16.5201 20 14.78 20 13H11V4Z" fill="#1E2E4B"/>
<path d="M12 3C13.1819 3 14.3522 3.23279 15.4442 3.68508C16.5361 4.13738 17.5282 4.80031 18.364 5.63604C19.1997 6.47177 19.8626 7.46392 20.3149 8.55585C20.7672 9.64778 21 10.8181 21 12L12 12V3Z" fill="#229CD3"/>
</svg>
