<svg width="35" height="32" viewBox="0 0 35 32" fill="none" xmlns="http://www.w3.org/2000/svg">
<path d="M4.83325 31.6667V16.8229L1.98325 19L0.083252 16.4667L4.83325 12.825V7.91667H7.99992V10.4104L17.4999 3.16667L34.9166 16.4667L33.0166 18.9604L30.1666 16.8229V31.6667H4.83325ZM7.99992 28.5H15.9166V22.1667H19.0833V28.5H26.9999V14.4083L17.4999 7.16458L7.99992 14.4083V28.5ZM4.83325 6.33333C4.83325 5.01389 5.29506 3.89236 6.21867 2.96875C7.14228 2.04514 8.26381 1.58333 9.58325 1.58333C10.0319 1.58333 10.4079 1.4316 10.7114 1.12812C11.0149 0.824653 11.1666 0.448611 11.1666 0H14.3333C14.3333 1.31944 13.8714 2.44097 12.9478 3.36458C12.0242 4.28819 10.9027 4.75 9.58325 4.75C9.13464 4.75 8.7586 4.90174 8.45513 5.20521C8.15166 5.50868 7.99992 5.88472 7.99992 6.33333H4.83325Z" fill="#00AAAC"/>
</svg>
