<svg width="24" height="24" viewBox="0 0 24 24" fill="none" xmlns="http://www.w3.org/2000/svg">
<mask id="path-1-inside-1_461_125" fill="white">
<path d="M22 12C22 13.3132 21.7413 14.6136 21.2388 15.8268C20.7362 17.0401 19.9997 18.1425 19.0711 19.0711C18.1425 19.9997 17.0401 20.7362 15.8268 21.2388C14.6136 21.7413 13.3132 22 12 22V17.2065C12.6837 17.2065 13.3608 17.0718 13.9924 16.8102C14.6241 16.5485 15.1981 16.165 15.6816 15.6816C16.165 15.1981 16.5485 14.6241 16.8102 13.9924C17.0718 13.3608 17.2065 12.6837 17.2065 12H22Z"/>
</mask>
<path d="M22 12C22 13.3132 21.7413 14.6136 21.2388 15.8268C20.7362 17.0401 19.9997 18.1425 19.0711 19.0711C18.1425 19.9997 17.0401 20.7362 15.8268 21.2388C14.6136 21.7413 13.3132 22 12 22V17.2065C12.6837 17.2065 13.3608 17.0718 13.9924 16.8102C14.6241 16.5485 15.1981 16.165 15.6816 15.6816C16.165 15.1981 16.5485 14.6241 16.8102 13.9924C17.0718 13.3608 17.2065 12.6837 17.2065 12H22Z" fill="#1E2E4B" stroke="white" mask="url(#path-1-inside-1_461_125)"/>
<mask id="path-2-inside-2_461_125" fill="white">
<path d="M2 12C2 13.3132 2.25866 14.6136 2.7612 15.8268C3.26375 17.0401 4.00035 18.1425 4.92893 19.0711C5.85752 19.9997 6.95991 20.7362 8.17317 21.2388C9.38642 21.7413 10.6868 22 12 22V17.2065C11.3163 17.2065 10.6392 17.0718 10.0076 16.8102C9.37588 16.5485 8.80192 16.165 8.31845 15.6816C7.83498 15.1981 7.45147 14.6241 7.18982 13.9924C6.92817 13.3608 6.7935 12.6837 6.7935 12H2Z"/>
</mask>
<path d="M2 12C2 13.3132 2.25866 14.6136 2.7612 15.8268C3.26375 17.0401 4.00035 18.1425 4.92893 19.0711C5.85752 19.9997 6.95991 20.7362 8.17317 21.2388C9.38642 21.7413 10.6868 22 12 22V17.2065C11.3163 17.2065 10.6392 17.0718 10.0076 16.8102C9.37588 16.5485 8.80192 16.165 8.31845 15.6816C7.83498 15.1981 7.45147 14.6241 7.18982 13.9924C6.92817 13.3608 6.7935 12.6837 6.7935 12H2Z" fill="#1E2E4B" stroke="white" mask="url(#path-2-inside-2_461_125)"/>
<mask id="path-3-inside-3_461_125" fill="white">
<path d="M22 12C22 10.6868 21.7413 9.38642 21.2388 8.17317C20.7362 6.95991 19.9997 5.85752 19.0711 4.92893C18.1425 4.00035 17.0401 3.26375 15.8268 2.7612C14.6136 2.25866 13.3132 2 12 2V6.7935C12.6837 6.7935 13.3608 6.92817 13.9924 7.18982C14.6241 7.45147 15.1981 7.83498 15.6816 8.31845C16.165 8.80192 16.5485 9.37588 16.8102 10.0076C17.0718 10.6392 17.2065 11.3163 17.2065 12H22Z"/>
</mask>
<path d="M22 12C22 10.6868 21.7413 9.38642 21.2388 8.17317C20.7362 6.95991 19.9997 5.85752 19.0711 4.92893C18.1425 4.00035 17.0401 3.26375 15.8268 2.7612C14.6136 2.25866 13.3132 2 12 2V6.7935C12.6837 6.7935 13.3608 6.92817 13.9924 7.18982C14.6241 7.45147 15.1981 7.83498 15.6816 8.31845C16.165 8.80192 16.5485 9.37588 16.8102 10.0076C17.0718 10.6392 17.2065 11.3163 17.2065 12H22Z" fill="#1E2E4B" stroke="white" mask="url(#path-3-inside-3_461_125)"/>
<mask id="path-4-inside-4_461_125" fill="white">
<path d="M2 12C2 10.6868 2.25866 9.38642 2.7612 8.17317C3.26375 6.95991 4.00035 5.85752 4.92893 4.92893C5.85752 4.00035 6.95991 3.26375 8.17317 2.7612C9.38642 2.25866 10.6868 2 12 2V6.7935C11.3163 6.7935 10.6392 6.92817 10.0076 7.18982C9.37588 7.45147 8.80192 7.83498 8.31845 8.31845C7.83498 8.80192 7.45147 9.37588 7.18982 10.0076C6.92817 10.6392 6.7935 11.3163 6.7935 12H2Z"/>
</mask>
<path d="M2 12C2 10.6868 2.25866 9.38642 2.7612 8.17317C3.26375 6.95991 4.00035 5.85752 4.92893 4.92893C5.85752 4.00035 6.95991 3.26375 8.17317 2.7612C9.38642 2.25866 10.6868 2 12 2V6.7935C11.3163 6.7935 10.6392 6.92817 10.0076 7.18982C9.37588 7.45147 8.80192 7.83498 8.31845 8.31845C7.83498 8.80192 7.45147 9.37588 7.18982 10.0076C6.92817 10.6392 6.7935 11.3163 6.7935 12H2Z" fill="#1E2E4B" stroke="white" mask="url(#path-4-inside-4_461_125)"/>
<circle cx="12" cy="12" r="4.54545" fill="#4C99CC"/>
</svg>
