<svg width="16" height="17" viewBox="0 0 16 17" fill="none" xmlns="http://www.w3.org/2000/svg">
<path d="M14.364 5.79295C14.1764 5.60548 13.9221 5.50017 13.657 5.50017C13.3918 5.50017 13.1375 5.60548 12.95 5.79295L7.99995 10.743L3.04995 5.79295C2.86135 5.61079 2.60875 5.51 2.34655 5.51228C2.08435 5.51456 1.83354 5.61973 1.64813 5.80513C1.46272 5.99054 1.35756 6.24135 1.35528 6.50355C1.353 6.76575 1.45379 7.01835 1.63595 7.20695L7.29295 12.864C7.48048 13.0514 7.73479 13.1567 7.99995 13.1567C8.26512 13.1567 8.51942 13.0514 8.70695 12.864L14.364 7.20695C14.5514 7.01942 14.6567 6.76512 14.6567 6.49995C14.6567 6.23479 14.5514 5.98048 14.364 5.79295Z" fill="#616266"/>
</svg>
