<svg width="24" height="24" viewBox="0 0 24 24" fill="none" xmlns="http://www.w3.org/2000/svg">
<path d="M3 7.80957C3 6.15272 4.34315 4.80957 6 4.80957H18.0952C19.7521 4.80957 21.0952 6.15272 21.0952 7.80957V15.0276C21.0952 15.9965 20.6273 16.9057 19.839 17.4688L17.9286 18.8334L15.0391 20.6393C14.5623 20.9373 14.0114 21.0953 13.4491 21.0953H6C4.34315 21.0953 3 19.7521 3 18.0953V7.80957Z" fill="#1E2E4B"/>
<rect x="6.61914" y="3" width="1.80952" height="3.61905" rx="0.904762" fill="#1E2E4B"/>
<rect x="15.6665" y="3" width="1.80952" height="3.61905" rx="0.904762" fill="#1E2E4B"/>
<path d="M16.5645 12.994L16.5645 12.9941L15.4442 15.0038L13.275 15.4948L13.275 15.4948C13.092 15.5363 12.9249 15.6267 12.7898 15.7544L13.1307 16.1152L12.7897 15.7544C12.6547 15.882 12.5561 16.0423 12.5015 16.2182C12.4469 16.394 12.4375 16.5811 12.4739 16.7614C12.5103 16.9417 12.5917 17.1111 12.7123 17.2519L14.2009 18.9924L13.9752 21.3193C13.9752 21.3193 13.9752 21.3193 13.9752 21.3193C13.9752 21.3193 13.9752 21.3193 13.9752 21.3194C13.9574 21.5023 13.9857 21.6875 14.0583 21.857L14.5179 21.6602L14.0583 21.857C14.1309 22.0265 14.2459 22.1759 14.3943 22.2886C14.5428 22.4013 14.719 22.4728 14.9058 22.4937C15.0925 22.5145 15.2806 22.4837 15.4507 22.4053L17.4761 21.4724L19.5015 22.4053C19.6716 22.4837 19.8597 22.5145 20.0465 22.4937C20.2332 22.4728 20.4095 22.4013 20.558 22.2886C20.7063 22.1759 20.8214 22.0265 20.894 21.857C20.9665 21.6875 20.9948 21.5023 20.9771 21.3194C20.9771 21.3193 20.9771 21.3193 20.9771 21.3193L20.7514 18.9923L22.2401 17.2512L22.2403 17.2511C22.3606 17.1103 22.4418 16.941 22.4781 16.7608C22.5144 16.5806 22.505 16.3937 22.4504 16.218C22.3958 16.0422 22.2973 15.882 22.1623 15.7545C22.0273 15.6268 21.8604 15.5364 21.6775 15.4949L21.6772 15.4948L19.5081 15.0038L18.3877 12.9941L18.3877 12.994C18.2977 12.8327 18.1673 12.6962 18.0074 12.6001C17.8472 12.5039 17.664 12.4524 17.4761 12.4524C17.2883 12.4524 17.105 12.5039 16.9449 12.6001C16.7849 12.6962 16.6545 12.8327 16.5645 12.994Z" fill="#229CD3" stroke="white"/>
</svg>
