<svg width="16" height="16" viewBox="0 0 16 16" fill="none" xmlns="http://www.w3.org/2000/svg">
<path d="M8.29035 15.4949C6.36258 15.4949 4.43683 15.4909 2.50906 15.497C2.06466 15.497 1.67505 15.3724 1.34632 15.0783C1.03179 14.7965 0.855241 14.433 0.812627 14.0103C0.796393 13.8591 0.798421 13.7039 0.798421 13.5508C0.798421 9.84211 0.798421 6.13347 0.798421 2.42482C0.798421 2.27983 0.806537 2.13687 0.810596 1.99188C0.8248 1.44252 1.11701 1.0545 1.53097 0.740004C1.72781 0.590923 1.96117 0.550079 2.19859 0.533741C2.48471 0.513319 2.77287 0.499023 3.05899 0.499023C6.66697 0.499023 10.277 0.499023 13.8849 0.499023C14.2177 0.499023 14.5363 0.539868 14.8407 0.703244C15.3014 0.952393 15.5489 1.34858 15.6504 1.84279C15.693 2.04906 15.693 2.26553 15.693 2.47792C15.695 6.17023 15.695 9.86049 15.693 13.5528C15.693 13.7652 15.6686 13.9776 15.6504 14.1879C15.6037 14.7781 14.8549 15.5133 14.2461 15.4847C14.0534 15.4745 13.8586 15.4929 13.6638 15.4929C11.8719 15.4929 10.0801 15.4929 8.28832 15.4929L8.29035 15.4949ZM13.5988 8.20018C13.5806 7.37717 13.5765 6.55212 13.5359 5.72911C13.5014 5.01638 13.3452 4.34654 12.8744 3.76451C12.6593 3.50107 12.4077 3.28663 12.1439 3.11509C11.7867 2.88228 11.3586 2.76383 10.9263 2.72911C10.3805 2.68418 9.83257 2.6413 9.28468 2.63517C8.07728 2.62088 6.86786 2.60658 5.66452 2.7189C5.22418 2.75975 4.80007 2.87002 4.4206 3.111C4.11013 3.3091 3.79357 3.48677 3.5805 3.81557C3.34714 4.17499 3.14219 4.53646 3.06305 4.96328C2.96361 5.49222 2.92506 6.02319 2.92303 6.56029C2.92303 7.87751 2.86621 9.19678 2.97579 10.512C3.02652 11.1165 3.15436 11.7046 3.59876 12.1682C3.62108 12.1927 3.6292 12.2295 3.65152 12.254C3.75298 12.3642 3.85445 12.4766 3.96403 12.5807C4.03099 12.644 4.1081 12.6971 4.18116 12.7523C4.2603 12.8135 4.33537 12.883 4.42466 12.9279C5.03343 13.2383 5.69293 13.3322 6.36258 13.3465C7.17427 13.3649 7.98597 13.367 8.79563 13.3588C9.44498 13.3527 10.0964 13.322 10.7457 13.2996C11.2835 13.2812 11.7664 13.0913 12.2149 12.8033C12.3853 12.6951 12.57 12.595 12.706 12.4521C12.8663 12.2825 12.9901 12.0742 13.1118 11.8721C13.4081 11.3799 13.5136 10.8285 13.54 10.2628C13.5704 9.57459 13.5846 8.88636 13.6049 8.1961L13.5988 8.20018Z" fill="black"/>
<path d="M8.49965 12.3683C7.83204 12.3683 7.16441 12.3806 6.4968 12.3642C6.11124 12.354 5.72569 12.3071 5.34014 12.2417C4.7821 12.1478 4.05969 11.3942 4.00896 10.7856C3.97446 10.3629 3.90953 9.94015 3.90141 9.51537C3.88518 8.47793 3.88517 7.44049 3.89735 6.40101C3.90141 6.02933 3.94403 5.6556 3.99679 5.28596C4.11854 4.40986 4.80239 3.82374 5.63032 3.71142C6.05645 3.6522 6.48868 3.62565 6.91685 3.61748C7.72854 3.60319 8.54024 3.6134 9.35193 3.6134C9.93635 3.6134 10.5147 3.66854 11.093 3.75022C11.6916 3.836 12.4425 4.59161 12.4729 5.17773C12.4972 5.6699 12.5865 6.15798 12.5967 6.65016C12.617 7.56915 12.6149 8.48814 12.5967 9.40713C12.5865 9.88093 12.5581 10.3608 12.4709 10.8265C12.3511 11.4718 11.9412 11.919 11.3406 12.1641C11.1174 12.256 10.8678 12.3132 10.6283 12.3254C9.92012 12.3642 9.20989 12.3745 8.49965 12.3969C8.49965 12.3867 8.49965 12.3785 8.49965 12.3683ZM8.25614 10.7529C8.91159 10.7489 9.37831 10.5365 9.97896 10.1117C10.3605 9.84212 10.608 9.46023 10.7724 9.05179C10.9469 8.6168 11.0058 8.14505 10.953 7.65492C10.8617 6.79107 10.399 6.16411 9.73951 5.68215C9.28902 5.35131 8.7391 5.24103 8.177 5.25533C7.46474 5.27371 6.69566 5.6025 6.15589 6.24376C5.91035 6.53579 5.73178 6.85846 5.63235 7.22606C5.36855 8.18998 5.5248 9.05996 6.21474 9.80536C6.38722 9.9912 6.55971 10.1893 6.76872 10.3241C7.21515 10.6161 7.72043 10.755 8.25614 10.757V10.7529ZM11.7099 5.17364C11.7221 4.82034 11.4623 4.53852 11.1336 4.5038C10.815 4.47112 10.4782 4.74069 10.4457 5.16139C10.4274 5.39828 10.7318 5.77201 11.0423 5.77201C11.3873 5.77201 11.7566 5.49835 11.7099 5.17364Z" fill="black"/>
<path d="M9.99102 7.98382C10.0235 8.90894 9.25238 9.71765 8.34328 9.76666C7.30634 9.8218 6.52915 8.98858 6.49465 8.10022C6.4561 7.03828 7.17039 6.29287 8.17891 6.23977C9.18744 6.18668 9.98493 6.99743 9.98899 7.98382H9.99102Z" fill="black"/>
</svg>
