<svg width="325" height="14" viewBox="0 0 325 14" fill="none" xmlns="http://www.w3.org/2000/svg">
<path d="M0 10.3914V0.343018H6.33881V1.32648H1.13956V4.80422H6.03967V5.78768H1.13956V9.40797H6.33881V10.3914H0Z" fill="#192F4D"/>
<path d="M7.26465 10.3913L10.142 6.81383L7.43558 3.46436H8.80306L10.8115 6.01565L12.8327 3.46436H14.1859L11.4794 6.81383L14.3584 10.3913H12.9909L10.7973 7.6405L8.63212 10.3913H7.26465Z" fill="#192F4D"/>
<path d="M15.6265 12.957V3.46451H16.7518V4.70453C16.9548 4.28334 17.2799 3.93316 17.6848 3.69969C18.1252 3.45032 18.6247 3.32473 19.1306 3.33623C19.7 3.32319 20.2612 3.47408 20.7474 3.77095C21.217 4.07087 21.5884 4.50199 21.8157 5.01097C22.319 6.23445 22.319 7.60731 21.8157 8.83079C21.5864 9.33976 21.2152 9.7717 20.7466 10.0748C20.2622 10.3765 19.7003 10.5301 19.1298 10.5166C18.632 10.5252 18.1406 10.4023 17.7054 10.1603C17.3014 9.93755 16.9776 9.59356 16.7795 9.17682V12.9539L15.6265 12.957ZM18.8885 9.59332C19.1828 9.60423 19.4758 9.54761 19.7449 9.42779C20.014 9.30798 20.2521 9.12814 20.4411 8.90205C20.8231 8.31257 21.0264 7.62503 21.0264 6.92246C21.0264 6.21989 20.8231 5.53235 20.4411 4.94287C20.2439 4.72731 20.004 4.55518 19.7367 4.43742C19.4694 4.31966 19.1805 4.25884 18.8885 4.25884C18.5964 4.25884 18.3075 4.31966 18.0402 4.43742C17.7729 4.55518 17.533 4.72731 17.3358 4.94287C16.9538 5.53235 16.7505 6.21989 16.7505 6.92246C16.7505 7.62503 16.9538 8.31257 17.3358 8.90205C17.5248 9.12814 17.7629 9.30798 18.032 9.42779C18.3012 9.54761 18.5941 9.60423 18.8885 9.59332Z" fill="#192F4D"/>
<path d="M27.0503 10.5197C26.5754 10.5446 26.1005 10.4722 25.6547 10.3067C25.2088 10.1413 24.8015 9.88635 24.4578 9.55761C24.131 9.20883 23.878 8.79759 23.714 8.34856C23.55 7.89953 23.4784 7.42198 23.5034 6.94456C23.4897 6.28959 23.6364 5.64122 23.9307 5.05603C24.1959 4.53174 24.6031 4.09269 25.1059 3.78909C25.631 3.4809 26.2311 3.32413 26.8398 3.33615C27.2518 3.31441 27.6635 3.38431 28.0452 3.5408C28.427 3.6973 28.7694 3.93651 29.0477 4.24123C29.6128 4.94251 29.8971 5.82901 29.8454 6.72838V7.17023H24.6287C24.6183 7.83637 24.8626 8.48133 25.3117 8.97324C25.5455 9.18809 25.8201 9.3537 26.1192 9.46021C26.4183 9.56672 26.7357 9.61196 27.0527 9.59325C27.4591 9.59505 27.863 9.53005 28.2484 9.40083C28.6471 9.26177 29.015 9.04663 29.3318 8.76736L29.7275 9.57979C29.3824 9.8929 28.9744 10.1286 28.5309 10.2711C28.0546 10.4356 27.5542 10.5196 27.0503 10.5197ZM26.8651 4.19134C26.5775 4.1767 26.29 4.22382 26.0221 4.32953C25.7541 4.43524 25.5119 4.5971 25.3117 4.80422C24.9157 5.25155 24.6803 5.8184 24.643 6.41481H28.8451C28.8551 5.82162 28.6612 5.24299 28.2959 4.77571C28.1162 4.57746 27.8944 4.42205 27.6468 4.32092C27.3992 4.21978 27.1321 4.1755 26.8651 4.19134Z" fill="#192F4D"/>
<path d="M31.5088 10.3913V3.46434H32.6341V4.70436C32.8404 4.27865 33.1653 3.92167 33.5697 3.67638C33.974 3.4311 34.4406 3.30797 34.9132 3.32181L35.3263 3.27905L35.4118 4.27677L34.6853 4.36229C34.1275 4.37759 33.5949 4.59836 33.1896 4.98229C33.0124 5.18014 32.8759 5.41101 32.7879 5.66169C32.6999 5.91237 32.6622 6.17795 32.6768 6.44323V10.3913H31.5088Z" fill="#192F4D"/>
<path d="M36.4658 1.7399V0.442871H37.8903V1.7399H36.4658ZM36.6083 10.3915V3.46452H37.7605V10.3915H36.6083Z" fill="#192F4D"/>
<path d="M43.0328 10.5196C42.5579 10.5447 42.083 10.4722 41.6371 10.3068C41.1913 10.1413 40.784 9.88635 40.4403 9.55754C40.1133 9.20886 39.8603 8.79764 39.6963 8.34858C39.5322 7.89952 39.4607 7.42192 39.4859 6.94448C39.4722 6.28951 39.6189 5.64114 39.9132 5.05595C40.1781 4.53172 40.5851 4.09267 41.0876 3.78901C41.6124 3.48267 42.2116 3.3273 42.8191 3.34004C43.2311 3.31836 43.6428 3.38827 44.0245 3.54477C44.4063 3.70126 44.7486 3.94043 45.027 4.24511C45.5915 4.94668 45.8755 5.83304 45.8239 6.73227V7.17411H40.6096C40.5995 7.84036 40.844 8.48533 41.2934 8.97712C41.5271 9.19205 41.8018 9.35771 42.1009 9.46423C42.4 9.57074 42.7174 9.61594 43.0344 9.59713C43.4408 9.59888 43.8447 9.53387 44.2301 9.40471C44.6286 9.26579 44.9963 9.05064 45.3127 8.77125L45.7084 9.58367C45.3635 9.89661 44.9558 10.1323 44.5126 10.2749C44.0363 10.438 43.5362 10.5207 43.0328 10.5196ZM42.8476 4.19126C42.5599 4.17663 42.2725 4.22375 42.0046 4.32946C41.7366 4.43516 41.4944 4.59702 41.2941 4.80415C40.8981 5.25147 40.6628 5.81832 40.6254 6.41474H44.8276C44.8372 5.82161 44.6434 5.2431 44.2784 4.77564C44.0986 4.57752 43.8768 4.4222 43.6292 4.32108C43.3816 4.21995 43.1146 4.1756 42.8476 4.19126Z" fill="#192F4D"/>
<path d="M47.4902 10.3915V3.46454H48.6156V4.64755C48.8271 4.22524 49.166 3.88012 49.5842 3.66092C50.0206 3.43836 50.5047 3.32583 50.9944 3.33309C52.6373 3.33309 53.4587 4.24529 53.4587 6.06968V10.3915H52.3049V6.14412C52.3465 5.64196 52.2131 5.14088 51.9274 4.72594C51.773 4.56588 51.5848 4.44246 51.3765 4.36477C51.1682 4.28707 50.9451 4.25707 50.7237 4.27697C50.4435 4.26329 50.1636 4.3089 49.9022 4.41082C49.6408 4.51274 49.4038 4.66869 49.2067 4.86847C48.8182 5.29826 48.6159 5.86462 48.644 6.44343V10.3915H47.4902Z" fill="#192F4D"/>
<path d="M58.5154 10.5197C57.8875 10.5364 57.2669 10.3811 56.7206 10.0707C56.2174 9.77206 55.8135 9.33131 55.5597 8.80379C55.2776 8.20494 55.1386 7.54862 55.1537 6.88675C55.1 5.93543 55.4223 5.00113 56.0511 4.28557C56.3719 3.9625 56.7572 3.71086 57.1819 3.54711C57.6065 3.38337 58.061 3.31121 58.5154 3.33536C58.9476 3.33689 59.3761 3.41407 59.7816 3.56341C60.1712 3.69791 60.5263 3.91693 60.8215 4.2048L60.4258 5.04573C59.9336 4.56442 59.2764 4.28914 58.5882 4.27607C58.2775 4.25708 57.9665 4.30804 57.6781 4.42521C57.3897 4.54237 57.1312 4.72276 56.9216 4.95309C56.4983 5.50963 56.2908 6.20079 56.3376 6.89863C56.2987 7.59997 56.5052 8.29297 56.9216 8.85843C57.1242 9.09998 57.3804 9.29084 57.6698 9.4158C57.9591 9.54076 58.2736 9.59638 58.5882 9.57821C58.9084 9.57375 59.225 9.51123 59.5228 9.39371C59.8638 9.26144 60.1723 9.05727 60.4274 8.79508L60.8231 9.63601C60.5255 9.92596 60.1681 10.1473 59.7761 10.2845C59.3733 10.4376 58.9463 10.5173 58.5154 10.5197Z" fill="#192F4D"/>
<path d="M65.1538 10.5197C64.679 10.5446 64.204 10.4721 63.7582 10.3066C63.3124 10.1412 62.9051 9.88629 62.5613 9.5576C62.2345 9.20882 61.9816 8.79757 61.8175 8.34854C61.6535 7.89951 61.5819 7.42196 61.6069 6.94454C61.5936 6.28961 61.7403 5.64133 62.0343 5.05601C62.2994 4.53172 62.7066 4.09267 63.2094 3.78907C63.734 3.48283 64.3329 3.32746 64.9401 3.3401C65.3521 3.31824 65.7639 3.38808 66.1456 3.54459C66.5274 3.70109 66.8698 3.94036 67.148 4.24516C67.7132 4.94644 67.9975 5.83295 67.9457 6.73232V7.17417H62.7322C62.7221 7.84042 62.9666 8.48538 63.416 8.97718C63.6497 9.19218 63.9243 9.35789 64.2234 9.46441C64.5225 9.57093 64.84 9.61609 65.157 9.59719C65.5636 9.59894 65.9679 9.53393 66.3535 9.40477C66.752 9.26585 67.1197 9.0507 67.4361 8.77131L67.8318 9.58373C67.4867 9.89684 67.0788 10.1325 66.6352 10.275C66.1584 10.4384 65.6578 10.5211 65.1538 10.5197ZM64.9686 4.19132C64.6811 4.17669 64.3938 4.22382 64.126 4.32954C63.8582 4.43525 63.6161 4.5971 63.416 4.8042C63.0197 5.25142 62.784 5.81828 62.7465 6.41479H66.9486C66.9585 5.82176 66.7649 5.24326 66.4002 4.77569C66.2203 4.57751 65.9984 4.42216 65.7506 4.32104C65.5029 4.21992 65.2357 4.17559 64.9686 4.19132Z" fill="#192F4D"/>
<path d="M75.4526 10.5197C75.0118 10.5272 74.5754 10.4321 74.1777 10.2417C73.8189 10.0705 73.5118 9.80745 73.2874 9.47919C73.0702 9.16007 72.9559 8.78205 72.9598 8.39596C72.9376 7.96144 73.0788 7.53434 73.3555 7.1987C73.7101 6.85627 74.1638 6.63458 74.6517 6.56523C75.4671 6.41902 76.295 6.35456 77.1231 6.37282H77.579V5.93097C77.6203 5.47538 77.4908 5.02071 77.2157 4.65532C77.0601 4.51281 76.8765 4.40434 76.6766 4.33685C76.4767 4.26937 76.2649 4.24433 76.0548 4.26336C75.6446 4.26223 75.2365 4.32228 74.844 4.44153C74.4201 4.57689 74.0173 4.77121 73.6475 5.01877L73.2518 4.17784C73.654 3.90184 74.0993 3.69472 74.5694 3.56496C75.0523 3.41856 75.5535 3.34178 76.058 3.33692C76.4162 3.30788 76.7765 3.35094 77.1178 3.46355C77.4591 3.57615 77.7744 3.75603 78.0451 3.99255C78.5222 4.55932 78.7553 5.29228 78.6932 6.03074V10.3914H77.6035V9.19413C77.4303 9.59425 77.1397 9.93226 76.7702 10.1633C76.3744 10.4066 75.9169 10.5303 75.4526 10.5197ZM75.6378 9.64864C75.8994 9.65712 76.1597 9.60862 76.4007 9.50648C76.6418 9.40435 76.8577 9.25104 77.0337 9.05714C77.4018 8.64458 77.5958 8.10533 77.575 7.55265V7.12506H77.1334C76.5262 7.11471 75.9191 7.15045 75.3173 7.23196C74.9784 7.25951 74.6557 7.38865 74.3914 7.60254C74.301 7.69838 74.231 7.81161 74.1857 7.93535C74.1404 8.05908 74.1207 8.19074 74.1278 8.32232C74.1221 8.50145 74.1555 8.67966 74.2256 8.84458C74.2957 9.0095 74.4009 9.15716 74.5338 9.27727C74.8406 9.53817 75.2357 9.67163 75.6378 9.65023V9.64864Z" fill="#192F4D"/>
<path d="M87.4178 10.5197C86.7898 10.5365 86.1692 10.3812 85.623 10.0707C85.1197 9.77206 84.7159 9.33131 84.462 8.80379C84.1799 8.20494 84.0409 7.54862 84.0561 6.88675C84.0023 5.93543 84.3247 5.00113 84.9535 4.28557C85.2742 3.9625 85.6595 3.71086 86.0842 3.54711C86.5089 3.38337 86.9633 3.31121 87.4178 3.33536C87.8499 3.33689 88.2784 3.41407 88.684 3.56341C89.0736 3.69791 89.4287 3.91693 89.7238 4.2048L89.3281 5.04573C88.8359 4.56442 88.1787 4.28914 87.4906 4.27607C87.1799 4.25708 86.8689 4.30804 86.5804 4.42521C86.292 4.54237 86.0335 4.72276 85.824 4.95309C85.4006 5.50963 85.1932 6.20079 85.24 6.89863C85.201 7.59997 85.4075 8.29297 85.824 8.85843C86.0266 9.09998 86.2827 9.29084 86.5721 9.4158C86.8614 9.54076 87.176 9.59638 87.4906 9.57821C87.8102 9.57323 88.1263 9.51046 88.4236 9.39292C88.7645 9.26045 89.0729 9.05631 89.3281 8.79429L89.7238 9.63522C89.4261 9.92493 89.0688 10.1462 88.6768 10.2837C88.2746 10.4369 87.8482 10.5169 87.4178 10.5197Z" fill="#192F4D"/>
<path d="M93.2012 10.5197C92.907 10.5414 92.6117 10.4969 92.3369 10.3897C92.0621 10.2824 91.8147 10.115 91.6129 9.89969C91.2235 9.38273 91.0338 8.74246 91.0787 8.09668V0.343018H92.2325V8.01117C92.2325 9.02788 92.6361 9.53624 93.4433 9.53624C93.66 9.53901 93.8759 9.5102 94.0843 9.45072L94.0558 10.4199C93.7755 10.4848 93.4889 10.5183 93.2012 10.5197Z" fill="#192F4D"/>
<path d="M98.1004 10.5198C97.4872 10.5359 96.8814 10.3831 96.3492 10.0779C95.8542 9.782 95.4556 9.34879 95.2017 8.83079C94.9348 8.23198 94.7969 7.58366 94.7969 6.928C94.7969 6.27235 94.9348 5.62403 95.2017 5.02522C95.4558 4.50737 95.8543 4.07422 96.3492 3.77808C96.8864 3.48804 97.4872 3.33618 98.0977 3.33618C98.7081 3.33618 99.309 3.48804 99.8462 3.77808C100.344 4.07255 100.745 4.50599 101 5.02522C101.268 5.62384 101.406 6.27223 101.406 6.928C101.406 7.58378 101.268 8.23217 101 8.83079C100.745 9.35018 100.344 9.78368 99.8462 10.0779C99.3152 10.3812 98.7117 10.534 98.1004 10.5198ZM98.1004 9.59332C98.3948 9.60423 98.6877 9.54761 98.9569 9.42779C99.226 9.30798 99.4641 9.12814 99.6531 8.90206C100.036 8.31275 100.239 7.62514 100.239 6.92246C100.239 6.21979 100.036 5.53218 99.6531 4.94287C99.4552 4.72726 99.2148 4.55512 98.947 4.43737C98.6792 4.31961 98.3898 4.25881 98.0973 4.25881C97.8047 4.25881 97.5154 4.31961 97.2476 4.43737C96.9798 4.55512 96.7393 4.72726 96.5415 4.94287C96.1639 5.53403 95.9633 6.22093 95.9633 6.92246C95.9633 7.624 96.1639 8.3109 96.5415 8.90206C96.7308 9.12938 96.9699 9.30999 97.2403 9.42988C97.5106 9.54976 97.805 9.60569 98.1004 9.59332Z" fill="#192F4D"/>
<path d="M105.594 10.5196C103.932 10.5196 103.101 9.60268 103.101 7.76878V3.46436H104.255V7.75453C104.215 8.24124 104.348 8.72651 104.631 9.12441C104.784 9.2814 104.969 9.40248 105.175 9.47889C105.38 9.55531 105.6 9.58514 105.818 9.56625C106.086 9.57575 106.353 9.5279 106.601 9.4259C106.849 9.3239 107.073 9.17009 107.257 8.97475C107.64 8.54265 107.839 7.97712 107.81 7.39979V3.46436H108.964V10.3913H107.839V9.22259C107.634 9.62672 107.314 9.96137 106.92 10.1847C106.515 10.4103 106.058 10.5258 105.594 10.5196Z" fill="#192F4D"/>
<path d="M113.77 10.5197C113.198 10.5332 112.634 10.3785 112.149 10.0747C111.68 9.77062 111.309 9.33753 111.081 8.82755C110.578 7.60407 110.578 6.2312 111.081 5.00772C111.308 4.49886 111.679 4.06775 112.149 3.76771C112.635 3.47074 113.197 3.31985 113.766 3.33299C114.266 3.32272 114.76 3.4457 115.197 3.68932C115.598 3.91352 115.919 4.2573 116.116 4.67278V0.343018H117.27V10.3914H116.145V9.12449C115.952 9.55615 115.628 9.91619 115.219 10.1539C114.778 10.4047 114.277 10.5311 113.77 10.5197ZM114.008 9.59325C114.302 9.60416 114.595 9.54754 114.864 9.42772C115.133 9.3079 115.371 9.12807 115.56 8.90198C115.943 8.31268 116.146 7.62507 116.146 6.92239C116.146 6.21971 115.943 5.5321 115.56 4.9428C115.362 4.72719 115.122 4.55505 114.854 4.43729C114.586 4.31954 114.297 4.25873 114.004 4.25873C113.712 4.25873 113.422 4.31954 113.155 4.43729C112.887 4.55505 112.646 4.72719 112.449 4.9428C112.071 5.53396 111.87 6.22085 111.87 6.92239C111.87 7.62393 112.071 8.31082 112.449 8.90198C112.638 9.12985 112.878 9.31079 113.149 9.4307C113.42 9.55061 113.715 9.60623 114.011 9.59325H114.008Z" fill="#192F4D"/>
<path d="M119.382 7.07043V6.11548H123.371V7.07043H119.382Z" fill="#192F4D"/>
<path d="M128.982 10.5197C128.476 10.5311 127.976 10.4029 127.537 10.1491C127.133 9.91211 126.808 9.55978 126.604 9.13716V10.3914H125.479V0.343018H126.63V4.66169C126.832 4.25075 127.155 3.9122 127.556 3.69249C127.991 3.45024 128.483 3.32731 128.981 3.33616C129.55 3.32312 130.111 3.47401 130.598 3.77088C131.067 4.0708 131.439 4.50192 131.666 5.0109C132.169 6.23438 132.169 7.60723 131.666 8.83071C131.438 9.34092 131.067 9.77407 130.598 10.0779C130.114 10.3793 129.552 10.5329 128.982 10.5197ZM128.745 9.59325C129.039 9.60398 129.332 9.54728 129.601 9.42747C129.87 9.30767 130.109 9.12793 130.298 8.90198C130.679 8.31232 130.882 7.62485 130.882 6.92239C130.882 6.21993 130.679 5.53246 130.298 4.9428C130.1 4.72722 129.86 4.55507 129.593 4.4373C129.326 4.31953 129.037 4.25872 128.745 4.25872C128.452 4.25872 128.163 4.31953 127.896 4.4373C127.629 4.55507 127.389 4.72722 127.192 4.9428C126.81 5.53246 126.607 6.21993 126.607 6.92239C126.607 7.62485 126.81 8.31232 127.192 8.90198C127.38 9.12759 127.618 9.30713 127.886 9.42693C128.155 9.54672 128.447 9.60361 128.741 9.59325H128.745Z" fill="#192F4D"/>
<path d="M135.962 10.5197C135.522 10.5272 135.085 10.4321 134.687 10.2417C134.329 10.0705 134.022 9.80745 133.797 9.47919C133.58 9.16007 133.466 8.78205 133.47 8.39596C133.447 7.96144 133.589 7.53434 133.865 7.1987C134.22 6.85627 134.674 6.63458 135.161 6.56523C135.977 6.41902 136.805 6.35456 137.633 6.37282H138.089V5.93097C138.13 5.47538 138.001 5.02071 137.725 4.65532C137.57 4.51281 137.386 4.40434 137.186 4.33685C136.986 4.26937 136.775 4.24433 136.565 4.26336C136.154 4.26223 135.746 4.32228 135.354 4.44153C134.93 4.57689 134.527 4.77121 134.157 5.01877L133.762 4.17784C134.164 3.90184 134.609 3.69472 135.079 3.56496C135.562 3.41856 136.063 3.34178 136.568 3.33692C136.926 3.30788 137.286 3.35094 137.628 3.46355C137.969 3.57615 138.284 3.75603 138.555 3.99255C139.032 4.55932 139.265 5.29228 139.203 6.03074V10.3914H138.113V9.19413C137.94 9.59425 137.649 9.93226 137.28 10.1633C136.884 10.4066 136.427 10.5303 135.962 10.5197ZM136.148 9.64864C136.409 9.65712 136.669 9.60862 136.911 9.50648C137.152 9.40435 137.368 9.25104 137.543 9.05714C137.912 8.64458 138.106 8.10533 138.085 7.55265V7.12506H137.643C137.036 7.11471 136.429 7.15045 135.827 7.23196C135.488 7.25951 135.165 7.38865 134.901 7.60254C134.811 7.69838 134.741 7.81161 134.695 7.93535C134.65 8.05908 134.63 8.19074 134.638 8.32232C134.632 8.50145 134.665 8.67966 134.735 8.84458C134.805 9.0095 134.911 9.15716 135.044 9.27727C135.35 9.53817 135.745 9.67163 136.148 9.65023V9.64864Z" fill="#192F4D"/>
<path d="M143.669 10.5197C143.147 10.5223 142.628 10.4454 142.13 10.2917C141.691 10.1644 141.283 9.94583 140.934 9.65031L141.304 8.83788C141.639 9.11005 142.024 9.31564 142.436 9.44364C142.844 9.57116 143.27 9.63603 143.697 9.63605C144.126 9.66544 144.554 9.56087 144.922 9.33674C145.053 9.24682 145.16 9.12529 145.232 8.98333C145.304 8.84137 145.34 8.68352 145.335 8.52431C145.34 8.4052 145.318 8.28648 145.272 8.17686C145.225 8.06724 145.154 7.96951 145.065 7.89085C144.813 7.70246 144.52 7.57776 144.21 7.5274L142.914 7.24233C141.736 6.98578 141.147 6.3787 141.147 5.42111C141.14 5.12741 141.204 4.8363 141.334 4.57303C141.465 4.30975 141.657 4.08227 141.895 3.91029C142.467 3.50783 143.156 3.30724 143.854 3.34016C144.316 3.33816 144.776 3.41281 145.214 3.56108C145.618 3.69148 145.986 3.91342 146.29 4.2096L145.905 5.02202C145.626 4.76354 145.3 4.56254 144.943 4.43052C144.596 4.2961 144.226 4.22607 143.854 4.22385C143.427 4.19555 143.002 4.3067 142.643 4.54059C142.512 4.63425 142.406 4.75854 142.334 4.90262C142.262 5.04671 142.226 5.20622 142.23 5.36726C142.23 5.89938 142.581 6.24251 143.284 6.39665L144.58 6.66746C145.088 6.75324 145.565 6.97176 145.962 7.30093C146.12 7.4517 146.244 7.63475 146.325 7.83765C146.406 8.04055 146.443 8.25853 146.432 8.47681C146.442 8.77074 146.378 9.06248 146.246 9.32531C146.114 9.58814 145.919 9.81369 145.677 9.9813C145.082 10.3698 144.378 10.5584 143.669 10.5197Z" fill="#192F4D"/>
<path d="M151.304 10.5197C150.829 10.5446 150.354 10.4721 149.908 10.3066C149.462 10.1412 149.055 9.88629 148.711 9.5576C148.384 9.20882 148.131 8.79757 147.967 8.34854C147.803 7.89951 147.732 7.42196 147.757 6.94454C147.744 6.28961 147.89 5.64133 148.184 5.05601C148.449 4.53172 148.857 4.09267 149.359 3.78907C149.884 3.48283 150.483 3.32746 151.09 3.3401C151.502 3.31824 151.914 3.38808 152.296 3.54459C152.677 3.70109 153.02 3.94036 153.298 4.24516C153.863 4.94644 154.147 5.83295 154.096 6.73232V7.17417H148.882C148.872 7.84042 149.117 8.48538 149.566 8.97718C149.8 9.19218 150.074 9.35789 150.373 9.46441C150.672 9.57093 150.99 9.61609 151.307 9.59719C151.714 9.59894 152.118 9.53393 152.503 9.40477C152.902 9.26585 153.27 9.0507 153.586 8.77131L153.982 9.58373C153.637 9.89684 153.229 10.1325 152.785 10.275C152.308 10.4384 151.808 10.5211 151.304 10.5197ZM151.119 4.19132C150.831 4.17669 150.544 4.22382 150.276 4.32954C150.008 4.43525 149.766 4.5971 149.566 4.8042C149.17 5.25142 148.934 5.81828 148.896 6.41479H153.099C153.108 5.82176 152.915 5.24326 152.55 4.77569C152.37 4.57751 152.148 4.42216 151.901 4.32104C151.653 4.21992 151.386 4.17559 151.119 4.19132Z" fill="#192F4D"/>
<path d="M158.397 10.5197C157.827 10.5321 157.265 10.3774 156.781 10.0747C156.312 9.77066 155.941 9.33758 155.713 8.82755C155.21 7.60407 155.21 6.2312 155.713 5.00772C155.94 4.49875 156.312 4.06763 156.781 3.76771C157.267 3.47085 157.829 3.31995 158.398 3.33299C158.898 3.32266 159.392 3.44564 159.83 3.68932C160.23 3.91393 160.551 4.2576 160.748 4.67278V0.343018H161.902V10.3914H160.777V9.12449C160.584 9.55632 160.26 9.91645 159.851 10.1539C159.409 10.4056 158.906 10.5321 158.397 10.5197ZM158.639 9.59325C158.934 9.60416 159.227 9.54754 159.496 9.42772C159.765 9.3079 160.003 9.12807 160.192 8.90198C160.574 8.3125 160.777 7.62496 160.777 6.92239C160.777 6.21982 160.574 5.53228 160.192 4.9428C159.994 4.72717 159.754 4.55501 159.486 4.43725C159.218 4.31949 158.928 4.25868 158.636 4.25868C158.343 4.25868 158.054 4.31949 157.786 4.43725C157.518 4.55501 157.278 4.72717 157.08 4.9428C156.702 5.53396 156.501 6.22085 156.501 6.92239C156.501 7.62393 156.702 8.31082 157.08 8.90198C157.269 9.12932 157.508 9.30994 157.779 9.42982C158.049 9.5497 158.344 9.60562 158.639 9.59325Z" fill="#192F4D"/>
<path d="M167.883 10.3914V0.343018H169.052V4.78997H175.077V0.343018H176.249V10.3914H175.08V5.79877H169.055V10.3914H167.883Z" fill="#192F4D"/>
<path d="M181.444 10.5198C180.831 10.5358 180.225 10.383 179.692 10.0779C179.198 9.78196 178.799 9.34874 178.546 8.83079C178.278 8.23217 178.14 7.58378 178.14 6.928C178.14 6.27223 178.278 5.62384 178.546 5.02522C178.799 4.50742 179.198 4.07427 179.692 3.77808C180.229 3.48804 180.83 3.33618 181.441 3.33618C182.051 3.33618 182.652 3.48804 183.189 3.77808C183.687 4.07233 184.088 4.50583 184.343 5.02522C184.611 5.62369 184.75 6.27214 184.75 6.928C184.75 7.58387 184.611 8.23232 184.343 8.83079C184.088 9.34917 183.687 9.78158 183.189 10.0748C182.659 10.3792 182.056 10.5331 181.444 10.5198ZM181.444 9.59332C181.739 9.60423 182.032 9.54761 182.301 9.42779C182.57 9.30798 182.808 9.12814 182.997 8.90206C183.379 8.31257 183.582 7.62503 183.582 6.92246C183.582 6.2199 183.379 5.53235 182.997 4.94287C182.799 4.72724 182.559 4.55509 182.291 4.43732C182.023 4.31956 181.733 4.25876 181.441 4.25876C181.148 4.25876 180.859 4.31956 180.591 4.43732C180.323 4.55509 180.082 4.72724 179.885 4.94287C179.508 5.5342 179.307 6.22103 179.307 6.92246C179.307 7.6239 179.508 8.31073 179.885 8.90206C180.074 9.1294 180.313 9.31001 180.584 9.42989C180.854 9.54977 181.149 9.60569 181.444 9.59332Z" fill="#192F4D"/>
<path d="M188.823 10.5197C188.301 10.5223 187.783 10.4454 187.284 10.2917C186.845 10.1644 186.437 9.94583 186.088 9.65031L186.458 8.83788C186.794 9.11005 187.178 9.31564 187.591 9.44364C187.999 9.57116 188.424 9.63603 188.851 9.63605C189.281 9.66533 189.709 9.56077 190.076 9.33674C190.208 9.24682 190.314 9.12529 190.387 8.98333C190.459 8.84137 190.494 8.68352 190.489 8.52431C190.494 8.4052 190.473 8.28648 190.426 8.17686C190.379 8.06724 190.308 7.96951 190.219 7.89085C189.967 7.70246 189.674 7.57776 189.364 7.5274L188.068 7.24233C186.89 6.98578 186.302 6.3787 186.302 5.42111C186.294 5.12741 186.358 4.8363 186.488 4.57303C186.619 4.30975 186.811 4.08227 187.049 3.91029C187.621 3.50783 188.31 3.30724 189.008 3.34016C189.471 3.33816 189.93 3.41281 190.368 3.56108C190.772 3.69148 191.14 3.91342 191.444 4.2096L191.059 5.02202C190.781 4.76371 190.454 4.56273 190.098 4.43052C189.75 4.29617 189.381 4.22614 189.008 4.22385C188.581 4.19555 188.156 4.3067 187.797 4.54059C187.666 4.63425 187.56 4.75854 187.488 4.90262C187.416 5.04671 187.38 5.20622 187.384 5.36726C187.384 5.89938 187.736 6.24251 188.438 6.39665L189.734 6.66746C190.243 6.75324 190.719 6.97176 191.116 7.30093C191.274 7.4517 191.398 7.63475 191.479 7.83765C191.56 8.04055 191.597 8.25853 191.586 8.47681C191.596 8.77074 191.532 9.06248 191.4 9.32531C191.269 9.58814 191.073 9.81369 190.831 9.9813C190.236 10.3697 189.532 10.5583 188.823 10.5197Z" fill="#192F4D"/>
<path d="M193.338 12.957V3.4645H194.464V4.70451C194.666 4.28316 194.992 3.93292 195.397 3.69968C195.837 3.45031 196.337 3.32472 196.843 3.33622C197.412 3.32327 197.973 3.47416 198.459 3.77094C198.929 4.07098 199.3 4.50209 199.527 5.01096C200.031 6.23422 200.031 7.60752 199.527 8.83077C199.299 9.34092 198.928 9.77408 198.459 10.0779C197.975 10.3797 197.413 10.5333 196.843 10.5198C196.345 10.5285 195.853 10.4055 195.418 10.1634C195.014 9.94071 194.69 9.59672 194.492 9.17998V12.957H193.338ZM196.6 9.59331C196.895 9.60422 197.188 9.5476 197.457 9.42778C197.726 9.30797 197.964 9.12813 198.153 8.90204C198.535 8.31238 198.738 7.62491 198.738 6.92245C198.738 6.21999 198.535 5.53252 198.153 4.94286C197.956 4.72728 197.716 4.55514 197.448 4.43737C197.181 4.3196 196.892 4.25878 196.6 4.25878C196.308 4.25878 196.019 4.3196 195.752 4.43737C195.484 4.55514 195.244 4.72728 195.047 4.94286C194.665 5.53252 194.462 6.21999 194.462 6.92245C194.462 7.62491 194.665 8.31238 195.047 8.90204C195.236 9.12815 195.474 9.30798 195.744 9.42779C196.013 9.54761 196.306 9.60422 196.6 9.59331Z" fill="#192F4D"/>
<path d="M201.5 1.7399V0.442871H202.925V1.7399H201.5ZM201.643 10.3915V3.46452H202.797V10.3915H201.643Z" fill="#192F4D"/>
<path d="M207.725 10.5198C207.391 10.5457 207.055 10.5014 206.738 10.3897C206.422 10.2781 206.132 10.1015 205.888 9.87128C205.448 9.34979 205.229 8.67764 205.275 7.997V4.36247H203.921V3.46453H205.275V1.34082H206.429V3.46453H208.623V4.36247H206.429V7.88298C206.399 8.32099 206.519 8.75623 206.771 9.11587C206.912 9.26554 207.085 9.38119 207.277 9.45405C207.468 9.5269 207.675 9.55504 207.879 9.53633C208.032 9.53611 208.185 9.51696 208.334 9.47932C208.487 9.44131 208.624 9.40014 208.748 9.3653L208.947 10.249C208.775 10.3325 208.593 10.3947 208.406 10.4343C208.183 10.4893 207.955 10.518 207.725 10.5198Z" fill="#192F4D"/>
<path d="M212.113 10.5198C211.672 10.5274 211.235 10.4322 210.837 10.2418C210.479 10.0704 210.171 9.80738 209.947 9.4793C209.73 9.16018 209.615 8.78216 209.619 8.39607C209.596 7.96207 209.736 7.53503 210.011 7.19882C210.366 6.85656 210.819 6.6349 211.307 6.56534C212.123 6.41914 212.95 6.35468 213.779 6.37293H214.234V5.93108C214.276 5.4755 214.146 5.02082 213.871 4.65543C213.716 4.5129 213.532 4.40441 213.332 4.33692C213.133 4.26943 212.921 4.24441 212.711 4.26348C212.301 4.26235 211.892 4.3224 211.499 4.44164C211.076 4.57681 210.673 4.77114 210.304 5.01888L209.908 4.17796C210.31 3.9018 210.755 3.69467 211.226 3.56507C211.708 3.41858 212.21 3.34179 212.714 3.33703C213.072 3.30779 213.433 3.35074 213.774 3.46336C214.115 3.57598 214.43 3.75597 214.701 3.99267C215.178 4.55931 215.411 5.29229 215.349 6.03085V10.3915H214.267V9.19424C214.093 9.59404 213.803 9.93192 213.434 10.1634C213.037 10.4071 212.578 10.5309 212.113 10.5198ZM212.297 9.64875C212.559 9.65724 212.819 9.60874 213.061 9.50662C213.302 9.40449 213.518 9.25117 213.694 9.05726C214.061 8.64436 214.255 8.10527 214.234 7.55277V7.12517H213.794C213.186 7.11477 212.579 7.1505 211.977 7.23207C211.638 7.25966 211.315 7.38879 211.051 7.60265C210.961 7.69856 210.891 7.81182 210.846 7.93555C210.8 8.05928 210.781 8.19091 210.788 8.32243C210.782 8.50156 210.816 8.67978 210.886 8.8447C210.956 9.00961 211.061 9.15727 211.194 9.27739C211.5 9.53838 211.895 9.67186 212.297 9.65034V9.64875Z" fill="#192F4D"/>
<path d="M219.605 10.5197C219.311 10.5414 219.016 10.4969 218.741 10.3897C218.466 10.2824 218.219 10.115 218.017 9.89969C217.627 9.3829 217.437 8.7425 217.483 8.09668V0.343018H218.636V8.01117C218.636 9.02788 219.04 9.53624 219.846 9.53624C220.063 9.53901 220.28 9.5102 220.488 9.45072L220.46 10.4199C220.179 10.4848 219.893 10.5182 219.605 10.5197Z" fill="#192F4D"/>
<path d="M221.556 1.7399V0.442871H222.981V1.7399H221.556ZM221.699 10.3915V3.46452H222.852V10.3915H221.699Z" fill="#192F4D"/>
<path d="M227.782 10.5198C227.447 10.5457 227.111 10.5014 226.794 10.3898C226.477 10.2781 226.188 10.1015 225.943 9.87128C225.504 9.34951 225.285 8.67749 225.332 7.997V4.36247H223.978V3.46453H225.332V1.34082H226.485V3.46453H228.678V4.36247H226.485V7.88298C226.455 8.3209 226.575 8.75613 226.826 9.11587C226.967 9.26545 227.14 9.38104 227.332 9.45389C227.524 9.52673 227.73 9.55492 227.934 9.53633C228.088 9.53611 228.241 9.51696 228.389 9.47932C228.541 9.44131 228.679 9.4033 228.802 9.3653L229.002 10.249C228.83 10.3327 228.648 10.3949 228.461 10.4343C228.239 10.4892 228.011 10.5179 227.782 10.5198Z" fill="#192F4D"/>
<path d="M230.872 12.9569L232.054 10.2773L229.135 3.46753H230.387L232.682 9.08324L234.99 3.46753H236.201L232.086 12.9601L230.872 12.9569Z" fill="#192F4D"/>
<path d="M241.242 10.3914V0.343018H242.225L246.084 7.59782L249.917 0.343018H250.899V10.3914H249.817V2.53799L246.469 8.83784H245.7L242.31 2.55224V10.3914H241.242Z" fill="#192F4D"/>
<path d="M255.415 10.5197C254.974 10.5271 254.537 10.432 254.14 10.2417C253.781 10.0701 253.474 9.8071 253.249 9.47919C253.032 9.16007 252.918 8.78205 252.922 8.39596C252.9 7.96144 253.041 7.53434 253.317 7.1987C253.672 6.85612 254.126 6.63442 254.614 6.56523C255.43 6.41905 256.257 6.3546 257.085 6.37282H257.541V5.93097C257.583 5.47535 257.453 5.02054 257.178 4.65532C257.022 4.51281 256.838 4.40434 256.638 4.33685C256.439 4.26937 256.227 4.24433 256.017 4.26336C255.607 4.26223 255.198 4.32228 254.806 4.44153C254.382 4.57683 253.979 4.77115 253.609 5.01877L253.214 4.17784C253.616 3.90199 254.061 3.69487 254.531 3.56496C255.014 3.41863 255.515 3.34184 256.02 3.33692C256.378 3.30788 256.738 3.35094 257.08 3.46355C257.421 3.57615 257.736 3.75603 258.007 3.99255C258.484 4.55932 258.717 5.29228 258.655 6.03074V10.3914H257.573V9.19413C257.4 9.5942 257.109 9.93221 256.74 10.1633C256.342 10.4078 255.881 10.5316 255.415 10.5197ZM255.6 9.64864C255.862 9.65706 256.122 9.60854 256.363 9.50641C256.604 9.40428 256.82 9.25099 256.996 9.05714C257.364 8.64446 257.558 8.10522 257.537 7.55265V7.12506H257.096C256.488 7.11448 255.879 7.15022 255.276 7.23196C254.937 7.25917 254.614 7.38835 254.35 7.60254C254.26 7.69828 254.19 7.81149 254.144 7.93525C254.099 8.05901 254.079 8.19072 254.087 8.32232C254.081 8.50136 254.114 8.6795 254.184 8.84439C254.254 9.00928 254.359 9.15698 254.492 9.27727C254.8 9.53926 255.197 9.67278 255.6 9.65023V9.64864Z" fill="#192F4D"/>
<path d="M260.785 10.3915V3.46455H261.91V4.64755C262.122 4.22649 262.461 3.88251 262.878 3.66409C263.315 3.44154 263.799 3.329 264.289 3.33627C265.932 3.33627 266.754 4.24847 266.754 6.07286V10.3915H265.6V6.14413C265.641 5.64188 265.507 5.14079 265.222 4.72595C265.067 4.5659 264.879 4.44249 264.671 4.36479C264.463 4.28709 264.24 4.25708 264.019 4.27697C263.738 4.26324 263.458 4.30883 263.197 4.41076C262.936 4.51268 262.699 4.66865 262.502 4.86848C262.113 5.29809 261.91 5.86458 261.939 6.44344V10.3915H260.785Z" fill="#192F4D"/>
<path d="M271.054 10.5197C270.613 10.5272 270.177 10.4321 269.779 10.2417C269.42 10.0705 269.113 9.80745 268.889 9.47919C268.671 9.16025 268.557 8.7821 268.561 8.39596C268.538 7.96195 268.678 7.53492 268.953 7.1987C269.308 6.85612 269.762 6.63442 270.25 6.56523C271.065 6.41898 271.893 6.35452 272.721 6.37282H273.176V5.93097C273.218 5.47538 273.088 5.02071 272.813 4.65532C272.657 4.51281 272.474 4.40434 272.274 4.33685C272.074 4.26937 271.862 4.24433 271.652 4.26336C271.242 4.26223 270.834 4.32228 270.441 4.44153C270.017 4.57689 269.615 4.77121 269.245 5.01877L268.849 4.17784C269.251 3.90184 269.697 3.69472 270.167 3.56496C270.65 3.41847 271.151 3.34168 271.655 3.33692C272.014 3.30788 272.374 3.35094 272.715 3.46355C273.056 3.57615 273.372 3.75603 273.642 3.99255C274.12 4.55932 274.353 5.29228 274.291 6.03074V10.3914H273.206V9.19413C273.033 9.59425 272.743 9.93226 272.373 10.1633C271.977 10.4069 271.519 10.5307 271.054 10.5197ZM271.24 9.64864C271.501 9.65706 271.762 9.60852 272.002 9.50639C272.243 9.40426 272.459 9.25098 272.635 9.05714C273.003 8.64458 273.197 8.10533 273.176 7.55265V7.12506H272.735C272.128 7.11471 271.52 7.15045 270.919 7.23196C270.58 7.25951 270.257 7.38865 269.993 7.60254C269.902 7.69838 269.832 7.81161 269.787 7.93535C269.742 8.05908 269.722 8.19074 269.729 8.32232C269.723 8.50145 269.757 8.67966 269.827 8.84458C269.897 9.0095 270.002 9.15716 270.135 9.27727C270.443 9.53868 270.839 9.67216 271.241 9.65023L271.24 9.64864Z" fill="#192F4D"/>
<path d="M279.488 13.0837C278.918 13.0867 278.349 13.0067 277.801 12.8462C277.294 12.6995 276.818 12.4603 276.397 12.1407L276.782 11.2997C277.545 11.8718 278.478 12.1727 279.431 12.1549C280.799 12.1549 281.483 11.4518 281.483 10.0455V8.82365C281.287 9.2569 280.961 9.61815 280.55 9.857C280.112 10.1134 279.611 10.244 279.104 10.2347C278.522 10.2495 277.948 10.0961 277.451 9.79287C276.985 9.4968 276.612 9.07418 276.376 8.57423C276.127 8.00577 275.999 7.39186 275.999 6.77121C275.999 6.15057 276.127 5.53666 276.376 4.9682C276.61 4.4705 276.983 4.0519 277.451 3.76382C277.951 3.4695 278.524 3.32136 279.104 3.33622C279.61 3.32721 280.11 3.45525 280.55 3.7068C280.958 3.93873 281.285 4.2925 281.483 4.71877V3.4645H282.608V9.89264C282.641 10.3243 282.588 10.7582 282.452 11.1693C282.316 11.5803 282.1 11.9603 281.817 12.2871C281.502 12.5697 281.134 12.7859 280.734 12.9228C280.334 13.0597 279.91 13.1144 279.488 13.0837ZM279.318 9.29242C279.617 9.30563 279.914 9.25093 280.188 9.13242C280.462 9.01391 280.706 8.8347 280.901 8.60828C281.281 8.07187 281.485 7.43064 281.485 6.77319C281.485 6.11574 281.281 5.47451 280.901 4.93811C280.698 4.72424 280.454 4.55391 280.184 4.43751C279.913 4.32111 279.622 4.26108 279.327 4.26108C279.032 4.26108 278.741 4.32111 278.47 4.43751C278.2 4.55391 277.956 4.72424 277.753 4.93811C277.373 5.47451 277.169 6.11574 277.169 6.77319C277.169 7.43064 277.373 8.07187 277.753 8.60828C277.945 8.83362 278.186 9.01241 278.457 9.13119C278.728 9.24997 279.023 9.30564 279.318 9.294V9.29242Z" fill="#192F4D"/>
<path d="M287.893 10.5197C287.418 10.5446 286.943 10.4721 286.497 10.3067C286.051 10.1412 285.644 9.88631 285.3 9.55762C284.973 9.20894 284.72 8.79771 284.556 8.34866C284.392 7.8996 284.321 7.422 284.346 6.94456C284.332 6.28963 284.479 5.64135 284.773 5.05603C285.038 4.53174 285.445 4.0927 285.948 3.78909C286.473 3.48285 287.072 3.32749 287.679 3.34012C288.091 3.31753 288.503 3.38664 288.885 3.54246C289.267 3.69828 289.61 3.93693 289.888 4.24123C290.454 4.94251 290.738 5.82901 290.686 6.72839V7.17023H285.473C285.462 7.83648 285.707 8.48145 286.156 8.97324C286.39 9.18825 286.665 9.35395 286.964 9.46048C287.263 9.567 287.58 9.61215 287.897 9.59325C288.304 9.595 288.708 9.53 289.094 9.40084C289.492 9.26192 289.86 9.04676 290.177 8.76737L290.572 9.57979C290.227 9.8929 289.819 10.1286 289.376 10.2711C288.899 10.436 288.397 10.52 287.893 10.5197ZM287.707 4.19134C287.42 4.17672 287.133 4.22385 286.865 4.32956C286.597 4.43527 286.355 4.59712 286.155 4.80422C285.759 5.25145 285.523 5.8183 285.485 6.41482H289.687C289.697 5.82178 289.504 5.24328 289.139 4.77572C288.959 4.57758 288.737 4.42226 288.489 4.32114C288.242 4.22002 287.975 4.17567 287.707 4.19134Z" fill="#192F4D"/>
<path d="M292.379 10.3914V3.46436H293.504V4.63311C293.695 4.23496 293.998 3.90078 294.375 3.67104C294.768 3.44176 295.216 3.32582 295.671 3.33608C296.128 3.28992 296.587 3.40594 296.967 3.66386C297.347 3.92178 297.625 4.30521 297.751 4.74714C297.952 4.31895 298.274 3.95946 298.677 3.71379C299.102 3.45731 299.591 3.32635 300.087 3.33608C301.625 3.33608 302.394 4.24828 302.394 6.07267V10.3914H301.241V6.12968C301.278 5.63821 301.161 5.14727 300.906 4.72576C300.771 4.56688 300.6 4.44303 300.407 4.36483C300.214 4.28664 300.005 4.25643 299.798 4.27679C299.544 4.26677 299.291 4.31558 299.058 4.41941C298.826 4.52323 298.621 4.67928 298.459 4.87542C298.108 5.33107 297.931 5.8972 297.96 6.47176V10.3914H296.807V6.12968C296.844 5.63821 296.727 5.14725 296.472 4.72576C296.338 4.56746 296.167 4.44397 295.975 4.3658C295.783 4.28762 295.574 4.25709 295.368 4.27679C295.113 4.26529 294.858 4.31339 294.625 4.41729C294.391 4.52119 294.185 4.67803 294.023 4.87542C293.675 5.33273 293.501 5.8982 293.53 6.47176V10.3914H292.379Z" fill="#192F4D"/>
<path d="M307.663 10.5197C307.188 10.5449 306.713 10.4725 306.268 10.307C305.822 10.1416 305.415 9.88652 305.071 9.55761C304.744 9.20898 304.491 8.79777 304.327 8.34872C304.163 7.89967 304.091 7.42205 304.116 6.94456C304.103 6.28952 304.25 5.64115 304.544 5.05602C304.809 4.53162 305.216 4.09251 305.719 3.78909C306.243 3.48296 306.842 3.32761 307.449 3.34011C307.861 3.31821 308.273 3.38802 308.655 3.54453C309.037 3.70103 309.379 3.94033 309.657 4.24518C310.222 4.94646 310.507 5.83296 310.455 6.73234V7.17418H305.241C305.231 7.84054 305.476 8.48553 305.925 8.9772C306.159 9.19235 306.433 9.35816 306.733 9.46469C307.032 9.57122 307.349 9.61629 307.666 9.59721C308.073 9.59896 308.478 9.53395 308.864 9.40479C309.262 9.26552 309.63 9.05041 309.946 8.77132L310.342 9.58375C309.996 9.8967 309.588 10.1324 309.145 10.275C308.668 10.4385 308.167 10.5212 307.663 10.5197ZM307.479 4.19134C307.191 4.17656 306.904 4.22362 306.636 4.32934C306.368 4.43506 306.126 4.59699 305.926 4.80422C305.529 5.25117 305.293 5.81813 305.256 6.41481H309.458C309.468 5.82178 309.274 5.24328 308.909 4.77571C308.73 4.5776 308.508 4.42227 308.26 4.32115C308.013 4.22003 307.746 4.17567 307.479 4.19134Z" fill="#192F4D"/>
<path d="M312.126 10.3915V3.46455H313.251V4.64755C313.463 4.22649 313.802 3.88251 314.219 3.66409C314.655 3.44154 315.14 3.329 315.629 3.33627C317.273 3.33627 318.094 4.24847 318.094 6.07286V10.3915H316.937V6.14413C316.979 5.64184 316.845 5.14062 316.559 4.72595C316.405 4.5659 316.217 4.44249 316.009 4.36479C315.801 4.28709 315.578 4.25708 315.356 4.27697C315.076 4.26324 314.796 4.30883 314.535 4.41076C314.273 4.51268 314.036 4.66865 313.839 4.86848C313.451 5.29809 313.248 5.86458 313.277 6.44344V10.3915H312.126Z" fill="#192F4D"/>
<path d="M322.99 10.5198C322.656 10.5457 322.32 10.5013 322.003 10.3897C321.687 10.278 321.397 10.1014 321.153 9.87128C320.713 9.34979 320.493 8.67764 320.54 7.997V4.36247H319.187V3.46453H320.54V1.34082H321.694V3.46453H323.888V4.36247H321.694V7.88298C321.663 8.32099 321.784 8.75623 322.036 9.11587C322.177 9.26554 322.349 9.38119 322.541 9.45405C322.733 9.5269 322.939 9.55504 323.144 9.53633C323.298 9.53606 323.451 9.51692 323.6 9.47932C323.752 9.44131 323.889 9.4033 324.013 9.3653L324.212 10.249C324.04 10.3326 323.858 10.3949 323.671 10.4343C323.448 10.4894 323.22 10.5181 322.99 10.5198Z" fill="#192F4D"/>
</svg>
