<svg width="150" height="11" viewBox="0 0 150 11" fill="none" xmlns="http://www.w3.org/2000/svg">
<path d="M0.491211 10.73V0.681548H4.46543C5.36305 0.620622 6.25062 0.900547 6.9511 1.46547C7.50563 2.07729 7.81279 2.87368 7.81279 3.69963C7.81279 4.52558 7.50563 5.32198 6.9511 5.9338C6.25296 6.50375 5.36438 6.78681 4.46543 6.72564H1.65927V10.73H0.491211ZM1.65927 5.74138H4.32299C5.88039 5.74138 6.65909 5.06199 6.65909 3.7032C6.65909 2.3349 5.88039 1.65076 4.32299 1.65076H1.65927V5.74138Z" fill="#192F4D"/>
<path d="M11.4736 10.8583C11.1795 10.8797 10.8843 10.8352 10.6095 10.7279C10.3347 10.6206 10.0873 10.4534 9.88538 10.2383C9.49599 9.72136 9.3063 9.08108 9.3512 8.43531V0.681641H10.505V8.34979C10.505 9.36651 10.9086 9.87487 11.7158 9.87487C11.9325 9.8777 12.1484 9.84889 12.3568 9.78935L12.3283 10.7586C12.048 10.8234 11.7613 10.8569 11.4736 10.8583Z" fill="#192F4D"/>
<path d="M15.7472 10.8583C15.3065 10.8658 14.87 10.7707 14.4724 10.5803C14.1135 10.4094 13.8063 10.1462 13.5821 9.81781C13.3649 9.49869 13.2505 9.12067 13.2545 8.73458C13.2312 8.30058 13.3709 7.87354 13.6462 7.53733C14.0008 7.19489 14.4545 6.9732 14.9424 6.90385C15.7578 6.75764 16.5857 6.69319 17.4138 6.71144H17.8697V6.26959C17.911 5.81401 17.7815 5.35933 17.5064 4.99394C17.3508 4.85143 17.1672 4.74297 16.9673 4.67548C16.7674 4.60799 16.5556 4.58296 16.3455 4.60199C15.9353 4.6008 15.5272 4.66085 15.1347 4.78015C14.7108 4.91551 14.308 5.10983 13.9382 5.35739L13.5425 4.51647C13.9447 4.24047 14.39 4.03334 14.8601 3.90358C15.343 3.75719 15.8442 3.6804 16.3487 3.67554C16.7069 3.6465 17.0672 3.68956 17.4085 3.80217C17.7498 3.91478 18.0651 4.09465 18.3358 4.33118C18.8129 4.89794 19.046 5.63091 18.9839 6.36936V10.73H17.9013V9.53275C17.7282 9.93288 17.4376 10.2709 17.068 10.502C16.6714 10.7458 16.2126 10.8696 15.7472 10.8583ZM15.9324 9.98726C16.194 9.99569 16.4543 9.94716 16.6954 9.84504C16.9364 9.74291 17.1524 9.58962 17.3284 9.39577C17.6961 8.98295 17.89 8.44387 17.8697 7.89128V7.46368H17.4281C16.8209 7.45333 16.2137 7.48907 15.6119 7.57058C15.2731 7.59813 14.9504 7.72728 14.686 7.94116C14.5955 8.0369 14.5254 8.15011 14.4801 8.27387C14.4348 8.39763 14.4152 8.52934 14.4225 8.66094C14.4168 8.84007 14.4501 9.01829 14.5203 9.18321C14.5904 9.34812 14.6955 9.49578 14.8285 9.6159C15.1353 9.8768 15.5303 10.0102 15.9324 9.98885V9.98726Z" fill="#192F4D"/>
<path d="M23.8951 10.8584C23.5605 10.8843 23.2243 10.84 22.9079 10.7283C22.5915 10.6166 22.3018 10.4401 22.0575 10.2099C21.6179 9.68841 21.3982 9.01626 21.445 8.33562V4.70109H20.0918V3.80315H21.445V1.67944H22.5988V3.80315H24.7925V4.70109H22.5988V8.2216C22.5683 8.65962 22.6889 9.09485 22.9407 9.45449C23.0813 9.60417 23.2542 9.71982 23.4461 9.79267C23.6381 9.86552 23.8441 9.89366 24.0486 9.87495C24.2023 9.87469 24.3554 9.85554 24.5044 9.81794C24.6564 9.77993 24.7941 9.74193 24.9175 9.70392L25.1169 10.5876C24.9447 10.6713 24.763 10.7335 24.5757 10.7729C24.3529 10.828 24.1245 10.8567 23.8951 10.8584Z" fill="#192F4D"/>
<path d="M26.5017 10.7301V4.70104H25.1343V3.8031H26.5017V3.5608C26.4465 2.79852 26.6949 2.04533 27.1926 1.4656C27.7768 0.940844 28.5372 0.65582 29.3222 0.667425L29.8761 0.638916L29.9758 1.52261L29.3206 1.56537C29.0839 1.56505 28.8494 1.61146 28.6306 1.70196C28.4119 1.79245 28.2131 1.92525 28.0457 2.09273C27.7602 2.47313 27.6211 2.94368 27.654 3.41826V3.8031H29.6482V4.70104H27.6595V10.7301H26.5017Z" fill="#192F4D"/>
<path d="M33.5521 10.8584C32.9389 10.8745 32.3331 10.7217 31.8008 10.4166C31.3056 10.1208 30.907 9.68757 30.6533 9.16941C30.3865 8.5706 30.2485 7.92228 30.2485 7.26663C30.2485 6.61097 30.3865 5.96265 30.6533 5.36384C30.9072 4.84584 31.3058 4.41263 31.8008 4.1167C32.3379 3.82666 32.9386 3.6748 33.5489 3.6748C34.1592 3.6748 34.76 3.82666 35.2971 4.1167C35.7951 4.41073 36.1962 4.84429 36.4509 5.36384C36.719 5.96231 36.8576 6.61076 36.8576 7.26663C36.8576 7.92249 36.719 8.57094 36.4509 9.16941C36.1965 9.68912 35.7953 10.1227 35.2971 10.4166C34.7664 10.72 34.1631 10.8727 33.5521 10.8584ZM33.5521 9.93195C33.8465 9.94285 34.1394 9.88623 34.4085 9.76642C34.6776 9.6466 34.9158 9.46677 35.1047 9.24068C35.4872 8.65138 35.6908 7.96376 35.6908 7.26109C35.6908 6.55841 35.4872 5.8708 35.1047 5.2815C34.9069 5.06588 34.6665 4.89374 34.3986 4.77599C34.1308 4.65823 33.8415 4.59743 33.5489 4.59743C33.2564 4.59743 32.967 4.65823 32.6992 4.77599C32.4314 4.89374 32.191 5.06588 31.9931 5.2815C31.6156 5.87265 31.415 6.55955 31.415 7.26109C31.415 7.96263 31.6156 8.64952 31.9931 9.24068C32.1824 9.468 32.4216 9.64862 32.6919 9.7685C32.9623 9.88839 33.2566 9.94431 33.5521 9.93195Z" fill="#192F4D"/>
<path d="M38.5952 10.7302V3.80321H39.7205V5.04323C39.9269 4.61751 40.2517 4.26053 40.6561 4.01525C41.0604 3.76997 41.527 3.64684 41.9996 3.66068L42.4127 3.61792L42.4982 4.61564L41.7717 4.70116C41.2139 4.71646 40.6813 4.93723 40.2761 5.32116C40.0988 5.51901 39.9623 5.74988 39.8743 6.00056C39.7863 6.25124 39.7486 6.51681 39.7633 6.7821V10.7302H38.5952Z" fill="#192F4D"/>
<path d="M43.7241 10.7302V3.80322H44.8502V4.97197C45.0412 4.57373 45.3436 4.23953 45.7207 4.00989C46.1139 3.7807 46.5628 3.66478 47.0178 3.67494C47.4748 3.62881 47.9334 3.74486 48.3136 4.00279C48.6937 4.26072 48.9712 4.64412 49.0975 5.08599C49.2976 4.65801 49.6194 4.29857 50.0226 4.05265C50.4479 3.79623 50.9371 3.6653 51.4336 3.67494C52.972 3.67494 53.7412 4.58713 53.7412 6.41153V10.7302H52.5874V6.46854C52.6253 5.97695 52.5079 5.48586 52.2518 5.06461C52.1178 4.90627 51.9475 4.78274 51.7554 4.70456C51.5633 4.62637 51.3551 4.59587 51.1487 4.61564C50.8944 4.60556 50.6412 4.65433 50.4088 4.75816C50.1764 4.86199 49.9711 5.01807 49.8089 5.21427C49.4585 5.67019 49.282 6.23619 49.3111 6.81062V10.7302H48.1558V6.46854C48.1931 5.97709 48.076 5.48626 47.821 5.06461C47.6864 4.90573 47.5152 4.78188 47.3223 4.70369C47.1293 4.62549 46.9203 4.59528 46.7131 4.61564C46.4578 4.6042 46.2034 4.65233 45.9699 4.75623C45.7364 4.86012 45.5303 5.01693 45.3678 5.21427C45.0206 5.67159 44.8462 6.23705 44.8756 6.81062V10.7302H43.7241Z" fill="#192F4D"/>
<path d="M61.7277 10.8583C61.287 10.8658 60.8505 10.7707 60.4528 10.5803C60.0939 10.4094 59.7867 10.1462 59.5625 9.81781C59.3453 9.49869 59.231 9.12067 59.2349 8.73458C59.2117 8.30058 59.3514 7.87354 59.6266 7.53733C59.9813 7.19489 60.4349 6.9732 60.9229 6.90385C61.7383 6.75764 62.5662 6.69319 63.3943 6.71144H63.8501V6.26959C63.8914 5.81401 63.762 5.35933 63.4869 4.99394C63.3313 4.85143 63.1476 4.74297 62.9478 4.67548C62.7479 4.60799 62.5361 4.58296 62.326 4.60199C61.9158 4.6008 61.5077 4.66085 61.1152 4.78015C60.6913 4.91551 60.2885 5.10983 59.9187 5.35739L59.523 4.51647C59.9252 4.24047 60.3705 4.03334 60.8406 3.90358C61.3234 3.75719 61.8247 3.6804 62.3291 3.67554C62.6873 3.6465 63.0477 3.68956 63.389 3.80217C63.7303 3.91478 64.0456 4.09465 64.3163 4.33118C64.7934 4.89794 65.0265 5.63091 64.9644 6.36936V10.73H63.8818V9.53275C63.7086 9.93288 63.418 10.2709 63.0485 10.502C62.6518 10.7458 62.1931 10.8696 61.7277 10.8583ZM61.9129 9.98726C62.1745 9.99569 62.4348 9.94716 62.6758 9.84504C62.9169 9.74291 63.1328 9.58962 63.3088 9.39577C63.677 8.9832 63.871 8.44395 63.8501 7.89128V7.46368H63.4086C62.8013 7.45333 62.1942 7.48907 61.5924 7.57058C61.2535 7.59813 60.9309 7.72728 60.6665 7.94116C60.576 8.0369 60.5059 8.15011 60.4606 8.27387C60.4153 8.39763 60.3957 8.52934 60.403 8.66094C60.3973 8.84007 60.4306 9.01829 60.5007 9.18321C60.5708 9.34812 60.676 9.49578 60.8089 9.6159C61.1158 9.8768 61.5108 10.0102 61.9129 9.98885V9.98726Z" fill="#192F4D"/>
<path d="M70.6018 10.8583C70.095 10.8698 69.5949 10.7416 69.156 10.4877C68.7517 10.2503 68.427 9.89808 68.223 9.47578V10.7301H67.0977V0.681641H68.2515V5.00032C68.4527 4.58938 68.7761 4.25083 69.1773 4.03111C69.6126 3.78911 70.1039 3.6662 70.6018 3.67478C71.1712 3.66175 71.7324 3.81264 72.2186 4.1095C72.6882 4.40943 73.0596 4.84055 73.2869 5.34952C73.7902 6.573 73.7902 7.94586 73.2869 9.16934C73.0583 9.67937 72.6873 10.1125 72.2186 10.4165C71.7342 10.7182 71.1722 10.8718 70.6018 10.8583ZM70.3596 9.93188C70.654 9.94278 70.9469 9.88616 71.2161 9.76635C71.4852 9.64653 71.7233 9.4667 71.9123 9.24061C72.2943 8.65113 72.4976 7.96358 72.4976 7.26102C72.4976 6.55845 72.2943 5.87091 71.9123 5.28142C71.7151 5.06587 71.4752 4.89373 71.2079 4.77597C70.9406 4.65821 70.6517 4.59739 70.3596 4.59739C70.0676 4.59739 69.7787 4.65821 69.5114 4.77597C69.2441 4.89373 69.0042 5.06587 68.807 5.28142C68.425 5.87091 68.2217 6.55845 68.2217 7.26102C68.2217 7.96358 68.425 8.65113 68.807 9.24061C68.996 9.4667 69.2341 9.64653 69.5032 9.76635C69.7724 9.88616 70.0653 9.94278 70.3596 9.93188Z" fill="#192F4D"/>
<path d="M78.2791 10.8584C77.666 10.8743 77.0602 10.7215 76.5279 10.4166C76.0329 10.1206 75.6343 9.68742 75.3804 9.16941C75.1135 8.5706 74.9756 7.92228 74.9756 7.26663C74.9756 6.61097 75.1135 5.96265 75.3804 5.36384C75.6345 4.84599 76.0331 4.41284 76.5279 4.1167C77.0651 3.82666 77.6659 3.6748 78.2764 3.6748C78.8868 3.6748 79.4877 3.82666 80.0249 4.1167C80.5226 4.41117 80.9236 4.84461 81.1787 5.36384C81.4463 5.96246 81.5846 6.61085 81.5846 7.26663C81.5846 7.9224 81.4463 8.57079 81.1787 9.16941C80.9239 9.6888 80.5228 10.1223 80.0249 10.4166C79.4939 10.7199 78.8904 10.8726 78.2791 10.8584ZM78.2791 9.93195C78.5735 9.94291 78.8665 9.88632 79.1356 9.7665C79.4047 9.64668 79.6429 9.46681 79.8318 9.24068C80.2143 8.65138 80.4179 7.96376 80.4179 7.26109C80.4179 6.55841 80.2143 5.8708 79.8318 5.2815C79.6339 5.06588 79.3935 4.89374 79.1257 4.77599C78.8579 4.65823 78.5685 4.59743 78.276 4.59743C77.9835 4.59743 77.6941 4.65823 77.4263 4.77599C77.1585 4.89374 76.918 5.06588 76.7202 5.2815C76.3427 5.87265 76.1421 6.55955 76.1421 7.26109C76.1421 7.96263 76.3427 8.64952 76.7202 9.24068C76.9095 9.468 77.1486 9.64862 77.419 9.7685C77.6893 9.88839 77.9837 9.94431 78.2791 9.93195Z" fill="#192F4D"/>
<path d="M85.2593 10.73L82.2822 3.80298H83.5357L85.8307 9.41869L88.1533 3.80298H89.3348L86.3419 10.73H85.2593Z" fill="#192F4D"/>
<path d="M93.5801 10.8583C93.1052 10.8832 92.6303 10.8107 92.1845 10.6453C91.7387 10.4798 91.3313 10.2249 90.9876 9.89622C90.6608 9.54744 90.4078 9.13619 90.2438 8.68716C90.0798 8.23813 90.0082 7.76058 90.0332 7.28316C90.0199 6.62823 90.1666 5.97995 90.4605 5.39463C90.7259 4.87051 91.1331 4.43153 91.6357 4.12769C92.1603 3.82145 92.7592 3.66609 93.3664 3.67872C93.7784 3.65687 94.1901 3.72671 94.5719 3.88321C94.9537 4.03971 95.296 4.27898 95.5743 4.58379C96.1394 5.28507 96.4238 6.17157 96.372 7.07095V7.51279H91.1585C91.1483 8.17904 91.3929 8.82401 91.8422 9.3158C92.076 9.53081 92.3506 9.69651 92.6497 9.80303C92.9488 9.90955 93.2663 9.95471 93.5832 9.93581C93.9899 9.93756 94.3941 9.87256 94.7798 9.74339C95.1783 9.60447 95.546 9.38932 95.8624 9.10993L96.258 9.92235C95.9132 10.2353 95.5055 10.471 95.0623 10.6136C94.5852 10.7769 94.0843 10.8596 93.5801 10.8583ZM93.3949 4.52994C93.1074 4.51532 92.8201 4.56245 92.5522 4.66816C92.2844 4.77387 92.0423 4.93572 91.8422 5.14282C91.446 5.59008 91.2104 6.15692 91.1727 6.75342H95.3749C95.3847 6.16038 95.1912 5.58188 94.8265 5.11432C94.6464 4.91592 94.4242 4.76044 94.1762 4.65931C93.9282 4.55818 93.6607 4.51397 93.3933 4.52994H93.3949Z" fill="#192F4D"/>
<path d="M104.475 10.8584C104.141 10.8843 103.805 10.84 103.488 10.7284C103.172 10.6167 102.882 10.4401 102.638 10.2099C102.198 9.68841 101.979 9.01626 102.025 8.33562V4.70109H100.671V3.80315H102.025V1.67944H103.179V3.80315H105.371V4.70109H103.179V8.2216C103.149 8.65962 103.269 9.09485 103.521 9.45449C103.662 9.60417 103.835 9.71982 104.027 9.79267C104.219 9.86552 104.425 9.89366 104.629 9.87495C104.782 9.87478 104.935 9.85563 105.084 9.81794C105.237 9.77993 105.375 9.74193 105.498 9.70392L105.697 10.5876C105.525 10.6713 105.343 10.7335 105.156 10.7729C104.933 10.8279 104.705 10.8566 104.475 10.8584Z" fill="#192F4D"/>
<path d="M106.683 10.7301V0.681641H107.837V4.94331C108.052 4.53541 108.388 4.20368 108.798 3.9931C109.229 3.77511 109.705 3.66505 110.187 3.67241C111.83 3.67241 112.652 4.58461 112.652 6.409V10.7301H111.498V6.48264C111.539 5.98036 111.406 5.47914 111.119 5.06446C110.965 4.90446 110.777 4.78108 110.569 4.70339C110.361 4.62569 110.138 4.59565 109.917 4.61549C109.636 4.60176 109.356 4.64734 109.095 4.74927C108.834 4.8512 108.597 5.00717 108.4 5.20699C108.011 5.6366 107.808 6.20309 107.837 6.78195V10.7301H106.683Z" fill="#192F4D"/>
<path d="M117.893 10.8582C117.418 10.8834 116.943 10.811 116.497 10.6456C116.052 10.4801 115.645 10.2251 115.301 9.89616C114.974 9.54749 114.721 9.13626 114.557 8.6872C114.393 8.23815 114.322 7.76054 114.347 7.28311C114.333 6.62814 114.48 5.97977 114.774 5.39457C115.039 4.87017 115.446 4.43105 115.948 4.12764C116.473 3.82129 117.072 3.66593 117.68 3.67866C118.092 3.65698 118.504 3.7269 118.885 3.88339C119.267 4.03988 119.609 4.27906 119.888 4.58373C120.452 5.28531 120.736 6.17166 120.685 7.07089V7.51273H115.471C115.461 8.17898 115.706 8.82395 116.155 9.31574C116.389 9.53075 116.663 9.69646 116.962 9.80298C117.262 9.9095 117.579 9.95466 117.896 9.93576C118.303 9.9375 118.707 9.8725 119.093 9.74334C119.491 9.60443 119.859 9.38928 120.175 9.10987L120.571 9.9223C120.226 10.2354 119.818 10.4711 119.374 10.6136C118.897 10.7769 118.397 10.8596 117.893 10.8582ZM117.708 4.52988C117.421 4.51525 117.133 4.56237 116.865 4.66808C116.597 4.77379 116.355 4.93564 116.155 5.14277C115.759 5.59002 115.523 6.15686 115.485 6.75336H119.688C119.698 6.16029 119.504 5.58191 119.139 5.11426C118.959 4.91614 118.738 4.76082 118.49 4.6597C118.242 4.55858 117.975 4.51422 117.708 4.52988Z" fill="#192F4D"/>
<path d="M126.013 10.7302V3.80321H127.138V5.04323C127.344 4.61714 127.669 4.25982 128.074 4.01447C128.478 3.76912 128.945 3.64624 129.418 3.66068L129.83 3.61792L129.915 4.61564L129.189 4.70116C128.631 4.71628 128.099 4.93709 127.694 5.32116C127.517 5.51885 127.38 5.74968 127.292 6.00038C127.203 6.25109 127.166 6.51674 127.18 6.7821V10.7302H126.013Z" fill="#192F4D"/>
<path d="M134.146 10.8583C133.671 10.8836 133.196 10.8113 132.75 10.6458C132.304 10.4803 131.897 10.2252 131.554 9.89622C131.227 9.54744 130.974 9.13619 130.81 8.68716C130.646 8.23813 130.574 7.76058 130.599 7.28316C130.585 6.62819 130.732 5.97982 131.026 5.39463C131.292 4.87034 131.699 4.4313 132.202 4.12769C132.726 3.82134 133.325 3.66596 133.932 3.67872C134.344 3.65687 134.756 3.72671 135.138 3.88321C135.52 4.03971 135.862 4.27898 136.14 4.58379C136.705 5.28518 136.989 6.17167 136.937 7.07095V7.51279H131.724C131.713 8.17904 131.958 8.82401 132.407 9.3158C132.641 9.53081 132.916 9.69651 133.215 9.80303C133.514 9.90955 133.831 9.95471 134.148 9.93581C134.555 9.93749 134.959 9.87249 135.345 9.74339C135.743 9.60412 136.111 9.38901 136.427 9.10993L136.823 9.92235C136.478 10.2353 136.07 10.4709 135.627 10.6136C135.15 10.7769 134.65 10.8596 134.146 10.8583ZM133.961 4.52994C133.673 4.51521 133.386 4.56229 133.118 4.66801C132.85 4.77373 132.608 4.93564 132.408 5.14282C132.012 5.58988 131.776 6.15684 131.739 6.75342H135.941C135.951 6.16023 135.757 5.58159 135.392 5.11432C135.212 4.91606 134.99 4.76065 134.743 4.65952C134.495 4.55839 134.228 4.5141 133.961 4.52994Z" fill="#192F4D"/>
<path d="M140.941 10.8584C140.419 10.8609 139.9 10.784 139.402 10.6303C138.963 10.503 138.555 10.2845 138.206 9.98893L138.576 9.17651C138.911 9.44867 139.296 9.65426 139.708 9.78226C140.116 9.90978 140.541 9.97465 140.969 9.97468C141.398 10.004 141.826 9.89939 142.194 9.67536C142.325 9.58544 142.432 9.46391 142.504 9.32195C142.576 9.17999 142.612 9.02215 142.607 8.86294C142.612 8.74383 142.59 8.6251 142.544 8.51548C142.497 8.40586 142.426 8.30813 142.336 8.22947C142.085 8.04108 141.792 7.91638 141.482 7.86602L140.186 7.58096C139.008 7.3244 138.419 6.71733 138.419 5.75973C138.412 5.46603 138.476 5.17492 138.606 4.91165C138.736 4.64838 138.929 4.42089 139.167 4.24891C139.739 3.84646 140.428 3.64586 141.126 3.67878C141.588 3.67678 142.048 3.75143 142.486 3.89971C142.89 4.0301 143.258 4.25205 143.562 4.54822L143.177 5.36065C142.898 5.10231 142.572 4.90133 142.215 4.76914C141.868 4.63472 141.498 4.56469 141.126 4.56247C140.698 4.53418 140.274 4.64532 139.915 4.87921C139.784 4.97288 139.678 5.09716 139.606 5.24125C139.534 5.38533 139.498 5.54484 139.502 5.70589C139.502 6.238 139.853 6.58113 140.556 6.73528L141.852 7.00608C142.36 7.09186 142.837 7.31038 143.234 7.63955C143.392 7.79032 143.516 7.97338 143.597 8.17627C143.678 8.37917 143.715 8.59716 143.704 8.81543C143.714 9.10937 143.65 9.4011 143.518 9.66393C143.386 9.92677 143.191 10.1523 142.949 10.3199C142.354 10.7083 141.65 10.8969 140.941 10.8584Z" fill="#192F4D"/>
<path d="M148.162 10.8584C147.828 10.8843 147.492 10.84 147.175 10.7284C146.859 10.6167 146.569 10.4401 146.325 10.2099C145.885 9.68841 145.666 9.01626 145.712 8.33562V4.70109H144.358V3.80315H145.712V1.67944H146.866V3.80315H149.06V4.70109H146.866V8.2216C146.836 8.65962 146.956 9.09485 147.208 9.45449C147.349 9.60417 147.522 9.71982 147.714 9.79267C147.906 9.86552 148.112 9.89366 148.316 9.87495C148.469 9.87478 148.622 9.85563 148.771 9.81794C148.923 9.77993 149.061 9.74193 149.185 9.70392L149.384 10.5876C149.212 10.6713 149.03 10.7335 148.843 10.7729C148.62 10.8279 148.392 10.8566 148.162 10.8584Z" fill="#192F4D"/>
</svg>
