<svg width="16" height="16" viewBox="0 0 16 16" fill="none" xmlns="http://www.w3.org/2000/svg">
<path d="M8.08778 15.499C6.16001 15.499 4.23427 15.4949 2.3065 15.5011C1.85398 15.5011 1.45625 15.3744 1.12345 15.0681C0.81907 14.7883 0.642529 14.435 0.606003 14.0205C0.591798 13.8673 0.591797 13.7141 0.591797 13.561C0.591797 9.84416 0.591797 6.12734 0.591797 2.40849C0.591797 2.27166 0.599913 2.13687 0.603972 2.00004C0.616147 1.45069 0.90835 1.06063 1.32028 0.744088C1.51509 0.595007 1.75049 0.550079 1.98588 0.533741C2.272 0.513319 2.56015 0.499023 2.84627 0.499023C6.45628 0.499023 10.0643 0.499023 13.6743 0.501066C14.0233 0.501066 14.3601 0.54191 14.6726 0.729793C15.1008 0.987111 15.3585 1.35267 15.4438 1.83871C15.4803 2.04702 15.4864 2.26145 15.4864 2.47384C15.4884 6.17431 15.4884 9.87479 15.4864 13.5753C15.4864 13.7795 15.46 13.9817 15.4458 14.1859C15.4011 14.7781 14.6503 15.5133 14.0456 15.4868C13.8346 15.4766 13.6235 15.4949 13.4125 15.4949C11.6369 15.4949 9.86336 15.4949 8.08778 15.4949V15.499ZM2.75902 13.3567C3.05326 13.2853 3.31503 13.226 3.57274 13.1566C4.1186 13.0116 4.66447 12.8605 5.21033 12.7155C5.43761 12.6542 5.65067 12.6563 5.86577 12.787C6.02202 12.883 6.2006 12.9463 6.37511 13.0034C7.15637 13.2649 7.95995 13.3343 8.7757 13.2281C9.48796 13.1362 10.1454 12.883 10.7643 12.5113C11.2331 12.2315 11.6572 11.9027 12.0225 11.4963C12.1118 11.3962 12.1848 11.2819 12.2639 11.1716C12.3979 10.9898 12.5521 10.8183 12.6556 10.6202C12.8159 10.3139 12.9579 9.99528 13.0736 9.66853C13.1832 9.35811 13.2745 9.0334 13.3191 8.70869C13.3942 8.16138 13.4165 7.60794 13.2846 7.06267C13.1771 6.61747 13.0898 6.17023 12.8808 5.75566C12.5967 5.18997 12.2497 4.66717 11.7992 4.22605C11.4969 3.93197 11.1864 3.6236 10.8252 3.42346C10.2104 3.08037 9.57115 2.79242 8.84468 2.70461C7.84021 2.58412 6.8743 2.64334 5.94897 3.07424C5.71357 3.18452 5.49239 3.32544 5.25903 3.44184C4.82681 3.65627 4.49604 3.99324 4.16527 4.33224C3.78987 4.71822 3.50984 5.16342 3.28256 5.65559C3.12834 5.98847 2.9944 6.32135 2.90715 6.6767C2.59464 7.96737 2.73263 9.20699 3.32517 10.3894C3.41851 10.5753 3.42461 10.7346 3.36982 10.9245C3.17095 11.627 2.98021 12.3295 2.78946 13.0341C2.76511 13.128 2.76916 13.2281 2.75699 13.3527L2.75902 13.3567Z" fill="black"/>
<path d="M4.00457 12.0514C4.13647 11.5612 4.26228 11.0956 4.38809 10.63C4.41853 10.5197 4.41245 10.4278 4.34751 10.3196C3.76512 9.35361 3.53785 8.31005 3.74077 7.19092C3.8118 6.8029 3.90108 6.41079 4.11821 6.0677C4.12633 6.05341 4.13647 6.03911 4.14053 6.02278C4.26431 5.63067 4.54028 5.33864 4.78379 5.02618C5.05368 4.68105 5.42504 4.45436 5.78015 4.2093C6.19006 3.92543 6.65475 3.76205 7.13162 3.66607C7.7972 3.53128 8.47091 3.50678 9.13447 3.71304C9.46523 3.81515 9.78991 3.91726 10.1004 4.08064C10.5184 4.3012 10.8796 4.58506 11.1982 4.92611C11.5959 5.34885 11.9186 5.82264 12.1276 6.36791C12.3711 7.00099 12.4726 7.64837 12.4218 8.33455C12.3711 9.05341 12.0972 9.67832 11.7806 10.2992C11.7644 10.3298 11.7461 10.3584 11.7258 10.3849C11.1718 11.0589 10.5752 11.6797 9.74527 12.0105C9.08577 12.274 8.40598 12.4006 7.69169 12.3475C7.17017 12.3087 6.69127 12.1269 6.20425 11.9676C6.10076 11.935 5.99322 11.8859 5.91611 11.8124C5.75783 11.6674 5.58128 11.6695 5.39662 11.7103C5.19167 11.7573 4.98671 11.8145 4.78379 11.8696C4.56463 11.9288 4.34548 11.9921 4.12632 12.0493C4.09588 12.0575 4.06139 12.0493 4.00254 12.0493L4.00457 12.0514ZM10.6848 9.18615C10.3175 9.00031 9.96443 8.8206 9.60931 8.64088C9.57888 8.62659 9.5464 8.61433 9.51393 8.60412C9.32521 8.55307 9.29681 8.57145 9.17912 8.73483C9.06954 8.88391 8.94576 9.02278 8.82603 9.16573C8.73675 9.27192 8.63325 9.28826 8.51352 9.21474C8.24161 9.04728 7.95142 8.91658 7.68762 8.72666C7.36092 8.4918 7.11336 8.19772 6.89826 7.8771C6.66693 7.53197 6.69939 7.55851 6.92869 7.26239C6.97942 7.195 7.0403 7.13374 7.08088 7.06022C7.1722 6.89684 7.19452 6.73346 7.09103 6.55579C7.0058 6.41079 6.95711 6.24538 6.88609 6.09017C6.81912 5.94313 6.75012 5.79813 6.6791 5.65314C6.62634 5.54286 6.53705 5.50201 6.41327 5.49384C5.99728 5.46117 5.71724 5.66947 5.53461 6.01256C5.25863 6.5272 5.27689 7.06839 5.53055 7.57689C5.69897 7.91386 5.93031 8.22632 6.16976 8.52039C6.4498 8.86553 6.71359 9.23517 7.10523 9.47615C7.12553 9.4884 7.14582 9.50882 7.16003 9.52924C7.2899 9.71713 7.49485 9.81719 7.67748 9.9193C8.00013 10.1011 8.3451 10.2481 8.6921 10.3808C8.98431 10.4932 9.29883 10.5606 9.61336 10.4952C10.0456 10.4053 10.4393 10.244 10.6219 9.78452C10.697 9.59664 10.7031 9.40467 10.6848 9.18615Z" fill="black"/>
</svg>
