<svg width="430" height="388" viewBox="0 0 430 388" fill="none" xmlns="http://www.w3.org/2000/svg">
<path d="M418.256 0H11.7437C5.25783 0 0 4.60873 0 10.2939V377.706C0 383.391 5.25783 388 11.7437 388H418.256C424.742 388 430 383.391 430 377.706V10.2939C430 4.60873 424.742 0 418.256 0Z" fill="#F6F8FC"/>
<path d="M429.887 292.979V377.706C429.887 380.436 428.803 383.054 426.873 384.985C424.944 386.915 422.327 388 419.599 388H323.053L429.887 292.979Z" fill="#D8E8F7"/>
<path opacity="0.685" d="M361.913 376.122C396.659 376.122 424.827 347.938 424.827 313.171C424.827 278.405 396.659 250.22 361.913 250.22C327.167 250.22 299 278.405 299 313.171C299 347.938 327.167 376.122 361.913 376.122Z" fill="#D8E8F7"/>
<path d="M52.6258 84.7265C69.0154 84.7265 82.3018 71.4321 82.3018 55.0326C82.3018 38.6331 69.0154 25.3387 52.6258 25.3387C36.2361 25.3387 22.9497 38.6331 22.9497 55.0326C22.9497 71.4321 36.2361 84.7265 52.6258 84.7265Z" fill="#B1D3B4"/>
<path d="M59.3523 312.775C65.4389 312.775 71.2762 315.195 75.5801 319.501C79.8839 323.808 82.3018 329.648 82.3018 335.739V388H36.4028V335.739C36.4028 329.648 38.8207 323.808 43.1246 319.501C47.4284 315.195 53.2657 312.775 59.3523 312.775Z" fill="#F3D5B6"/>
<path opacity="0.617" d="M87.0495 307.233C95.3536 307.233 102.085 300.497 102.085 292.188C102.085 283.879 95.3536 277.143 87.0495 277.143C78.7455 277.143 72.0137 283.879 72.0137 292.188C72.0137 300.497 78.7455 307.233 87.0495 307.233Z" fill="#F3D5B6"/>
</svg>
