<svg width="89" height="22" viewBox="0 0 89 22" fill="none" xmlns="http://www.w3.org/2000/svg">
<g clip-path="url(#clip0_497_677)">
<path d="M33.0215 10.8311C33.0215 12.4509 33.0215 14.0674 33.0215 15.6872C33.0215 16.1843 32.8896 16.4095 32.359 16.397C30.2117 16.3438 30.6197 16.6878 30.5798 14.6334C30.5798 13.8361 30.5614 13.0356 30.5798 12.2382C30.5798 11.8005 30.4847 11.5878 30.0031 11.6129C29.0461 11.641 28.086 11.641 27.1289 11.6129C26.6841 11.6129 26.5676 11.7848 26.5768 12.2038C26.5952 13.3545 26.5768 14.5083 26.5768 15.659C26.5768 16.1875 26.4418 16.422 25.8804 16.4063C23.813 16.3469 24.1626 16.719 24.1473 14.6709C24.1258 11.8099 24.1473 8.9519 24.1289 6.09082C24.1289 5.44669 24.3222 5.25282 24.9479 5.26533C26.5676 5.29347 26.5676 5.26533 26.5676 6.93195C26.5676 7.66363 26.586 8.39532 26.5676 9.12075C26.5676 9.56789 26.7301 9.70235 27.1442 9.69297C28.0645 9.67421 28.9847 9.66795 29.905 9.69297C30.4019 9.7086 30.6074 9.55851 30.586 9.01757C30.5491 7.97632 30.586 6.93195 30.586 5.8907C30.586 5.43418 30.7455 5.26533 31.1995 5.26533C33.4234 5.30911 32.9817 4.95265 33.0185 7.04139C33.0399 8.29213 33.0185 9.56789 33.0185 10.8311H33.0215Z" fill="#454A58"/>
<path d="M65.7575 10.3184C66.8158 8.83 67.9048 7.35725 68.9262 5.8501C69.0433 5.64052 69.2192 5.47139 69.4313 5.36442C69.6433 5.25745 69.8819 5.21751 70.1164 5.24975C70.6256 5.2904 71.1409 5.24975 71.8158 5.24975C71.6834 5.51141 71.538 5.76606 71.3802 6.0127C70.3986 7.36976 69.4232 8.72994 68.414 10.0776C68.3512 10.1351 68.3007 10.2051 68.2657 10.2833C68.2307 10.3616 68.2118 10.4463 68.2104 10.5323C68.209 10.6183 68.2249 10.7036 68.2573 10.783C68.2897 10.8624 68.3378 10.9342 68.3986 10.9938C69.4876 12.5166 70.5459 14.0706 71.598 15.6153C71.7299 15.806 71.8342 16.0155 72.0459 16.372C71.0949 16.372 70.3005 16.397 69.5121 16.3532C69.3465 16.3532 69.1655 16.1062 69.0459 15.9342C68.0796 14.5647 67.1287 13.1857 66.1716 11.8099C66.0275 11.6035 65.8649 11.4034 65.6041 11.0344C65.6041 12.6792 65.5704 14.1113 65.6041 15.5434C65.6287 16.2282 65.4078 16.4251 64.7514 16.4033C62.9109 16.3407 63.1808 16.6378 63.1716 14.7585C63.1716 11.8975 63.1716 9.03638 63.1716 6.1753C63.1716 5.26851 63.1716 5.256 64.0919 5.26851C65.8219 5.29352 65.5827 5.00272 65.6011 6.83194C65.6011 7.9795 65.6011 9.12705 65.6011 10.2715L65.7575 10.3184Z" fill="#454A58"/>
<path d="M42.7518 12.1132C42.6958 12.6617 42.6098 13.2066 42.4941 13.7454C41.9726 15.6778 40.3468 16.7003 38.1413 16.5158C36.1996 16.3532 34.9603 15.1337 34.7671 13.1013C34.6808 12.3336 34.7056 11.5571 34.8407 10.7968C35.2732 8.70178 36.988 7.59174 39.2732 7.80124C41.2886 7.9826 42.5401 9.36467 42.6812 11.5722C42.6812 11.7505 42.6812 11.9287 42.6812 12.1038L42.7518 12.1132ZM37.0156 12.2914C37.0321 12.703 37.0792 13.1128 37.1567 13.5171C37.3714 14.4114 37.8929 14.7866 38.7548 14.7679C39.5616 14.7429 40.1291 14.3301 40.2426 13.4702C40.3489 12.6635 40.3571 11.8464 40.2671 11.0375C40.1444 9.96815 39.5953 9.54915 38.6076 9.5773C37.718 9.60231 37.2057 10.1214 37.0738 11.1407C37.037 11.4722 37.037 11.8036 37.0125 12.2914H37.0156Z" fill="#454A58"/>
<path d="M56.862 14.2519C57.1963 15.5026 57.0123 15.9091 55.9264 16.2437C54.7151 16.644 53.4107 16.644 52.1994 16.2437C51.8011 16.123 51.4319 15.9191 51.115 15.6451C50.7982 15.3711 50.5407 15.033 50.3589 14.6521C49.979 13.8739 49.7843 13.0154 49.7907 12.1462C49.7971 11.2769 50.0044 10.4215 50.3957 9.64915C51.1196 8.17952 52.8773 7.49787 54.6902 7.88247C56.2607 8.21705 57.1104 9.26454 57.2546 11.0375C57.3988 12.8104 57.3804 12.8042 55.635 12.8042C54.5675 12.8042 53.4877 12.8042 52.4325 12.8042C52.3721 12.8194 52.3142 12.8436 52.2607 12.8761C52.2607 13.786 52.635 14.4395 53.4877 14.5489C54.3458 14.5986 55.2066 14.5641 56.0583 14.4458C56.3317 14.408 56.6009 14.3431 56.862 14.2519ZM52.2607 11.2063C52.4061 11.2288 52.5525 11.2434 52.6994 11.2501C53.3742 11.2501 54.0521 11.272 54.7239 11.222C54.8435 11.222 55.046 10.9093 55.0307 10.7342C55.0254 10.5549 54.9837 10.3787 54.9083 10.2167C54.8329 10.0547 54.7254 9.91041 54.5925 9.79288C54.4596 9.67536 54.3043 9.58719 54.1363 9.53393C53.9684 9.48066 53.7914 9.46347 53.6166 9.48342C52.7362 9.55534 52.2331 10.1776 52.2607 11.2063Z" fill="#454A58"/>
<path d="M75.1747 12.8042C75.2667 13.9174 75.6593 14.5083 76.5581 14.5865C77.4198 14.6106 78.282 14.5583 79.1348 14.4302C79.3842 14.3904 79.6296 14.3276 79.8679 14.2426C80.1931 15.5371 80.009 15.8998 78.8986 16.2438C77.8745 16.5692 76.7858 16.622 75.736 16.397C74.1716 16.0687 73.233 15.0962 72.9323 13.5265C72.6901 12.4161 72.7549 11.259 73.1195 10.1839C73.9262 7.93568 77.1072 6.98825 78.9784 8.44849C79.9538 9.20832 80.2054 10.3246 80.2514 11.4628C80.3127 13.0825 80.3403 12.7917 79.0244 12.8105C77.7391 12.8261 76.4937 12.8042 75.1747 12.8042ZM75.236 11.2408C76.0244 11.2408 76.825 11.2627 77.6225 11.2189C77.7452 11.2189 77.9508 10.9062 77.9508 10.7405C77.9537 10.5554 77.9164 10.372 77.8414 10.2035C77.7664 10.035 77.6557 9.88548 77.5172 9.76583C77.3787 9.64619 77.2159 9.55936 77.0405 9.51162C76.8651 9.46387 76.6815 9.4564 76.5029 9.48973C75.6808 9.58041 75.1317 10.3027 75.236 11.2408Z" fill="#454A58"/>
<path d="M81.0244 7.94195C81.7882 7.94195 82.4385 7.9013 83.0766 7.96696C83.2545 7.98572 83.4569 8.27965 83.5459 8.51416C84.0827 9.82119 84.5888 11.1376 85.1717 12.6197C85.6103 11.444 85.9937 10.4309 86.3741 9.39594C86.9539 7.83251 86.9508 7.83251 88.595 7.93257C88.7311 7.95046 88.8663 7.97551 88.9999 8.00761C88.9355 8.26089 88.8956 8.48915 88.8189 8.7049C87.8802 11.2814 86.9416 13.858 85.9845 16.4282C85.3526 18.1293 84.144 18.8641 82.414 18.6546C81.7207 18.5701 81.2606 17.5664 81.6901 17.013C81.779 16.8973 82.0398 16.8848 82.2207 16.8848C83.7269 16.8848 84.2882 16.0218 83.6962 14.6022C82.8649 12.601 82.049 10.5935 81.2269 8.58921C81.1625 8.42661 81.1256 8.26089 81.0244 7.94195Z" fill="#454A58"/>
<path d="M44.638 12.282C44.638 11.6378 44.638 10.9937 44.638 10.3527C44.638 9.97123 44.5705 9.70857 44.1104 9.70857C43.3404 9.70857 43.6073 9.0832 43.5736 8.67671C43.5398 8.27021 43.5552 7.88248 44.1196 7.92939C44.5398 7.96691 44.6226 7.72927 44.638 7.3603C44.6993 5.96259 44.7085 5.99073 46.0889 5.9751C46.7208 5.9751 46.9815 6.18772 46.8864 6.82248C46.8864 6.91003 46.8864 7.00383 46.8864 7.08826C46.7791 7.76054 47.0368 7.98254 47.7085 7.94189C48.6472 7.88561 49.0705 8.5485 48.6871 9.43966C48.6226 9.59288 48.3098 9.69606 48.1042 9.70857C46.8772 9.78674 46.8772 9.77423 46.8772 11.0187C46.8772 11.8849 46.8772 12.7479 46.8772 13.614C46.8772 14.4802 47.0766 14.6365 47.9355 14.6459C48.2699 14.6459 48.7576 14.3332 48.822 15.0524C48.9048 15.9685 48.7821 16.2312 48.0582 16.3782C47.7386 16.4494 47.4129 16.4881 47.0858 16.4939C45.4601 16.4939 44.7208 15.7872 44.6318 14.1425C44.6012 13.5171 44.6318 12.8917 44.6318 12.2663L44.638 12.282Z" fill="#454A58"/>
<path d="M58.8436 10.4059C58.8436 8.67673 58.8436 6.94757 58.8436 5.22154C58.8436 4.74626 58.9509 4.56178 59.4571 4.56178C61.1166 4.56178 61.1197 4.54302 61.1197 6.2409C61.1197 9.29897 61.1197 12.357 61.1197 15.4151C61.1197 16.3876 61.1197 16.3938 60.1994 16.3876C58.6657 16.3876 58.8743 16.5502 58.865 15.0587C58.8344 13.5077 58.8436 11.9568 58.8436 10.4059Z" fill="#454A58"/>
<path d="M0 21.5V0.5H20.5982V21.5H0ZM19.6718 1.44744H0.92638V16.916H19.638L19.6718 1.44744ZM8.41104 7.36033H12.1534V2.77635H15.5276V15.3745H12.1534V10.2308H8.41104V15.3745H5.03681V2.77635H8.41104V7.36033Z" fill="#454A58"/>
</g>
<defs>
<clipPath id="clip0_497_677">
<rect width="89" height="21" fill="white" transform="translate(0 0.5)"/>
</clipPath>
</defs>
</svg>
