<svg width="138" height="32" viewBox="0 0 138 32" fill="none" xmlns="http://www.w3.org/2000/svg">
<g clip-path="url(#clip0_461_196)">
<path d="M51.2017 15.7427C51.2017 18.2108 51.2017 20.6742 51.2017 23.1424C51.2017 23.9 50.9971 24.243 50.1743 24.224C46.8449 24.143 47.4775 24.6671 47.4156 21.5366C47.4156 20.3216 47.3871 19.1019 47.4156 17.8868C47.4156 17.2198 47.2682 16.8958 46.5214 16.9339C45.0375 16.9768 43.5487 16.9768 42.0648 16.9339C41.3751 16.9339 41.1944 17.196 41.2086 17.8344C41.2372 19.5879 41.2086 21.3461 41.2086 23.0995C41.2086 23.9047 40.9994 24.2621 40.1289 24.2382C36.9232 24.1477 37.4654 24.7147 37.4416 21.5938C37.4083 17.2341 37.4416 12.8791 37.4131 8.51937C37.4131 7.53783 37.7127 7.24242 38.683 7.26148C41.1944 7.30436 41.1944 7.26148 41.1944 9.80108C41.1944 10.916 41.2229 12.031 41.1944 13.1364C41.1944 13.8178 41.4464 14.0226 42.0886 14.0083C43.5155 13.9798 44.9423 13.9702 46.3692 14.0083C47.1398 14.0322 47.4584 13.8035 47.4251 12.9792C47.3681 11.3925 47.4251 9.80108 47.4251 8.21442C47.4251 7.51877 47.6725 7.26148 48.3764 7.26148C51.8247 7.32818 51.1398 6.785 51.1969 9.96785C51.2302 11.8737 51.1969 13.8178 51.1969 15.7427H51.2017Z" fill="#454A58"/>
<path d="M101.962 14.9613C103.602 12.6932 105.291 10.449 106.875 8.15244C107.056 7.83308 107.329 7.57535 107.658 7.41235C107.987 7.24934 108.357 7.18849 108.72 7.23761C109.51 7.29955 110.309 7.23761 111.355 7.23761C111.15 7.63634 110.925 8.02437 110.68 8.40021C109.158 10.4681 107.645 12.5408 106.081 14.5944C105.983 14.6819 105.905 14.7886 105.851 14.9078C105.796 15.027 105.767 15.1562 105.765 15.2872C105.763 15.4182 105.787 15.5483 105.838 15.6693C105.888 15.7903 105.962 15.8996 106.057 15.9904C107.745 18.3109 109.386 20.6789 111.018 23.0327C111.222 23.3234 111.384 23.6426 111.712 24.1858C110.238 24.1858 109.006 24.2239 107.783 24.1572C107.526 24.1572 107.246 23.7808 107.06 23.5187C105.562 21.4318 104.088 19.3305 102.604 17.234C102.38 16.9196 102.128 16.6146 101.724 16.0524C101.724 18.5586 101.671 20.7409 101.724 22.9231C101.762 23.9666 101.419 24.2668 100.401 24.2334C97.5477 24.1381 97.9663 24.5908 97.952 21.7272C97.952 17.3674 97.952 13.0077 97.952 8.64797C97.952 7.2662 97.952 7.24714 99.3789 7.2662C102.061 7.30432 101.69 6.8612 101.719 9.64857C101.719 11.3972 101.719 13.1459 101.719 14.8898L101.962 14.9613Z" fill="#454A58"/>
<path d="M66.2888 17.6963C66.202 18.5321 66.0686 19.3625 65.8892 20.1834C65.0807 23.1281 62.5598 24.6861 59.14 24.405C56.1293 24.1572 54.2077 22.299 53.9081 19.2019C53.7743 18.0321 53.8128 16.8489 54.0222 15.6903C54.6929 12.4979 57.3516 10.8064 60.8951 11.1257C64.02 11.402 65.9606 13.508 66.1794 16.872C66.1794 17.1435 66.1794 17.4151 66.1794 17.682L66.2888 17.6963ZM57.3945 17.9678C57.42 18.5951 57.4932 19.2195 57.6132 19.8356C57.9462 21.1983 58.7548 21.7701 60.0913 21.7415C61.3422 21.7034 62.2221 21.0745 62.3981 19.7642C62.5629 18.5348 62.5757 17.2897 62.4362 16.0572C62.2459 14.4276 61.3945 13.7892 59.863 13.832C58.4836 13.8702 57.6893 14.6611 57.4848 16.2144C57.4277 16.7195 57.4277 17.2245 57.3897 17.9678H57.3945Z" fill="#454A58"/>
<path d="M88.1678 20.9553C88.6862 22.8612 88.4009 23.4806 86.7171 23.9904C84.8389 24.6004 82.8164 24.6004 80.9382 23.9904C80.3207 23.8064 79.7481 23.4958 79.2568 23.0783C78.7655 22.6608 78.3663 22.1455 78.0844 21.5652C77.4953 20.3793 77.1934 19.0711 77.2034 17.7465C77.2133 16.422 77.5347 15.1184 78.1415 13.9416C79.264 11.7022 81.9893 10.6634 84.8003 11.2495C87.2356 11.7593 88.5531 13.3555 88.7766 16.0571C89.0002 18.7587 88.9716 18.7492 86.2653 18.7492C84.6101 18.7492 82.9359 18.7492 81.2997 18.7492C81.206 18.7725 81.1163 18.8094 81.0333 18.8588C81.0333 20.2453 81.6136 21.2412 82.9359 21.4079C84.2664 21.4836 85.6012 21.431 86.9217 21.2507C87.3457 21.1932 87.763 21.0942 88.1678 20.9553ZM81.0333 16.3144C81.2587 16.3487 81.4857 16.3709 81.7135 16.3811C82.7599 16.3811 83.811 16.4145 84.8526 16.3382C85.0381 16.3382 85.3521 15.8618 85.3283 15.5949C85.3201 15.3218 85.2555 15.0533 85.1386 14.8065C85.0217 14.5596 84.8549 14.3397 84.6489 14.1606C84.4429 13.9815 84.202 13.8472 83.9416 13.766C83.6811 13.6848 83.4067 13.6586 83.1356 13.6891C81.7706 13.7986 80.9905 14.7468 81.0333 16.3144Z" fill="#454A58"/>
<path d="M116.563 18.7492C116.706 20.4455 117.315 21.346 118.708 21.4651C120.044 21.5018 121.381 21.422 122.703 21.2269C123.09 21.1662 123.471 21.0705 123.84 20.941C124.344 22.9136 124.059 23.4663 122.337 23.9904C120.749 24.4864 119.061 24.5667 117.433 24.2239C115.008 23.7236 113.552 22.2418 113.086 19.8499C112.711 18.1578 112.811 16.3946 113.376 14.7564C114.627 11.3305 119.56 9.88679 122.461 12.1119C123.973 13.2698 124.363 14.9708 124.435 16.7051C124.53 19.1733 124.573 18.7301 122.532 18.7587C120.539 18.7826 118.608 18.7492 116.563 18.7492ZM116.658 16.3668C117.881 16.3668 119.122 16.4002 120.359 16.3335C120.549 16.3335 120.868 15.857 120.868 15.6045C120.872 15.3225 120.814 15.043 120.698 14.7862C120.582 14.5294 120.41 14.3016 120.195 14.1193C119.981 13.937 119.728 13.8047 119.456 13.7319C119.184 13.6592 118.899 13.6478 118.623 13.6986C117.348 13.8368 116.496 14.9374 116.658 16.3668Z" fill="#454A58"/>
<path d="M125.634 11.34C126.818 11.34 127.826 11.2781 128.816 11.3782C129.092 11.4067 129.406 11.8546 129.543 12.212C130.376 14.2036 131.161 16.2096 132.064 18.4681C132.745 16.6765 133.339 15.1328 133.929 13.5556C134.828 11.1733 134.823 11.1733 137.372 11.3257C137.584 11.353 137.793 11.3912 138 11.4401C137.9 11.826 137.839 12.1739 137.72 12.5026C136.264 16.4288 134.809 20.3549 133.325 24.2715C132.345 26.8636 130.471 27.9833 127.788 27.664C126.713 27.5354 126 26.0059 126.666 25.1625C126.804 24.9862 127.208 24.9672 127.489 24.9672C129.824 24.9672 130.695 23.6521 129.777 21.4889C128.488 18.4395 127.222 15.3805 125.948 12.3263C125.848 12.0786 125.791 11.826 125.634 11.34Z" fill="#454A58"/>
<path d="M69.2141 17.9535C69.2141 16.972 69.2141 15.9904 69.2141 15.0137C69.2141 14.4324 69.1095 14.0321 68.396 14.0321C67.2022 14.0321 67.616 13.0792 67.5637 12.4598C67.5113 11.8403 67.5351 11.2495 68.4103 11.321C69.0619 11.3782 69.1903 11.016 69.2141 10.4538C69.3092 8.32396 69.3235 8.36684 71.4638 8.34302C72.4437 8.34302 72.8479 8.66702 72.7005 9.63426C72.7005 9.76768 72.7005 9.91062 72.7005 10.0393C72.534 11.0637 72.9336 11.402 73.9752 11.34C75.4306 11.2543 76.087 12.2644 75.4925 13.6224C75.3926 13.8558 74.9074 14.0131 74.5888 14.0321C72.6862 14.1512 72.6862 14.1322 72.6862 16.0285C72.6862 17.3484 72.6862 18.6634 72.6862 19.9833C72.6862 21.3031 72.9954 21.5413 74.3272 21.5556C74.8456 21.5556 75.6018 21.0792 75.7017 22.1751C75.8301 23.5711 75.6399 23.9714 74.5174 24.1953C74.0219 24.3038 73.5168 24.3629 73.0097 24.3716C70.4888 24.3716 69.3425 23.2948 69.2046 20.7885C69.157 19.8356 69.2046 18.8826 69.2046 17.9297L69.2141 17.9535Z" fill="#454A58"/>
<path d="M91.2408 15.0946C91.2408 12.4597 91.2408 9.82484 91.2408 7.1947C91.2408 6.47046 91.4072 6.18934 92.192 6.18934C94.7652 6.18934 94.77 6.16076 94.77 8.74801C94.77 13.4079 94.77 18.0678 94.77 22.7278C94.77 24.2096 94.77 24.2191 93.3431 24.2096C90.9649 24.2096 91.2883 24.4574 91.2741 22.1846C91.2265 19.8213 91.2408 17.458 91.2408 15.0946Z" fill="#454A58"/>
<path d="M0 32V0H31.9387V32H0ZM30.5023 1.44372H1.43641V25.0149H30.45L30.5023 1.44372ZM13.0418 10.4538H18.8446V3.46873H24.0765V22.6659H18.8446V14.8279H13.0418V22.6659H7.80988V3.46873H13.0418V10.4538Z" fill="#454A58"/>
</g>
<defs>
<clipPath id="clip0_461_196">
<rect width="138" height="32" fill="white"/>
</clipPath>
</defs>
</svg>
