<svg width="112" height="25" viewBox="0 0 112 25" fill="none" xmlns="http://www.w3.org/2000/svg">
<g clip-path="url(#clip0_513_1956)">
<path d="M41.555 12.299C41.555 14.2272 41.555 16.1517 41.555 18.08C41.555 18.6718 41.389 18.9399 40.7212 18.925C38.019 18.8617 38.5325 19.2712 38.4823 16.8255C38.4823 15.8763 38.4591 14.9233 38.4823 13.9741C38.4823 13.453 38.3626 13.1998 37.7566 13.2296C36.5522 13.2631 35.3439 13.2631 34.1395 13.2296C33.5798 13.2296 33.4331 13.4343 33.4447 13.9332C33.4679 15.303 33.4447 16.6766 33.4447 18.0465C33.4447 18.6756 33.2749 18.9547 32.5684 18.9361C29.9667 18.8654 30.4067 19.3084 30.3874 16.8702C30.3604 13.4641 30.3874 10.0618 30.3643 6.65576C30.3643 5.88893 30.6075 5.65814 31.3949 5.67303C33.4331 5.70653 33.4331 5.67303 33.4331 7.6571C33.4331 8.52815 33.4563 9.39921 33.4331 10.2628C33.4331 10.7951 33.6377 10.9552 34.1588 10.944C35.3169 10.9217 36.475 10.9142 37.633 10.944C38.2584 10.9626 38.517 10.784 38.49 10.14C38.4437 8.9004 38.49 7.6571 38.49 6.41752C38.49 5.87404 38.6907 5.67303 39.262 5.67303C42.0607 5.72515 41.5048 5.30079 41.5511 7.78739C41.5782 9.27637 41.5511 10.7951 41.5511 12.299H41.555Z" fill="#454A58"/>
<path d="M82.7513 11.6886C84.0831 9.91673 85.4535 8.16346 86.7389 6.36924C86.8863 6.11973 87.1076 5.91839 87.3745 5.79104C87.6414 5.66369 87.9416 5.61615 88.2367 5.65452C88.8775 5.70292 89.526 5.65452 90.3753 5.65452C90.2086 5.96603 90.0256 6.26918 89.8271 6.5628C88.5918 8.17835 87.3643 9.79762 86.0943 11.402C86.0153 11.4704 85.9518 11.5538 85.9077 11.6469C85.8636 11.74 85.8399 11.8409 85.8381 11.9433C85.8363 12.0456 85.8564 12.1473 85.8972 12.2418C85.9379 12.3363 85.9985 12.4217 86.075 12.4927C87.4454 14.3055 88.7771 16.1556 90.1012 17.9945C90.2672 18.2215 90.3984 18.4709 90.6648 18.8953C89.4681 18.8953 88.4683 18.9251 87.4762 18.873C87.2678 18.873 87.04 18.5789 86.8895 18.3741C85.6735 16.7437 84.4769 15.1021 83.2725 13.4642C83.091 13.2186 82.8865 12.9803 82.5583 12.5411C82.5583 14.4991 82.5159 16.204 82.5583 17.9088C82.5892 18.7241 82.3113 18.9586 81.4852 18.9325C79.1691 18.8581 79.5088 19.2117 79.4972 16.9745C79.4972 13.5685 79.4972 10.1624 79.4972 6.75637C79.4972 5.67686 79.4972 5.66197 80.6553 5.67686C82.8324 5.70664 82.5313 5.36045 82.5545 7.53809C82.5545 8.90423 82.5545 10.2704 82.5545 11.6328L82.7513 11.6886Z" fill="#454A58"/>
<path d="M53.7999 13.8253C53.7294 14.4783 53.6212 15.127 53.4756 15.7684C52.8194 18.0689 50.7735 19.2861 47.998 19.0665C45.5545 18.8729 43.995 17.4212 43.7518 15.0016C43.6432 14.0876 43.6744 13.1633 43.8444 12.2581C44.3887 9.76408 46.5466 8.44261 49.4224 8.69201C51.9586 8.90791 53.5335 10.5532 53.7111 13.1813C53.7111 13.3935 53.7111 13.6056 53.7111 13.8141L53.7999 13.8253ZM46.5813 14.0375C46.6021 14.5275 46.6614 15.0153 46.7589 15.4967C47.0291 16.5613 47.6853 17.008 48.77 16.9856C49.7853 16.9559 50.4994 16.4645 50.6422 15.4408C50.776 14.4804 50.7864 13.5077 50.6731 12.5447C50.5187 11.2717 49.8277 10.7729 48.5847 10.8064C47.4653 10.8361 46.8206 11.4541 46.6546 12.6676C46.6083 13.0622 46.6083 13.4568 46.5774 14.0375H46.5813Z" fill="#454A58"/>
<path d="M71.5566 16.3711C71.9774 17.8601 71.7457 18.344 70.3792 18.7423C68.8549 19.2188 67.2134 19.2188 65.6891 18.7423C65.1879 18.5986 64.7232 18.3559 64.3245 18.0297C63.9258 17.7035 63.6017 17.301 63.373 16.8476C62.8948 15.9211 62.6499 14.8991 62.6579 13.8643C62.666 12.8295 62.9268 11.8111 63.4193 10.8917C64.3303 9.14211 66.5422 8.33062 68.8236 8.78848C70.8 9.18678 71.8693 10.4338 72.0507 12.5444C72.2321 14.6551 72.209 14.6476 70.0125 14.6476C68.6692 14.6476 67.3104 14.6476 65.9825 14.6476C65.9064 14.6658 65.8336 14.6946 65.7663 14.7332C65.7663 15.8165 66.2372 16.5945 67.3104 16.7247C68.3902 16.7839 69.4735 16.7427 70.5452 16.6019C70.8893 16.557 71.2281 16.4797 71.5566 16.3711ZM65.7663 12.7454C65.9492 12.7722 66.1335 12.7896 66.3183 12.7976C67.1675 12.7976 68.0206 12.8236 68.866 12.7641C69.0166 12.7641 69.2713 12.3918 69.252 12.1834C69.2454 11.97 69.193 11.7602 69.0981 11.5674C69.0032 11.3745 68.8679 11.2027 68.7007 11.0628C68.5335 10.9229 68.338 10.8179 68.1266 10.7545C67.9152 10.6911 67.6925 10.6706 67.4725 10.6944C66.3646 10.78 65.7315 11.5208 65.7663 12.7454Z" fill="#454A58"/>
<path d="M94.6019 14.6477C94.7177 15.9729 95.2118 16.6765 96.3428 16.7695C97.4272 16.7981 98.5122 16.7359 99.5854 16.5834C99.8993 16.536 100.208 16.4612 100.508 16.36C100.917 17.9011 100.686 18.3329 99.2881 18.7424C97.9994 19.1299 96.6293 19.1927 95.3083 18.9248C93.3396 18.534 92.1584 17.3763 91.7801 15.5076C91.4752 14.1857 91.5568 12.8082 92.0155 11.5283C93.0308 8.85186 97.0338 7.72396 99.3885 9.46234C100.616 10.3669 100.933 11.6958 100.991 13.0508C101.068 14.979 101.102 14.6328 99.4464 14.6552C97.829 14.6738 96.2617 14.6477 94.6019 14.6477ZM94.6791 12.7865C95.6711 12.7865 96.6786 12.8126 97.6823 12.7604C97.8367 12.7604 98.0953 12.3882 98.0953 12.1909C98.0991 11.9706 98.0521 11.7523 97.9577 11.5516C97.8634 11.351 97.724 11.173 97.5498 11.0306C97.3755 10.8882 97.1706 10.7848 96.9498 10.728C96.7291 10.6711 96.4981 10.6622 96.2733 10.7019C95.2388 10.8099 94.5478 11.6698 94.6791 12.7865Z" fill="#454A58"/>
<path d="M101.963 8.85959C102.925 8.85959 103.743 8.8112 104.546 8.88937C104.77 8.9117 105.025 9.26161 105.136 9.5408C105.812 11.0968 106.449 12.6639 107.182 14.4284C107.734 13.0287 108.217 11.8227 108.696 10.5905C109.425 8.7293 109.421 8.7293 111.49 8.84842C111.662 8.86972 111.832 8.89954 112 8.93776C111.919 9.23928 111.869 9.51102 111.772 9.76787C110.591 12.8352 109.41 15.9025 108.205 18.9623C107.41 20.9873 105.889 21.8621 103.712 21.6127C102.84 21.5122 102.261 20.3173 102.801 19.6584C102.913 19.5207 103.241 19.5058 103.469 19.5058C105.364 19.5058 106.071 18.4784 105.326 16.7884C104.28 14.406 103.253 12.0162 102.218 9.63014C102.137 9.43657 102.091 9.23928 101.963 8.85959Z" fill="#454A58"/>
<path d="M56.1737 14.0263C56.1737 13.2594 56.1737 12.4926 56.1737 11.7295C56.1737 11.2754 56.0887 10.9627 55.5097 10.9627C54.5408 10.9627 54.8766 10.2182 54.8342 9.73427C54.7917 9.25035 54.811 8.78876 55.5213 8.8446C56.0501 8.88927 56.1544 8.60636 56.1737 8.16711C56.2509 6.50318 56.2624 6.53668 57.9995 6.51807C58.7947 6.51807 59.1229 6.77119 59.0032 7.52685C59.0032 7.63108 59.0032 7.74275 59.0032 7.84326C58.8681 8.64359 59.1923 8.90788 60.0377 8.85949C61.219 8.79249 61.7517 9.58165 61.2691 10.6425C61.1881 10.8249 60.7943 10.9478 60.5357 10.9627C58.9916 11.0557 58.9916 11.0408 58.9916 12.5224C58.9916 13.5535 58.9916 14.5809 58.9916 15.612C58.9916 16.6431 59.2425 16.8293 60.3234 16.8404C60.7441 16.8404 61.3579 16.4682 61.439 17.3243C61.5432 18.415 61.3888 18.7277 60.4778 18.9027C60.0756 18.9875 59.6657 19.0336 59.2541 19.0404C57.2082 19.0404 56.2779 18.1991 56.1659 16.2411C56.1273 15.4966 56.1659 14.7521 56.1659 14.0076L56.1737 14.0263Z" fill="#454A58"/>
<path d="M74.0505 11.7927C74.0505 9.73421 74.0505 7.67569 74.0505 5.6209C74.0505 5.05508 74.1856 4.83546 74.8225 4.83546C76.9109 4.83546 76.9147 4.81312 76.9147 6.83442C76.9147 10.475 76.9147 14.1155 76.9147 17.7561C76.9147 18.9138 76.9147 18.9212 75.7567 18.9138C73.8266 18.9138 74.0891 19.1073 74.0775 17.3317C74.0389 15.4854 74.0505 13.6391 74.0505 11.7927Z" fill="#454A58"/>
<path d="M0 25V0H25.9213V25H0ZM24.7555 1.1279H1.16578V19.5429H24.713L24.7555 1.1279ZM10.5847 8.16706H15.2941V2.70995H19.5404V17.7077H15.2941V11.5843H10.5847V17.7077H6.33846V2.70995H10.5847V8.16706Z" fill="#454A58"/>
</g>
<defs>
<clipPath id="clip0_513_1956">
<rect width="112" height="25" fill="white"/>
</clipPath>
</defs>
</svg>
