<svg width="138" height="33" viewBox="0 0 138 33" fill="none" xmlns="http://www.w3.org/2000/svg">
<g clip-path="url(#clip0_458_430)">
<path d="M51.2017 16.2428C51.2017 18.711 51.2017 21.1743 51.2017 23.6425C51.2017 24.4001 50.9971 24.7431 50.1743 24.7241C46.8449 24.6431 47.4775 25.1672 47.4156 22.0368C47.4156 20.8218 47.3871 19.602 47.4156 18.387C47.4156 17.7199 47.2682 17.3959 46.5214 17.434C45.0375 17.4769 43.5487 17.4769 42.0648 17.434C41.3751 17.434 41.1944 17.6961 41.2086 18.3346C41.2372 20.088 41.2086 21.8462 41.2086 23.5996C41.2086 24.4048 40.9994 24.7622 40.1289 24.7384C36.9232 24.6478 37.4654 25.2148 37.4416 22.0939C37.4083 17.7342 37.4416 13.3792 37.4131 9.01949C37.4131 8.03795 37.7127 7.74254 38.683 7.7616C41.1944 7.80448 41.1944 7.7616 41.1944 10.3012C41.1944 11.4162 41.2229 12.5311 41.1944 13.6365C41.1944 14.3179 41.4464 14.5228 42.0886 14.5085C43.5155 14.4799 44.9423 14.4704 46.3692 14.5085C47.1398 14.5323 47.4584 14.3036 47.4251 13.4793C47.3681 11.8926 47.4251 10.3012 47.4251 8.71455C47.4251 8.01889 47.6725 7.7616 48.3764 7.7616C51.8247 7.8283 51.1398 7.28512 51.1969 10.468C51.2302 12.3739 51.1969 14.3179 51.1969 16.2428H51.2017Z" fill="#454A58"/>
<path d="M101.962 15.4614C103.602 13.1934 105.291 10.9492 106.875 8.65256C107.056 8.3332 107.329 8.07548 107.658 7.91247C107.987 7.74947 108.357 7.68862 108.72 7.73773C109.51 7.79967 110.309 7.73773 111.355 7.73773C111.15 8.13646 110.925 8.52449 110.68 8.90033C109.158 10.9682 107.645 13.0409 106.081 15.0945C105.983 15.182 105.905 15.2887 105.851 15.408C105.796 15.5272 105.767 15.6563 105.765 15.7873C105.763 15.9184 105.787 16.0484 105.838 16.1694C105.888 16.2904 105.962 16.3997 106.057 16.4906C107.745 18.811 109.386 21.1791 111.018 23.5328C111.222 23.8235 111.384 24.1427 111.712 24.6859C110.238 24.6859 109.006 24.724 107.783 24.6573C107.526 24.6573 107.246 24.2809 107.06 24.0189C105.562 21.9319 104.088 19.8306 102.604 17.7342C102.38 17.4197 102.128 17.1147 101.724 16.5525C101.724 19.0588 101.671 21.241 101.724 23.4233C101.762 24.4667 101.419 24.7669 100.401 24.7336C97.5477 24.6383 97.9663 25.0909 97.952 22.2273C97.952 17.8676 97.952 13.5078 97.952 9.1481C97.952 7.76632 97.952 7.74726 99.3789 7.76632C102.061 7.80444 101.69 7.36132 101.719 10.1487C101.719 11.8974 101.719 13.646 101.719 15.3899L101.962 15.4614Z" fill="#454A58"/>
<path d="M66.2888 18.1963C66.202 19.0321 66.0686 19.8625 65.8892 20.6834C65.0807 23.6281 62.5598 25.1861 59.14 24.905C56.1293 24.6572 54.2077 22.799 53.9081 19.7019C53.7743 18.5321 53.8128 17.3489 54.0222 16.1903C54.6929 12.9979 57.3516 11.3064 60.8951 11.6257C64.02 11.902 65.9606 14.008 66.1794 17.372C66.1794 17.6435 66.1794 17.9151 66.1794 18.182L66.2888 18.1963ZM57.3945 18.4678C57.42 19.0951 57.4932 19.7195 57.6132 20.3356C57.9462 21.6983 58.7548 22.2701 60.0913 22.2415C61.3422 22.2034 62.2221 21.5745 62.3981 20.2642C62.5629 19.0348 62.5757 17.7897 62.4362 16.5572C62.2459 14.9276 61.3945 14.2892 59.863 14.332C58.4836 14.3702 57.6893 15.1611 57.4848 16.7144C57.4277 17.2195 57.4277 17.7245 57.3897 18.4678H57.3945Z" fill="#454A58"/>
<path d="M88.1678 21.4553C88.6862 23.3612 88.4009 23.9806 86.7171 24.4904C84.8389 25.1004 82.8164 25.1004 80.9382 24.4904C80.3207 24.3064 79.7481 23.9958 79.2568 23.5783C78.7655 23.1608 78.3663 22.6455 78.0844 22.0652C77.4953 20.8793 77.1934 19.5711 77.2034 18.2465C77.2133 16.922 77.5347 15.6184 78.1415 14.4416C79.264 12.2022 81.9893 11.1634 84.8003 11.7495C87.2356 12.2593 88.5531 13.8555 88.7766 16.5571C89.0002 19.2587 88.9716 19.2492 86.2653 19.2492C84.6101 19.2492 82.9359 19.2492 81.2997 19.2492C81.206 19.2725 81.1163 19.3094 81.0333 19.3588C81.0333 20.7453 81.6136 21.7412 82.9359 21.9079C84.2664 21.9836 85.6012 21.931 86.9217 21.7507C87.3457 21.6932 87.763 21.5942 88.1678 21.4553ZM81.0333 16.8144C81.2587 16.8487 81.4857 16.8709 81.7135 16.8811C82.7599 16.8811 83.811 16.9145 84.8526 16.8382C85.0381 16.8382 85.3521 16.3618 85.3283 16.0949C85.3201 15.8218 85.2555 15.5533 85.1386 15.3065C85.0217 15.0596 84.8549 14.8397 84.6489 14.6606C84.4429 14.4815 84.202 14.3472 83.9416 14.266C83.6811 14.1848 83.4067 14.1586 83.1356 14.1891C81.7706 14.2986 80.9905 15.2468 81.0333 16.8144Z" fill="#454A58"/>
<path d="M116.563 19.2491C116.706 20.9453 117.315 21.8459 118.708 21.965C120.044 22.0016 121.381 21.9219 122.703 21.7267C123.09 21.6661 123.471 21.5704 123.84 21.4409C124.344 23.4135 124.059 23.9662 122.337 24.4903C120.749 24.9862 119.061 25.0666 117.433 24.7238C115.008 24.2235 113.552 22.7416 113.086 20.3497C112.711 18.6577 112.811 16.8945 113.376 15.2562C114.627 11.8304 119.56 10.3867 122.461 12.6118C123.973 13.7696 124.363 15.4706 124.435 17.205C124.53 19.6731 124.573 19.23 122.532 19.2586C120.539 19.2824 118.608 19.2491 116.563 19.2491ZM116.658 16.8667C117.881 16.8667 119.122 16.9001 120.359 16.8334C120.549 16.8334 120.868 16.3569 120.868 16.1044C120.872 15.8224 120.814 15.5429 120.698 15.2861C120.582 15.0293 120.41 14.8015 120.195 14.6192C119.981 14.4369 119.728 14.3046 119.456 14.2318C119.184 14.159 118.899 14.1477 118.623 14.1985C117.348 14.3366 116.496 15.4373 116.658 16.8667Z" fill="#454A58"/>
<path d="M125.634 11.8402C126.818 11.8402 127.826 11.7782 128.816 11.8783C129.092 11.9069 129.406 12.3547 129.543 12.7121C130.376 14.7038 131.161 16.7097 132.064 18.9682C132.745 17.1767 133.339 15.6329 133.929 14.0558C134.828 11.6734 134.823 11.6734 137.372 11.8259C137.584 11.8531 137.793 11.8913 138 11.9402C137.9 12.3262 137.839 12.674 137.72 13.0028C136.264 16.9289 134.809 20.855 133.325 24.7717C132.345 27.3637 130.471 28.4834 127.788 28.1642C126.713 28.0355 126 26.506 126.666 25.6627C126.804 25.4864 127.208 25.4673 127.489 25.4673C129.824 25.4673 130.695 24.1522 129.777 21.9891C128.488 18.9396 127.222 15.8807 125.948 12.8265C125.848 12.5787 125.791 12.3262 125.634 11.8402Z" fill="#454A58"/>
<path d="M69.2141 18.4537C69.2141 17.4722 69.2141 16.4907 69.2141 15.5139C69.2141 14.9326 69.1095 14.5324 68.396 14.5324C67.2022 14.5324 67.616 13.5794 67.5637 12.96C67.5113 12.3406 67.5351 11.7498 68.4103 11.8212C69.0619 11.8784 69.1903 11.5163 69.2141 10.954C69.3092 8.8242 69.3235 8.86709 71.4638 8.84326C72.4437 8.84326 72.8479 9.16726 72.7005 10.1345C72.7005 10.2679 72.7005 10.4109 72.7005 10.5395C72.534 11.5639 72.9336 11.9022 73.9752 11.8403C75.4306 11.7545 76.087 12.7646 75.4925 14.1226C75.3926 14.3561 74.9074 14.5133 74.5888 14.5324C72.6862 14.6515 72.6862 14.6324 72.6862 16.5288C72.6862 17.8486 72.6862 19.1637 72.6862 20.4835C72.6862 21.8034 72.9954 22.0416 74.3272 22.0559C74.8456 22.0559 75.6018 21.5794 75.7017 22.6753C75.8301 24.0714 75.6399 24.4716 74.5174 24.6956C74.0219 24.8041 73.5168 24.8631 73.0097 24.8718C70.4888 24.8718 69.3425 23.795 69.2046 21.2888C69.157 20.3358 69.2046 19.3829 69.2046 18.4299L69.2141 18.4537Z" fill="#454A58"/>
<path d="M91.2408 15.5948C91.2408 12.9599 91.2408 10.325 91.2408 7.69483C91.2408 6.97059 91.4072 6.68947 92.192 6.68947C94.7652 6.68947 94.77 6.66088 94.77 9.24813C94.77 13.908 94.77 18.568 94.77 23.2279C94.77 24.7097 94.77 24.7192 93.3431 24.7097C90.9649 24.7097 91.2883 24.9575 91.2741 22.6847C91.2265 20.3214 91.2408 17.9581 91.2408 15.5948Z" fill="#454A58"/>
<path d="M0 32.5V0.5H31.9387V32.5H0ZM30.5023 1.94372H1.43641V25.5149H30.45L30.5023 1.94372ZM13.0418 10.9538H18.8446V3.96873H24.0765V23.1659H18.8446V15.3279H13.0418V23.1659H7.80988V3.96873H13.0418V10.9538Z" fill="#454A58"/>
</g>
<defs>
<clipPath id="clip0_458_430">
<rect width="138" height="32" fill="white" transform="translate(0 0.5)"/>
</clipPath>
</defs>
</svg>
