<svg width="36" height="29" viewBox="0 0 36 29" fill="none" xmlns="http://www.w3.org/2000/svg">
<path d="M0.583252 28.6667V0.166748H22.7499V28.6667H13.2499V22.3334H10.0833V28.6667H0.583252ZM3.74992 25.5001H6.91659V19.1667H16.4166V25.5001H19.5833V3.33341H3.74992V25.5001ZM6.91659 16.0001H10.0833V12.8334H6.91659V16.0001ZM6.91659 9.66675H10.0833V6.50008H6.91659V9.66675ZM13.2499 16.0001H16.4166V12.8334H13.2499V16.0001ZM13.2499 9.66675H16.4166V6.50008H13.2499V9.66675ZM29.8749 19.9584L27.6583 17.7417L29.3603 16.0001H24.3333V12.8334H29.3603L27.6583 11.0917L29.8749 8.87508L35.4166 14.4167L29.8749 19.9584Z" fill="#00AAAC"/>
</svg>
