<svg width="36" height="37" viewBox="0 0 36 37" fill="none" xmlns="http://www.w3.org/2000/svg">
<mask id="mask0_944_498" style="mask-type:alpha" maskUnits="userSpaceOnUse" x="0" y="0" width="36" height="37">
<rect y="0.885742" width="36" height="36" fill="#D9D9D9"/>
</mask>
<g mask="url(#mask0_944_498)">
<path d="M18 33.8857C15.925 33.8857 13.975 33.492 12.15 32.7045C10.325 31.917 8.7375 30.8482 7.3875 29.4982C6.0375 28.1482 4.96875 26.5607 4.18125 24.7357C3.39375 22.9107 3 20.9607 3 18.8857C3 16.8107 3.39375 14.8607 4.18125 13.0357C4.96875 11.2107 6.0375 9.62324 7.3875 8.27324C8.7375 6.92324 10.325 5.85449 12.15 5.06699C13.975 4.27949 15.925 3.88574 18 3.88574C20.075 3.88574 22.025 4.27949 23.85 5.06699C25.675 5.85449 27.2625 6.92324 28.6125 8.27324C29.9625 9.62324 31.0312 11.2107 31.8187 13.0357C32.6062 14.8607 33 16.8107 33 18.8857C33 19.5607 32.9625 20.2232 32.8875 20.8732C32.8125 21.5232 32.6875 22.1607 32.5125 22.7857C32.1625 22.3857 31.7563 22.0482 31.2938 21.7732C30.8313 21.4982 30.325 21.3107 29.775 21.2107C29.85 20.8357 29.9062 20.4545 29.9437 20.067C29.9812 19.6795 30 19.2857 30 18.8857C30 15.5357 28.8375 12.6982 26.5125 10.3732C24.1875 8.04824 21.35 6.88574 18 6.88574C14.65 6.88574 11.8125 8.04824 9.4875 10.3732C7.1625 12.6982 6 15.5357 6 18.8857C6 22.2357 7.1625 25.0732 9.4875 27.3982C11.8125 29.7232 14.65 30.8857 18 30.8857C19.275 30.8857 20.4937 30.6982 21.6562 30.3232C22.8188 29.9482 23.8875 29.4232 24.8625 28.7482C25.1625 29.1732 25.5312 29.5482 25.9688 29.8732C26.4062 30.1982 26.875 30.4482 27.375 30.6232C26.1 31.6482 24.6687 32.4482 23.0812 33.0232C21.4937 33.5982 19.8 33.8857 18 33.8857ZM28.875 27.8857C28.35 27.8857 27.9063 27.7045 27.5438 27.342C27.1813 26.9795 27 26.5357 27 26.0107C27 25.4857 27.1813 25.042 27.5438 24.6795C27.9063 24.317 28.35 24.1357 28.875 24.1357C29.4 24.1357 29.8438 24.317 30.2063 24.6795C30.5688 25.042 30.75 25.4857 30.75 26.0107C30.75 26.5357 30.5688 26.9795 30.2063 27.342C29.8438 27.7045 29.4 27.8857 28.875 27.8857ZM22.95 25.9357L16.5 19.4857V11.3857H19.5V18.2857L25.05 23.8357L22.95 25.9357Z" fill="#1C1B1F"/>
</g>
</svg>
