<svg width="36" height="37" viewBox="0 0 36 37" fill="none" xmlns="http://www.w3.org/2000/svg">
<mask id="mask0_944_516" style="mask-type:alpha" maskUnits="userSpaceOnUse" x="0" y="0" width="36" height="37">
<rect y="0.885742" width="36" height="36" fill="#D9D9D9"/>
</mask>
<g mask="url(#mask0_944_516)">
<path d="M16.65 29.3857H19.275V27.5107C20.525 27.2857 21.6 26.7982 22.5 26.0482C23.4 25.2982 23.85 24.1857 23.85 22.7107C23.85 21.6607 23.55 20.6982 22.95 19.8232C22.35 18.9482 21.15 18.1857 19.35 17.5357C17.85 17.0357 16.8125 16.5982 16.2375 16.2232C15.6625 15.8482 15.375 15.3357 15.375 14.6857C15.375 14.0357 15.6063 13.5232 16.0688 13.1482C16.5313 12.7732 17.2 12.5857 18.075 12.5857C18.875 12.5857 19.5 12.7795 19.95 13.167C20.4 13.5545 20.725 14.0357 20.925 14.6107L23.325 13.6357C23.05 12.7607 22.5438 11.9982 21.8063 11.3482C21.0688 10.6982 20.25 10.3357 19.35 10.2607V8.38574H16.725V10.2607C15.475 10.5357 14.5 11.0857 13.8 11.9107C13.1 12.7357 12.75 13.6607 12.75 14.6857C12.75 15.8607 13.0938 16.8107 13.7812 17.5357C14.4688 18.2607 15.55 18.8857 17.025 19.4107C18.6 19.9857 19.6938 20.4982 20.3063 20.9482C20.9188 21.3982 21.225 21.9857 21.225 22.7107C21.225 23.5357 20.9312 24.142 20.3438 24.5295C19.7563 24.917 19.05 25.1107 18.225 25.1107C17.4 25.1107 16.6687 24.8545 16.0312 24.342C15.3938 23.8295 14.925 23.0607 14.625 22.0357L12.15 23.0107C12.5 24.2107 13.0437 25.1795 13.7812 25.917C14.5188 26.6545 15.475 27.1607 16.65 27.4357V29.3857ZM18 33.8857C15.925 33.8857 13.975 33.492 12.15 32.7045C10.325 31.917 8.7375 30.8482 7.3875 29.4982C6.0375 28.1482 4.96875 26.5607 4.18125 24.7357C3.39375 22.9107 3 20.9607 3 18.8857C3 16.8107 3.39375 14.8607 4.18125 13.0357C4.96875 11.2107 6.0375 9.62324 7.3875 8.27324C8.7375 6.92324 10.325 5.85449 12.15 5.06699C13.975 4.27949 15.925 3.88574 18 3.88574C20.075 3.88574 22.025 4.27949 23.85 5.06699C25.675 5.85449 27.2625 6.92324 28.6125 8.27324C29.9625 9.62324 31.0312 11.2107 31.8187 13.0357C32.6062 14.8607 33 16.8107 33 18.8857C33 20.9607 32.6062 22.9107 31.8187 24.7357C31.0312 26.5607 29.9625 28.1482 28.6125 29.4982C27.2625 30.8482 25.675 31.917 23.85 32.7045C22.025 33.492 20.075 33.8857 18 33.8857ZM18 30.8857C21.35 30.8857 24.1875 29.7232 26.5125 27.3982C28.8375 25.0732 30 22.2357 30 18.8857C30 15.5357 28.8375 12.6982 26.5125 10.3732C24.1875 8.04824 21.35 6.88574 18 6.88574C14.65 6.88574 11.8125 8.04824 9.4875 10.3732C7.1625 12.6982 6 15.5357 6 18.8857C6 22.2357 7.1625 25.0732 9.4875 27.3982C11.8125 29.7232 14.65 30.8857 18 30.8857Z" fill="#1C1B1F"/>
</g>
</svg>
