<svg width="64" height="27" viewBox="0 0 64 27" fill="none" xmlns="http://www.w3.org/2000/svg">
<path d="M42.1069 14.5965L42.6673 14.7384C42.63 14.8723 42.5739 14.9827 42.4899 15.0693C42.4058 15.156 42.3124 15.227 42.191 15.2664C42.0696 15.3137 41.9201 15.3373 41.7333 15.3373C41.5091 15.3373 41.3317 15.3137 41.1822 15.2585C41.0421 15.2033 40.9207 15.1088 40.818 14.9669C40.7152 14.8329 40.6592 14.6517 40.6592 14.4389C40.6592 14.1552 40.7526 13.9345 40.93 13.7769C41.1075 13.6193 41.369 13.5483 41.696 13.5483C41.9575 13.5483 42.1536 13.5956 42.3031 13.6823C42.4525 13.769 42.5646 13.903 42.63 14.0921L42.0696 14.1946C42.0509 14.1394 42.0322 14.1 42.0042 14.0764C41.9668 14.037 41.9295 14.0054 41.8734 13.9818C41.8174 13.9581 41.7613 13.9503 41.7053 13.9503C41.5652 13.9503 41.4531 13.9975 41.3784 14.1C41.3223 14.1709 41.2943 14.2891 41.2943 14.4389C41.2943 14.628 41.3317 14.762 41.3971 14.8329C41.4624 14.9038 41.5652 14.9433 41.6866 14.9433C41.808 14.9433 41.9014 14.9117 41.9575 14.8566C42.0322 14.7856 42.0789 14.7068 42.1069 14.5965Z" fill="black"/>
<path d="M42.8916 14.4389C42.8916 14.1552 42.985 13.9346 43.1718 13.777C43.3586 13.6193 43.6201 13.5405 43.9564 13.5405C44.302 13.5405 44.5635 13.6193 44.7503 13.7691C44.9371 13.9267 45.0305 14.1395 45.0305 14.4232C45.0305 14.6281 44.9932 14.7936 44.9091 14.9197C44.825 15.0458 44.713 15.1482 44.5542 15.2192C44.4047 15.2901 44.2086 15.3295 43.9844 15.3295C43.7509 15.3295 43.5641 15.298 43.4053 15.2349C43.2559 15.1719 43.1344 15.0773 43.0317 14.9354C42.929 14.7936 42.8916 14.6439 42.8916 14.4389ZM43.5267 14.4389C43.5267 14.6123 43.5641 14.7384 43.6388 14.8172C43.7135 14.896 43.8163 14.9354 43.9564 14.9354C44.0965 14.9354 44.1992 14.896 44.274 14.8251C44.3487 14.7463 44.386 14.6123 44.386 14.4232C44.386 14.2577 44.3487 14.1395 44.2646 14.0685C44.1899 13.9897 44.0778 13.9582 43.9471 13.9582C43.8163 13.9582 43.7135 13.9976 43.6388 14.0764C43.5641 14.1395 43.5267 14.2656 43.5267 14.4389Z" fill="black"/>
<path d="M45.3575 13.5723H46.1888L46.5064 14.6283L46.824 13.5723H47.6553V15.3061H47.1322V13.9821L46.7306 15.3061H46.2636L45.8619 13.9821V15.3061H45.3389V13.5723H45.3575Z" fill="black"/>
<path d="M48.0659 13.5723H49.1214C49.3549 13.5723 49.523 13.6195 49.6351 13.7141C49.7472 13.8087 49.8032 13.9348 49.8032 14.1082C49.8032 14.2815 49.7378 14.4234 49.6164 14.518C49.495 14.6204 49.2988 14.6677 49.0466 14.6677H48.7011V15.3139H48.0659V13.5723ZM48.7011 14.3131H48.8598C48.9813 14.3131 49.0653 14.2973 49.1214 14.2579C49.1681 14.2185 49.1961 14.1791 49.1961 14.1239C49.1961 14.0688 49.1774 14.0215 49.1307 13.9821C49.084 13.9427 49.0093 13.9269 48.8879 13.9269H48.7104V14.3131H48.7011Z" fill="black"/>
<path d="M50.1396 13.5723H50.7748V14.8805H51.7649V15.3061H50.1396V13.5723Z" fill="black"/>
<path d="M52.0825 13.5723H52.7177V15.3061H52.0825V13.5723Z" fill="black"/>
<path d="M54.4362 15.0145H53.7169L53.6142 15.2982H52.9697L53.745 13.5645H54.4362L55.2114 15.2982H54.5482L54.4362 15.0145ZM54.3054 14.6441L54.0812 14.0215L53.8571 14.6441H54.3054Z" fill="black"/>
<path d="M55.4077 13.5723H55.9962L56.7714 14.5337V13.5723H57.3692V15.3061H56.7714L56.0055 14.3525V15.3061H55.4077V13.5723Z" fill="black"/>
<path d="M57.6494 13.5723H59.5828V13.9978H58.9384V15.3061H58.3032V13.9978H57.6588V13.5723H57.6494Z" fill="black"/>
<path d="M34.4666 16.212L36.3067 15.7234L35.7089 14.6043C35.2699 15.0693 34.8309 15.6683 34.4666 16.212ZM33.8408 11.0974L30.2355 4.31982L3.83984 5.58076L11.1533 22.4143L25.2291 18.6709C24.3324 17.5833 24.0055 16.2909 25.0423 15.6604C26.2005 14.9511 27.9471 15.7707 29.0586 16.9292C30.1327 15.4161 33.1496 11.8933 33.8408 11.0974Z" fill="black"/>
<path d="M29.4134 9.21756C30.5155 9.21756 31.4122 8.50828 31.4122 7.62563C31.4122 6.74297 30.5155 6.03369 29.4134 6.03369C28.3112 6.03369 27.4146 6.74297 27.4146 7.62563C27.4146 8.5004 28.3112 9.21756 29.4134 9.21756ZM27.7788 9.9032H31.0479V17.1142H27.7788V9.9032Z" fill="#FEFEFE"/>
<path d="M26.1627 12.0073C26.1907 12.0152 26.2094 12.0073 26.2094 11.9837V10.1553C26.2094 10.1317 26.1907 10.108 26.1627 10.0923C26.1627 10.0923 25.733 9.85584 24.4254 9.79279C24.36 9.76127 23.2112 9.75339 22.9029 9.79279C18.1394 10.1159 17.9619 13.0239 17.9619 13.15V13.8593C17.9619 13.946 17.9619 16.9171 22.9029 17.1772C23.3886 17.2087 24.332 17.1772 24.4254 17.1772C25.5649 17.1772 26.3495 16.8856 26.3495 16.8856C26.3775 16.8777 26.3962 16.854 26.3962 16.8304V15.1203C26.3962 15.0966 26.3775 15.0887 26.3588 15.1045C26.3588 15.1045 26.0039 15.3409 24.4534 15.4749C24.0144 15.5143 23.7996 15.4985 23.6408 15.4749C21.4365 15.1597 21.3338 13.8042 21.3338 13.8042C21.3338 13.7805 21.3244 13.7411 21.3244 13.7253V13.2052C21.3244 13.1816 21.3244 13.1422 21.3338 13.1264C21.3338 13.1264 21.4832 11.6684 23.6408 11.5108H24.4534C25.3968 11.6133 26.1627 12.0073 26.1627 12.0073Z" fill="#FEFEFE"/>
<path d="M8.8833 17.0904C8.8833 17.1141 8.90198 17.1298 8.93 17.1298H12.115C12.1431 17.1298 12.1617 17.1141 12.1617 17.0904V14.9941C12.1617 14.9705 12.1804 14.9547 12.2084 14.9547C12.2084 14.9547 17.2989 15.2621 17.2989 12.3855C17.2989 10.108 14.1045 9.86366 13.0584 9.90307C13.0397 9.90307 8.93 9.90307 8.93 9.90307C8.90198 9.90307 8.8833 9.91883 8.8833 9.94247V17.0904ZM12.1057 13.3549V11.4714H12.8903C12.8903 11.4714 14.0205 11.5108 14.1139 12.1649C14.1325 12.2122 14.1325 12.5353 14.1139 12.551C13.9644 13.3155 12.9837 13.3549 12.9837 13.3549H12.1057Z" fill="#FEFEFE"/>
<path d="M29.507 20.594C29.7685 20.594 29.974 20.594 30.3102 20.468C31.4684 19.9557 35.382 11.8936 39.5104 9.4111C39.5384 9.39534 39.5665 9.3717 39.5851 9.34806C39.6132 9.31653 39.6132 9.28501 39.6132 9.28501C39.6132 9.28501 39.6132 9.11951 39.006 9.11951C35.3353 9.03282 31.5151 15.5345 29.507 18.1037C29.479 18.1352 29.3482 18.1037 29.3482 18.1037C29.3482 18.1037 28.0032 16.7639 26.8357 16.2517C26.8076 16.2438 26.6769 16.2044 26.5368 16.2123C26.4434 16.2123 25.9016 16.3069 25.6494 16.5275C25.3506 16.7955 25.3599 16.9452 25.3599 17.2683C25.3599 17.292 25.3786 17.4023 25.4159 17.4575C25.7055 17.883 27.0038 19.3962 28.0779 20.2315C28.2367 20.334 28.4889 20.594 29.507 20.594Z" fill="#171717"/>
<path d="M40.5938 6.97559H43.648C44.2551 6.97559 44.7408 7.04651 45.1051 7.18049C45.4787 7.32234 45.7869 7.51937 46.0205 7.77155C46.2633 8.03162 46.4408 8.33109 46.5435 8.66997C46.6556 9.00885 46.7116 9.37137 46.7116 9.75753C46.7116 10.3565 46.6276 10.8214 46.4688 11.1524C46.31 11.4834 46.0858 11.7593 45.7963 11.9878C45.5067 12.2085 45.1985 12.3582 44.8716 12.437C44.4233 12.5395 44.0123 12.5868 43.648 12.5868H40.5938V6.97559ZM42.6486 8.24441V11.3101H43.153C43.5826 11.3101 43.8909 11.2707 44.0683 11.1918C44.2458 11.113 44.3952 10.9712 44.498 10.7742C44.6007 10.5771 44.6568 10.2461 44.6568 9.79693C44.6568 9.19799 44.5447 8.79606 44.3112 8.5754C44.0777 8.35474 43.7041 8.24441 43.1623 8.24441H42.6486Z" fill="black"/>
<path d="M47.2812 10.7347L49.2427 10.6322C49.2894 10.9002 49.3735 11.1051 49.5042 11.2469C49.7191 11.4755 50.018 11.5858 50.4102 11.5858C50.6998 11.5858 50.9333 11.5306 51.0921 11.4124C51.2509 11.2942 51.3349 11.1602 51.3349 11.0105C51.3349 10.8686 51.2602 10.7347 51.1108 10.6165C50.9613 10.4982 50.6064 10.3958 50.0553 10.2933C49.1493 10.12 48.5142 9.89142 48.1219 9.60771C47.7296 9.32399 47.5428 8.96148 47.5428 8.52015C47.5428 8.22856 47.6455 7.96061 47.8417 7.70054C48.0378 7.44047 48.3367 7.24345 48.7383 7.09371C49.14 6.94397 49.6817 6.87305 50.3729 6.87305C51.2228 6.87305 51.8767 7.00702 52.3157 7.27497C52.764 7.54292 53.0255 7.96849 53.1096 8.55167L51.1668 8.64624C51.1108 8.39405 51.008 8.21279 50.8399 8.09458C50.6718 7.97637 50.4476 7.9212 50.1581 7.9212C49.9152 7.9212 49.7377 7.96061 49.6163 8.0473C49.4949 8.13399 49.4389 8.23644 49.4389 8.36253C49.4389 8.44922 49.4856 8.53591 49.5883 8.60684C49.6817 8.67777 49.9152 8.74869 50.2795 8.81174C51.1761 8.97724 51.8206 9.14274 52.2129 9.30823C52.6052 9.47373 52.8854 9.68652 53.0629 9.93082C53.2403 10.1751 53.3244 10.4588 53.3244 10.7662C53.3244 11.1287 53.203 11.4597 52.9695 11.7592C52.736 12.0665 52.3997 12.2951 51.9794 12.4527C51.5591 12.6103 51.0174 12.6891 50.3729 12.6891C49.2427 12.6891 48.4581 12.5079 48.0191 12.1375C47.5895 11.7671 47.3466 11.3021 47.2812 10.7347Z" fill="black"/>
<path d="M53.8477 10.7347L55.8091 10.6322C55.8558 10.9002 55.9399 11.1051 56.0706 11.2469C56.2855 11.4755 56.5844 11.5858 56.9767 11.5858C57.2662 11.5858 57.4997 11.5306 57.6585 11.4124C57.8173 11.2942 57.9013 11.1602 57.9013 11.0105C57.9013 10.8686 57.8266 10.7347 57.6772 10.6165C57.5277 10.4982 57.1728 10.3958 56.6217 10.2933C55.7157 10.12 55.0806 9.89142 54.6883 9.60771C54.3053 9.32399 54.1092 8.96148 54.1092 8.52015C54.1092 8.22856 54.2119 7.96061 54.4081 7.70054C54.6042 7.44047 54.9031 7.24345 55.3047 7.09371C55.7064 6.94397 56.2481 6.87305 56.9393 6.87305C57.7893 6.87305 58.4431 7.00702 58.8821 7.27497C59.3304 7.54292 59.5919 7.96849 59.676 8.55167L57.7332 8.64624C57.6772 8.39405 57.5744 8.21279 57.4063 8.09458C57.2382 7.97637 57.014 7.9212 56.7245 7.9212C56.4816 7.9212 56.3042 7.96061 56.1827 8.0473C56.0613 8.13399 56.0053 8.23644 56.0053 8.36253C56.0053 8.44922 56.052 8.53591 56.1547 8.60684C56.2481 8.67777 56.4816 8.74869 56.8459 8.81174C57.7426 8.97724 58.387 9.14274 58.7793 9.30823C59.1716 9.47373 59.4518 9.68652 59.6293 9.93082C59.8068 10.1751 59.8908 10.4588 59.8908 10.7662C59.8908 11.1287 59.7694 11.4597 59.5359 11.7592C59.3024 12.0665 58.9661 12.2951 58.5458 12.4527C58.1255 12.6103 57.5838 12.6891 56.9393 12.6891C55.8091 12.6891 55.0245 12.5079 54.5855 12.1375C54.1465 11.7671 53.9037 11.3021 53.8477 10.7347Z" fill="black"/>
</svg>
