<svg width="90" height="38" viewBox="0 0 90 38" fill="none" xmlns="http://www.w3.org/2000/svg">
<path d="M59.2131 20.4267L60.0012 20.6253C59.9487 20.8127 59.8699 20.9671 59.7517 21.0885C59.6334 21.2098 59.5021 21.309 59.3313 21.3642C59.1606 21.4303 58.9504 21.4634 58.6877 21.4634C58.3725 21.4634 58.123 21.4303 57.9128 21.3531C57.7158 21.2759 57.545 21.1436 57.4005 20.9451C57.2561 20.7576 57.1772 20.5039 57.1772 20.2062C57.1772 19.8092 57.3086 19.5004 57.5582 19.2798C57.8077 19.0592 58.1755 18.96 58.6352 18.96C59.003 18.96 59.2788 19.0261 59.489 19.1474C59.6991 19.2688 59.8567 19.4562 59.9487 19.7209L59.1606 19.8643C59.1343 19.7871 59.1081 19.732 59.0687 19.6989C59.0161 19.6437 58.9636 19.5996 58.8848 19.5665C58.806 19.5334 58.7272 19.5224 58.6483 19.5224C58.4513 19.5224 58.2937 19.5886 58.1886 19.732C58.1098 19.8312 58.0704 19.9966 58.0704 20.2062C58.0704 20.4709 58.1229 20.6583 58.2149 20.7576C58.3068 20.8569 58.4513 20.912 58.6221 20.912C58.7928 20.912 58.9242 20.8679 59.003 20.7907C59.1081 20.6914 59.1737 20.5811 59.2131 20.4267Z" fill="black"/>
<path d="M60.3164 20.206C60.3164 19.809 60.4478 19.5002 60.7104 19.2796C60.9731 19.059 61.3409 18.9487 61.8138 18.9487C62.2998 18.9487 62.6675 19.059 62.9302 19.2686C63.1929 19.4891 63.3243 19.7869 63.3243 20.1839C63.3243 20.4707 63.2717 20.7023 63.1535 20.8787C63.0353 21.0552 62.8777 21.1985 62.6544 21.2978C62.4442 21.3971 62.1684 21.4522 61.8532 21.4522C61.5248 21.4522 61.2621 21.4081 61.0388 21.3199C60.8287 21.2316 60.6579 21.0993 60.5134 20.9008C60.3689 20.7023 60.3164 20.4927 60.3164 20.206ZM61.2096 20.206C61.2096 20.4486 61.2621 20.6251 61.3672 20.7353C61.4723 20.8456 61.6167 20.9008 61.8138 20.9008C62.0108 20.9008 62.1553 20.8456 62.2604 20.7464C62.3654 20.6361 62.418 20.4486 62.418 20.1839C62.418 19.9523 62.3654 19.7869 62.2472 19.6876C62.1421 19.5774 61.9845 19.5332 61.8006 19.5332C61.6168 19.5332 61.4723 19.5884 61.3672 19.6987C61.2621 19.7869 61.2096 19.9634 61.2096 20.206Z" fill="black"/>
<path d="M63.7841 18.9932H64.9531L65.3997 20.471L65.8462 18.9932H67.0152V21.4194H66.2797V19.5666L65.7149 21.4194H65.0582L64.4934 19.5666V21.4194H63.7578V18.9932H63.7841Z" fill="black"/>
<path d="M67.5933 18.9932H69.0775C69.4059 18.9932 69.6423 19.0593 69.7999 19.1917C69.9575 19.324 70.0363 19.5005 70.0363 19.7431C70.0363 19.9857 69.9444 20.1842 69.7736 20.3166C69.6029 20.4599 69.3271 20.5261 68.9724 20.5261H68.4864V21.4305H67.5933V18.9932ZM68.4864 20.0298H68.7097C68.8805 20.0298 68.9987 20.0078 69.0775 19.9526C69.1432 19.8975 69.1826 19.8424 69.1826 19.7652C69.1826 19.688 69.1563 19.6218 69.0906 19.5666C69.025 19.5115 68.9199 19.4894 68.7491 19.4894H68.4996V20.0298H68.4864Z" fill="black"/>
<path d="M70.5093 18.9932H71.4024V20.8239H72.7947V21.4194H70.5093V18.9932Z" fill="black"/>
<path d="M73.2412 18.9932H74.1344V21.4194H73.2412V18.9932Z" fill="black"/>
<path d="M76.5509 21.0112H75.5396L75.3951 21.4082H74.4888L75.579 18.9819H76.5509L77.6411 21.4082H76.7085L76.5509 21.0112ZM76.367 20.4928L76.0518 19.6216L75.7366 20.4928H76.367Z" fill="black"/>
<path d="M77.917 18.9932H78.7445L79.8347 20.3386V18.9932H80.6753V21.4194H79.8347L78.7576 20.085V21.4194H77.917V18.9932Z" fill="black"/>
<path d="M81.0693 18.9932H83.7882V19.5887H82.8819V21.4194H81.9888V19.5887H81.0825V18.9932H81.0693Z" fill="black"/>
<path d="M48.4688 22.6874L51.0564 22.0036L50.2157 20.4376C49.5984 21.0882 48.9811 21.9264 48.4688 22.6874ZM47.5888 15.5299L42.5188 6.04541L5.3999 7.80996L15.6844 31.3668L35.4785 26.1282C34.2176 24.6063 33.7579 22.7977 35.2158 21.9154C36.8445 20.9228 39.3007 22.0698 40.8638 23.691C42.3743 21.5735 46.6168 16.6438 47.5888 15.5299Z" fill="black"/>
<path d="M41.3626 12.8993C42.9125 12.8993 44.1734 11.9068 44.1734 10.6716C44.1734 9.43641 42.9125 8.44385 41.3626 8.44385C39.8127 8.44385 38.5518 9.43641 38.5518 10.6716C38.5518 11.8958 39.8127 12.8993 41.3626 12.8993ZM39.064 13.8588H43.6612V23.9499H39.064V13.8588Z" fill="#FEFEFE"/>
<path d="M36.7916 16.8033C36.831 16.8144 36.8573 16.8033 36.8573 16.7702V14.2116C36.8573 14.1786 36.831 14.1455 36.7916 14.1234C36.7916 14.1234 36.1874 13.7926 34.3485 13.7043C34.2566 13.6602 32.641 13.6492 32.2076 13.7043C25.5088 14.1565 25.2593 18.226 25.2593 18.4025V19.395C25.2593 19.5163 25.2593 23.6741 32.2076 24.038C32.8906 24.0821 34.2172 24.038 34.3485 24.038C35.951 24.038 37.0543 23.6299 37.0543 23.6299C37.0937 23.6189 37.12 23.5858 37.12 23.5527V21.1596C37.12 21.1265 37.0937 21.1155 37.0674 21.1375C37.0674 21.1375 36.5683 21.4684 34.3879 21.6559C33.7706 21.711 33.4685 21.6889 33.2452 21.6559C30.1454 21.2147 30.0009 19.3178 30.0009 19.3178C30.0009 19.2847 29.9878 19.2296 29.9878 19.2075V18.4797C29.9878 18.4466 29.9878 18.3914 30.0009 18.3694C30.0009 18.3694 30.2111 16.3291 33.2452 16.1085H34.3879C35.7146 16.2519 36.7916 16.8033 36.7916 16.8033Z" fill="#FEFEFE"/>
<path d="M12.4922 23.9166C12.4922 23.9497 12.5185 23.9717 12.5579 23.9717H17.0368C17.0762 23.9717 17.1025 23.9497 17.1025 23.9166V20.983C17.1025 20.9499 17.1288 20.9279 17.1682 20.9279C17.1682 20.9279 24.3266 21.358 24.3266 17.3326C24.3266 14.1454 19.8345 13.8035 18.3634 13.8586C18.3372 13.8586 12.5579 13.8586 12.5579 13.8586C12.5185 13.8586 12.4922 13.8807 12.4922 13.9138V23.9166ZM17.0237 18.6891V16.0533H18.127C18.127 16.0533 19.7163 16.1084 19.8477 17.0238C19.8739 17.09 19.8739 17.5421 19.8477 17.5642C19.6375 18.634 18.2584 18.6891 18.2584 18.6891H17.0237Z" fill="#FEFEFE"/>
<path d="M41.494 28.8194C41.8618 28.8194 42.1507 28.8194 42.6236 28.6429C44.2523 27.9261 49.7558 16.644 55.5613 13.17C55.6007 13.1479 55.6401 13.1149 55.6664 13.0818C55.7058 13.0377 55.7058 12.9935 55.7058 12.9935C55.7058 12.9935 55.7058 12.7619 54.8521 12.7619C49.6901 12.6406 44.318 21.7391 41.494 25.3344C41.4546 25.3785 41.2707 25.3344 41.2707 25.3344C41.2707 25.3344 39.3793 23.4596 37.7374 22.7427C37.698 22.7317 37.5142 22.6765 37.3171 22.6876C37.1858 22.6876 36.424 22.8199 36.0693 23.1287C35.649 23.5037 35.6622 23.7132 35.6622 24.1654C35.6622 24.1985 35.6884 24.3529 35.741 24.4301C36.1481 25.0256 37.9739 27.1431 39.4844 28.3121C39.7077 28.4555 40.0623 28.8194 41.494 28.8194Z" fill="#171717"/>
<path d="M57.0854 9.76221H61.3805C62.2343 9.76221 62.9173 9.86146 63.4295 10.0489C63.9549 10.2475 64.3884 10.5232 64.7168 10.8761C65.0583 11.24 65.3078 11.6591 65.4523 12.1333C65.6099 12.6076 65.6887 13.1149 65.6887 13.6553C65.6887 14.4934 65.5705 15.1441 65.3472 15.6073C65.1239 16.0705 64.8087 16.4565 64.4015 16.7763C63.9943 17.0851 63.5609 17.2946 63.1012 17.4049C62.4707 17.5483 61.8928 17.6145 61.3805 17.6145H57.0854V9.76221ZM59.9751 11.5378V15.8279H60.6844C61.2886 15.8279 61.722 15.7727 61.9716 15.6624C62.2211 15.5522 62.4313 15.3536 62.5758 15.0779C62.7203 14.8022 62.7991 14.339 62.7991 13.7104C62.7991 12.8722 62.6415 12.3098 62.3131 12.001C61.9847 11.6922 61.4593 11.5378 60.6975 11.5378H59.9751Z" fill="black"/>
<path d="M66.4897 15.0226L69.248 14.8792C69.3137 15.2542 69.4319 15.5409 69.6158 15.7395C69.9179 16.0593 70.3382 16.2137 70.8899 16.2137C71.2971 16.2137 71.6254 16.1365 71.8487 15.971C72.072 15.8056 72.1902 15.6181 72.1902 15.4086C72.1902 15.2101 72.0852 15.0226 71.875 14.8572C71.6649 14.6917 71.1657 14.5484 70.3908 14.405C69.1167 14.1624 68.2235 13.8426 67.6719 13.4455C67.1202 13.0485 66.8575 12.5412 66.8575 11.9236C66.8575 11.5155 67.002 11.1406 67.2778 10.7766C67.5537 10.4127 67.974 10.137 68.5388 9.92745C69.1036 9.71791 69.8654 9.61865 70.8374 9.61865C72.0326 9.61865 72.9521 9.80614 73.5694 10.1811C74.1999 10.5561 74.5676 11.1516 74.6858 11.9677L71.9538 12.1001C71.875 11.7471 71.7305 11.4935 71.4941 11.3281C71.2577 11.1626 70.9424 11.0854 70.5353 11.0854C70.1938 11.0854 69.9442 11.1406 69.7734 11.2619C69.6027 11.3832 69.5239 11.5266 69.5239 11.703C69.5239 11.8243 69.5896 11.9457 69.734 12.0449C69.8654 12.1442 70.1938 12.2434 70.706 12.3317C71.9669 12.5633 72.8732 12.7949 73.4249 13.0264C73.9766 13.258 74.3706 13.5558 74.6202 13.8977C74.8697 14.2396 74.9879 14.6366 74.9879 15.0667C74.9879 15.574 74.8172 16.0372 74.4888 16.4563C74.1605 16.8864 73.6876 17.2062 73.0965 17.4268C72.5055 17.6474 71.7437 17.7577 70.8374 17.7577C69.248 17.7577 68.1447 17.504 67.5274 16.9857C66.9232 16.4673 66.5817 15.8167 66.4897 15.0226Z" fill="black"/>
<path d="M75.7236 15.0226L78.4819 14.8792C78.5476 15.2542 78.6658 15.5409 78.8497 15.7395C79.1518 16.0593 79.5721 16.2137 80.1238 16.2137C80.531 16.2137 80.8593 16.1365 81.0826 15.971C81.3059 15.8056 81.4241 15.6181 81.4241 15.4086C81.4241 15.2101 81.319 15.0226 81.1089 14.8572C80.8987 14.6917 80.3996 14.5484 79.6247 14.405C78.3506 14.1624 77.4574 13.8426 76.9058 13.4455C76.3672 13.0485 76.0914 12.5412 76.0914 11.9236C76.0914 11.5155 76.2359 11.1406 76.5117 10.7766C76.7875 10.4127 77.2079 10.137 77.7727 9.92745C78.3374 9.71791 79.0993 9.61865 80.0712 9.61865C81.2665 9.61865 82.1859 9.80614 82.8033 10.1811C83.4337 10.5561 83.8015 11.1516 83.9197 11.9677L81.1877 12.1001C81.1089 11.7471 80.9644 11.4935 80.728 11.3281C80.4916 11.1626 80.1763 11.0854 79.7691 11.0854C79.4276 11.0854 79.1781 11.1406 79.0073 11.2619C78.8366 11.3832 78.7578 11.5266 78.7578 11.703C78.7578 11.8243 78.8234 11.9457 78.9679 12.0449C79.0993 12.1442 79.4276 12.2434 79.9399 12.3317C81.2008 12.5633 82.1071 12.7949 82.6588 13.0264C83.2105 13.258 83.6045 13.5558 83.8541 13.8977C84.1036 14.2396 84.2218 14.6366 84.2218 15.0667C84.2218 15.574 84.0511 16.0372 83.7227 16.4563C83.3943 16.8864 82.9215 17.2062 82.3304 17.4268C81.7394 17.6474 80.9775 17.7577 80.0712 17.7577C78.4819 17.7577 77.3786 17.504 76.7613 16.9857C76.1439 16.4673 75.8024 15.8167 75.7236 15.0226Z" fill="black"/>
</svg>
