<svg width="8" height="7" viewBox="0 0 8 7" fill="none" xmlns="http://www.w3.org/2000/svg">
<path d="M2.76406 2.98594C3.10677 3.32865 3.51875 3.5 4 3.5C4.48125 3.5 4.89323 3.32865 5.23594 2.98594C5.57865 2.64323 5.75 2.23125 5.75 1.75C5.75 1.26875 5.57865 0.856771 5.23594 0.514063C4.89323 0.171354 4.48125 0 4 0C3.51875 0 3.10677 0.171354 2.76406 0.514063C2.42135 0.856771 2.25 1.26875 2.25 1.75C2.25 2.23125 2.42135 2.64323 2.76406 2.98594Z" fill="#BEBEBE"/>
<path d="M0.5 5.775V7H7.5V5.775C7.5 5.52708 7.4362 5.29922 7.30859 5.09141C7.18099 4.88359 7.01146 4.725 6.8 4.61562C6.34792 4.38958 5.88854 4.22005 5.42188 4.10703C4.95521 3.99401 4.48125 3.9375 4 3.9375C3.51875 3.9375 3.04479 3.99401 2.57812 4.10703C2.11146 4.22005 1.65208 4.38958 1.2 4.61562C0.988542 4.725 0.81901 4.88359 0.691406 5.09141C0.563802 5.29922 0.5 5.52708 0.5 5.775Z" fill="#BEBEBE"/>
</svg>
