<svg width="24" height="24" viewBox="0 0 24 24" fill="none" xmlns="http://www.w3.org/2000/svg">
<g clip-path="url(#clip0_461_76)">
<path d="M19 15.5C19 13.5 19 12.5 19 11.3V9.99996C19 9.36996 18.7 8.77996 18.2 8.39996L12.2 3.89996C11.8532 3.64184 11.4323 3.50244 11 3.50244C10.5677 3.50244 10.1468 3.64184 9.8 3.89996L3.8 8.39996C3.3 8.77996 3 9.36996 3 9.99996V19C3 20.1 3.9 21 5 21H10.68C12.8253 21 14 21 14.5 21C15.1038 20.8065 14.6099 20.052 13.5 17C15 15 19 16.5 19 15.5Z" fill="#1E2E4B"/>
<path d="M20.5448 14.6128L20.5456 14.6107C20.6922 14.2583 20.5461 13.8693 20.235 13.6836L20.2351 13.6835L20.2241 13.6773L18.4888 12.7002C18.145 12.4997 17.7473 12.622 17.5358 12.8685L17.5306 12.8746L17.5255 12.8809L16.8395 13.7352C16.6587 13.7248 16.4769 13.7256 16.2941 13.7386L15.6441 12.915C15.4047 12.6048 14.9861 12.5564 14.6798 12.7325L12.9116 13.7491C12.6053 13.9252 12.4365 14.3113 12.5842 14.6742L12.9692 15.6512C12.866 15.8037 12.7748 15.9607 12.6936 16.1197L11.6081 16.283L11.6081 16.283L11.6038 16.2837C11.2502 16.3401 10.967 16.6429 10.9672 17.0246L10.9386 19.0141C10.9306 19.4092 11.2244 19.7153 11.5834 19.7634L11.5857 19.7637L12.6482 19.901C12.6847 19.9768 12.7246 20.0534 12.7682 20.1294C12.8119 20.2054 12.8582 20.2784 12.9053 20.3481L12.4893 21.3354L12.4893 21.3354L12.4884 21.3375C12.3419 21.69 12.488 22.079 12.7991 22.2646L12.799 22.2647L12.81 22.2709L14.5453 23.248C14.8891 23.4485 15.2868 23.3263 15.4982 23.0798L15.5035 23.0736L15.5086 23.0673L16.1946 22.2131C16.3754 22.2235 16.5572 22.2227 16.74 22.2096L17.39 23.0333C17.6294 23.3434 18.048 23.3918 18.3543 23.2157L20.1225 22.1991C20.4288 22.023 20.5976 21.6369 20.4499 21.274L20.0649 20.2971C20.1681 20.1445 20.2593 19.9875 20.3405 19.8286L21.426 19.6652L21.426 19.6652L21.4303 19.6645C21.7839 19.6082 22.0671 19.3053 22.0669 18.9236L22.0955 16.9323L22.0957 16.9323L22.0955 16.9197C22.0917 16.5575 21.829 16.2355 21.4507 16.1848L21.4484 16.1845L20.3861 16.0473C20.35 15.9725 20.3103 15.8962 20.2658 15.8188C20.2214 15.7414 20.1754 15.6688 20.1289 15.5999L20.5448 14.6128ZM17.1331 19.0456C16.5079 19.405 15.7364 19.1937 15.4034 18.6144C15.0703 18.0352 15.2759 17.2621 15.901 16.9026C16.5262 16.5432 17.2977 16.7546 17.6307 17.3338C17.9638 17.9131 17.7582 18.6862 17.1331 19.0456Z" fill="#229CD3" stroke="white"/>
</g>
<defs>
<clipPath id="clip0_461_76">
<rect width="24" height="24" fill="white"/>
</clipPath>
</defs>
</svg>
