<svg width="24" height="25" viewBox="0 0 24 25" fill="none" xmlns="http://www.w3.org/2000/svg">
<path d="M7.3261 4.38308C7.5426 4.20034 7.81678 4.1001 8.1001 4.1001C8.38341 4.1001 8.65759 4.20034 8.8741 4.38308L11.9617 6.99188L12.0001 7.02548L12.0385 6.99188L15.1261 4.38308C15.3426 4.20034 15.6168 4.1001 15.9001 4.1001C16.1834 4.1001 16.4576 4.20034 16.6741 4.38308L19.7617 6.99188C19.9617 7.16087 20.1225 7.37147 20.2328 7.60898C20.343 7.8465 20.4001 8.10522 20.4001 8.36708V19.1059C20.4001 19.5833 20.2105 20.0411 19.8729 20.3787C19.5353 20.7162 19.0775 20.9059 18.6001 20.9059H5.4001C4.92271 20.9059 4.46487 20.7162 4.12731 20.3787C3.78974 20.0411 3.6001 19.5833 3.6001 19.1059V8.36588C3.6001 7.83788 3.8341 7.33388 4.2385 6.99188L7.3261 4.38308ZM12.6001 16.0999H15.0001C15.1592 16.0999 15.3118 16.1631 15.4244 16.2756C15.5369 16.3881 15.6001 16.5407 15.6001 16.6999V19.7059H18.6001C18.7592 19.7059 18.9118 19.6427 19.0244 19.5301C19.1369 19.4176 19.2001 19.265 19.2001 19.1059V8.36588C19.2 8.27882 19.1809 8.19284 19.1442 8.11389C19.1076 8.03494 19.0541 7.96491 18.9877 7.90868L15.9001 5.29988L12.8125 7.90868C12.7459 7.96505 12.6924 8.03526 12.6557 8.11443C12.619 8.1936 12.6 8.27982 12.6001 8.36708V16.0999ZM11.4001 16.0999V8.36708C11.4002 8.27982 11.3812 8.1936 11.3445 8.11443C11.3078 8.03526 11.2543 7.96505 11.1877 7.90868L8.1001 5.29988L5.0125 7.90868C4.94589 7.96505 4.89238 8.03526 4.8557 8.11443C4.81901 8.1936 4.80004 8.27982 4.8001 8.36708V19.1059C4.8001 19.265 4.86331 19.4176 4.97583 19.5301C5.08836 19.6427 5.24097 19.7059 5.4001 19.7059H8.4001V16.6999C8.4001 16.5407 8.46331 16.3881 8.57583 16.2756C8.68836 16.1631 8.84097 16.0999 9.0001 16.0999H11.4001ZM9.6001 19.7059H11.4001V17.2999H9.6001V19.7059ZM12.6001 17.2999V19.7059H14.4001V17.2999H12.6001ZM8.1001 10.6999C8.33879 10.6999 8.56771 10.6051 8.73649 10.4363C8.90528 10.2675 9.0001 10.0386 9.0001 9.79988C9.0001 9.56118 8.90528 9.33226 8.73649 9.16348C8.56771 8.9947 8.33879 8.89988 8.1001 8.89988C7.8614 8.89988 7.63248 8.9947 7.4637 9.16348C7.29492 9.33226 7.2001 9.56118 7.2001 9.79988C7.2001 10.0386 7.29492 10.2675 7.4637 10.4363C7.63248 10.6051 7.8614 10.6999 8.1001 10.6999ZM9.0001 13.3999C9.0001 13.6386 8.90528 13.8675 8.73649 14.0363C8.56771 14.2051 8.33879 14.2999 8.1001 14.2999C7.8614 14.2999 7.63248 14.2051 7.4637 14.0363C7.29492 13.8675 7.2001 13.6386 7.2001 13.3999C7.2001 13.1612 7.29492 12.9323 7.4637 12.7635C7.63248 12.5947 7.8614 12.4999 8.1001 12.4999C8.33879 12.4999 8.56771 12.5947 8.73649 12.7635C8.90528 12.9323 9.0001 13.1612 9.0001 13.3999ZM15.9001 10.6999C16.1388 10.6999 16.3677 10.6051 16.5365 10.4363C16.7053 10.2675 16.8001 10.0386 16.8001 9.79988C16.8001 9.56118 16.7053 9.33226 16.5365 9.16348C16.3677 8.9947 16.1388 8.89988 15.9001 8.89988C15.6614 8.89988 15.4325 8.9947 15.2637 9.16348C15.0949 9.33226 15.0001 9.56118 15.0001 9.79988C15.0001 10.0386 15.0949 10.2675 15.2637 10.4363C15.4325 10.6051 15.6614 10.6999 15.9001 10.6999ZM16.8001 13.3999C16.8001 13.6386 16.7053 13.8675 16.5365 14.0363C16.3677 14.2051 16.1388 14.2999 15.9001 14.2999C15.6614 14.2999 15.4325 14.2051 15.2637 14.0363C15.0949 13.8675 15.0001 13.6386 15.0001 13.3999C15.0001 13.1612 15.0949 12.9323 15.2637 12.7635C15.4325 12.5947 15.6614 12.4999 15.9001 12.4999C16.1388 12.4999 16.3677 12.5947 16.5365 12.7635C16.7053 12.9323 16.8001 13.1612 16.8001 13.3999Z" fill="black"/>
</svg>
