<svg width="24" height="24" viewBox="0 0 24 24" fill="none" xmlns="http://www.w3.org/2000/svg">
<path d="M7.3261 3.88308C7.5426 3.70034 7.81678 3.6001 8.1001 3.6001C8.38341 3.6001 8.65759 3.70034 8.8741 3.88308L11.9617 6.49188L12.0001 6.52548L12.0385 6.49188L15.1261 3.88308C15.3426 3.70034 15.6168 3.6001 15.9001 3.6001C16.1834 3.6001 16.4576 3.70034 16.6741 3.88308L19.7617 6.49188C19.9617 6.66087 20.1225 6.87147 20.2328 7.10898C20.343 7.3465 20.4001 7.60522 20.4001 7.86708V18.6059C20.4001 19.0833 20.2105 19.5411 19.8729 19.8787C19.5353 20.2162 19.0775 20.4059 18.6001 20.4059H5.4001C4.92271 20.4059 4.46487 20.2162 4.12731 19.8787C3.78974 19.5411 3.6001 19.0833 3.6001 18.6059V7.86588C3.6001 7.33788 3.8341 6.83388 4.2385 6.49188L7.3261 3.88308ZM12.6001 15.5999H15.0001C15.1592 15.5999 15.3118 15.6631 15.4244 15.7756C15.5369 15.8881 15.6001 16.0407 15.6001 16.1999V19.2059H18.6001C18.7592 19.2059 18.9118 19.1427 19.0244 19.0301C19.1369 18.9176 19.2001 18.765 19.2001 18.6059V7.86588C19.2 7.77882 19.1809 7.69284 19.1442 7.61389C19.1076 7.53494 19.0541 7.46491 18.9877 7.40868L15.9001 4.79988L12.8125 7.40868C12.7459 7.46505 12.6924 7.53526 12.6557 7.61443C12.619 7.6936 12.6 7.77982 12.6001 7.86708V15.5999ZM11.4001 15.5999V7.86708C11.4002 7.77982 11.3812 7.6936 11.3445 7.61443C11.3078 7.53526 11.2543 7.46505 11.1877 7.40868L8.1001 4.79988L5.0125 7.40868C4.94589 7.46505 4.89238 7.53526 4.8557 7.61443C4.81901 7.6936 4.80004 7.77982 4.8001 7.86708V18.6059C4.8001 18.765 4.86331 18.9176 4.97583 19.0301C5.08836 19.1427 5.24097 19.2059 5.4001 19.2059H8.4001V16.1999C8.4001 16.0407 8.46331 15.8881 8.57583 15.7756C8.68836 15.6631 8.84097 15.5999 9.0001 15.5999H11.4001ZM9.6001 19.2059H11.4001V16.7999H9.6001V19.2059ZM12.6001 16.7999V19.2059H14.4001V16.7999H12.6001ZM8.1001 10.1999C8.33879 10.1999 8.56771 10.1051 8.73649 9.93627C8.90528 9.76749 9.0001 9.53857 9.0001 9.29988C9.0001 9.06118 8.90528 8.83226 8.73649 8.66348C8.56771 8.4947 8.33879 8.39988 8.1001 8.39988C7.8614 8.39988 7.63248 8.4947 7.4637 8.66348C7.29492 8.83226 7.2001 9.06118 7.2001 9.29988C7.2001 9.53857 7.29492 9.76749 7.4637 9.93627C7.63248 10.1051 7.8614 10.1999 8.1001 10.1999ZM9.0001 12.8999C9.0001 13.1386 8.90528 13.3675 8.73649 13.5363C8.56771 13.7051 8.33879 13.7999 8.1001 13.7999C7.8614 13.7999 7.63248 13.7051 7.4637 13.5363C7.29492 13.3675 7.2001 13.1386 7.2001 12.8999C7.2001 12.6612 7.29492 12.4323 7.4637 12.2635C7.63248 12.0947 7.8614 11.9999 8.1001 11.9999C8.33879 11.9999 8.56771 12.0947 8.73649 12.2635C8.90528 12.4323 9.0001 12.6612 9.0001 12.8999ZM15.9001 10.1999C16.1388 10.1999 16.3677 10.1051 16.5365 9.93627C16.7053 9.76749 16.8001 9.53857 16.8001 9.29988C16.8001 9.06118 16.7053 8.83226 16.5365 8.66348C16.3677 8.4947 16.1388 8.39988 15.9001 8.39988C15.6614 8.39988 15.4325 8.4947 15.2637 8.66348C15.0949 8.83226 15.0001 9.06118 15.0001 9.29988C15.0001 9.53857 15.0949 9.76749 15.2637 9.93627C15.4325 10.1051 15.6614 10.1999 15.9001 10.1999ZM16.8001 12.8999C16.8001 13.1386 16.7053 13.3675 16.5365 13.5363C16.3677 13.7051 16.1388 13.7999 15.9001 13.7999C15.6614 13.7999 15.4325 13.7051 15.2637 13.5363C15.0949 13.3675 15.0001 13.1386 15.0001 12.8999C15.0001 12.6612 15.0949 12.4323 15.2637 12.2635C15.4325 12.0947 15.6614 11.9999 15.9001 11.9999C16.1388 11.9999 16.3677 12.0947 16.5365 12.2635C16.7053 12.4323 16.8001 12.6612 16.8001 12.8999Z" fill="black"/>
</svg>
