<svg width="24" height="25" viewBox="0 0 24 25" fill="none" xmlns="http://www.w3.org/2000/svg">
<mask id="mask0_1076_842" style="mask-type:alpha" maskUnits="userSpaceOnUse" x="0" y="0" width="24" height="25">
<rect y="0.666504" width="24" height="24" fill="#D9D9D9"/>
</mask>
<g mask="url(#mask0_1076_842)">
<path d="M8 23.1665V17.6415C6.31667 17.5082 4.89583 16.8248 3.7375 15.5915C2.57917 14.3582 2 12.8832 2 11.1665C2 9.34984 2.62917 7.81234 3.8875 6.554C5.14583 5.29567 6.68333 4.6665 8.5 4.6665H9.175L7.6 3.0665L9 1.6665L13 5.6665L9 9.6665L7.6 8.2665L9.175 6.6665H8.5C7.25 6.6665 6.1875 7.104 5.3125 7.979C4.4375 8.854 4 9.9165 4 11.1665C4 12.4165 4.4375 13.479 5.3125 14.354C6.1875 15.229 7.25 15.6665 8.5 15.6665H10V18.3415L12.675 15.6665H15.5C16.75 15.6665 17.8125 15.229 18.6875 14.354C19.5625 13.479 20 12.4165 20 11.1665C20 9.9165 19.5625 8.854 18.6875 7.979C17.8125 7.104 16.75 6.6665 15.5 6.6665H15V4.6665H15.5C17.3167 4.6665 18.8542 5.29567 20.1125 6.554C21.3708 7.81234 22 9.34984 22 11.1665C22 12.9832 21.3708 14.5207 20.1125 15.779C18.8542 17.0373 17.3167 17.6665 15.5 17.6665H13.5L8 23.1665Z" fill="#FFB845"/>
</g>
</svg>
