<svg width="24" height="24" viewBox="0 0 24 24" fill="none" xmlns="http://www.w3.org/2000/svg">
<path d="M13.5751 22H9.94605C9.68903 22 9.47314 21.82 9.43201 21.58L9.05163 18.93C8.40395 18.68 7.8488 18.34 7.3142 17.94L4.75433 18.95C4.52815 19.03 4.25058 18.95 4.12721 18.73L2.07108 15.27C2.00816 15.167 1.98598 15.0452 2.00868 14.9274C2.03139 14.8096 2.09743 14.7039 2.19445 14.63L4.36366 12.97C4.32254 12.65 4.2917 12.33 4.2917 12C4.2917 11.67 4.32254 11.34 4.36366 11L2.19445 9.37C2.09743 9.29613 2.03139 9.19042 2.00868 9.07263C1.98598 8.95484 2.00816 8.83304 2.07108 8.73L4.12721 5.27C4.25058 5.05 4.52815 4.96 4.75433 5.05L7.3142 6.05C7.8488 5.66 8.40395 5.32 9.05163 5.07L9.43201 2.42C9.47314 2.18 9.68903 2 9.94605 2H14.0583C14.3153 2 14.5312 2.18 14.5723 2.42L14.9527 5.07C15.6004 5.32 16.1555 5.66 16.6901 6.05L19.25 5.05C19.4762 4.96 19.7538 5.05 19.8771 5.27L21.9333 8.73C22.0566 8.95 22.0052 9.22 21.8099 9.37L19.6407 11C19.6818 11.34 19.7126 11.67 19.7126 12V12.19C19.1986 12.07 18.6846 12 18.1706 12C17.2247 12 16.3406 12.21 15.5387 12.58C15.5696 12.39 15.6004 12.2 15.6004 12C15.6004 10.07 13.9863 8.5 12.0022 8.5C10.018 8.5 8.40395 10.07 8.40395 12C8.40395 13.93 10.018 15.5 12.0022 15.5C12.2078 15.5 12.4031 15.47 12.5984 15.44C12.0767 16.505 11.891 17.6964 12.0648 18.864C12.2386 20.0315 12.7642 21.1228 13.5751 22Z" fill="#1E2E4B"/>
<path d="M18 13C15.2385 13 13 15.2385 13 18C13 20.7615 15.2385 23 18 23C20.7615 23 23 20.7615 23 18C23 15.2385 20.7615 13 18 13ZM18.4317 20.7109V21.4151H17.7582V20.7188C16.6528 20.5674 16.1688 19.6592 16.1688 19.6592L16.8568 19.0837C16.8568 19.0837 17.2961 19.8484 18.0908 19.8484C18.5298 19.8484 18.8628 19.6135 18.8628 19.212C18.8628 18.2735 16.3343 18.3874 16.3343 16.6463C16.3343 15.8894 16.9328 15.3442 17.7578 15.2152V14.5116H18.4314V15.2152C19.0066 15.2908 19.6878 15.5936 19.6878 16.2448V16.7443H18.7947V16.5021C18.7947 16.2524 18.4765 16.0859 18.1204 16.0859C17.6663 16.0859 17.3336 16.3129 17.3336 16.6308C17.3336 17.592 19.8622 17.3574 19.8622 19.1817C19.8622 19.9317 19.3021 20.5819 18.4317 20.7109Z" fill="#229CD3"/>
</svg>
