<svg width="277" height="23" viewBox="0 0 277 23" fill="none" xmlns="http://www.w3.org/2000/svg">
<path d="M7.13397 18.5957C5.8143 18.6074 4.50015 18.4239 3.23414 18.051C2.14152 17.7407 1.11262 17.2388 0.195312 16.5686L1.18293 14.0094C2.01447 14.6032 2.93274 15.0647 3.90522 15.3777C4.94946 15.7071 6.03911 15.8696 7.13397 15.8592C8.15054 15.9392 9.16716 15.7048 10.0462 15.1877C10.33 14.9967 10.562 14.738 10.7211 14.435C10.8802 14.1321 10.9616 13.7942 10.9578 13.452C10.9692 13.185 10.9165 12.9191 10.8042 12.6767C10.6918 12.4342 10.5231 12.2222 10.3121 12.0583C9.64138 11.625 8.88594 11.3399 8.09627 11.2222L5.31068 10.6394C2.13626 9.9642 0.549316 8.33407 0.549844 5.74899C0.527127 4.70794 0.837691 3.6869 1.43617 2.83503C2.06157 1.9798 2.91037 1.3135 3.88939 0.90928C5.03636 0.433614 6.26932 0.200677 7.51066 0.225133C8.67245 0.216754 9.82763 0.400836 10.9293 0.769916C11.9139 1.0873 12.8201 1.60977 13.5883 2.30291L12.6007 4.73544C11.1678 3.54163 9.34926 2.91107 7.48534 2.96172C6.51844 2.90599 5.55934 3.16367 4.75039 3.69655C4.43989 3.91121 4.18724 4.19936 4.01493 4.53534C3.84263 4.87132 3.756 5.24472 3.76277 5.62229C3.75108 5.89489 3.79947 6.16672 3.9045 6.41851C4.00953 6.6703 4.16864 6.89588 4.37054 7.07927C4.98096 7.53138 5.69489 7.82322 6.44707 7.92812L9.20734 8.51091C10.5802 8.72688 11.8707 9.30526 12.9457 10.1864C13.3563 10.5756 13.6784 11.0485 13.8903 11.5731C14.1022 12.0977 14.1989 12.6618 14.1739 13.2271C14.192 14.2322 13.8905 15.2171 13.3129 16.0397C12.6924 16.8868 11.8453 17.5412 10.8692 17.9274C9.6815 18.3985 8.41124 18.6258 7.13397 18.5957Z" fill="#192F4D"/>
<path d="M16.7061 3.29129V0.203125H20.2498V3.29129H16.7061ZM16.9086 18.3425V5.95186H20.0741V18.3425H16.9086Z" fill="#192F4D"/>
<path d="M23.6704 18.3425V5.95184H26.7567V7.85225C27.1142 7.19074 27.6492 6.64225 28.3015 6.26857C28.9969 5.87898 29.7837 5.68217 30.5806 5.69845C31.3747 5.62556 32.1699 5.82683 32.8338 6.26878C33.4978 6.71074 33.9906 7.36677 34.2303 8.12781C34.6034 7.38336 35.1839 6.76291 35.9017 6.34142C36.6545 5.90343 37.5127 5.67998 38.3834 5.69528C41.169 5.69528 42.5618 7.39298 42.5618 10.7884V18.3425H39.3963V10.9182C39.4504 10.1942 39.2867 9.4706 38.9263 8.84046C38.7375 8.60821 38.4941 8.42645 38.2179 8.31147C37.9417 8.19649 37.6412 8.15188 37.3436 8.18165C36.9731 8.16437 36.6038 8.23416 36.2652 8.38542C35.9266 8.53667 35.6281 8.7652 35.3936 9.05267C34.883 9.75223 34.6312 10.6077 34.6814 11.4725V18.3425H31.516V10.9182C31.5723 10.1948 31.4108 9.47114 31.0522 8.84046C30.8676 8.60998 30.6286 8.42909 30.3568 8.31408C30.0849 8.19907 29.7887 8.15356 29.4948 8.18165C29.1244 8.16437 28.7551 8.23416 28.4165 8.38542C28.0779 8.53667 27.7794 8.7652 27.5449 9.05267C27.0342 9.75223 26.7825 10.6077 26.8327 11.4725V18.3425H23.6704Z" fill="#192F4D"/>
<path d="M46.0815 22.9034V5.95174H49.1679V7.93133C49.5336 7.24297 50.094 6.67778 50.7791 6.30648C51.5265 5.8934 52.3691 5.68371 53.2228 5.69835C54.2285 5.67773 55.2185 5.95068 56.0717 6.48386C56.9064 7.02639 57.5695 7.79539 57.9836 8.701C58.4648 9.78004 58.6985 10.9532 58.6674 12.1344C58.695 13.3153 58.4615 14.4877 57.9836 15.5678C57.5773 16.4813 56.9183 17.2594 56.0844 17.8103C55.2279 18.3467 54.2329 18.6198 53.2228 18.5958C52.3979 18.6087 51.5831 18.4126 50.8543 18.0257C50.1851 17.676 49.6281 17.1447 49.247 16.4927V22.9066L46.0815 22.9034ZM52.3333 16.1886C52.7665 16.2033 53.1973 16.1181 53.5924 15.9396C53.9874 15.7611 54.3362 15.4941 54.6116 15.1592C55.2453 14.2824 55.5504 13.2105 55.4734 12.1312C55.5557 11.0514 55.2501 9.97768 54.6116 9.10325C54.3217 8.78776 53.9694 8.53591 53.5772 8.36364C53.185 8.19137 52.7613 8.10242 52.3329 8.10242C51.9046 8.10242 51.4808 8.19137 51.0886 8.36364C50.6964 8.53591 50.3441 8.78776 50.0542 9.10325C49.4157 9.97763 49.1103 11.0515 49.1932 12.1312C49.1156 13.2104 49.4204 14.2825 50.0542 15.1592C50.3301 15.4946 50.6795 15.7619 51.0753 15.9404C51.4711 16.1189 51.9026 16.2039 52.3365 16.1886H52.3333Z" fill="#192F4D"/>
<path d="M65.8325 18.596C65.2351 18.6457 64.6341 18.5637 64.0719 18.3558C63.5096 18.1478 62.9998 17.819 62.5784 17.3924C61.8105 16.3811 61.4369 15.1245 61.5275 13.8576V0.47876H64.6929V13.7024C64.6929 15.2228 65.3345 15.9829 66.6175 15.9829C66.8035 15.9829 66.9887 15.975 67.1715 15.9576C67.3517 15.9418 67.5299 15.9079 67.7033 15.8562L67.6526 18.3648C67.0577 18.5162 66.4464 18.5938 65.8325 18.596Z" fill="#192F4D"/>
<path d="M75.8358 18.5959C74.5832 18.6289 73.3411 18.3595 72.2146 17.8104C71.231 17.3146 70.416 16.5388 69.8721 15.5806C69.3024 14.5324 69.0185 13.3526 69.0491 12.1599C69.0225 10.9867 69.2971 9.82635 69.8468 8.7898C70.3602 7.84655 71.1222 7.06218 72.05 6.52198C73.024 5.96334 74.1309 5.67878 75.2534 5.69847C76.0272 5.66014 76.8001 5.78976 77.5192 6.07843C78.2382 6.36709 78.8864 6.80797 79.4191 7.37083C80.4925 8.63851 81.0394 10.2697 80.9472 11.9286V12.8662H72.084C72.3203 15.0796 73.5865 16.1861 75.8825 16.1856C76.5866 16.1839 77.2865 16.0771 77.9591 15.8688C78.6497 15.6585 79.2942 15.3188 79.8583 14.8679L80.7446 16.9964C80.083 17.5238 79.3266 17.9194 78.5162 18.162C77.6508 18.4456 76.7464 18.592 75.8358 18.5959ZM75.38 7.85226C74.9655 7.8349 74.5519 7.90235 74.1643 8.05048C73.7768 8.19862 73.4235 8.42432 73.1262 8.71378C72.5241 9.34929 72.1576 10.172 72.0879 11.0449H78.3183C78.3124 10.1816 78.0129 9.34609 77.4692 8.67577C77.2013 8.39537 76.8757 8.17652 76.515 8.03433C76.1543 7.89215 75.7671 7.83003 75.38 7.85226Z" fill="#192F4D"/>
<path d="M83.4331 18.3424V14.8203H86.9784V18.3424H83.4331Z" fill="#192F4D"/>
<path d="M103.793 18.596C102.473 18.6077 101.159 18.4241 99.8928 18.0512C98.8002 17.7409 97.7713 17.239 96.854 16.5689L97.8416 14.0097C98.6732 14.6034 99.5914 15.0649 100.564 15.378C101.608 15.7074 102.698 15.8698 103.793 15.8594C104.809 15.9395 105.826 15.7051 106.705 15.1879C106.989 14.9969 107.221 14.7383 107.38 14.4353C107.539 14.1323 107.62 13.7945 107.617 13.4522C107.628 13.1852 107.575 12.9194 107.463 12.6769C107.351 12.4344 107.182 12.2224 106.971 12.0586C106.3 11.6251 105.545 11.34 104.755 11.2224L101.969 10.6396C98.795 9.96443 97.208 8.3343 97.2085 5.74922C97.1858 4.70817 97.4964 3.68713 98.0949 2.83526C98.7203 1.98003 99.5691 1.31373 100.548 0.909512C101.695 0.433934 102.928 0.201 104.169 0.225365C105.331 0.216986 106.486 0.401068 107.588 0.770148C108.573 1.08753 109.479 1.61 110.247 2.30314L109.259 4.73567C107.826 3.54186 106.008 2.9113 104.144 2.96195C103.177 2.90622 102.218 3.16391 101.409 3.69678C101.099 3.91145 100.846 4.19959 100.674 4.53557C100.501 4.87155 100.415 5.24495 100.421 5.62252C100.41 5.89512 100.458 6.16695 100.563 6.41874C100.668 6.67053 100.827 6.89612 101.029 7.0795C101.64 7.53161 102.354 7.82345 103.106 7.92835L105.866 8.51114C107.237 8.72673 108.527 9.30397 109.601 10.1835C110.012 10.5727 110.334 11.0456 110.546 11.5702C110.758 12.0948 110.854 12.6589 110.829 13.2242C110.848 14.2293 110.546 15.2142 109.968 16.0368C109.348 16.8839 108.501 17.5383 107.525 17.9245C106.338 18.3963 105.069 18.6246 103.793 18.596Z" fill="#192F4D"/>
<path d="M119.67 18.5959C118.418 18.6289 117.176 18.3595 116.049 17.8104C115.065 17.3148 114.25 16.5389 113.707 15.5806C113.137 14.5325 112.853 13.3526 112.884 12.1598C112.857 10.9867 113.132 9.82632 113.681 8.78976C114.194 7.84635 114.957 7.06192 115.884 6.52194C116.858 5.96331 117.965 5.67875 119.088 5.69843C119.862 5.66022 120.635 5.78988 121.354 6.07854C122.073 6.3672 122.721 6.80802 123.254 7.37079C124.33 8.6374 124.879 10.2687 124.789 11.9286V12.8661H115.926C116.161 15.0796 117.428 16.186 119.724 16.1855C120.428 16.1838 121.128 16.077 121.801 15.8688C122.491 15.6581 123.136 15.3185 123.7 14.8679L124.586 16.9964C123.925 17.5236 123.168 17.9192 122.358 18.1619C121.49 18.4461 120.583 18.5925 119.67 18.5959ZM119.215 7.85223C118.8 7.83477 118.386 7.90218 117.999 8.05032C117.611 8.19846 117.258 8.42421 116.961 8.71375C116.359 9.34925 115.992 10.172 115.922 11.0449H122.152C122.146 10.1817 121.847 9.34616 121.304 8.67574C121.036 8.39534 120.71 8.17648 120.35 8.0343C119.989 7.89212 119.602 7.83 119.215 7.85223Z" fill="#192F4D"/>
<path d="M133.269 18.5958C132.088 18.6245 130.92 18.3497 129.876 17.7977C128.926 17.2783 128.15 16.4892 127.647 15.5298C127.104 14.4643 126.834 13.2799 126.862 12.0838C126.831 10.9005 127.101 9.72881 127.647 8.67886C128.156 7.73948 128.931 6.97224 129.876 6.47439C130.925 5.93855 132.091 5.67293 133.269 5.70155C134.069 5.70265 134.864 5.83095 135.624 6.08164C136.333 6.29736 136.989 6.65996 137.549 7.14586L136.612 9.34717C136.178 8.96156 135.675 8.66075 135.13 8.46031C134.625 8.26577 134.089 8.1628 133.548 8.15625C133.074 8.12841 132.6 8.20632 132.159 8.38435C131.719 8.56238 131.324 8.83607 131.003 9.18564C130.354 10.0186 130.034 11.0615 130.104 12.1154C130.043 13.1751 130.362 14.2217 131.003 15.0674C131.316 15.4298 131.709 15.7154 132.15 15.9021C132.591 16.0888 133.069 16.1717 133.548 16.1443C134.085 16.1354 134.616 16.0325 135.118 15.8402C135.672 15.6393 136.18 15.3291 136.612 14.928L137.549 17.1578C136.978 17.6323 136.32 17.9896 135.612 18.2094C134.857 18.4637 134.066 18.5942 133.269 18.5958Z" fill="#192F4D"/>
<path d="M144.234 18.596C141.195 18.596 139.675 16.8898 139.675 13.4775V5.95508H142.841V13.5282C142.786 14.2206 142.974 14.9105 143.373 15.4793C143.59 15.7052 143.855 15.8793 144.149 15.989C144.443 16.0986 144.757 16.1409 145.069 16.1128C145.458 16.1253 145.844 16.054 146.202 15.9037C146.561 15.7534 146.882 15.5276 147.146 15.2417C147.707 14.6036 147.998 13.7721 147.957 12.9232V5.95508H151.122V18.3426H148.036V16.4928C147.661 17.1634 147.107 17.7158 146.435 18.0875C145.763 18.4591 145 18.6353 144.234 18.596Z" fill="#192F4D"/>
<path d="M154.667 18.3426V5.95195H157.753V8.12792C158.362 6.65827 159.662 5.84743 161.654 5.69539L162.616 5.61621L162.819 8.30212L160.999 8.47949C158.922 8.6822 157.884 9.74643 157.884 11.6722V18.3426H154.667Z" fill="#192F4D"/>
<path d="M170.747 18.5959C169.495 18.6289 168.253 18.3595 167.126 17.8104C166.143 17.3146 165.328 16.5388 164.784 15.5806C164.214 14.5324 163.93 13.3526 163.961 12.1599C163.934 10.9867 164.209 9.82635 164.758 8.7898C165.272 7.84655 166.034 7.06218 166.962 6.52198C167.936 5.96334 169.042 5.67878 170.165 5.69847C170.939 5.66014 171.712 5.78976 172.431 6.07843C173.15 6.36709 173.798 6.80797 174.331 7.37083C175.406 8.63872 175.955 10.2713 175.863 11.9318V12.8693H167C167.236 15.0828 168.502 16.1892 170.798 16.1887C171.502 16.187 172.202 16.0803 172.875 15.872C173.565 15.6616 174.21 15.322 174.774 14.8711L175.66 16.9996C174.999 17.5269 174.242 17.9226 173.432 18.1651C172.565 18.4479 171.659 18.5933 170.747 18.5959ZM170.292 7.85226C169.878 7.83473 169.464 7.9021 169.077 8.05025C168.69 8.19839 168.336 8.42419 168.039 8.71378C167.437 9.349 167.07 10.1718 167 11.0449H173.23C173.224 10.1817 172.925 9.34619 172.382 8.67577C172.114 8.39537 171.788 8.17652 171.427 8.03433C171.067 7.89215 170.679 7.83003 170.292 7.85226Z" fill="#192F4D"/>
<path d="M178.344 18.3424V14.8203H181.889V18.3424H178.344Z" fill="#192F4D"/>
<path d="M192.601 18.3426V0.47876H195.31L201.641 12.1599L207.947 0.47876H210.606V18.3426H207.668V6.30668L202.553 15.6313H200.653L195.537 6.35736V18.3426H192.601Z" fill="#192F4D"/>
<path d="M220.127 18.5959C218.964 18.6245 217.813 18.3541 216.784 17.8104C215.847 17.2949 215.08 16.5151 214.581 15.5679C214.037 14.5072 213.767 13.3267 213.796 12.1345C213.765 10.9463 214.036 9.76955 214.581 8.71379C215.084 7.77218 215.849 6.99735 216.784 6.48398C217.823 5.96735 218.967 5.69849 220.127 5.69849C221.287 5.69849 222.431 5.96735 223.469 6.48398C224.405 6.9973 225.17 7.77212 225.673 8.71379C226.218 9.76974 226.488 10.9463 226.458 12.1345C226.487 13.3267 226.217 14.5071 225.673 15.5679C225.174 16.5152 224.407 17.2949 223.469 17.8104C222.441 18.3542 221.29 18.6247 220.127 18.5959ZM220.127 16.1887C220.561 16.2034 220.991 16.1182 221.387 15.9397C221.782 15.7612 222.131 15.4942 222.406 15.1593C223.039 14.2823 223.344 13.2105 223.267 12.1314C223.349 11.0517 223.044 9.97809 222.406 9.10338C222.116 8.78786 221.764 8.536 221.372 8.36372C220.979 8.19144 220.556 8.10249 220.127 8.10249C219.699 8.10249 219.275 8.19144 218.883 8.36372C218.49 8.536 218.138 8.78786 217.848 9.10338C217.21 9.97775 216.904 11.0516 216.987 12.1314C216.909 13.2106 217.214 14.2826 217.848 15.1593C218.124 15.4943 218.473 15.7613 218.868 15.9398C219.263 16.1183 219.694 16.2035 220.127 16.1887Z" fill="#192F4D"/>
<path d="M236.46 18.596C235.607 18.6105 234.765 18.4008 234.017 17.9879C233.329 17.6123 232.768 17.0386 232.409 16.3408V18.3426H229.322V0.47876H232.488V7.77633C232.876 7.13722 233.432 6.61686 234.095 6.27184C234.824 5.885 235.638 5.68887 236.463 5.70171C237.473 5.67762 238.468 5.95073 239.325 6.48722C240.154 7.03275 240.812 7.80123 241.224 8.70436C241.706 9.7834 241.939 10.9566 241.908 12.1378C241.936 13.3187 241.702 14.4911 241.224 15.5712C240.824 16.4946 240.157 17.2767 239.308 17.8165C238.459 18.3563 237.468 18.6289 236.463 18.5992L236.46 18.596ZM235.574 16.1888C236.007 16.2037 236.438 16.1187 236.834 15.9401C237.229 15.7616 237.578 15.4945 237.853 15.1594C238.487 14.2828 238.792 13.2107 238.715 12.1314C238.798 11.0516 238.492 9.97772 237.853 9.10345C237.563 8.78794 237.211 8.53607 236.819 8.36379C236.426 8.19151 236.002 8.10256 235.574 8.10256C235.146 8.10256 234.722 8.19151 234.33 8.36379C233.937 8.53607 233.585 8.78794 233.295 9.10345C232.657 9.97809 232.352 11.0518 232.435 12.1314C232.357 13.2105 232.662 14.2824 233.295 15.1594C233.571 15.4942 233.92 15.7612 234.315 15.9397C234.71 16.1181 235.141 16.2034 235.574 16.1888Z" fill="#192F4D"/>
<path d="M244.564 3.29129V0.203125H248.109V3.29129H244.564ZM244.767 18.3425V5.95186H247.932V18.3425H244.767Z" fill="#192F4D"/>
<path d="M255.782 18.596C255.185 18.6457 254.584 18.5637 254.022 18.3558C253.459 18.1478 252.95 17.819 252.528 17.3924C251.76 16.3811 251.387 15.1245 251.477 13.8576V0.47876H254.643V13.7024C254.643 15.2228 255.284 15.9829 256.567 15.9829C256.752 15.9829 256.938 15.975 257.121 15.9576C257.301 15.9418 257.48 15.9079 257.653 15.8562L257.602 18.3648C257.007 18.5162 256.396 18.5938 255.782 18.596Z" fill="#192F4D"/>
<path d="M265.785 18.5959C264.532 18.6288 263.29 18.3594 262.164 17.8104C261.18 17.3148 260.365 16.539 259.821 15.5806C259.252 14.5324 258.968 13.3526 258.998 12.1599C258.972 10.9867 259.246 9.82635 259.796 8.7898C260.309 7.84655 261.071 7.06218 261.999 6.52198C262.973 5.96341 264.08 5.67886 265.203 5.69847C265.976 5.66014 266.749 5.78976 267.468 6.07843C268.187 6.36709 268.836 6.80797 269.368 7.37083C270.444 8.63872 270.992 10.2713 270.9 11.9318V12.8693H262.037C262.274 15.0828 263.54 16.1892 265.836 16.1887C266.54 16.187 267.24 16.0802 267.912 15.872C268.603 15.6614 269.247 15.3217 269.811 14.8711L270.698 16.9996C270.036 17.5269 269.28 17.9226 268.469 18.1651C267.603 18.448 266.697 18.5933 265.785 18.5959ZM265.329 7.85226C264.915 7.8349 264.501 7.90235 264.114 8.05048C263.726 8.19862 263.373 8.42432 263.075 8.71378C262.473 9.34929 262.107 10.172 262.037 11.0449H268.267C268.261 10.1818 267.962 9.3463 267.419 8.67577C267.151 8.39544 266.825 8.17664 266.465 8.03446C266.104 7.89229 265.716 7.83013 265.329 7.85226Z" fill="#192F4D"/>
<path d="M273.381 18.3424V14.8203H276.927V18.3424H273.381Z" fill="#192F4D"/>
</svg>
