<svg width="133" height="16" viewBox="0 0 133 16" fill="none" xmlns="http://www.w3.org/2000/svg">
<g clip-path="url(#clip0_458_506)">
<path d="M8.74194 15.498C8.74194 15.2897 8.74194 15.1202 8.74194 14.9506C8.74194 13.5477 8.74194 12.1426 8.74194 10.7396C8.74194 10.6886 8.74397 10.6375 8.74194 10.5865C8.73585 10.4558 8.79875 10.4006 8.92457 10.4006C9.11126 10.4006 9.29592 10.4006 9.48261 10.4006C9.82149 10.4006 10.1583 10.3965 10.4972 10.4006C10.6352 10.4006 10.688 10.3393 10.7062 10.2046C10.759 9.82675 10.83 9.45099 10.8868 9.07318C10.9335 8.77093 10.97 8.46664 11.0086 8.1644C11.0147 8.11743 11.0045 8.06637 11.0005 7.98877H8.77846C8.76223 7.93567 8.74802 7.91116 8.74802 7.8887C8.75614 7.33526 8.74802 6.78182 8.77643 6.23043C8.80687 5.64636 9.17822 5.242 9.84787 5.18278C10.1665 5.15419 10.4891 5.15623 10.8097 5.14602C10.901 5.14398 10.9924 5.14602 11.0979 5.14602C11.1101 5.0725 11.1263 5.01532 11.1263 4.96018C11.1263 4.41491 11.1283 3.87168 11.1263 3.32641C11.1263 3.1079 11.104 3.08543 10.8828 3.0548C10.1786 2.95677 9.47246 2.88121 8.76223 2.97515C8.56336 3.0017 8.36247 3.03438 8.17578 3.09973C7.50816 3.33662 6.94201 3.67971 6.58689 4.3516C6.26018 4.97039 6.16684 5.61777 6.14655 6.28965C6.13234 6.77366 6.14046 7.2597 6.13843 7.7437C6.13843 7.8111 6.13843 7.87849 6.13843 7.9806C5.44646 8.00306 4.76667 7.97651 4.09296 7.99489C4.03614 8.19707 4.026 10.0902 4.08079 10.3965C4.41764 10.3986 4.76058 10.4027 5.10555 10.4027C5.4424 10.4027 5.77723 10.4027 6.12828 10.4027V15.4714C6.05726 15.4796 5.98624 15.4939 5.91319 15.4939C4.48461 15.4939 3.05603 15.5 1.62745 15.4939C0.736612 15.4877 0.0649355 14.824 0.0142046 13.9234C0.0060877 13.7968 0.00405847 13.6681 0.00405847 13.5415C0 9.83901 0 6.13853 0 2.43805C0 2.29306 0.00811693 2.14806 0.0121754 2.00511C0.0243508 1.45575 0.312502 1.06365 0.724436 0.747107C0.919243 0.598026 1.15463 0.55514 1.39002 0.53676C1.67006 0.514295 1.94806 0.5 2.2281 0.5C5.85434 0.5 9.48058 0.5 13.1068 0.5C13.4295 0.5 13.742 0.540844 14.0382 0.700136C14.507 0.95337 14.7606 1.35364 14.856 1.86215C14.8946 2.06841 14.8966 2.28489 14.8966 2.49728C14.8986 6.18142 14.8986 9.86555 14.8966 13.5477C14.8966 13.76 14.8702 13.9724 14.856 14.1828C14.8114 14.775 14.0606 15.5082 13.4558 15.4837C13.1352 15.4714 12.8146 15.4898 12.492 15.4898C11.3252 15.4918 10.1583 15.4918 8.99153 15.4939C8.91645 15.4939 8.84137 15.4939 8.73991 15.4939L8.74194 15.498Z" fill="black"/>
<path d="M37.0213 15.496C35.0935 15.496 33.1678 15.4919 31.24 15.498C30.7875 15.498 30.3898 15.3714 30.057 15.0651C29.7526 14.7853 29.5781 14.432 29.5415 14.0154C29.5273 13.8622 29.5273 13.7091 29.5273 13.5559C29.5273 9.8391 29.5273 6.12228 29.5273 2.40342C29.5273 2.2666 29.5355 2.13181 29.5395 1.99498C29.5517 1.44563 29.8439 1.05557 30.2579 0.741069C30.4527 0.591988 30.6881 0.54706 30.9255 0.532764C31.2116 0.514385 31.4998 0.498047 31.7859 0.498047C35.3959 0.498047 39.0039 0.498047 42.6139 0.500089C42.9629 0.500089 43.2998 0.542975 43.6123 0.728816C44.0323 0.980007 44.286 1.34148 44.3793 1.81323C44.4179 2.01132 44.426 2.21963 44.426 2.4218C44.428 6.157 44.428 9.89015 44.426 13.6253C44.426 13.8275 44.4016 14.0317 44.3773 14.2339C44.3083 14.7996 43.5757 15.5205 42.9588 15.4838C42.7742 15.4735 42.5875 15.4899 42.4008 15.4899C40.609 15.4899 38.8172 15.4899 37.0254 15.4899L37.0213 15.496ZM32.3886 4.0474C32.1471 4.53753 32.0355 5.01949 32.1187 5.53004C32.214 6.10186 32.5103 6.56136 33.0156 6.9555C32.8106 6.91874 32.6666 6.89832 32.5245 6.86564C32.3744 6.82889 32.2262 6.77987 32.0517 6.72677C32.1471 7.80506 32.6767 8.50758 33.6548 8.87926C33.6507 8.8956 33.6467 8.91193 33.6426 8.92623C33.389 8.94053 33.1353 8.95482 32.8614 8.96912C33.184 9.89832 33.8922 10.3006 34.7973 10.4906C34.3245 10.8132 33.8699 11.0685 33.3606 11.2135C32.8533 11.3565 32.3317 11.3912 31.7575 11.4014C31.8386 11.4667 31.8691 11.4974 31.9056 11.5178C32.3703 11.7833 32.8573 11.9997 33.3707 12.1427C34.221 12.3796 35.0874 12.3837 35.96 12.2877C37.0639 12.1672 38.0278 11.7036 38.8801 11.0317C39.3996 10.6233 39.846 10.1168 40.191 9.53072C40.3797 9.21214 40.5664 8.8956 40.7044 8.55046C41.0209 7.76421 41.238 6.95754 41.2056 6.09982C41.1995 5.91193 41.2462 5.76898 41.3984 5.6587C41.7088 5.43406 41.926 5.11547 42.1816 4.83773C42.206 4.81119 42.2182 4.77034 42.2466 4.7152C41.8915 4.8071 41.5607 4.89083 41.232 4.9766C41.514 4.62534 41.8712 4.35169 41.9544 3.84114C41.8225 3.90036 41.721 3.95142 41.6135 3.99226C41.3537 4.09029 41.094 4.1924 40.8302 4.27817C40.7125 4.31697 40.5887 4.33739 40.4832 4.21282C40.2255 3.91057 39.8683 3.786 39.499 3.69614C39.0221 3.58178 38.5574 3.64713 38.113 3.83705C37.8086 3.96775 37.5185 4.14543 37.3216 4.415C36.9462 4.93168 36.7514 5.50962 36.859 6.16313C36.8671 6.21622 36.8529 6.27341 36.8488 6.33671C36.2563 6.2877 35.6982 6.16313 35.1544 5.97933C34.6187 5.79961 34.1357 5.51983 33.667 5.20737C33.1881 4.88879 32.8248 4.4395 32.3926 4.04127L32.3886 4.0474Z" fill="black"/>
<path d="M96.0032 15.4961C93.9232 15.4961 91.8432 15.4961 89.7633 15.4961C89.4061 15.4961 89.0997 15.3899 88.8603 15.1163C88.6898 14.9223 88.6147 14.6915 88.5924 14.4403C88.5802 14.2974 88.5762 14.1524 88.5762 14.0074C88.5762 9.92296 88.5762 5.84059 88.5762 1.75618C88.5762 1.42126 88.6573 1.11697 88.8785 0.861697C89.0023 0.718743 89.1403 0.600295 89.3432 0.583957C89.603 0.561493 89.8627 0.504311 90.1204 0.504311C94.1018 0.500227 98.0831 0.502269 102.067 0.504311C102.235 0.504311 102.405 0.520649 102.572 0.545155C103.024 0.612548 103.371 0.967892 103.43 1.42535C103.457 1.62752 103.473 1.83174 103.473 2.03597C103.475 6.102 103.473 10.1701 103.473 14.2361C103.473 14.6976 103.325 15.0836 102.919 15.3409C102.726 15.4635 102.509 15.4921 102.292 15.4961C101.827 15.5023 101.362 15.4961 100.898 15.4961C99.2662 15.4961 97.6347 15.4961 96.0032 15.4961ZM101.344 13.3518C101.35 13.2701 101.358 13.2211 101.358 13.1701C101.358 11.716 101.368 10.2599 101.354 8.80588C101.348 8.2504 101.233 7.70717 100.993 7.2007C100.81 6.81268 100.53 6.50635 100.145 6.32256C99.8547 6.18369 99.5442 6.11017 99.2256 6.05707C98.3794 5.91411 97.6347 6.12038 96.9813 6.67381C96.8798 6.75959 96.8067 6.87804 96.7215 6.98219C96.6931 7.0169 96.6667 7.05571 96.6403 7.09451C96.6241 7.09042 96.6079 7.08838 96.5916 7.0843V6.18981C95.8611 6.18981 95.1651 6.18164 94.465 6.19594V13.3334C94.7897 13.3886 96.476 13.3784 96.6951 13.3151C96.6951 13.2232 96.6951 13.1211 96.6951 13.021C96.6951 11.9407 96.6951 10.8603 96.6951 9.78001C96.6951 9.43692 96.7378 9.10608 96.8352 8.77524C96.9123 8.5118 97.0624 8.31983 97.2856 8.18505C97.6225 7.98287 97.9857 7.96245 98.3632 8.04618C98.5925 8.09723 98.771 8.22385 98.8766 8.42807C98.9618 8.59144 99.0369 8.76912 99.0714 8.94883C99.116 9.18164 99.1262 9.42058 99.1282 9.65952C99.1343 10.7827 99.1302 11.9059 99.1322 13.0292C99.1322 13.1354 99.1383 13.2436 99.1424 13.3559H101.348L101.344 13.3518ZM93.0872 13.3477C93.0872 13.2313 93.0872 13.1313 93.0872 13.0332C93.0872 11.4505 93.0872 9.86987 93.0872 8.28716C93.0872 7.6745 93.0872 7.06183 93.0831 6.45121C93.0831 6.20615 93.0648 6.19185 92.8213 6.18981C92.2308 6.18777 91.6383 6.18981 91.0478 6.18981C90.991 6.18981 90.9362 6.20411 90.8712 6.21432V13.3457H93.0851L93.0872 13.3477ZM90.6886 3.98627C90.6277 4.62752 91.3887 5.23814 91.9792 5.23202C92.6732 5.22385 93.2333 4.63774 93.2475 3.95155C93.2637 3.22453 92.6712 2.6568 92.0015 2.65067C91.2953 2.6425 90.6582 3.18777 90.6906 3.98831L90.6886 3.98627Z" fill="black"/>
<path d="M125.6 15.4961C123.672 15.4961 121.746 15.492 119.818 15.4981C119.366 15.4981 118.968 15.3715 118.635 15.0652C118.331 14.7854 118.154 14.4321 118.118 14.0175C118.104 13.8644 118.104 13.7112 118.104 13.558C118.104 9.84123 118.104 6.12441 118.104 2.40556C118.104 2.26873 118.112 2.13394 118.116 1.99711C118.128 1.44776 118.42 1.0577 118.832 0.741158C119.027 0.592077 119.262 0.547149 119.498 0.530811C119.784 0.510389 120.072 0.496094 120.358 0.496094C123.968 0.496094 127.576 0.496094 131.186 0.498136C131.535 0.498136 131.872 0.53898 132.184 0.726863C132.613 0.984181 132.87 1.34974 132.955 1.83578C132.992 2.04409 132.998 2.25852 132.998 2.47091C133 6.17138 133 9.87186 132.998 13.5723C132.998 13.7766 132.972 13.9787 132.958 14.183C132.913 14.7752 132.162 15.5104 131.557 15.4838C131.346 15.4736 131.135 15.492 130.924 15.492C129.149 15.492 127.375 15.492 125.6 15.492V15.4961ZM120.271 13.3538C120.565 13.2823 120.827 13.2231 121.084 13.1537C121.63 13.0087 122.176 12.8576 122.722 12.7126C122.949 12.6513 123.162 12.6533 123.377 12.784C123.534 12.88 123.712 12.9433 123.887 13.0005C124.668 13.2619 125.472 13.3314 126.287 13.2252C127 13.1333 127.657 12.88 128.276 12.5083C128.745 12.2286 129.169 11.8998 129.534 11.4934C129.623 11.3933 129.697 11.2789 129.776 11.1687C129.91 10.9869 130.064 10.8154 130.167 10.6173C130.328 10.3109 130.47 9.99235 130.585 9.6656C130.695 9.35518 130.786 9.03047 130.831 8.70576C130.906 8.15845 130.928 7.60501 130.796 7.05974C130.689 6.61454 130.602 6.1673 130.393 5.75273C130.108 5.18704 129.761 4.66424 129.311 4.22312C129.009 3.92904 128.698 3.62067 128.337 3.42053C127.722 3.07744 127.083 2.78949 126.356 2.70168C125.352 2.58119 124.386 2.64041 123.461 3.07132C123.225 3.18159 123.004 3.32251 122.771 3.43891C122.339 3.65334 122.008 3.99031 121.677 4.32931C121.302 4.71529 121.022 5.16049 120.794 5.65266C120.64 5.98554 120.506 6.31842 120.419 6.67377C120.106 7.96444 120.244 9.20406 120.837 10.3865C120.93 10.5723 120.936 10.7316 120.882 10.9216C120.683 11.6241 120.492 12.3266 120.301 13.0312C120.277 13.1251 120.281 13.2252 120.269 13.3497L120.271 13.3538Z" fill="black"/>
<path d="M66.5428 15.4959C64.615 15.4959 62.6893 15.4918 60.7615 15.498C60.3171 15.498 59.9275 15.3734 59.5988 15.0793C59.2842 14.7975 59.1077 14.434 59.0651 14.0112C59.0488 13.8601 59.0509 13.7049 59.0509 13.5517C59.0509 9.84309 59.0509 6.13445 59.0509 2.4258C59.0509 2.2808 59.059 2.13785 59.063 1.99285C59.0772 1.4435 59.3694 1.05548 59.7834 0.74098C59.9802 0.591899 60.2136 0.551055 60.451 0.534717C60.7372 0.514295 61.0253 0.5 61.3114 0.5C64.9194 0.5 68.5294 0.5 72.1374 0.5C72.4702 0.5 72.7888 0.540844 73.0932 0.704221C73.5538 0.95337 73.8014 1.34956 73.9028 1.84377C73.9454 2.05003 73.9454 2.26651 73.9454 2.4789C73.9475 6.17121 73.9475 9.86147 73.9454 13.5538C73.9454 13.7662 73.9211 13.9786 73.9028 14.1889C73.8561 14.7791 73.1074 15.5143 72.4986 15.4857C72.3058 15.4755 72.111 15.4939 71.9162 15.4939C70.1244 15.4939 68.3326 15.4939 66.5408 15.4939L66.5428 15.4959ZM71.8513 8.20116C71.833 7.37815 71.8289 6.5531 71.7884 5.73009C71.7539 5.01736 71.5976 4.34752 71.1268 3.76549C70.9117 3.50204 70.6601 3.28761 70.3963 3.11607C70.0392 2.88325 69.611 2.76481 69.1788 2.73009C68.6329 2.68516 68.085 2.64227 67.5371 2.63615C66.3297 2.62185 65.1203 2.60756 63.917 2.71988C63.4766 2.76072 63.0525 2.871 62.673 3.11198C62.3626 3.31008 62.046 3.48775 61.8329 3.81654C61.5996 4.17597 61.3946 4.53744 61.3155 4.96426C61.2161 5.49319 61.1775 6.02417 61.1755 6.56127C61.1755 7.87849 61.1187 9.19775 61.2282 10.5129C61.279 11.1174 61.4068 11.7056 61.8512 12.1692C61.8735 12.1937 61.8816 12.2304 61.904 12.2549C62.0054 12.3652 62.1069 12.4775 62.2165 12.5817C62.2834 12.645 62.3605 12.6981 62.4336 12.7532C62.5127 12.8145 62.5878 12.8839 62.6771 12.9289C63.2859 13.2393 63.9454 13.3332 64.615 13.3475C65.4267 13.3659 66.2384 13.3679 67.0481 13.3598C67.6974 13.3536 68.3488 13.323 68.9982 13.3005C69.5359 13.2822 70.0189 13.0922 70.4673 12.8043C70.6378 12.6961 70.8224 12.596 70.9584 12.453C71.1187 12.2835 71.2425 12.0752 71.3642 11.873C71.6605 11.3809 71.766 10.8295 71.7924 10.2638C71.8229 9.57556 71.8371 8.88734 71.8574 8.19707L71.8513 8.20116Z" fill="black"/>
<path d="M121.517 12.0484C121.649 11.5583 121.774 11.0927 121.9 10.6271C121.931 10.5168 121.925 10.4249 121.86 10.3166C121.277 9.35068 121.05 8.30712 121.253 7.18799C121.324 6.79997 121.413 6.40787 121.63 6.06477C121.639 6.05048 121.649 6.03618 121.653 6.01985C121.777 5.62774 122.052 5.33571 122.296 5.02325C122.566 4.67812 122.937 4.45143 123.292 4.20637C123.702 3.9225 124.167 3.75912 124.644 3.66314C125.309 3.52836 125.983 3.50385 126.647 3.71011C126.977 3.81222 127.302 3.91433 127.613 4.07771C128.031 4.29827 128.392 4.58213 128.71 4.92318C129.108 5.34592 129.431 5.81971 129.64 6.36498C129.883 6.99806 129.985 7.64544 129.934 8.33162C129.883 9.05048 129.609 9.67539 129.293 10.2962C129.277 10.3269 129.258 10.3554 129.238 10.382C128.684 11.0559 128.087 11.6768 127.257 12.0076C126.598 12.271 125.918 12.3977 125.204 12.3446C124.682 12.3058 124.203 12.124 123.716 11.9647C123.613 11.932 123.505 11.883 123.428 11.8095C123.27 11.6645 123.093 11.6665 122.909 11.7074C122.704 11.7544 122.499 11.8115 122.296 11.8667C122.077 11.9259 121.858 11.9892 121.639 12.0464C121.608 12.0546 121.574 12.0464 121.515 12.0464L121.517 12.0484ZM128.197 9.18322C127.83 8.99738 127.477 8.81767 127.122 8.63795C127.091 8.62366 127.059 8.6114 127.026 8.60119C126.837 8.55014 126.809 8.56852 126.691 8.7319C126.582 8.88098 126.458 9.01985 126.338 9.1628C126.249 9.26899 126.145 9.28533 126.026 9.21181C125.754 9.04435 125.464 8.91365 125.2 8.72373C124.873 8.48887 124.626 8.1948 124.41 7.87417C124.179 7.52904 124.212 7.55558 124.441 7.25946C124.492 7.19207 124.553 7.13081 124.593 7.05729C124.684 6.89391 124.707 6.73053 124.603 6.55286C124.518 6.40787 124.469 6.24245 124.398 6.08724C124.331 5.9402 124.262 5.7952 124.191 5.65021C124.139 5.53993 124.049 5.49908 123.925 5.49091C123.509 5.45824 123.229 5.66654 123.047 6.00963C122.771 6.52427 122.789 7.06546 123.043 7.57396C123.211 7.91093 123.443 8.22339 123.682 8.51746C123.962 8.8626 124.226 9.23224 124.617 9.47322C124.638 9.48547 124.658 9.50589 124.672 9.52631C124.802 9.7142 125.007 9.81426 125.19 9.91637C125.512 10.0981 125.857 10.2452 126.204 10.3779C126.497 10.4902 126.811 10.5576 127.126 10.4923C127.558 10.4024 127.951 10.2411 128.134 9.78159C128.209 9.59371 128.215 9.40174 128.197 9.18322Z" fill="black"/>
<path d="M66.7516 12.3693C66.084 12.3693 65.4164 12.3816 64.7487 12.3652C64.3632 12.355 63.9776 12.308 63.5921 12.2427C63.0341 12.1488 62.3116 11.3952 62.2609 10.7866C62.2264 10.3639 62.1615 9.94113 62.1534 9.51635C62.1371 8.47891 62.1371 7.44147 62.1493 6.40198C62.1534 6.0303 62.196 5.65658 62.2487 5.28694C62.3705 4.41083 63.0543 3.82472 63.8823 3.7124C64.3084 3.65317 64.7406 3.62663 65.1688 3.61846C65.9805 3.60416 66.7922 3.61437 67.6039 3.61437C68.1883 3.61437 68.7666 3.66951 69.345 3.7512C69.9436 3.83697 70.6944 4.59259 70.7248 5.1787C70.7492 5.67087 70.8385 6.15896 70.8486 6.65113C70.8689 7.57013 70.8669 8.48912 70.8486 9.40811C70.8385 9.8819 70.8101 10.3618 70.7228 10.8274C70.6031 11.4728 70.1932 11.92 69.5925 12.1651C69.3693 12.257 69.1197 12.3142 68.8803 12.3264C68.1721 12.3652 67.4618 12.3754 66.7516 12.3979C66.7516 12.3877 66.7516 12.3795 66.7516 12.3693ZM66.5081 10.7539C67.1635 10.7498 67.6303 10.5375 68.2309 10.1127C68.6124 9.8431 68.86 9.46121 69.0243 9.05277C69.1989 8.61778 69.2577 8.14603 69.2049 7.6559C69.1136 6.79205 68.651 6.16509 67.9915 5.68313C67.541 5.35229 66.9911 5.24201 66.429 5.25631C65.7167 5.27469 64.9476 5.60348 64.4078 6.24473C64.1623 6.53677 63.9837 6.85944 63.8843 7.22703C63.6205 8.19096 63.7767 9.06094 64.4667 9.80634C64.6392 9.99218 64.8117 10.1903 65.0207 10.3251C65.4671 10.6171 65.9724 10.756 66.5081 10.758V10.7539ZM69.9618 5.17462C69.974 4.82132 69.7143 4.53949 69.3855 4.50477C69.067 4.4721 68.7301 4.74167 68.6976 5.16236C68.6794 5.39926 68.9838 5.77298 69.2942 5.77298C69.6392 5.77298 70.0085 5.49933 69.9618 5.17462Z" fill="black"/>
<path d="M68.243 7.98479C68.2754 8.90991 67.5043 9.71863 66.5952 9.76764C65.5583 9.82278 64.7811 8.98956 64.7466 8.1012C64.7081 7.03925 65.4223 6.29385 66.4309 6.24075C67.4394 6.18765 68.2369 6.99841 68.2409 7.98479H68.243Z" fill="black"/>
</g>
<defs>
<clipPath id="clip0_458_506">
<rect width="133" height="15" fill="white" transform="translate(0 0.5)"/>
</clipPath>
</defs>
</svg>
