<svg width="90" height="38" viewBox="0 0 90 38" fill="none" xmlns="http://www.w3.org/2000/svg">
<path d="M47.0264 19.248L48.6048 17.6547C49.5979 18.429 50.8926 18.8608 52.2405 18.9055C53.34 18.9055 53.9962 18.5332 53.9962 17.9376V17.9078C53.9962 17.3419 53.5883 17.0441 51.5488 16.6123C49.0836 16.0911 47.5052 15.5103 47.5052 13.4852V13.4554C47.5052 11.594 49.2787 10.3729 51.7794 10.3729C53.4287 10.3432 55.0249 10.8048 56.3018 11.6685L54.9007 13.366C53.9962 12.7704 52.8789 12.413 51.7262 12.3534C50.6975 12.3534 50.1655 12.7555 50.1655 13.2469V13.2767C50.1655 13.9468 50.6798 14.1702 52.7903 14.6169C55.2554 15.153 56.6565 15.8975 56.6565 17.6844V17.7142C56.6565 19.7543 54.812 20.886 52.1873 20.886C50.3073 20.886 48.4629 20.3053 47.0264 19.248Z" fill="#1B1B1B"/>
<path d="M58.0044 19.248L59.5828 17.6547C60.576 18.429 61.8706 18.8608 63.2185 18.9055C64.3181 18.9055 64.9743 18.5332 64.9743 17.9376V17.9078C64.9743 17.3419 64.5664 17.0441 62.5268 16.6123C60.0617 16.0911 58.4832 15.5103 58.4832 13.4852V13.4554C58.4832 11.594 60.2568 10.3729 62.7574 10.3729C64.4068 10.3432 66.0029 10.8048 67.2798 11.6685L65.8788 13.366C64.9743 12.7704 63.857 12.413 62.7042 12.3534C61.6755 12.3534 61.1435 12.7555 61.1435 13.2469V13.2767C61.1435 13.9468 61.6578 14.1702 63.7683 14.6169C66.2335 15.153 67.6345 15.8975 67.6345 17.6844V17.7142C67.6345 19.7543 65.7901 20.886 63.1653 20.886C61.2676 20.886 59.4409 20.3053 58.0044 19.248Z" fill="#1B1B1B"/>
<path d="M69.9932 10.4922H72.6712V18.6823H78.7543V20.7372H69.9932V10.4922Z" fill="#1B1B1B"/>
<path d="M46.707 25.9195L47.31 25.309C47.7002 25.6068 48.1968 25.7706 48.7111 25.7855C49.1367 25.7855 49.385 25.6515 49.385 25.4132V25.3983C49.385 25.175 49.2254 25.0707 48.4451 24.892C47.5051 24.6836 46.8844 24.4751 46.8844 23.6859V23.671C46.9021 22.986 47.576 22.4499 48.3919 22.4797C48.4273 22.4797 48.4805 22.4797 48.516 22.4946C49.1545 22.4797 49.7575 22.6584 50.254 23.0009L49.722 23.6561C49.3673 23.4327 48.9416 23.2838 48.4983 23.2689C48.1081 23.2689 47.8953 23.4178 47.8953 23.6114V23.6263C47.8953 23.8795 48.0904 23.9688 48.9062 24.1475C49.8639 24.356 50.3959 24.6389 50.3959 25.3239V25.3388C50.3959 26.128 49.6865 26.5598 48.6756 26.5598C47.9662 26.545 47.2568 26.3216 46.707 25.9195Z" fill="#1B1B1B"/>
<path d="M51.3179 22.5542H54.8471V23.3285H52.3288V24.1326H54.5456V24.907H52.3288V25.7409H54.8826V26.5152H51.3179V22.5542Z" fill="#1B1B1B"/>
<path d="M55.6101 24.5347C55.5924 23.4178 56.6387 22.5095 57.9511 22.4797C57.9866 22.4797 58.0221 22.4797 58.0575 22.4797C58.7492 22.4499 59.4231 22.6733 59.902 23.0902L59.2458 23.7305C58.9265 23.4625 58.5009 23.2987 58.0398 23.2838C57.2772 23.2987 56.6565 23.8348 56.6742 24.4751C56.6742 24.49 56.6742 24.5049 56.6742 24.5049V24.5198C56.621 25.1601 57.224 25.711 57.9866 25.7557C58.0043 25.7557 58.0221 25.7557 58.0398 25.7557C58.5009 25.7557 58.962 25.5919 59.2812 25.2941L59.9374 25.8451C59.4586 26.3216 58.7492 26.5747 58.0221 26.5449C56.7097 26.5598 55.6456 25.6813 55.6101 24.5942C55.6101 24.5793 55.6101 24.5644 55.6101 24.5347Z" fill="#1B1B1B"/>
<path d="M60.6823 24.8027V22.5542H61.7109V24.773C61.7109 25.4133 62.1011 25.7409 62.7218 25.7409C63.3425 25.7409 63.7327 25.4133 63.7327 24.8027V22.5542H64.7614V24.773C64.8855 25.6366 64.1584 26.4408 63.1297 26.545C62.9878 26.5599 62.846 26.5599 62.7041 26.545C61.6754 26.6343 60.771 26.0089 60.6646 25.1452C60.6646 25.041 60.6646 24.9219 60.6823 24.8027Z" fill="#1B1B1B"/>
<path d="M65.8252 22.554H67.9711C68.4677 22.5243 68.9643 22.6732 69.3367 22.9561C69.6028 23.1944 69.7624 23.522 69.7446 23.8496V23.8645C69.7801 24.4154 69.3722 24.9217 68.7337 25.0855L69.8865 26.4853H68.6805L67.6696 25.2195H66.8538V26.4853H65.8252V22.554ZM67.9002 24.475C68.3968 24.475 68.6983 24.2516 68.6983 23.924V23.9091C68.6983 23.5369 68.3968 23.3433 67.8825 23.3433H66.8538V24.475H67.9002Z" fill="#1B1B1B"/>
<path d="M70.6846 22.5542H74.2138V23.3285H71.6955V24.1326H73.9124V24.907H71.6955V25.7409H74.2493V26.5152H70.6846V22.5542Z" fill="#1B1B1B"/>
<path d="M75.1719 22.554H76.9986C78.2932 22.4796 79.3928 23.2986 79.4815 24.3856C79.4815 24.4303 79.4815 24.475 79.4815 24.5196V24.5345C79.4815 25.6216 78.4351 26.5001 77.1405 26.515C77.0873 26.515 77.0341 26.515 76.9986 26.515H75.1719V22.554ZM76.9986 25.7109C77.7435 25.7407 78.3642 25.2791 78.4174 24.6537C78.4174 24.609 78.4174 24.5792 78.4174 24.5345V24.5196C78.4529 23.8942 77.8853 23.3581 77.1405 23.3284C77.0873 23.3284 77.0518 23.3284 76.9986 23.3284H76.2005V25.696L76.9986 25.7109Z" fill="#1B1B1B"/>
<path d="M10.3678 19.4715C10.3678 28.4806 20.8315 33.0522 25.3185 34.6008L25.4781 34.6604C25.8151 34.7944 26.2052 34.7944 26.5245 34.6604L26.6841 34.6008C31.1888 33.0522 41.6347 28.4806 41.6347 19.4715V7.4098C41.6347 6.94818 41.2623 6.54612 40.7302 6.44188L26.2762 3.4339C26.0811 3.38922 25.886 3.38922 25.7086 3.4339L11.2546 6.44188C10.7225 6.54612 10.3501 6.94818 10.3501 7.4098M39.276 19.4715C39.276 27.1404 30.1779 31.2206 26.0279 32.6799C21.8601 31.2206 12.7798 27.1404 12.7798 19.4715V8.18413L26.0279 5.42929L39.276 8.18413V19.4715Z" fill="#1B1B1B"/>
<path d="M25.9749 9.44971C23.3147 9.44971 21.151 11.2664 21.151 13.5001V14.4978C20.211 14.6318 19.5371 15.3019 19.5371 16.0911V23.1792C19.5371 24.0727 20.4061 24.8024 21.4702 24.8024H30.6038C31.6679 24.8024 32.5369 24.0727 32.5369 23.1792V16.0911C32.5369 15.2721 31.792 14.5871 30.8343 14.4829V13.4852C30.7811 11.2515 28.6352 9.44971 25.9749 9.44971ZM25.9749 11.2068C27.4824 11.2068 28.7061 12.2343 28.7061 13.5001V14.468H23.2615V13.5001C23.2437 12.2343 24.4674 11.2068 25.9749 11.2068ZM30.4087 23.0303H21.6298V16.24H30.4087V23.0303ZM27.6775 17.4313L29.1318 18.6524L26.9326 20.4989L25.4783 21.7199L24.0241 20.4989L22.9068 19.5607L24.361 18.3397L25.4783 19.2778L27.6775 17.4313Z" fill="#1B1B1B"/>
</svg>
