<svg width="64" height="27" viewBox="0 0 64 27" fill="none" xmlns="http://www.w3.org/2000/svg">
<path d="M33.4404 13.7546L34.5629 12.6161C35.2691 13.1694 36.1898 13.478 37.1482 13.5099C37.9301 13.5099 38.3968 13.2439 38.3968 12.8182V12.797C38.3968 12.3926 38.1067 12.1798 36.6564 11.8712C34.9034 11.4987 33.7809 11.0837 33.7809 9.63657V9.61528C33.7809 8.28515 35.0421 7.41259 36.8203 7.41259C37.9932 7.39131 39.1283 7.72118 40.0363 8.33836L39.04 9.55144C38.3968 9.1258 37.6023 8.87041 36.7825 8.82785C36.051 8.82785 35.6727 9.11516 35.6727 9.46631V9.48759C35.6727 9.96644 36.0384 10.1261 37.5392 10.4453C39.2922 10.8284 40.2885 11.3604 40.2885 12.6373V12.6586C40.2885 14.1164 38.9769 14.9252 37.1104 14.9252C35.7736 14.9252 34.462 14.5102 33.4404 13.7546Z" fill="#1B1B1B"/>
<path d="M41.2471 13.7546L42.3695 12.6161C43.0758 13.1694 43.9964 13.478 44.9549 13.5099C45.7368 13.5099 46.2034 13.2439 46.2034 12.8182V12.797C46.2034 12.3926 45.9134 12.1798 44.463 11.8712C42.71 11.4987 41.5876 11.0837 41.5876 9.63657V9.61528C41.5876 8.28515 42.8487 7.41259 44.627 7.41259C45.7999 7.39131 46.9349 7.72118 47.8429 8.33836L46.8466 9.55144C46.2034 9.1258 45.4089 8.87041 44.5891 8.82785C43.8577 8.82785 43.4793 9.11516 43.4793 9.46631V9.48759C43.4793 9.96644 43.8451 10.1261 45.3458 10.4453C47.0988 10.8284 48.0952 11.3604 48.0952 12.6373V12.6586C48.0952 14.1164 46.7836 14.9252 44.917 14.9252C43.5676 14.9252 42.2686 14.5102 41.2471 13.7546Z" fill="#1B1B1B"/>
<path d="M49.7725 7.49805H51.6768V13.3506H56.0026V14.8191H49.7725V7.49805Z" fill="#1B1B1B"/>
<path d="M33.2139 18.5219L33.6427 18.0856C33.9201 18.2984 34.2732 18.4155 34.639 18.4261C34.9417 18.4261 35.1182 18.3304 35.1182 18.1601V18.1495C35.1182 17.9899 35.0047 17.9154 34.4498 17.7877C33.7814 17.6387 33.34 17.4897 33.34 16.9258V16.9151C33.3526 16.4256 33.8318 16.0426 34.412 16.0638C34.4372 16.0638 34.475 16.0638 34.5002 16.0745C34.9543 16.0638 35.3831 16.1915 35.7362 16.4363L35.3578 16.9045C35.1056 16.7449 34.8029 16.6384 34.4876 16.6278C34.2102 16.6278 34.0588 16.7342 34.0588 16.8726V16.8832C34.0588 17.0641 34.1976 17.1279 34.7777 17.2556C35.4587 17.4046 35.8371 17.6068 35.8371 18.0963V18.1069C35.8371 18.6709 35.3326 18.9795 34.6138 18.9795C34.1093 18.9688 33.6048 18.8092 33.2139 18.5219Z" fill="#1B1B1B"/>
<path d="M36.4927 16.1172H39.0024V16.6705H37.2115V17.2451H38.788V17.7985H37.2115V18.3944H39.0276V18.9477H36.4927V16.1172Z" fill="#1B1B1B"/>
<path d="M39.5446 17.5324C39.532 16.7343 40.2761 16.0852 41.2093 16.0639C41.2345 16.0639 41.2598 16.0639 41.285 16.0639C41.7768 16.0426 42.2561 16.2022 42.5966 16.5002L42.13 16.9577C41.903 16.7662 41.6003 16.6492 41.2724 16.6385C40.7301 16.6492 40.2887 17.0322 40.3013 17.4898C40.3013 17.5004 40.3013 17.5111 40.3013 17.5111V17.5217C40.2635 17.9793 40.6922 18.373 41.2345 18.4049C41.2472 18.4049 41.2598 18.4049 41.2724 18.4049C41.6003 18.4049 41.9282 18.2879 42.1552 18.0751L42.6218 18.4688C42.2813 18.8093 41.7768 18.9902 41.2598 18.9689C40.3265 18.9795 39.5698 18.3517 39.5446 17.5749C39.5446 17.5643 39.5446 17.5536 39.5446 17.5324Z" fill="#1B1B1B"/>
<path d="M43.1518 17.724V16.1172H43.8832V17.7027C43.8832 18.1603 44.1607 18.3944 44.6021 18.3944C45.0435 18.3944 45.321 18.1603 45.321 17.724V16.1172H46.0524V17.7027C46.1407 18.3199 45.6236 18.8945 44.8922 18.969C44.7913 18.9796 44.6904 18.9796 44.5895 18.969C43.858 19.0328 43.2148 18.5859 43.1392 17.9687C43.1392 17.8942 43.1392 17.8091 43.1518 17.724Z" fill="#1B1B1B"/>
<path d="M46.8091 16.1174H48.3351C48.6882 16.0961 49.0413 16.2026 49.3062 16.4047C49.4953 16.575 49.6089 16.8091 49.5962 17.0432V17.0538C49.6215 17.4476 49.3314 17.8093 48.8774 17.9264L49.6971 18.9267H48.8395L48.1207 18.0222H47.5406V18.9267H46.8091V16.1174ZM48.2846 17.4901C48.6378 17.4901 48.8522 17.3305 48.8522 17.0964V17.0858C48.8522 16.8197 48.6378 16.6814 48.272 16.6814H47.5406V17.4901H48.2846Z" fill="#1B1B1B"/>
<path d="M50.2646 16.1172H52.7744V16.6705H50.9835V17.2451H52.56V17.7985H50.9835V18.3944H52.7996V18.9477H50.2646V16.1172Z" fill="#1B1B1B"/>
<path d="M53.4551 16.1171H54.7541C55.6747 16.0639 56.4566 16.6492 56.5197 17.426C56.5197 17.4579 56.5197 17.4898 56.5197 17.5217V17.5324C56.5197 18.3092 55.7756 18.937 54.855 18.9476C54.8171 18.9476 54.7793 18.9476 54.7541 18.9476H53.4551V16.1171ZM54.7541 18.373C55.2838 18.3943 55.7252 18.0644 55.763 17.6175C55.763 17.5856 55.763 17.5643 55.763 17.5324V17.5217C55.7882 17.0748 55.3846 16.6917 54.855 16.6705C54.8171 16.6705 54.7919 16.6705 54.7541 16.6705H54.1865V18.3624L54.7541 18.373Z" fill="#1B1B1B"/>
<path d="M7.37248 13.9145C7.37248 20.3523 14.8133 23.6191 18.004 24.7258L18.1175 24.7683C18.3572 24.8641 18.6346 24.8641 18.8616 24.7683L18.9751 24.7258C22.1785 23.6191 29.6067 20.3523 29.6067 13.9145V5.29527C29.6067 4.9654 29.3419 4.67809 28.9635 4.60361L18.6851 2.45412C18.5463 2.4222 18.4076 2.4222 18.2815 2.45412L8.00305 4.60361C7.62471 4.67809 7.35986 4.9654 7.35986 5.29527M27.9294 13.9145C27.9294 19.3946 21.4596 22.3103 18.5085 23.3531C15.5448 22.3103 9.08765 19.3946 9.08765 13.9145V5.8486L18.5085 3.88002L27.9294 5.8486V13.9145Z" fill="#1B1B1B"/>
<path d="M18.4706 6.75293C16.5788 6.75293 15.0402 8.05113 15.0402 9.64729V10.3602C14.3718 10.456 13.8926 10.9349 13.8926 11.4988V16.564C13.8926 17.2024 14.5105 17.7238 15.2672 17.7238H21.7622C22.5189 17.7238 23.1369 17.2024 23.1369 16.564V11.4988C23.1369 10.9136 22.6072 10.4241 21.9262 10.3496V9.63665C21.8883 8.04049 20.3623 6.75293 18.4706 6.75293ZM18.4706 8.00857C19.5426 8.00857 20.4128 8.7428 20.4128 9.64729V10.339H16.541V9.64729C16.5284 8.7428 17.3986 8.00857 18.4706 8.00857ZM21.6235 16.4575H15.3807V11.6052H21.6235V16.4575ZM19.6813 12.4565L20.7154 13.3291L19.1516 14.6486L18.1175 15.5211L17.0833 14.6486L16.2888 13.9782L17.3229 13.1056L18.1175 13.776L19.6813 12.4565Z" fill="#1B1B1B"/>
</svg>
