<svg width="16" height="12" viewBox="0 0 16 12" fill="none" xmlns="http://www.w3.org/2000/svg">
<g clip-path="url(#clip0_461_187)">
<path d="M0 0.665649H16V11.3313H0V0.665649Z" fill="#F0F0F0"/>
<path d="M0 2H16V3.33437H0V2ZM0 4.66563H16V6H0V4.66563ZM0 7.33437H16V8.66875H0V7.33437ZM0 10H16V11.3344H0V10Z" fill="#D80027"/>
<path d="M0 0.665649H8V6.4094H0V0.665649Z" fill="#2E52B2"/>
<path d="M3.11875 3.01882L2.99062 3.4157H2.575L2.9125 3.65945L2.78125 4.05632L3.11875 3.81257L3.45625 4.05632L3.32812 3.65945L3.66563 3.4157H3.25L3.11875 3.01882ZM3.24688 4.84695L3.11875 4.45007L2.99062 4.84695H2.575L2.9125 5.0907L2.78125 5.48757L3.11875 5.24382L3.45625 5.48757L3.32812 5.0907L3.66563 4.84695H3.24688ZM1.4875 4.84695L1.35938 4.45007L1.23125 4.84695H0.8125L1.15 5.0907L1.02188 5.48757L1.35938 5.24382L1.69687 5.48757L1.56875 5.0907L1.90625 4.84695H1.4875ZM1.35938 3.01882L1.23125 3.4157H0.8125L1.15 3.65945L1.02188 4.05632L1.35938 3.81257L1.69687 4.05632L1.56875 3.65945L1.90625 3.4157H1.4875L1.35938 3.01882ZM3.11875 1.5907L2.99062 1.98757H2.575L2.9125 2.23132L2.78125 2.6282L3.11875 2.38445L3.45625 2.6282L3.32812 2.23132L3.66563 1.98757H3.25L3.11875 1.5907ZM1.35938 1.5907L1.23125 1.98757H0.8125L1.15 2.23132L1.02188 2.6282L1.35938 2.38445L1.69687 2.6282L1.56875 2.23132L1.90625 1.98757H1.4875L1.35938 1.5907ZM4.88125 3.01882L4.75313 3.4157H4.3375L4.675 3.65945L4.54688 4.05632L4.88438 3.81257L5.22188 4.05632L5.09375 3.65945L5.43125 3.4157H5.01562L4.88125 3.01882ZM5.00938 4.84695L4.88125 4.45007L4.75313 4.84695H4.3375L4.675 5.0907L4.54688 5.48757L4.88438 5.24382L5.22188 5.48757L5.09375 5.0907L5.43125 4.84695H5.00938ZM6.77187 4.84695L6.64375 4.45007L6.51562 4.84695H6.1L6.4375 5.0907L6.30937 5.48757L6.64687 5.24382L6.98438 5.48757L6.85625 5.0907L7.19375 4.84695H6.77187ZM6.64062 3.01882L6.5125 3.4157H6.09688L6.43437 3.65945L6.30625 4.05632L6.64375 3.81257L6.98125 4.05632L6.85313 3.65945L7.19063 3.4157H6.775L6.64062 3.01882ZM4.88125 1.5907L4.75313 1.98757H4.3375L4.675 2.23132L4.54688 2.6282L4.88438 2.38445L5.22188 2.6282L5.09375 2.23132L5.43125 1.98757H5.01562L4.88125 1.5907ZM6.64062 1.5907L6.5125 1.98757H6.09688L6.43437 2.23132L6.30625 2.6282L6.64375 2.38445L6.98125 2.6282L6.85313 2.23132L7.19063 1.98757H6.775L6.64062 1.5907Z" fill="#F0F0F0"/>
</g>
<defs>
<clipPath id="clip0_461_187">
<rect width="16" height="10.6875" fill="white" transform="translate(0 0.65625)"/>
</clipPath>
</defs>
</svg>
