<svg width="15" height="15" viewBox="0 0 15 15" fill="none" xmlns="http://www.w3.org/2000/svg">
<path d="M2.72267 9.91616H5.00033V12.1713C5.00033 13.4829 6.0738 14.548 7.40056 14.548C8.72733 14.548 9.80079 13.4829 9.80079 12.1713V9.91616H12.0786C13.4053 9.91616 14.4787 8.85134 14.4787 7.53973C14.4787 6.22607 13.4053 5.1611 12.0786 5.1611H9.80079V2.90793C9.80079 1.59427 8.72733 0.529297 7.40056 0.529297C6.0738 0.529297 5.00033 1.59427 5.00033 2.90793V5.1611H2.72267C1.39591 5.1611 0.320312 6.22607 0.320312 7.53973C0.320312 8.85134 1.39591 9.91616 2.72267 9.91616Z" fill="#E6F7FF" fill-opacity="0.39"/>
</svg>
