<svg width="39" height="74" viewBox="0 0 39 74" fill="none" xmlns="http://www.w3.org/2000/svg">
<path d="M28.0506 0.719727C24.4752 0.719727 21.3109 2.47736 19.3757 5.1602C17.4406 2.47736 14.2784 0.719727 10.7009 0.719727C4.82078 0.719727 0.0390625 5.45639 0.0390625 11.2784C0.0390625 12.366 0.929817 13.2479 2.02819 13.2479H17.3867V71.8426C17.3867 72.9301 18.2795 73.814 19.3757 73.814C20.4741 73.814 21.367 72.9301 21.367 71.8426V13.2479H36.7254C37.8217 13.2479 38.7146 12.366 38.7146 11.2784C38.7146 5.45639 33.9307 0.719727 28.0506 0.719727ZM4.31832 9.30896C5.16961 6.6179 7.70893 4.65869 10.7009 4.65869C13.6949 4.65869 16.2364 6.6179 17.0856 9.30896H4.31832ZM21.668 9.30896C22.5172 6.6179 25.0565 4.65869 28.0506 4.65869C31.0446 4.65869 33.584 6.6179 34.4332 9.30896H21.668Z" fill="#E6F7FF" fill-opacity="0.39"/>
</svg>
