<svg width="23" height="16" viewBox="0 0 23 16" fill="none" xmlns="http://www.w3.org/2000/svg">
<path d="M21.5017 11.7139C21.4331 11.3973 21.3708 10.8998 21.3251 10.5401C21.1341 8.98588 20.9161 7.22408 19.4856 6.30719C18.9436 5.95976 18.0425 5.6329 16.803 6.01528C16.3794 6.14686 16.1448 6.10776 16.1489 6.13654C16.1302 6.09337 16.1095 5.83832 16.3441 5.43126C17.2078 3.94491 16.8112 2.8267 16.4977 2.29013C15.5385 0.645481 13.3438 0.509766 11.1803 0.509766C9.01679 0.509766 6.8221 0.645481 5.86285 2.29013C5.54932 2.8267 5.15274 3.94496 6.01441 5.42926C6.24696 5.82808 6.23247 6.07903 6.26153 6.08314C6.2117 6.10781 5.9812 6.14686 5.55764 6.01528C4.31808 5.6329 3.41697 5.96182 2.87505 6.30719C1.44447 7.22408 1.22644 8.98588 1.03542 10.5401C0.98974 10.8998 0.927481 11.3973 0.858962 11.7139C0.242297 12.1518 -0.0899209 12.9248 0.0720315 13.7081C0.265129 14.6415 1.09355 15.2829 2.01959 15.2829C2.1504 15.2829 2.28539 15.2685 2.42035 15.2417C4.51536 14.8162 4.78525 12.6206 4.98457 11.0191C5.01987 10.7189 5.07177 10.3077 5.13406 9.96228C6.83456 10.2686 8.36687 9.77115 9.33028 8.58083C10.2293 7.47069 10.437 5.98034 9.92621 4.48166C10.2397 4.4611 10.6488 4.44873 11.1803 4.44873C11.7077 4.44873 12.1147 4.4611 12.4282 4.48166C11.9216 5.95978 12.125 7.46247 13.0303 8.58083C13.9958 9.77115 15.5239 10.2624 17.2265 9.96228C17.2888 10.3077 17.3407 10.7189 17.376 11.0191C17.5753 12.6206 17.8453 14.8162 19.9403 15.2417C20.0752 15.2685 20.2102 15.2829 20.341 15.2829C21.267 15.2829 22.0955 14.6415 22.2886 13.7081C22.4505 12.9248 22.1183 12.1518 21.5017 11.7139Z" fill="#E6F7FF" fill-opacity="0.39"/>
</svg>
