<svg width="12" height="11" viewBox="0 0 12 11" fill="none" xmlns="http://www.w3.org/2000/svg">
<path d="M3.21273 7.60851H3.69237V8.08552C3.69237 9.39918 4.76791 10.462 6.0926 10.462C7.41937 10.462 8.49486 9.39918 8.49486 8.08552V7.60851H8.97653C10.3033 7.60851 11.3789 6.54564 11.3789 5.23198C11.3789 3.91832 10.3033 2.85545 8.97653 2.85545H8.49486V2.37653C8.49486 1.06492 7.41937 0 6.0926 0C4.76791 0 3.69237 1.06492 3.69237 2.37653V2.85545H3.21273C1.88804 2.85545 0.8125 3.91832 0.8125 5.23198C0.8125 6.54564 1.88804 7.60851 3.21273 7.60851Z" fill="#E6F7FF" fill-opacity="0.39"/>
</svg>
