<svg width="40" height="56" viewBox="0 0 40 56" fill="none" xmlns="http://www.w3.org/2000/svg">
<path d="M28.3611 0.975586C24.7899 0.975586 21.6338 2.73122 19.7028 5.41405C17.7511 2.73122 14.5952 0.975586 11.0239 0.975586C5.14793 0.975586 0.351562 5.71225 0.351562 11.5343C0.351562 12.6218 1.2445 13.5038 2.34495 13.5038H17.7097V53.7421C17.7097 54.8296 18.6024 55.7136 19.7028 55.7136C20.7825 55.7136 21.6753 54.8296 21.6753 53.7421V13.5038H37.0401C38.1405 13.5038 39.0334 12.6218 39.0334 11.5343C39.0334 5.71225 34.2578 0.975586 28.3611 0.975586ZM4.62889 9.56281C5.48018 6.87381 8.034 4.91455 11.0239 4.91455C14.0138 4.91455 16.5469 6.87381 17.3982 9.56281H4.62889ZM21.9868 9.56281C22.8381 6.87381 25.3712 4.91455 28.3611 4.91455C31.351 4.91455 33.9048 6.87381 34.7561 9.56281H21.9868Z" fill="#E6F7FF" fill-opacity="0.39"/>
</svg>
