<svg width="406" height="237" viewBox="0 0 406 237" fill="none" xmlns="http://www.w3.org/2000/svg">
<path d="M403.353 184.355H392.453V154.919H396.624C397.421 154.919 398.142 154.449 398.455 153.721C398.767 152.995 398.611 152.154 398.059 151.585L393.306 146.682C393.223 77.0784 382.241 70.3826 380.032 69.7515C379.854 69.698 379.667 69.6734 379.48 69.6734H374.341C374.264 69.6734 374.194 69.6877 374.119 69.6939C374.046 69.6877 373.973 69.6734 373.899 69.6734H368.758C368.573 69.6734 368.386 69.698 368.205 69.7515C366.148 70.3395 356.491 76.1841 355.098 133.151C350.75 126.157 344.222 123.836 344.122 123.803C343.917 123.733 343.699 123.696 343.479 123.696H334.042C333.894 123.696 333.755 123.735 333.612 123.766C329.789 113.446 320.936 110.325 320.537 110.189C320.328 110.117 320.11 110.082 319.89 110.082H310.453C310.233 110.082 310.017 110.117 309.809 110.189C309.703 110.224 307.49 110.993 304.82 112.971C304.033 112.572 303.487 112.371 303.391 112.34C303.182 112.27 302.966 112.233 302.746 112.233H295.591C295.37 112.233 295.154 112.27 294.945 112.34C294.613 112.453 288.965 114.482 285.701 120.744C284.021 116.209 281.345 113.037 278.847 110.896V92.4805C278.847 22.1224 267.789 15.3875 265.571 14.7543C265.391 14.7009 265.204 14.6762 265.017 14.6762H259.878C259.801 14.6762 259.731 14.6886 259.658 14.6968C259.583 14.6886 259.512 14.6762 259.436 14.6762H254.297C254.11 14.6762 253.923 14.7009 253.742 14.7543C251.525 15.3875 240.469 22.1224 240.469 92.4805V96.514C234.75 88.963 227.734 84.1998 222.054 81.297C221.933 10.8752 210.58 1.82744 209.28 1.02567C208.965 0.83037 208.599 0.727539 208.228 0.727539H197.503C197.132 0.727539 196.768 0.83037 196.453 1.02567C195.153 1.82744 183.8 10.8752 183.677 81.297C177.999 84.1998 170.983 88.963 165.264 96.514V92.4805C165.264 22.1224 154.206 15.3875 151.989 14.7543C151.81 14.7009 151.623 14.6762 151.436 14.6762H146.297C146.221 14.6762 146.15 14.6886 146.075 14.6968C146.003 14.6886 145.93 14.6762 145.853 14.6762H140.714C140.527 14.6762 140.34 14.7009 140.162 14.7543C137.944 15.3875 126.886 22.1224 126.886 92.4805V110.835C126.477 111.184 126.064 111.556 125.648 111.961C123.68 113.896 121.496 116.755 120.03 120.74C116.766 114.48 111.12 112.453 110.786 112.34C110.579 112.27 110.361 112.233 110.14 112.233H102.988C102.767 112.233 102.549 112.27 102.342 112.34C102.246 112.371 101.7 112.572 100.911 112.971C98.2411 110.993 96.0298 110.224 95.9239 110.189C95.7163 110.117 95.4982 110.082 95.2782 110.082H85.8413C85.6233 110.082 85.4032 110.117 85.1956 110.189C84.7969 110.325 75.9435 113.446 72.119 123.766C71.9778 123.735 71.8366 123.696 71.6912 123.696H62.2544C62.0343 123.696 61.8163 123.733 61.6087 123.803C61.4529 123.854 57.7758 125.131 54.1339 128.706C52.9774 129.839 51.7483 131.296 50.6333 133.107C49.238 76.182 39.5831 70.3395 37.5276 69.7515C37.3469 69.698 37.1601 69.6734 36.9732 69.6734H31.8343C31.7596 69.6734 31.6869 69.6877 31.6122 69.6939C31.5395 69.6877 31.4668 69.6734 31.3921 69.6734H26.2532C26.0643 69.6734 25.8795 69.698 25.6988 69.7515C23.4917 70.3826 12.5101 77.0784 12.425 146.682L7.67227 151.585C7.11997 152.154 6.96424 152.995 7.27777 153.721C7.59129 154.449 8.31178 154.919 9.10701 154.919H13.2804V184.355H2.37975C1.28138 184.355 0.390625 185.239 0.390625 186.326V234.147C0.390625 235.234 1.28138 236.116 2.37975 236.116H403.353C404.452 236.116 405.342 235.234 405.342 234.147V186.326C405.342 185.239 404.452 184.355 403.353 184.355ZM259.784 194.86H401.364V201.208H259.784V194.86ZM401.364 190.921H259.784V188.296H401.364V190.921ZM388.474 184.355H359.254V154.919H388.474V184.355ZM369.312 73.6122H373.899C373.973 73.6122 374.046 73.5979 374.119 73.5917C374.194 73.5979 374.264 73.6122 374.341 73.6122H379.033C380.119 74.5147 389.135 84.1525 389.326 145.508H385.051C384.959 107.266 382.223 87.8673 376.907 87.8673H374.235C374.194 87.8673 374.158 87.8775 374.119 87.8796C374.081 87.8775 374.044 87.8673 374.005 87.8673H371.33C366.015 87.8673 363.278 107.266 363.189 145.508H358.912C359.101 84.9069 367.863 74.8559 369.312 73.6122ZM374.119 119.843C374.524 123.727 374.958 131.208 374.993 145.508H373.245C373.282 131.208 373.716 123.727 374.119 119.843ZM378.971 145.508C378.898 112.72 377.011 112.697 375.012 112.697H374.156C374.144 112.697 374.131 112.701 374.119 112.701C374.106 112.701 374.094 112.697 374.081 112.697H373.226C371.229 112.697 369.339 112.72 369.268 145.508H367.167C367.277 101.847 370.979 93.3295 372.02 91.8061H374.005C374.044 91.8061 374.081 91.7979 374.119 91.7959C374.158 91.7979 374.194 91.8061 374.235 91.8061H376.218C377.258 93.3295 380.96 101.847 381.07 145.508H378.971ZM338.759 127.635H343.111C344.897 128.356 353.983 132.668 354.844 145.508H322.674C323.411 134.534 330.138 129.795 333.197 128.202C333.267 128.171 333.334 128.136 333.398 128.097C333.832 127.879 334.181 127.727 334.407 127.635H338.759ZM295.964 116.172H302.368C303.753 116.76 310.023 119.903 310.849 128.766H287.485C288.305 119.87 294.552 116.764 295.964 116.172ZM283.328 128.766H251.157C252.021 115.913 261.124 111.604 262.891 110.892H271.597C272.215 111.143 273.719 111.836 275.448 113.152C275.55 113.252 275.666 113.339 275.787 113.417C278.984 115.962 282.784 120.664 283.328 128.766ZM202.867 128.766H186.25C187.114 115.913 196.216 111.604 197.981 110.892H207.748C209.534 111.614 218.62 115.925 219.481 128.766H202.867ZM170.41 116.172H173.611C174.996 116.76 181.267 119.903 182.093 128.766H158.73C159.55 119.872 165.796 116.764 167.21 116.172H170.41ZM235.321 116.172H238.519C239.904 116.76 246.174 119.903 247.001 128.766H223.638C224.458 119.87 230.704 116.764 232.118 116.172H235.321ZM254.851 18.6152H259.436C259.512 18.6152 259.583 18.6008 259.658 18.5926C259.731 18.6008 259.801 18.6152 259.878 18.6152H264.57C265.656 19.5198 274.674 29.1553 274.863 90.511H270.588C270.498 52.2688 267.762 32.8702 262.446 32.8702H259.772C259.733 32.8702 259.695 32.8783 259.658 32.8804C259.618 32.8783 259.581 32.8702 259.542 32.8702H256.869C251.554 32.8702 248.815 52.2688 248.726 90.511H244.451C244.638 29.9098 253.402 19.8569 254.851 18.6152ZM259.658 64.8443C260.061 68.7297 260.495 76.2087 260.532 90.511H258.784C258.819 76.2087 259.253 68.7297 259.658 64.8443ZM264.508 90.511C264.435 57.7228 262.548 57.7003 260.549 57.7003H259.695C259.681 57.7003 259.67 57.7023 259.658 57.7023C259.643 57.7023 259.633 57.7003 259.618 57.7003H258.765C256.766 57.7003 254.878 57.7228 254.805 90.511H252.706C252.816 46.8497 256.518 38.3325 257.557 36.8091H259.542C259.581 36.8091 259.618 36.8008 259.658 36.7967C259.695 36.8008 259.733 36.8091 259.772 36.8091H261.757C262.797 38.3325 266.497 46.8497 266.607 90.511H264.508ZM244.447 94.4499H274.867V108.125C273.538 107.391 272.643 107.073 272.608 107.06C272.4 106.988 272.182 106.953 271.962 106.953H262.525C262.305 106.953 262.087 106.988 261.882 107.06C261.726 107.112 258.047 108.388 254.403 111.961C252.889 113.448 251.247 115.483 249.901 118.153C248.759 112.216 246.841 107.103 244.447 102.708V94.4499ZM198.276 4.66861H207.432C208.269 5.63896 210.478 8.8624 212.654 17.5461C215.057 27.1468 217.911 45.6224 218.069 79.4405C216.549 78.8032 215.237 78.3365 214.197 77.9952C214.151 55.6917 212.972 19.9124 205.931 18.942C205.84 18.9297 205.748 18.9236 205.655 18.9236H202.983C202.943 18.9236 202.906 18.9318 202.867 18.9338C202.827 18.9318 202.79 18.9236 202.75 18.9236H200.076C199.985 18.9236 199.893 18.9297 199.802 18.942C192.759 19.9124 191.582 55.6917 191.534 77.9952C190.496 78.3344 189.188 78.8033 187.668 79.4385C187.952 19.7336 196.602 6.64425 198.276 4.66861ZM202.867 77.2243H201.99C202.028 62.9179 202.455 55.2745 202.867 51.2225C203.278 55.2745 203.705 62.9179 203.741 77.2243H202.867ZM207.719 77.2243C207.642 44.9645 205.694 44.2903 204.397 43.8565C204.191 43.7866 203.975 43.7515 203.759 43.7515H202.906C202.891 43.7515 202.879 43.7557 202.867 43.7557C202.854 43.7557 202.84 43.7515 202.827 43.7515H201.972C201.756 43.7515 201.542 43.7866 201.336 43.8565C200.036 44.2903 198.089 44.9645 198.014 77.2243H195.516C195.653 33.1683 199.781 24.3633 200.807 22.8625H202.75C202.79 22.8625 202.827 22.8523 202.867 22.8502C202.906 22.8523 202.943 22.8625 202.983 22.8625H205.395C205.676 23.3128 210.073 32.2205 210.215 77.2243H207.719ZM186.073 84.362C186.376 84.2983 186.648 84.1607 186.885 83.9798C190.022 82.5304 192.564 81.7328 193.903 81.3668C193.938 81.3607 193.972 81.3484 194.005 81.3401C194.296 81.262 194.538 81.2003 194.694 81.1633H211.031C213.487 81.7759 238.567 88.704 245.379 116.135C242.588 113.423 239.775 112.42 239.542 112.34C239.335 112.27 239.117 112.233 238.897 112.233H231.744C231.524 112.233 231.308 112.27 231.098 112.34C230.766 112.453 225.116 114.482 221.854 120.744C217.999 110.337 208.877 107.099 208.761 107.06C208.554 106.988 208.336 106.953 208.115 106.953H197.618C197.397 106.953 197.18 106.988 196.972 107.06C196.816 107.112 193.139 108.388 189.495 111.961C187.527 113.896 185.34 116.755 183.877 120.74C180.613 114.48 174.967 112.453 174.633 112.34C174.425 112.27 174.207 112.233 173.987 112.233H166.836C166.616 112.233 166.398 112.27 166.191 112.34C165.956 112.42 163.107 113.431 160.298 116.184C161.386 111.69 162.945 107.743 164.82 104.293C164.97 104.108 165.086 103.896 165.161 103.666C171.001 93.309 179.608 87.4848 186.073 84.362ZM141.269 18.6152H145.853C145.93 18.6152 146.003 18.6008 146.075 18.5926C146.15 18.6008 146.221 18.6152 146.297 18.6152H150.988C152.074 19.5198 161.091 29.1553 161.282 90.511H157.005C156.916 52.2688 154.177 32.8702 148.864 32.8702H146.191C146.152 32.8702 146.115 32.8783 146.075 32.8804C146.036 32.8783 146 32.8702 145.961 32.8702H143.287C137.973 32.8702 135.235 52.2688 135.145 90.511H130.868C131.055 29.9098 139.819 19.8569 141.269 18.6152ZM146.075 64.8443C146.48 68.7297 146.914 76.2087 146.949 90.511H145.201C145.236 76.2087 145.67 68.7297 146.075 64.8443ZM150.928 90.511C150.855 57.7228 148.965 57.7003 146.968 57.7003H146.113C146.1 57.7003 146.088 57.7023 146.075 57.7023C146.063 57.7023 146.05 57.7003 146.038 57.7003H145.182C143.185 57.7003 141.296 57.7228 141.223 90.511H139.124C139.234 46.8497 142.936 38.3325 143.976 36.8091H145.961C146 36.8091 146.036 36.8008 146.075 36.7967C146.115 36.8008 146.152 36.8091 146.191 36.8091H148.174C149.215 38.3325 152.917 46.8497 153.027 90.511H150.928ZM130.864 94.4499H161.286V102.708C158.888 107.108 156.97 112.224 155.828 118.17C151.567 109.79 143.957 107.095 143.851 107.06C143.644 106.988 143.426 106.953 143.206 106.953H133.769C133.551 106.953 133.333 106.988 133.125 107.06C133.05 107.085 132.164 107.395 130.864 108.098V94.4499ZM129.942 113.419C130.065 113.341 130.183 113.252 130.287 113.15C132.019 111.832 133.522 111.141 134.136 110.892H142.836C144.551 111.598 153.701 115.982 154.574 128.766H122.403C122.947 120.668 126.745 115.964 129.942 113.419ZM103.361 116.172H109.765C111.147 116.76 117.42 119.903 118.244 128.766H94.8837C95.5149 121.895 99.3768 118.486 101.758 117.014C101.823 116.975 101.887 116.943 101.947 116.897C102.564 116.529 103.068 116.295 103.361 116.172ZM86.2088 114.021H94.9044C95.3405 114.202 96.254 114.619 97.3794 115.335C94.2545 118.003 90.812 122.75 90.812 130.735C90.812 131.823 91.7028 132.704 92.8011 132.704C92.8364 132.704 92.8696 132.696 92.9029 132.694C92.9382 132.696 92.9714 132.704 93.0067 132.704H312.726C312.76 132.704 312.795 132.696 312.828 132.694C312.863 132.696 312.897 132.704 312.932 132.704C314.03 132.704 314.921 131.823 314.921 130.735C314.921 122.748 311.478 118.003 308.354 115.335C309.481 114.617 310.395 114.2 310.829 114.021H319.522C320.959 114.603 327.225 117.553 330.005 125.499C328.78 126.258 327.35 127.302 325.919 128.706C322.585 131.979 318.609 137.889 318.609 147.478C318.609 148.565 319.501 149.447 320.6 149.447C320.612 149.447 320.627 149.443 320.641 149.443C320.656 149.443 320.668 149.447 320.683 149.447H390.472L391.956 150.981H320.683C319.584 150.981 318.694 151.862 318.694 152.95C318.694 154.038 319.584 154.919 320.683 154.919H355.276V184.355H313.499V152.566C313.499 151.478 312.608 150.596 311.51 150.596C310.411 150.596 309.521 151.478 309.521 152.566V184.355H281.337V152.566C281.337 151.478 280.446 150.596 279.348 150.596C278.249 150.596 277.358 151.478 277.358 152.566V184.355H257.795C256.697 184.355 255.806 185.239 255.806 186.326V201.208H247.518V152.566C247.518 151.478 246.627 150.596 245.529 150.596C244.43 150.596 243.539 151.478 243.539 152.566V201.208H220.661V152.566C220.661 151.478 219.77 150.596 218.671 150.596C217.573 150.596 216.682 151.478 216.682 152.566V189.609H189.051V152.566C189.051 151.478 188.16 150.596 187.062 150.596C185.963 150.596 185.073 151.478 185.073 152.566V201.208H162.194V152.566C162.194 151.478 161.303 150.596 160.204 150.596C159.106 150.596 158.215 151.478 158.215 152.566V201.208H149.927V186.326C149.927 185.239 149.036 184.355 147.936 184.355H128.375V152.566C128.375 151.478 127.484 150.596 126.385 150.596C125.285 150.596 124.396 151.478 124.396 152.566V184.355H96.2125V152.566C96.2125 151.478 95.3218 150.596 94.2234 150.596C93.125 150.596 92.2343 151.478 92.2343 152.566V184.355H50.4568V154.919H85.0502C86.1486 154.919 87.0394 154.038 87.0394 152.95C87.0394 151.862 86.1486 150.981 85.0502 150.981H13.7746L15.2612 149.447H85.0502C85.0627 149.447 85.0772 149.443 85.0918 149.443C85.1063 149.443 85.1188 149.447 85.1333 149.447C86.2317 149.447 87.1224 148.565 87.1224 147.478C87.1224 134.684 80.0796 128.276 75.7172 125.53C78.4953 117.553 84.7866 114.597 86.2088 114.021ZM202.867 201.208H189.051V199.348H216.682V201.208H202.867ZM202.867 193.548H216.682V195.409H189.051V193.548H202.867ZM4.36885 194.86H145.946V201.208H4.36885V194.86ZM31.498 91.8061C31.5374 91.8061 31.5748 91.7979 31.6122 91.7959C31.6516 91.7979 31.689 91.8061 31.7284 91.8061H33.7113C34.7516 93.3295 38.4536 101.847 38.5637 145.508H36.4645C36.3918 112.72 34.5045 112.697 32.505 112.697H31.6495C31.6371 112.697 31.6267 112.701 31.6122 112.701C31.5997 112.701 31.5893 112.697 31.5748 112.697H30.7214C28.7219 112.697 26.8346 112.72 26.7598 145.508H24.6627C24.7728 101.847 28.4728 93.3295 29.5151 91.8061H31.498ZM31.6122 119.843C32.017 123.727 32.451 131.208 32.4863 145.508H30.738C30.7754 131.208 31.2073 123.727 31.6122 119.843ZM62.6198 127.635H71.3196C73.0346 128.34 82.1849 132.725 83.057 145.508H50.8887C51.7524 132.655 60.8529 128.348 62.6198 127.635ZM26.8055 73.6122H31.3921C31.4668 73.6122 31.5395 73.5979 31.6122 73.5917C31.6869 73.5979 31.7596 73.6122 31.8343 73.6122H36.5268C37.6127 74.5147 46.6301 84.1525 46.8191 145.508H42.5439C42.4526 107.266 39.716 87.8673 34.4007 87.8673H31.7284C31.689 87.8673 31.6516 87.8775 31.6122 87.8796C31.5748 87.8775 31.5374 87.8673 31.498 87.8673H28.8237C23.5104 87.8673 20.7738 107.266 20.6825 145.508H16.4073C16.5942 84.9069 25.3583 74.8559 26.8055 73.6122ZM17.2586 154.919H46.4786V184.355H17.2586V154.919ZM145.946 188.296V190.921H4.36885V188.296H145.946ZM4.36885 205.147H145.946V232.177H4.36885V205.147ZM149.927 205.147H255.806V232.177H149.927V205.147ZM401.364 232.177H259.784V205.147H401.364V232.177Z" fill="#E6F7FF" fill-opacity="0.39"/>
</svg>
