<svg width="138" height="480" viewBox="0 0 138 480" fill="none" xmlns="http://www.w3.org/2000/svg">
<path d="M135.012 402.274H124.304V10.2416C124.304 8.92797 123.229 7.86511 121.904 7.86511H85.6266C81.5197 3.4225 75.6354 0.614258 69.0888 0.614258C62.5401 0.614258 56.66 3.4225 52.553 7.86511H16.2736C14.9489 7.86511 13.8734 8.92797 13.8734 10.2416V402.274H3.16788C1.84112 402.274 0.765625 403.34 0.765625 404.651V477.314C0.765625 478.627 1.84112 479.692 3.16788 479.692H8.08047C8.08463 479.692 8.08671 479.692 8.08879 479.692C8.09502 479.692 8.09919 479.692 8.10541 479.692H135.012C136.336 479.692 137.412 478.627 137.412 477.314V404.651C137.412 403.34 136.336 402.274 135.012 402.274ZM119.502 12.6182V26.1742H91.5338V22.8376C91.5338 19.1515 90.6078 15.6813 88.9986 12.6182H119.502ZM91.5338 101.24V95.5619H119.502V101.24H91.5338ZM119.502 105.995V402.274H91.5338V105.995H119.502ZM91.5338 90.8068V30.9272H119.502V90.8068H91.5338ZM51.4463 93.1834V22.8376C51.4463 13.2061 59.3613 5.36943 69.0888 5.36943C78.8164 5.36943 86.7312 13.2061 86.7312 22.8376V402.274H51.4463V93.1834ZM18.6759 12.6182H49.179C47.5699 15.6813 46.6438 19.1515 46.6438 22.8376V26.1742H18.6759V12.6182ZM18.6759 30.9272H46.6438V90.8068H18.6759V30.9272ZM18.6759 95.5619H46.6438V101.24H18.6759V95.5619ZM18.6759 105.995H46.6438V402.274H18.6759V105.995ZM5.56811 407.03H11.8075L5.56811 413.834V407.03ZM5.56811 420.908L18.2918 407.03H30.9635L5.56811 434.734V420.908ZM5.56811 441.808L37.4478 407.03H50.1217L5.56811 455.631V441.808ZM7.02782 474.937H5.56811V462.707L56.606 407.03H69.2778L7.02782 474.937ZM13.5121 474.937L75.7621 407.03H88.4359L26.1838 474.937H13.5121ZM32.6703 474.937L94.9203 407.03H107.592L45.342 474.937H32.6703ZM51.8263 474.937L114.076 407.03H126.75L64.4981 474.937H51.8263ZM132.609 474.937H128.455L132.609 470.402V474.937ZM132.609 463.332L121.97 474.937H109.295L132.609 449.503V463.332ZM132.609 442.433L102.812 474.937H90.1406L132.609 428.603V442.433ZM132.609 421.533L83.6563 474.937H70.9824L132.609 407.708V421.533Z" fill="#E6F7FF" fill-opacity="0.39"/>
</svg>
