<svg width="23" height="16" viewBox="0 0 23 16" fill="none" xmlns="http://www.w3.org/2000/svg">
<path d="M22.1813 11.7139C22.1107 11.3973 22.0505 10.8998 22.0069 10.5401C21.8138 8.98588 21.5979 7.22408 20.1653 6.30719C19.6254 5.95976 18.7202 5.6329 17.4847 6.01528C17.0591 6.14686 16.8265 6.10776 16.8286 6.13654C16.8099 6.09337 16.7891 5.83832 17.0258 5.43126C17.8875 3.94491 17.491 2.8267 17.1775 2.29013C16.2161 0.645481 14.0235 0.509766 11.86 0.509766C9.69648 0.509766 7.50387 0.645481 6.54254 2.29013C6.22901 2.8267 5.83451 3.94496 6.6941 5.42926C6.93911 5.84864 6.92046 6.12631 6.9433 6.08314C6.89555 6.10781 6.66712 6.14686 6.23732 6.01528C4.99984 5.6329 4.09666 5.96182 3.55474 6.30719C2.12209 7.22408 1.90613 8.98588 1.71303 10.5401C1.66943 10.8998 1.60924 11.3973 1.53865 11.7139C0.921985 12.1518 0.589767 12.9248 0.751719 13.7081C0.944816 14.6415 1.77324 15.2829 2.6972 15.2829C2.83216 15.2829 2.96716 15.2685 3.10004 15.2417C5.19504 14.8162 5.46493 12.6206 5.66426 11.0191C5.69956 10.7189 5.75146 10.3077 5.81375 9.96228C7.51632 10.2686 9.04661 9.77115 10.01 8.58083C10.9091 7.47069 11.1167 5.98034 10.6059 4.48166C10.9194 4.4611 11.3285 4.44873 11.86 4.44873C12.3895 4.44873 12.7943 4.4611 13.1079 4.48166C12.6012 5.95978 12.8047 7.46247 13.71 8.58083C14.6755 9.77115 16.2057 10.2624 17.9083 9.96228C17.9685 10.3077 18.0204 10.7189 18.0557 11.0191C18.2551 12.6206 18.525 14.8162 20.62 15.2417C20.7549 15.2685 20.8878 15.2829 21.0227 15.2829C21.9467 15.2829 22.7752 14.6415 22.9683 13.7081C23.1302 12.9248 22.798 12.1518 22.1813 11.7139Z" fill="#E6F7FF" fill-opacity="0.39"/>
</svg>
