<svg width="40" height="70" viewBox="0 0 40 70" fill="none" xmlns="http://www.w3.org/2000/svg">
<path d="M39.1595 11.2157C39.1595 5.39369 34.3765 0.657227 28.4963 0.657227C24.9205 0.657227 21.7577 2.41486 19.8225 5.0977C17.8864 2.41486 14.7235 0.657227 11.1475 0.657227C5.26737 0.657227 0.484375 5.39369 0.484375 11.2157C0.484375 12.3033 1.37532 13.1874 2.47369 13.1874H17.8332V67.8411C17.8332 68.9286 18.7244 69.8106 19.8225 69.8106C20.9209 69.8106 21.8119 68.9286 21.8119 67.8411V13.1874H37.1701C38.2685 13.1874 39.1595 12.3033 39.1595 11.2157ZM4.7649 9.24646C5.61453 6.55746 8.15449 4.59619 11.1475 4.59619C14.1405 4.59619 16.6819 6.55746 17.5315 9.24646H4.7649ZM22.1137 9.24646C22.9634 6.55746 25.5031 4.59619 28.4963 4.59619C31.4895 4.59619 34.0293 6.55746 34.8791 9.24646H22.1137Z" fill="#E6F7FF" fill-opacity="0.39"/>
</svg>
