<svg width="84" height="359" viewBox="0 0 84 359" fill="none" xmlns="http://www.w3.org/2000/svg">
<path d="M81.0374 58.2502C82.3642 58.2502 83.4397 57.1853 83.4397 55.8717C83.4397 54.5601 82.3642 53.4951 81.0374 53.4951H77.6509C79.6567 48.8716 80.7696 43.7834 80.7696 38.4383C80.7696 17.321 63.4199 0.140625 42.0899 0.140625C20.762 0.140625 3.41027 17.321 3.41027 38.4383C3.41027 43.7834 4.52521 48.8716 6.53092 53.4951H3.14445C1.81768 53.4951 0.742188 54.5601 0.742188 55.8717C0.742188 57.1853 1.81768 58.2502 3.14445 58.2502H8.99969C12.1598 63.4062 16.5201 67.7624 21.686 70.9551V356.312C21.686 357.626 22.7615 358.691 24.0882 358.691H60.0957C61.4224 358.691 62.4959 357.626 62.4959 356.312V70.9531C67.6618 67.7625 72.022 63.4062 75.1822 58.2502H81.0374ZM57.6954 353.935H26.4885V347.386H57.6954V353.935ZM57.6954 342.633H26.4885V334.674H57.6954V342.633ZM57.6954 329.919H26.4885V321.961H57.6954V329.919ZM57.6954 317.206H26.4885V73.4714C31.264 75.5622 36.5399 76.736 42.0899 76.736C47.642 76.736 52.9178 75.5622 57.6954 73.4694V317.206ZM42.0899 71.981C30.8986 71.981 20.9862 66.5577 14.8154 58.2502H69.3665C63.1936 66.5577 53.2833 71.981 42.0899 71.981ZM11.8608 53.4951C9.54779 48.96 8.21276 43.8575 8.21276 38.4383C8.21276 19.9443 23.4114 4.89579 42.0899 4.89579C60.7705 4.89579 75.9691 19.9443 75.9691 38.4383C75.9691 43.8575 74.6341 48.96 72.3211 53.4951H11.8608Z" fill="#E6F7FF" fill-opacity="0.39"/>
</svg>
