<svg width="63" height="37" viewBox="0 0 63 37" fill="none" xmlns="http://www.w3.org/2000/svg">
<path d="M2.58287 12.8092H11.2598C9.06306 15.3111 7.72383 18.5553 7.72383 22.1098C7.72383 24.4554 8.31143 26.6654 9.33713 28.6205H2.58287C1.4845 28.6205 0.59375 29.5025 0.59375 30.59C0.59375 31.6775 1.4845 32.5595 2.58287 32.5595H9.90188C10.5788 32.5595 11.1726 32.2243 11.5339 31.7144C14.1957 34.5802 18.014 36.3914 22.2643 36.3914H49.7484C56.9761 36.3914 62.8562 30.6167 62.8562 23.5159C62.8562 16.4172 56.9761 10.6404 49.7484 10.6404C48.4113 10.6404 47.0845 10.8459 45.8159 11.2407C44.6116 5.35487 39.3066 0.908203 32.9656 0.908203C28.0011 0.908203 23.5744 3.59511 21.3341 7.8568C19.7561 7.95548 18.2528 8.31529 16.8513 8.87035H2.58287C1.4845 8.87035 0.59375 9.75231 0.59375 10.8398C0.59375 11.9274 1.4845 12.8092 2.58287 12.8092ZM22.3182 11.7731H22.3266L22.5612 11.7854C23.3917 11.7937 24.1579 11.3085 24.4652 10.5396C25.8459 7.08172 29.1825 4.84707 32.9656 4.84707C37.9986 4.84707 42.093 8.85598 42.0868 13.8763L42.0743 14.0777C42.0453 14.7993 42.417 15.4797 43.0419 15.8498C43.669 16.2198 44.4497 16.2219 45.0767 15.8539C46.4969 15.0213 48.1123 14.5814 49.7484 14.5814C54.7814 14.5814 58.878 18.5902 58.878 23.5159C58.878 28.4437 54.7814 32.4526 49.7484 32.4526H22.2643C16.4402 32.4526 11.702 27.8126 11.702 22.1098C11.702 16.4069 16.436 11.7731 22.3182 11.7731Z" fill="#E6F7FF" fill-opacity="0.39"/>
</svg>
