<svg width="39" height="70" viewBox="0 0 39 70" fill="none" xmlns="http://www.w3.org/2000/svg">
<path d="M38.8251 11.0888C38.8251 5.26673 34.0496 0.530273 28.1736 0.530273C24.5816 0.530273 21.4256 2.28791 19.4947 4.97075C17.5637 2.28791 14.3868 0.530273 10.8155 0.530273C4.93954 0.530273 0.164062 5.26673 0.164062 11.0888C0.164062 12.1763 1.03611 13.0583 2.13656 13.0583H17.5013V67.7429C17.5013 68.8304 18.3942 69.7123 19.4947 69.7123C20.5951 69.7123 21.4878 68.8304 21.4878 67.7429V13.0583H36.8319C37.9323 13.0583 38.8251 12.1763 38.8251 11.0888ZM4.44139 9.11931C5.29268 6.42825 7.82562 4.47125 10.8155 4.47125C13.8054 4.47125 16.3594 6.42825 17.2107 9.11931H4.44139ZM21.7786 9.11931C22.6299 6.42825 25.163 4.47125 28.1736 4.47125C31.1635 4.47125 33.6966 6.42825 34.5479 9.11931H21.7786Z" fill="#E6F7FF" fill-opacity="0.39"/>
</svg>
