<svg width="13" height="12" viewBox="0 0 13 12" fill="none" xmlns="http://www.w3.org/2000/svg">
<path d="M2.32712 8.04283H4.2145V9.90952C4.2145 10.997 5.10316 11.881 6.2036 11.881C7.30197 11.881 8.1927 10.997 8.1927 9.90952V8.04283H10.0801C11.1785 8.04283 12.0692 7.15886 12.0692 6.07134C12.0692 4.98587 11.1785 4.10185 10.0801 4.10185H8.1927V2.23315C8.1927 1.14563 7.30197 0.263672 6.2036 0.263672C5.10316 0.263672 4.2145 1.14563 4.2145 2.23315V4.10185H2.32712C1.22667 4.10185 0.335938 4.98381 0.335938 6.07134C0.335938 7.15886 1.22667 8.04283 2.32712 8.04283Z" fill="#E6F7FF" fill-opacity="0.39"/>
</svg>
