<svg width="55" height="34" viewBox="0 0 55 34" fill="none" xmlns="http://www.w3.org/2000/svg">
<path d="M2.72347 16.0042H7.05258C5.59709 17.8483 4.72089 20.1611 4.72089 22.6774C4.72089 28.668 9.6459 33.5444 15.6963 33.5444H43.5916C49.6419 33.5444 54.5669 28.668 54.5669 22.6774C54.5669 17.3261 50.7382 12.9164 45.5869 11.9954C44.2311 5.3469 38.3779 0.513672 31.3579 0.513672C24.3815 0.513672 18.545 5.35715 17.1559 11.907C16.6722 11.8432 16.1863 11.8103 15.6963 11.8103C14.8927 11.8103 14.112 11.9007 13.3563 12.0632H2.72347C1.6251 12.0632 0.734375 12.9452 0.734375 14.0347C0.734375 15.1223 1.6251 16.0042 2.72347 16.0042ZM18.1463 16.1954C18.7422 16.4194 19.4108 16.3434 19.9423 15.9939C20.4739 15.6465 20.804 15.0668 20.8331 14.4377C21.0802 8.83765 25.7041 4.45254 31.3579 4.45254C36.8602 4.45254 41.3741 8.54361 41.8599 13.9648C41.9492 14.9618 42.7777 15.7328 43.7867 15.7616C47.6009 15.8665 50.5867 18.9029 50.5867 22.6774C50.5867 26.4971 47.4493 29.6054 43.5916 29.6054H15.6963C11.8385 29.6054 8.70119 26.4971 8.70119 22.6774C8.70119 18.8556 11.8385 15.7493 15.6963 15.7493C16.5247 15.7493 17.349 15.8993 18.1463 16.1954Z" fill="#E6F7FF" fill-opacity="0.39"/>
</svg>
