<svg width="11" height="12" viewBox="0 0 11 12" fill="none" xmlns="http://www.w3.org/2000/svg">
<path d="M8.51762 3.63582H8.03595V3.1568C8.03595 1.84314 6.96046 0.780273 5.63369 0.780273C4.309 0.780273 3.23346 1.84314 3.23346 3.1568V3.63582H2.75169C1.42493 3.63582 0.351562 4.69869 0.351562 6.01235C0.351562 7.32602 1.42493 8.38888 2.75169 8.38888H3.23346V8.8658C3.23346 10.1795 4.309 11.2443 5.63369 11.2443C6.96046 11.2443 8.03595 10.1795 8.03595 8.8658V8.38888H8.51762C9.84438 8.38888 10.92 7.32602 10.92 6.01235C10.92 4.69869 9.84438 3.63582 8.51762 3.63582Z" fill="#E6F7FF" fill-opacity="0.39"/>
</svg>
