<svg width="49" height="43" viewBox="0 0 49 43" fill="none" xmlns="http://www.w3.org/2000/svg">
<path d="M31.8746 18.195C30.3793 16.6285 28.5355 15.6274 26.4646 15.2388V2.69214C26.4646 1.60462 25.5741 0.722656 24.4753 0.722656C23.3763 0.722656 22.4857 1.60462 22.4857 2.69214V15.2388C20.4148 15.6274 18.5711 16.6285 17.0759 18.195C14.7984 20.5798 13.6869 23.8916 13.4727 26.4819C3.69863 30.8382 0.188005 40.036 0.143364 40.1573C-0.0788017 40.7617 0.0113018 41.4338 0.383793 41.9601C0.756076 42.4885 1.36403 42.8009 2.01309 42.8009H46.9375C47.5863 42.8009 48.1945 42.4885 48.5667 41.9601C48.939 41.4338 49.0291 40.7617 48.807 40.1573C48.7623 40.036 45.2517 30.8382 35.4777 26.4819C35.2634 23.8916 34.1521 20.5798 31.8746 18.195ZM19.9668 20.9005C21.1725 19.6383 22.6892 18.9989 24.4753 18.9989C26.2613 18.9989 27.7779 19.6383 28.9838 20.9005C30.1338 22.1052 30.819 23.6409 31.1907 25.0224C29.1611 24.529 26.9328 24.237 24.4753 24.237C22.0177 24.237 19.7892 24.529 17.7596 25.0224C18.1315 23.6409 18.8167 22.1052 19.9668 20.9005ZM43.7397 38.862H5.21144C7.54667 34.9641 13.23 28.176 24.4753 28.176C35.7206 28.176 41.4057 34.9683 43.7397 38.862Z" fill="#E6F7FF" fill-opacity="0.39"/>
</svg>
