<svg width="26" height="37" viewBox="0 0 26 37" fill="none" xmlns="http://www.w3.org/2000/svg">
<path d="M23.5457 10.8889C23.5457 4.9435 18.6622 0.110352 12.6595 0.110352C6.65691 0.110352 1.77135 4.9435 1.77135 10.8889C1.77135 12.4246 2.09522 13.9129 2.72019 15.2862C1.24601 16.7212 0.390625 18.6908 0.390625 20.8144C0.390625 25.1234 3.92861 28.6265 8.27849 28.6265H10.8241V33.7311C10.8241 35.0448 11.8975 36.1095 13.2242 36.1095C14.551 36.1095 15.6245 35.0448 15.6245 33.7311V28.6265H16.3699C21.6562 28.6265 25.9541 24.3667 25.9541 19.1326C25.9541 16.7006 25.0364 14.4228 23.392 12.6795C23.4937 12.0874 23.5457 11.4892 23.5457 10.8889ZM16.3699 23.8712H8.27849C6.57799 23.8712 5.19311 22.5002 5.19311 20.8144C5.19311 19.6488 5.8637 18.6001 6.94338 18.08C7.58912 17.7696 8.06047 17.19 8.22658 16.4972C8.39476 15.8065 8.23903 15.0746 7.80716 14.5093C6.99947 13.4526 6.57384 12.2005 6.57384 10.8889C6.57384 7.56671 9.30213 4.86321 12.6595 4.86321C16.0149 4.86321 18.7431 7.56671 18.7431 10.8889C18.7431 11.5159 18.6414 12.1409 18.4421 12.7474C18.1265 13.7074 18.4586 14.7599 19.2663 15.3725C20.4664 16.2812 21.1538 17.6524 21.1538 19.1326C21.1538 21.7456 19.0068 23.8712 16.3699 23.8712Z" fill="#E6F7FF" fill-opacity="0.39"/>
</svg>
