<svg width="15" height="16" viewBox="0 0 15 16" fill="none" xmlns="http://www.w3.org/2000/svg">
<path d="M8.74194 15.497C8.74194 15.2887 8.74194 15.1192 8.74194 14.9497C8.74194 13.5467 8.74194 12.1416 8.74194 10.7386C8.74194 10.6876 8.74397 10.6365 8.74194 10.5855C8.73585 10.4548 8.79875 10.3996 8.92457 10.3996C9.11126 10.3996 9.29592 10.3996 9.48261 10.3996C9.82149 10.3996 10.1583 10.3956 10.4972 10.3996C10.6352 10.3996 10.688 10.3384 10.7062 10.2036C10.759 9.82578 10.83 9.45001 10.8868 9.0722C10.9335 8.76996 10.97 8.46567 11.0086 8.16342C11.0147 8.11645 11.0045 8.06539 11.0005 7.98779H8.77846C8.76223 7.93469 8.74802 7.91019 8.74802 7.88772C8.75614 7.33429 8.74802 6.78085 8.77643 6.22945C8.80687 5.64538 9.17822 5.24102 9.84787 5.1818C10.1665 5.15321 10.4891 5.15525 10.8097 5.14504C10.901 5.143 10.9924 5.14504 11.0979 5.14504C11.1101 5.07152 11.1263 5.01434 11.1263 4.9592C11.1263 4.41393 11.1283 3.8707 11.1263 3.32544C11.1263 3.10692 11.104 3.08446 10.8828 3.05382C10.1786 2.9558 9.47246 2.88024 8.76223 2.97418C8.56336 3.00073 8.36247 3.0334 8.17578 3.09875C7.50816 3.33565 6.94201 3.67874 6.58689 4.35062C6.26018 4.96941 6.16684 5.61679 6.14655 6.28868C6.13234 6.77268 6.14046 7.25872 6.13843 7.74273C6.13843 7.81012 6.13843 7.87751 6.13843 7.97962C5.44646 8.00209 4.76667 7.97554 4.09296 7.99392C4.03614 8.1961 4.026 10.0892 4.08079 10.3956C4.41764 10.3976 4.76058 10.4017 5.10555 10.4017C5.4424 10.4017 5.77723 10.4017 6.12828 10.4017V15.4704C6.05726 15.4786 5.98624 15.4929 5.91319 15.4929C4.48461 15.4929 3.05603 15.499 1.62745 15.4929C0.736612 15.4868 0.0649355 14.8231 0.0142046 13.9224C0.0060877 13.7958 0.00405847 13.6672 0.00405847 13.5405C0 9.83803 0 6.13755 0 2.43708C0 2.29208 0.00811693 2.14708 0.0121754 2.00413C0.0243508 1.45478 0.312502 1.06267 0.724436 0.74613C0.919243 0.597049 1.15463 0.554163 1.39002 0.535783C1.67006 0.513319 1.94806 0.499023 2.2281 0.499023C5.85434 0.499023 9.48058 0.499023 13.1068 0.499023C13.4295 0.499023 13.742 0.539868 14.0382 0.69916C14.507 0.952393 14.7606 1.35267 14.856 1.86117C14.8946 2.06744 14.8966 2.28391 14.8966 2.4963C14.8986 6.18044 14.8986 9.86458 14.8966 13.5467C14.8966 13.7591 14.8702 13.9715 14.856 14.1818C14.8114 14.774 14.0606 15.5072 13.4558 15.4827C13.1352 15.4704 12.8146 15.4888 12.492 15.4888C11.3252 15.4909 10.1583 15.4909 8.99153 15.4929C8.91645 15.4929 8.84137 15.4929 8.73991 15.4929L8.74194 15.497Z" fill="black"/>
</svg>
