<svg width="23" height="16" viewBox="0 0 23 16" fill="none" xmlns="http://www.w3.org/2000/svg">
<path d="M21.4958 11.7139C21.4252 11.3973 21.3649 10.8998 21.3193 10.5401C21.1262 8.98588 20.9103 7.22408 19.4776 6.30719C18.9378 5.95976 18.0345 5.6329 16.797 6.01528C16.3714 6.14686 16.1389 6.10776 16.1409 6.13654C16.1243 6.09337 16.1015 5.83832 16.3382 5.43126C17.1999 3.94491 16.8033 2.8267 16.4918 2.29013C15.5305 0.645481 13.3379 0.509766 11.1744 0.509766C9.00882 0.509766 6.81621 0.645481 5.85488 2.29013C5.54343 2.8267 5.14686 3.94496 6.00853 5.42926C6.25145 5.84864 6.23899 6.12631 6.25767 6.08314C6.20784 6.10781 5.97947 6.14686 5.54967 6.01528C4.31426 5.6329 3.40901 5.96182 2.86917 6.30719C1.43651 7.22408 1.22055 8.98588 1.02745 10.5401C0.983848 10.8998 0.921541 11.3973 0.853022 11.7139C0.236357 12.1518 -0.0978888 12.9248 0.0640637 13.7081C0.257161 14.6415 1.08766 15.2829 2.01162 15.2829C2.14451 15.2829 2.27945 15.2685 2.41441 15.2417C4.50941 14.8162 4.77935 12.6206 4.9766 11.0191C5.01398 10.7189 5.0638 10.3077 5.12609 9.96228C6.82867 10.2686 8.35891 9.77115 9.32439 8.58083C10.2234 7.47069 10.4311 5.98034 9.91824 4.48166C10.2338 4.4611 10.6429 4.44873 11.1744 4.44873C11.7018 4.44873 12.1087 4.4611 12.4222 4.48166C11.9135 5.95978 12.117 7.46247 13.0223 8.58083C13.9878 9.77115 15.5201 10.2624 17.2206 9.96228C17.2829 10.3077 17.3327 10.7189 17.3701 11.0191C17.5674 12.6206 17.8394 14.8162 19.9323 15.2417C20.0673 15.2685 20.2022 15.2829 20.3351 15.2829C21.2611 15.2829 22.0896 14.6415 22.2827 13.7081C22.4447 12.9248 22.1104 12.1518 21.4958 11.7139Z" fill="#E6F7FF" fill-opacity="0.39"/>
</svg>
