<svg width="124" height="525" viewBox="0 0 124 525" fill="none" xmlns="http://www.w3.org/2000/svg">
<path d="M120.976 42.681H115.64V29.4766C115.64 28.1629 114.565 27.1001 113.24 27.1001H103.369V14.9482C103.369 13.6366 102.294 12.5716 100.967 12.5716H90.5644V3.32672C90.5644 2.01306 89.4888 0.950195 88.1642 0.950195H34.0098C32.6851 0.950195 31.6095 2.01306 31.6095 3.32672V12.5716H25.4741C24.1494 12.5716 23.0739 13.6366 23.0739 14.9482V27.1001H20.9394C19.6127 27.1001 18.5371 28.1629 18.5371 29.4766V42.681H11.8701C10.5433 42.681 9.46781 43.746 9.46781 45.0576V49.0191H2.79867C1.47398 49.0191 0.398438 50.0841 0.398438 51.3978V522.076C0.398438 523.387 1.47398 524.452 2.79867 524.452H120.976C122.301 524.452 123.376 523.387 123.376 522.076V45.0576C123.376 43.746 122.301 42.681 120.976 42.681ZM9.46781 519.699H5.1989V53.7743H9.46781V519.699ZM23.3396 31.8531H58.5539V42.681H23.3396V31.8531ZM67.6232 64.6042V519.699H62.5529V481.928C62.5529 480.616 61.4774 479.551 60.1527 479.551C58.828 479.551 57.7524 480.616 57.7524 481.928V519.699H52.95V500.946C52.95 499.634 51.8744 498.57 50.5497 498.57C49.223 498.57 48.1474 499.634 48.1474 500.946V519.699H43.347V474.533C43.347 473.219 42.2714 472.154 40.9446 472.154C39.62 472.154 38.5444 473.219 38.5444 474.533V519.699H33.7441V452.873C33.7441 451.561 32.6685 450.496 31.3417 450.496C30.017 450.496 28.9415 451.561 28.9415 452.873V519.699H24.139V506.756C24.139 505.444 23.0634 504.379 21.7387 504.379C20.4141 504.379 19.3385 505.444 19.3385 506.756V519.699H14.2703V47.4362H67.6232V64.6042ZM76.6925 95.5073V519.699H72.4237V66.9808H76.6925V95.5073ZM76.6925 62.2277H72.4237V45.0576C72.4237 43.746 71.3482 42.681 70.0235 42.681H63.3543V29.4766C63.3543 28.1629 62.2809 27.1001 60.9541 27.1001H27.8743V17.3268H76.6925V62.2277ZM85.764 519.699H81.4951V97.8837H85.764V519.699ZM85.764 93.1307H81.4951V14.9482C81.4951 13.6366 80.4196 12.5716 79.0949 12.5716H36.412V5.70325H85.764V93.1307ZM103.369 31.8531H110.838V42.681H103.369V31.8531ZM94.8333 519.699H90.5644V97.8837H94.8333V519.699ZM108.17 519.699H99.6358V95.5073C99.6358 94.1936 98.5603 93.1307 97.2357 93.1307H90.5644V17.3268H98.5665V69.0962C98.5665 70.4078 99.6421 71.4727 100.967 71.4727H108.17V519.699ZM118.576 519.699H112.972V69.0962C112.972 67.7825 111.896 66.7177 110.572 66.7177H103.369V47.4362H118.576V519.699Z" fill="#E6F7FF" fill-opacity="0.39"/>
</svg>
