<svg width="39" height="70" viewBox="0 0 39 70" fill="none" xmlns="http://www.w3.org/2000/svg">
<path d="M28.0615 0.530273C24.4695 0.530273 21.3135 2.28791 19.3825 4.97075C17.4516 2.28791 14.2748 0.530273 10.7036 0.530273C4.82762 0.530273 0.03125 5.26673 0.03125 11.0888C0.03125 12.1763 0.923984 13.0583 2.02443 13.0583H17.3892V67.7429C17.3892 68.8304 18.2821 69.7123 19.3825 69.7123C20.483 69.7123 21.3757 68.8304 21.3757 67.7429V13.0583H36.7198C37.8202 13.0583 38.7129 12.1763 38.7129 11.0888C38.7129 5.26673 33.9375 0.530273 28.0615 0.530273ZM4.32926 9.11931C5.15979 6.42825 7.71369 4.47125 10.7036 4.47125C13.6935 4.47125 16.2473 6.42825 17.0986 9.11931H4.32926ZM21.6665 9.11931C22.5178 6.42825 25.0508 4.47125 28.0615 4.47125C31.0514 4.47125 33.5845 6.42825 34.4358 9.11931H21.6665Z" fill="#E6F7FF" fill-opacity="0.39"/>
</svg>
