<svg width="39" height="86" viewBox="0 0 39 86" fill="none" xmlns="http://www.w3.org/2000/svg">
<path d="M38.8062 11.3292C38.8062 5.50717 34.0243 0.770508 28.1442 0.770508C24.5667 0.770508 21.4046 2.52815 19.4695 5.21098C17.5344 2.52815 14.3721 0.770508 10.7946 0.770508C4.91448 0.770508 0.132812 5.50717 0.132812 11.3292C0.132812 12.4167 1.02357 13.2987 2.12194 13.2987H17.4804V83.741C17.4804 84.8285 18.3711 85.7104 19.4695 85.7104C20.5679 85.7104 21.4586 84.8285 21.4586 83.741V13.2987H36.8171C37.9154 13.2987 38.8062 12.4167 38.8062 11.3292ZM4.41197 9.35974C5.26118 6.66869 7.80264 4.71148 10.7946 4.71148C13.7886 4.71148 16.3301 6.66869 17.1793 9.35974H4.41197ZM21.7618 9.35974C22.611 6.66869 25.1501 4.71148 28.1442 4.71148C31.1362 4.71148 33.6776 6.66869 34.5268 9.35974H21.7618Z" fill="#E6F7FF" fill-opacity="0.39"/>
</svg>
