<svg width="85" height="270" viewBox="0 0 85 270" fill="none" xmlns="http://www.w3.org/2000/svg">
<path d="M79.6194 231.619C79.4741 230.653 78.6435 229.937 77.6676 229.937H73.6188V225.464C73.6188 224.376 72.726 223.495 71.6463 223.495H65.7288V219.019C65.7288 217.932 64.8361 217.05 63.7356 217.05H61.4724L56.6553 2.06108C56.6345 0.992063 55.7624 0.134766 54.6828 0.134766H31.2413C30.1616 0.134766 29.2687 0.992063 29.2479 2.06108L24.4308 217.05H22.1678C21.0881 217.05 20.1953 217.932 20.1953 219.019V223.495H14.2778C13.1773 223.495 12.2844 224.376 12.2844 225.464V229.937H8.25646C7.25983 229.937 6.42931 230.653 6.28396 231.619L0.989363 267.053C0.885547 267.62 1.07246 268.194 1.44619 268.628C1.81993 269.062 2.35961 269.31 2.94098 269.31H82.9622C82.983 269.312 82.9829 269.312 82.9829 269.31C84.0833 269.31 84.9763 268.428 84.9763 267.341C84.9763 267.131 84.9554 266.928 84.8931 266.736L79.6194 231.619ZM57.5067 217.05H51.34L49.492 4.07584H52.7312L57.5067 217.05ZM45.5054 4.07584L47.3534 217.05H38.5498L40.3978 4.07584H45.5054ZM33.1929 4.07584H36.4112L34.5634 217.05H28.4174L33.1929 4.07584ZM24.1609 220.989H61.7422V223.495H24.1609V220.989ZM16.271 227.433H69.6531V229.937H16.271V227.433ZM9.97976 233.876H24.2441L21.9808 265.371H5.24581L9.97976 233.876ZM54.4336 265.371V249.624C54.4336 248.536 53.5408 247.655 52.4404 247.655C51.3399 247.655 50.4472 248.536 50.4472 249.624V265.371H44.2805V247.959C44.2805 246.871 43.4085 245.989 42.308 245.989C41.2076 245.989 40.3146 246.871 40.3146 247.959V265.371H33.7951V258.554C33.7951 257.467 32.9022 256.585 31.8017 256.585C30.7013 256.585 29.8086 257.467 29.8086 258.554V265.371H25.9674L28.2306 233.876H57.6934L59.9358 265.371H54.4336ZM63.9224 265.371L61.68 233.876H75.9443L80.6576 265.371H63.9224Z" fill="#E6F7FF" fill-opacity="0.39"/>
</svg>
