<svg width="288" height="289" viewBox="0 0 288 289" fill="none" xmlns="http://www.w3.org/2000/svg">
<path d="M285.639 222.123L283.456 221.236L279.923 141.829C279.92 141.781 279.908 141.738 279.904 141.691C279.895 141.613 279.885 141.539 279.871 141.463C279.854 141.374 279.829 141.292 279.802 141.208C279.783 141.15 279.765 141.095 279.742 141.039C279.702 140.941 279.657 140.848 279.603 140.756C279.584 140.721 279.563 140.686 279.543 140.653C279.478 140.554 279.408 140.462 279.329 140.373C279.308 140.349 279.287 140.324 279.264 140.299C279.183 140.217 279.098 140.141 279.005 140.069C278.972 140.044 278.94 140.018 278.905 139.995C278.822 139.937 278.735 139.886 278.643 139.839C278.589 139.81 278.533 139.783 278.477 139.759C278.403 139.726 278.324 139.699 278.245 139.674C278.166 139.652 278.087 139.629 278.004 139.613C277.933 139.598 277.863 139.59 277.79 139.582C277.736 139.576 277.684 139.561 277.63 139.559C277.595 139.557 277.562 139.565 277.526 139.565C277.491 139.565 277.456 139.557 277.418 139.559C277.36 139.561 277.306 139.578 277.248 139.584C277.19 139.59 277.132 139.596 277.076 139.609C276.966 139.629 276.862 139.658 276.758 139.691C276.717 139.705 276.677 139.72 276.638 139.736C276.53 139.779 276.428 139.828 276.328 139.886C276.295 139.905 276.262 139.923 276.227 139.946C276.135 140.005 276.048 140.069 275.965 140.141C275.928 140.172 275.892 140.203 275.857 140.236C275.786 140.305 275.722 140.375 275.66 140.453C275.622 140.499 275.585 140.546 275.55 140.595C275.502 140.667 275.456 140.741 275.415 140.817C275.382 140.879 275.35 140.943 275.324 141.006C275.29 141.08 275.263 141.157 275.24 141.237C275.218 141.307 275.197 141.379 275.182 141.453C275.164 141.533 275.155 141.613 275.145 141.697C275.141 141.74 275.128 141.784 275.126 141.829L271.592 221.236L269.41 222.123C268.509 222.491 267.921 223.358 267.921 224.322V259H242.242L236.162 252.962C236.162 252.962 236.16 252.96 236.158 252.958L211.433 228.397C211.431 228.397 211.429 228.395 211.429 228.395L186.704 203.834C186.702 203.834 186.7 203.832 186.7 203.83L160.682 177.986V141.934C160.682 140.969 160.094 140.1 159.193 139.736L155.632 138.289V92.6208C155.632 91.6566 155.043 90.7872 154.141 90.4213L152.385 89.7057L146.272 3.15821C146.27 3.13354 146.262 3.11091 146.26 3.08624C146.251 3.00195 146.233 2.91973 146.216 2.8375C146.2 2.76349 146.185 2.68946 146.164 2.61545C146.141 2.54761 146.112 2.48178 146.085 2.41599C146.052 2.33376 146.017 2.25365 145.975 2.17759C145.95 2.1303 145.919 2.08911 145.89 2.04388C145.832 1.95342 145.774 1.86713 145.705 1.78901C145.683 1.76229 145.66 1.7397 145.637 1.71503C145.552 1.62252 145.462 1.53818 145.365 1.46006C145.352 1.44978 145.338 1.44158 145.325 1.43336C145.213 1.34702 145.095 1.27093 144.968 1.2072C144.962 1.20309 144.954 1.20107 144.947 1.19696C144.817 1.13118 144.678 1.07772 144.534 1.03866C144.52 1.03455 144.505 1.03243 144.493 1.02832C144.36 0.995429 144.225 0.968736 144.084 0.958457C144.069 0.958457 144.057 0.954389 144.044 0.952333C143.988 0.948222 143.934 0.956348 143.88 0.956348C143.822 0.956348 143.768 0.948222 143.71 0.952333C143.693 0.954389 143.681 0.958408 143.666 0.960464C143.527 0.970743 143.392 0.995429 143.262 1.02832C143.247 1.03243 143.233 1.03455 143.218 1.03866C143.073 1.07978 142.934 1.13324 142.801 1.20108C142.796 1.20108 142.79 1.20309 142.786 1.2072C142.655 1.27093 142.533 1.34908 142.419 1.43748C142.41 1.4457 142.4 1.44983 142.392 1.45805C142.288 1.53823 142.194 1.62659 142.105 1.72527C142.088 1.74583 142.068 1.76429 142.051 1.78279C141.978 1.86708 141.916 1.9596 141.856 2.05211C141.831 2.09323 141.802 2.13231 141.779 2.17548C141.735 2.2536 141.7 2.33587 141.665 2.42222C141.638 2.48389 141.611 2.54761 141.59 2.61545C141.567 2.68741 141.553 2.76344 141.536 2.8395C141.52 2.92174 141.503 3.00195 141.493 3.08624C141.491 3.11091 141.482 3.13354 141.48 3.15821L135.369 89.7057L133.611 90.4213C132.71 90.7872 132.12 91.6566 132.12 92.6208V138.289L128.559 139.736C127.658 140.1 127.071 140.969 127.071 141.934V177.986L101.052 203.83C101.052 203.832 101.05 203.834 101.05 203.834L76.3233 228.395C76.3233 228.395 76.3212 228.397 76.3191 228.397L51.5944 252.958C51.5923 252.96 51.5923 252.96 51.5923 252.96L45.5108 259H19.8309V224.322C19.8309 223.358 19.2433 222.491 18.3422 222.123L16.1599 221.236L12.6261 141.829C12.624 141.781 12.6116 141.74 12.6074 141.695C12.5991 141.613 12.5887 141.535 12.5721 141.457C12.5555 141.377 12.5347 141.303 12.5119 141.227C12.4891 141.157 12.4641 141.087 12.4351 141.019C12.4039 140.943 12.3665 140.869 12.3271 140.799C12.2918 140.737 12.2565 140.676 12.2171 140.618C12.1714 140.55 12.1236 140.486 12.0717 140.427C12.0239 140.367 11.9762 140.314 11.9223 140.26C11.8704 140.209 11.8164 140.161 11.7582 140.116C11.6939 140.061 11.6274 140.011 11.5568 139.964C11.5049 139.929 11.4488 139.898 11.3927 139.868C11.3118 139.822 11.2267 139.779 11.1395 139.744C11.0855 139.722 11.0294 139.703 10.9733 139.685C10.882 139.654 10.7865 139.629 10.691 139.611C10.6266 139.596 10.5622 139.59 10.4978 139.582C10.4418 139.576 10.39 139.561 10.3339 139.559C10.2986 139.557 10.2654 139.565 10.2301 139.565C10.1927 139.565 10.1595 139.557 10.1221 139.559C10.064 139.561 10.0099 139.578 9.95179 139.584C9.89365 139.59 9.83763 139.596 9.78157 139.609C9.66945 139.629 9.56141 139.66 9.45552 139.695C9.42022 139.707 9.3829 139.717 9.34968 139.732C9.23548 139.777 9.12755 139.829 9.02373 139.89C8.99466 139.905 8.96759 139.923 8.9406 139.939C8.84093 140.003 8.74758 140.073 8.65622 140.149C8.62715 140.174 8.59805 140.201 8.57106 140.227C8.49424 140.301 8.42156 140.38 8.35511 140.464C8.32189 140.505 8.29071 140.544 8.26164 140.587C8.20765 140.663 8.15783 140.743 8.11423 140.828C8.08308 140.883 8.05616 140.941 8.02917 141C7.99595 141.078 7.9669 141.159 7.94198 141.241C7.91914 141.311 7.90045 141.379 7.88592 141.451C7.86931 141.531 7.85681 141.613 7.84851 141.697C7.84435 141.743 7.83193 141.784 7.82985 141.829L4.29596 221.236L2.1137 222.123C1.21258 222.491 0.625 223.358 0.625 224.322V286.073C0.625 287.384 1.69847 288.449 3.02523 288.449H284.727C286.054 288.449 287.127 287.384 287.127 286.073V224.322C287.127 223.358 286.54 222.491 285.639 222.123ZM7.82772 261.378V283.696H5.42546V225.915L7.82772 224.941V261.378ZM11.1395 219.197C11.1229 219.191 11.1042 219.189 11.0876 219.183C10.9921 219.146 10.8924 219.127 10.7928 219.105C10.7014 219.08 10.6121 219.053 10.5186 219.041C10.421 219.029 10.3255 219.035 10.228 219.035C10.1304 219.035 10.0348 219.029 9.93932 219.041C9.84381 219.053 9.75451 219.08 9.66315 219.105C9.56349 219.127 9.46384 219.146 9.36833 219.183C9.35172 219.189 9.33303 219.191 9.31642 219.197L9.1898 219.249L10.228 195.936L11.2641 219.249L11.1395 219.197ZM12.6282 224.941L15.0304 225.915V259H12.6282V224.941ZM12.6282 263.755H114V269.564H12.6282V263.755ZM94.2585 283.696H12.6282V274.318H94.2585V283.696ZM105.462 283.696H99.061V274.318H105.462V283.696ZM127.071 283.696H110.265V281.581H127.071V283.696ZM127.071 276.828H110.265V274.318H116.4C117.727 274.318 118.803 273.255 118.803 271.941V269.299H127.071V276.828ZM127.071 264.546H118.803V261.378C118.803 260.065 117.727 259 116.4 259H52.2899L54.2874 257.018H127.071V264.546ZM127.071 252.263H59.0732L66.6518 244.737H127.071V252.263ZM127.071 239.981H71.4377L79.0162 232.453H127.071V239.981ZM127.071 227.7H83.8022L91.3807 220.172H127.071V227.7ZM127.071 215.417H96.1666L103.745 207.89H127.071V215.417ZM127.071 203.135H108.531L116.11 195.607H127.071V203.135ZM127.071 190.854H120.896L127.071 184.719V190.854ZM149.202 93.5542L150.83 94.2141V136.338L146.276 134.487V92.3661L149.2 93.5522C149.202 93.5522 149.202 93.5542 149.202 93.5542ZM141.476 283.696H131.871V143.529L135.455 142.071H135.457L141.476 139.627V283.696ZM141.476 134.487L136.923 136.338V94.2141L138.55 93.5542C138.55 93.5542 138.55 93.5542 138.552 93.5522L141.476 92.3661V134.487ZM144.734 86.6056C144.64 86.5686 144.541 86.5501 144.443 86.5275C144.352 86.5049 144.26 86.4761 144.167 86.4658C144.069 86.4556 143.974 86.4596 143.876 86.4596C143.779 86.4596 143.683 86.4556 143.585 86.4658C143.492 86.4761 143.403 86.5049 143.309 86.5275C143.212 86.5501 143.112 86.5686 143.019 86.6056C143 86.6117 142.981 86.6139 142.965 86.62L140.326 87.6931L143.876 37.4079L147.427 87.6931L144.788 86.62C144.771 86.6139 144.752 86.6117 144.734 86.6056ZM155.881 283.696H146.276V139.627L152.296 142.071H152.298L155.881 143.529V283.696ZM160.682 184.719L166.857 190.854H160.682V184.719ZM160.682 195.607H171.643L179.221 203.135H160.682V195.607ZM160.682 207.89H184.007L191.586 215.417H160.682V207.89ZM160.682 220.172H196.372L203.95 227.7H160.682V220.172ZM160.682 232.453H208.736L216.315 239.981H160.682V232.453ZM160.682 244.737H221.1L228.679 252.263H160.682V244.737ZM160.682 257.018H233.465L235.462 259H171.352C170.025 259 168.952 260.065 168.952 261.378V264.546H160.682V257.018ZM177.488 283.696H160.682V281.581H177.488V283.696ZM177.488 276.828H160.682V269.299H168.952V271.941C168.952 273.255 170.025 274.318 171.352 274.318H177.488V276.828ZM188.693 283.696H182.29V274.318H188.693V283.696ZM275.124 283.696H193.494V274.318H275.124V283.696ZM275.124 269.564H173.752V263.755H275.124V269.564ZM275.124 259H272.724V225.915L275.124 224.941V259ZM278.436 219.197C278.419 219.191 278.401 219.189 278.384 219.183C278.288 219.146 278.189 219.127 278.089 219.103C277.998 219.08 277.909 219.053 277.815 219.041C277.72 219.029 277.622 219.035 277.524 219.035C277.429 219.035 277.331 219.029 277.236 219.041C277.142 219.053 277.053 219.08 276.962 219.103C276.862 219.127 276.762 219.146 276.665 219.183C276.648 219.189 276.632 219.191 276.613 219.197L276.488 219.249L277.524 195.936L278.562 219.249L278.436 219.197ZM282.327 283.696H279.927V224.941L282.327 225.915V283.696Z" fill="#E6F7FF" fill-opacity="0.39"/>
</svg>
