<svg width="16" height="16" viewBox="0 0 16 16" fill="none" xmlns="http://www.w3.org/2000/svg">
<path d="M8.12133 15.4932C6.04137 15.4932 3.9614 15.4932 1.88144 15.4932C1.52429 15.4932 1.21788 15.387 0.978427 15.1134C0.807972 14.9194 0.732889 14.6886 0.710567 14.4374C0.698392 14.2944 0.694336 14.1494 0.694336 14.0044C0.694336 9.92003 0.694336 5.83767 0.694336 1.75325C0.694336 1.41833 0.775503 1.11404 0.99669 0.858768C1.12047 0.715813 1.25846 0.597365 1.46139 0.581028C1.72113 0.558563 1.98087 0.501382 2.23858 0.501382C6.21994 0.497297 10.2013 0.499339 14.1847 0.501382C14.3531 0.501382 14.5236 0.517719 14.69 0.542226C15.1425 0.609618 15.4895 0.964962 15.5483 1.42242C15.5747 1.62459 15.5909 1.82882 15.5909 2.03304C15.593 6.09907 15.5909 10.1671 15.5909 14.2332C15.5909 14.6947 15.4428 15.0807 15.037 15.338C14.8442 15.4605 14.6271 15.4891 14.4099 15.4932C13.9452 15.4993 13.4805 15.4932 13.0158 15.4932C11.3843 15.4932 9.75283 15.4932 8.12133 15.4932ZM13.4623 13.3489C13.4684 13.2672 13.4765 13.2182 13.4765 13.1671C13.4765 11.7131 13.4866 10.257 13.4724 8.80295C13.4663 8.24747 13.3507 7.70424 13.1112 7.19777C12.9286 6.80975 12.6486 6.50342 12.263 6.31963C11.9728 6.18076 11.6623 6.10724 11.3438 6.05414C10.4976 5.91118 9.75284 6.11745 9.09942 6.67088C8.99796 6.75666 8.92491 6.87511 8.83968 6.97926C8.81127 7.01398 8.78489 7.05278 8.75851 7.09158C8.74227 7.08749 8.72604 7.08545 8.70981 7.08137V6.18688C7.97928 6.18688 7.28325 6.17871 6.58317 6.19301V13.3305C6.90785 13.3857 8.59414 13.3754 8.8133 13.3121C8.8133 13.2202 8.8133 13.1181 8.8133 13.0181C8.8133 11.9377 8.8133 10.8574 8.8133 9.77708C8.8133 9.43399 8.85592 9.10315 8.95332 8.77231C9.03043 8.50887 9.18059 8.3169 9.40381 8.18212C9.74066 7.97994 10.1039 7.95952 10.4813 8.04325C10.7106 8.0943 10.8892 8.22092 10.9947 8.42514C11.08 8.58852 11.155 8.76619 11.1895 8.9459C11.2342 9.17871 11.2443 9.41765 11.2463 9.65659C11.2524 10.7798 11.2484 11.903 11.2504 13.0262C11.2504 13.1324 11.2565 13.2407 11.2606 13.353H13.4663L13.4623 13.3489ZM5.20532 13.3448C5.20532 13.2284 5.20532 13.1283 5.20532 13.0303C5.20532 11.4476 5.20532 9.86694 5.20532 8.28423C5.20532 7.67157 5.20532 7.0589 5.20126 6.44828C5.20126 6.20322 5.183 6.18892 4.93949 6.18688C4.34899 6.18484 3.75645 6.18688 3.16594 6.18688C3.10912 6.18688 3.05433 6.20118 2.9894 6.21139V13.3428H5.20329L5.20532 13.3448ZM2.80677 3.98334C2.74589 4.62459 3.50685 5.23521 4.09736 5.22909C4.79136 5.22092 5.35142 4.63481 5.36563 3.94862C5.38186 3.2216 4.78933 2.65387 4.11968 2.64774C3.41351 2.63957 2.77633 3.18484 2.8088 3.98538L2.80677 3.98334Z" fill="black"/>
</svg>
