<svg width="37" height="53" viewBox="0 0 37 53" fill="none" xmlns="http://www.w3.org/2000/svg">
<path d="M33.0979 15.256C33.0979 6.95461 26.2773 0.201172 17.8932 0.201172C9.50901 0.201172 2.68822 6.95461 2.68822 15.256C2.68822 17.6962 3.27384 20.0481 4.39712 22.1779C2.01144 24.1556 0.601562 27.0646 0.601562 30.2347C0.601562 36.067 5.39373 40.8117 11.2842 40.8117H16.3463V49.7257C16.3463 51.0373 17.4196 52.1022 18.7464 52.1022C20.0711 52.1022 21.1467 51.0373 21.1467 49.7257V40.8117H23.4909C30.7933 40.8117 36.7337 34.9279 36.7337 27.6976C36.7337 24.1349 35.3071 20.8088 32.7698 18.3541C32.9878 17.3345 33.0979 16.2983 33.0979 15.256ZM23.4909 36.0566H11.2842C8.04311 36.0566 5.40405 33.4459 5.40405 30.2347C5.40405 28.0103 6.67897 26.012 8.73244 25.0211C9.38025 24.7106 9.85166 24.1288 10.0178 23.4381C10.1859 22.7453 10.0301 22.0176 9.59825 21.4481C8.2175 19.6452 7.48868 17.503 7.48868 15.256C7.48868 9.57782 12.1563 4.95644 17.8932 4.95644C23.63 4.95644 28.2974 9.57782 28.2974 15.256C28.2974 16.3332 28.1252 17.4042 27.7846 18.4363C27.467 19.3963 27.7971 20.449 28.6069 21.0616C30.7205 22.6631 31.9332 25.0806 31.9332 27.6976C31.9332 32.3068 28.146 36.0566 23.4909 36.0566Z" fill="#E6F7FF" fill-opacity="0.39"/>
</svg>
