<svg width="13" height="13" viewBox="0 0 13 13" fill="none" xmlns="http://www.w3.org/2000/svg">
<path d="M4.54835 4.69365H2.66119C1.5624 4.69365 0.671875 5.57767 0.671875 6.66313C0.671875 7.75066 1.5624 8.63462 2.66119 8.63462H4.54835V10.5013C4.54835 11.5888 5.43888 12.4728 6.53766 12.4728C7.63666 12.4728 8.52718 11.5888 8.52718 10.5013V8.63462H10.4141C11.5131 8.63462 12.4035 7.75066 12.4035 6.66313C12.4035 5.57767 11.5131 4.69365 10.4141 4.69365H8.52718V2.82495C8.52718 1.73743 7.63666 0.855469 6.53766 0.855469C5.43888 0.855469 4.54835 1.73743 4.54835 2.82495V4.69365Z" fill="#E6F7FF" fill-opacity="0.39"/>
</svg>
