<svg width="10" height="9" viewBox="0 0 10 9" fill="none" xmlns="http://www.w3.org/2000/svg">
<path d="M4.81436 8.90006C5.91273 8.90006 6.80349 8.0159 6.80349 6.92837V6.53367H7.2042C8.30257 6.53367 9.1933 5.65171 9.1933 4.56419C9.1933 3.47667 8.30257 2.59471 7.2042 2.59471H6.80349V2.198C6.80349 1.11047 5.91273 0.228516 4.81436 0.228516C3.71599 0.228516 2.82526 1.11047 2.82526 2.198V2.59471H2.4266C1.32823 2.59471 0.4375 3.47667 0.4375 4.56419C0.4375 5.65171 1.32823 6.53367 2.4266 6.53367H2.82526V6.92837C2.82526 8.0159 3.71599 8.90006 4.81436 8.90006Z" fill="#E6F7FF" fill-opacity="0.39"/>
</svg>
