<svg width="16" height="16" viewBox="0 0 16 16" fill="none" xmlns="http://www.w3.org/2000/svg">
<path d="M8.39191 15.497C6.46414 15.497 4.53839 15.4929 2.61062 15.499C2.1581 15.499 1.76037 15.3724 1.42758 15.0661C1.12319 14.7863 0.948682 14.433 0.912155 14.0164C0.897951 13.8632 0.897949 13.7101 0.897949 13.5569C0.897949 9.84007 0.897949 6.12326 0.897949 2.4044C0.897949 2.26757 0.906069 2.13279 0.910127 1.99596C0.922303 1.44661 1.21451 1.05655 1.62847 0.742046C1.82328 0.592965 2.05867 0.548036 2.29609 0.533741C2.58221 0.515361 2.87036 0.499023 3.15649 0.499023C6.76649 0.499023 10.3745 0.499023 13.9845 0.501066C14.3335 0.501066 14.6704 0.543952 14.9829 0.729793C15.4029 0.980984 15.6566 1.34245 15.7499 1.8142C15.7885 2.0123 15.7966 2.2206 15.7966 2.42278C15.7986 6.15798 15.7986 9.89113 15.7966 13.6263C15.7966 13.8285 15.7722 14.0327 15.7479 14.2349C15.6789 14.8006 14.9463 15.5215 14.3294 15.4847C14.1448 15.4745 13.9581 15.4909 13.7714 15.4909C11.9796 15.4909 10.1878 15.4909 8.39597 15.4909L8.39191 15.497ZM3.75917 4.04838C3.51769 4.53851 3.40608 5.02047 3.48928 5.53102C3.58466 6.10284 3.88092 6.56233 4.3862 6.95648C4.18125 6.91972 4.03717 6.8993 3.89513 6.86662C3.74496 6.82986 3.59683 6.78085 3.42232 6.72775C3.51769 7.80604 4.04732 8.50855 5.02541 8.88024C5.02135 8.89657 5.01729 8.91291 5.01323 8.92721C4.75958 8.9415 4.50593 8.9558 4.23198 8.97009C4.55463 9.8993 5.26283 10.3016 6.16787 10.4915C5.69506 10.8142 5.24051 11.0695 4.73117 11.2145C4.22386 11.3574 3.70235 11.3921 3.12808 11.4024C3.20925 11.4677 3.23968 11.4983 3.27621 11.5188C3.74091 11.7843 4.22792 12.0007 4.74132 12.1437C5.59157 12.3806 6.45805 12.3847 7.33062 12.2887C8.43452 12.1682 9.39841 11.7046 10.2507 11.0327C10.7702 10.6243 11.2166 10.1178 11.5616 9.5317C11.7503 9.21312 11.937 8.89657 12.075 8.55144C12.3915 7.76519 12.6087 6.95852 12.5762 6.10079C12.5701 5.91291 12.6168 5.76996 12.769 5.65968C13.0794 5.43503 13.2966 5.11645 13.5522 4.83871C13.5766 4.81216 13.5888 4.77132 13.6172 4.71618C13.2621 4.80808 12.9313 4.89181 12.6026 4.97758C12.8846 4.62632 13.2418 4.35267 13.325 3.84211C13.1931 3.90134 13.0916 3.95239 12.9841 3.99324C12.7243 4.09126 12.4646 4.19337 12.2008 4.27915C12.0831 4.31795 11.9593 4.33837 11.8538 4.2138C11.5961 3.91155 11.2389 3.78697 10.8696 3.69712C10.3927 3.58275 9.92804 3.6481 9.48364 3.83803C9.17925 3.96873 8.88907 4.1464 8.69223 4.41597C8.31683 4.93265 8.12202 5.5106 8.22957 6.1641C8.23769 6.2172 8.22348 6.27438 8.21942 6.33769C7.62689 6.28868 7.06885 6.1641 6.52502 5.9803C5.9893 5.80059 5.50634 5.52081 5.03759 5.20835C4.55869 4.88977 4.19546 4.44048 3.76323 4.04225L3.75917 4.04838Z" fill="black"/>
</svg>
