<svg width="10" height="9" viewBox="0 0 10 9" fill="none" xmlns="http://www.w3.org/2000/svg">
<path d="M2.75475 6.35594H3.15339V6.75064C3.15339 7.84022 4.04414 8.72012 5.14251 8.72012C6.24088 8.72012 7.13164 7.84022 7.13164 6.75064V6.35594H7.5325C8.63087 6.35594 9.52163 5.47398 9.52163 4.38645C9.52163 3.29893 8.63087 2.41707 7.5325 2.41707H7.13164V2.02026C7.13164 0.93274 6.24088 0.0507812 5.14251 0.0507812C4.04414 0.0507812 3.15339 0.93274 3.15339 2.02026V2.41707H2.75475C1.65638 2.41707 0.765625 3.29893 0.765625 4.38645C0.765625 5.47398 1.65638 6.35594 2.75475 6.35594Z" fill="#E6F7FF" fill-opacity="0.39"/>
</svg>
