<svg width="418" height="215" viewBox="0 0 418 215" fill="none" xmlns="http://www.w3.org/2000/svg">
<path d="M415.462 113.164C416.562 113.164 417.455 112.282 417.455 111.194C417.455 110.107 416.562 109.225 415.462 109.225H411.703V98.0638C411.703 96.9763 410.811 96.0944 409.71 96.0944H405.641C405.703 87.3839 405.454 53.2575 397.834 39.9687C397.481 39.352 396.816 38.9717 396.11 38.9717H387.265C387.244 38.9717 387.224 38.9737 387.203 38.9757C387.203 38.9737 387.182 38.9717 387.161 38.9717H378.316C377.61 38.9717 376.946 39.352 376.593 39.9687C368.973 53.2575 368.724 87.3839 368.786 96.0944H342.853C346.092 89.5651 341.96 85.4966 338.555 82.1415C336.084 79.7157 333.738 77.4214 333.738 74.313C333.738 73.2255 332.866 72.3435 331.765 72.3435C331.724 72.3435 331.703 72.3497 331.682 72.3517C331.662 72.3497 331.62 72.3435 331.599 72.3435C330.499 72.3435 329.606 73.2255 329.606 74.313C329.606 77.4214 327.28 79.7157 324.81 82.1415C321.384 85.4966 317.252 89.5651 320.512 96.0944H293.353C293.146 85.8235 291.775 39.3807 284.01 25.837C283.657 25.2203 283.013 24.84 282.287 24.84H273.442C273.442 24.84 273.421 24.844 273.4 24.846C273.379 24.844 273.359 24.84 273.359 24.84H264.514C263.787 24.84 263.143 25.2203 262.769 25.837C255.897 37.8573 254.423 69.0112 254.111 81.7264C253.758 81.3687 253.405 81.0129 253.052 80.6695C250.312 77.9662 247.695 75.4129 247.695 71.9056C247.695 70.8181 246.803 69.9362 245.723 69.9362C245.681 69.9362 245.661 69.9445 245.619 69.9466C245.598 69.9445 245.577 69.9362 245.536 69.9362C244.436 69.9362 243.543 70.8181 243.543 71.9056C243.543 75.4129 240.947 77.9662 238.207 80.6695C234.448 84.3618 229.881 88.8497 233.659 96.0944H231.043C231.168 90.371 231.396 73.2976 230.524 55.2743C229.05 25.319 225.333 7.06958 219.437 1.03577C219.063 0.653392 218.544 0.4375 218.004 0.4375H209.18C209.097 0.4375 209.034 0.449803 208.972 0.45597C208.91 0.449803 208.848 0.4375 208.785 0.4375H199.94C199.4 0.4375 198.881 0.653392 198.507 1.03577C192.611 7.06958 188.894 25.319 187.441 55.2743C186.569 73.2976 186.797 90.371 186.901 96.0944H183.973C187.731 88.8497 183.184 84.3618 179.426 80.6695C176.665 77.9662 174.069 75.4129 174.069 71.9056C174.069 70.8181 173.176 69.9362 172.076 69.9362C172.055 69.9362 172.014 69.9445 171.993 69.9466C171.951 69.9445 171.931 69.9362 171.91 69.9362C170.81 69.9362 169.917 70.8181 169.917 71.9056C169.917 75.4129 167.321 77.9662 164.56 80.6695C164.207 81.0129 163.854 81.3687 163.501 81.7264C163.189 69.0112 161.715 37.8573 154.843 25.837C154.49 25.2203 153.825 24.84 153.098 24.84H144.274C144.253 24.84 144.233 24.844 144.212 24.846C144.212 24.844 144.191 24.84 144.17 24.84H135.325C134.619 24.84 133.955 25.2203 133.602 25.837C125.837 39.3807 124.466 85.8235 124.259 96.0944H97.1004C100.36 89.5651 96.2283 85.4966 92.8024 82.1415C90.3316 79.7157 88.006 77.4214 88.006 74.313C88.006 73.2255 87.1133 72.3435 86.0128 72.3435C85.9921 72.3435 85.9712 72.3497 85.9297 72.3517C85.9089 72.3497 85.8882 72.3435 85.8675 72.3435C84.767 72.3435 83.8743 73.2255 83.8743 74.313C83.8743 77.4214 81.528 79.7157 79.0572 82.1415C75.652 85.4966 71.5201 89.5651 74.7592 96.0944H48.8261C48.8905 87.3839 48.6392 53.2575 41.0254 39.9687C40.6724 39.352 40.0121 38.9717 39.2958 38.9717H30.4528C30.4383 38.9717 30.4216 38.9737 30.4049 38.9757C30.3883 38.9737 30.3739 38.9717 30.3573 38.9717H21.5163C20.8 38.9717 20.1398 39.352 19.7847 39.9687C12.173 53.2575 11.9216 87.3839 11.986 96.0944H7.90817C6.80772 96.0944 5.91702 96.9763 5.91702 98.0638V109.225H2.161C1.06263 109.225 0.171875 110.107 0.171875 111.194C0.171875 112.282 1.06263 113.164 2.161 113.164H5.91702V147.527H3.04343C1.94506 147.527 1.05431 148.409 1.05431 149.496C1.05431 150.584 1.94506 151.466 3.04343 151.466H5.34806L0.232096 171.333C0.23002 171.345 0.229914 171.358 0.227838 171.37C0.204999 171.469 0.194577 171.569 0.186271 171.67C0.182119 171.713 0.173903 171.754 0.173903 171.798C0.173903 171.804 0.171875 171.81 0.171875 171.818V212.525C0.171875 213.613 1.06263 214.497 2.161 214.497H415.462C416.562 214.497 417.455 213.613 417.455 212.525V171.818C417.455 171.81 417.455 171.804 417.455 171.798C417.455 171.756 417.434 171.715 417.434 171.674C417.434 171.572 417.413 171.467 417.392 171.368C417.392 171.356 417.392 171.343 417.392 171.333L412.264 151.466H414.569C415.669 151.466 416.562 150.584 416.562 149.496C416.562 148.409 415.669 147.527 414.569 147.527H411.703V113.164H415.462ZM358.197 183.867C358.28 183.522 359.09 182.856 359.982 182.329C360.875 182.854 361.664 183.514 361.747 183.828V191.515H358.197V183.867ZM360.792 178.308C360.273 178.08 359.671 178.08 359.173 178.308C358.342 178.674 354.231 180.656 354.231 183.828V191.515H350.244V183.828C350.244 180.656 346.133 178.674 345.324 178.308C344.805 178.08 344.202 178.08 343.683 178.308C342.874 178.674 338.762 180.656 338.762 183.828V191.515H334.776V183.828C334.776 180.656 330.665 178.674 329.834 178.308C329.315 178.08 328.734 178.08 328.215 178.308C327.384 178.674 323.273 180.656 323.273 183.828V191.515H282.619V173.788H368.807V191.515H365.734V183.828C365.734 180.656 361.623 178.674 360.792 178.308ZM342.728 183.867C342.811 183.522 343.6 182.856 344.493 182.329C345.386 182.854 346.196 183.514 346.279 183.828V191.515H342.728V183.867ZM327.26 183.867C327.343 183.522 328.132 182.856 329.025 182.329C329.917 182.854 330.706 183.514 330.79 183.828V191.515H327.26V183.867ZM208.827 202.479H138.98V198.336H278.632V202.479H208.827ZM86.8227 183.867C86.9057 183.522 87.6947 182.856 88.5875 182.329C89.4804 182.854 90.2694 183.514 90.3524 183.828V191.515H86.8227V183.867ZM89.3972 178.308C88.8781 178.08 88.2968 178.08 87.7777 178.308C86.9472 178.674 82.8361 180.656 82.8361 183.828V191.515H78.8702V183.828C78.8702 180.656 74.7592 178.674 73.9287 178.308C73.4096 178.08 72.8282 178.08 72.3092 178.308C71.4786 178.674 67.3676 180.656 67.3676 183.828V191.515H63.381V183.828C63.381 180.656 59.2781 178.674 58.4538 178.308C57.9368 178.08 57.3453 178.08 56.8283 178.308C56.004 178.674 51.8928 180.656 51.8928 183.828V191.515H48.8012V173.788H135.014V191.515H94.3388V183.828C94.3388 180.656 90.2277 178.674 89.3972 178.308ZM71.3541 183.867C71.4372 183.522 72.2262 182.856 73.119 182.329C74.0118 182.854 74.8008 183.514 74.8839 183.828V191.515H71.3541V183.867ZM55.869 183.867C55.9562 183.522 56.7493 182.856 57.6422 182.329C58.535 182.854 59.326 183.514 59.4091 183.828V191.515H55.871L55.869 183.867ZM208.785 106.6H407.717V109.225H9.89729V106.6H208.785ZM317.729 169.849L309.486 161.066C308.739 160.264 307.327 160.264 306.58 161.066L298.316 169.849H282.619V158.25H368.807V169.849H317.729ZM312.31 169.849H303.756L308.033 165.299L312.31 169.849ZM208.827 194.397H138.98V190.257H278.632V194.397H208.827ZM119.296 169.849L111.032 161.066C110.285 160.264 108.873 160.264 108.126 161.066L99.8826 169.849H48.8012V158.25H135.014V169.849H119.296ZM113.856 169.849H105.323L109.579 165.299L113.856 169.849ZM77.5415 129.579C77.5415 124.995 81.2995 121.264 85.9297 121.264C90.5807 121.264 94.3388 124.995 94.3388 129.579V140.74H77.5415V129.579ZM98.3253 129.579C98.3253 125.647 105.862 121.264 116.659 121.264C127.477 121.264 135.014 125.647 135.014 129.579V140.74H98.3253V129.579ZM196.41 129.579V154.311H179.655V129.579C179.655 124.995 183.433 121.264 188.064 121.264C192.507 121.264 196.161 124.724 196.431 129.074C196.431 129.242 196.41 129.409 196.41 129.579ZM198.404 158.25H278.632V162.08H138.98V158.25H198.404ZM217.174 154.311H200.438V129.579C200.438 129.409 200.418 129.242 200.418 129.074C200.667 124.724 204.321 121.264 208.785 121.264C213.415 121.264 217.174 124.995 217.174 129.579V154.311ZM237.957 154.311H221.16V129.579C221.16 124.995 224.939 121.264 229.569 121.264C234.199 121.264 237.957 124.995 237.957 129.579V154.311ZM319.307 140.74H282.619V129.579C282.619 125.647 290.135 121.264 300.953 121.264C311.77 121.264 319.307 125.647 319.307 129.579V140.74ZM208.827 186.318H138.98V182.179H278.632V186.318H208.827ZM208.785 174.098H278.632V178.238H138.98V174.098H208.785ZM208.827 170.159H138.98V166.019H278.632V170.159H208.827ZM278.632 142.71V154.311H241.944V129.579C241.944 125.647 249.481 121.264 260.278 121.264C271.095 121.264 278.632 125.647 278.632 129.579V142.71ZM175.668 154.311H138.98V129.579C138.98 125.647 146.517 121.264 157.334 121.264C168.152 121.264 175.668 125.647 175.668 129.579V154.311ZM75.5481 144.681H135.014V154.311H48.8012V144.681H75.5481ZM368.807 154.311H282.619V144.681H368.807V154.311ZM323.273 140.74V129.579C323.273 124.995 327.052 121.264 331.682 121.264C336.312 121.264 340.07 124.995 340.07 129.579V140.74H323.273ZM340.07 120.604C337.87 118.575 334.921 117.323 331.682 117.323C326.948 117.323 322.837 119.966 320.74 123.84C317.065 119.936 309.673 117.323 300.953 117.323C291.796 117.323 284.093 120.217 280.626 124.463C277.158 120.217 269.455 117.323 260.278 117.323C251.578 117.323 244.186 119.936 240.491 123.84C238.414 119.966 234.282 117.323 229.569 117.323C225.209 117.323 221.388 119.566 219.167 122.939C216.966 119.566 213.145 117.323 208.785 117.323C204.446 117.323 200.625 119.547 198.425 122.898C196.203 119.547 192.382 117.323 188.064 117.323C183.33 117.323 179.219 119.966 177.121 123.84C173.426 119.936 166.055 117.323 157.334 117.323C148.157 117.323 140.474 120.217 137.007 124.463C133.519 120.217 125.836 117.323 116.659 117.323C107.959 117.323 100.568 119.936 96.8719 123.84C94.7748 119.966 90.6637 117.323 85.9297 117.323C82.6907 117.323 79.7424 118.575 77.5415 120.604V113.164H340.07V120.604ZM9.89729 147.527V113.164H73.555V140.74H46.8121C45.7116 140.74 44.823 141.622 44.823 142.71V147.527H9.89729ZM370.8 140.74H344.057V113.164H407.717V147.527H372.793V142.71C372.793 141.622 371.9 140.74 370.8 140.74ZM379.52 42.9105H387.161C387.182 42.9105 387.203 42.9065 387.203 42.9045C387.224 42.9065 387.244 42.9105 387.265 42.9105H394.906C401.426 55.9197 401.696 87.9163 401.654 96.0944H398.498C398.498 90.0359 398.145 72.1442 393.972 64.8625C393.619 64.2457 392.975 63.8655 392.248 63.8655H387.265C387.244 63.8655 387.224 63.8675 387.203 63.8695C387.203 63.8675 387.182 63.8655 387.161 63.8655H382.178C381.452 63.8655 380.808 64.2457 380.455 64.8625C376.281 72.1442 375.928 90.0359 375.928 96.0944H372.772C372.731 87.9163 373.001 55.9197 379.52 42.9105ZM392.248 96.0944V87.2297C392.248 86.1421 391.355 85.2602 390.255 85.2602H384.068C382.967 85.2602 382.074 86.1421 382.074 87.2297V96.0944H379.915C379.894 88.8538 380.476 74.2926 383.403 67.8045H387.161C387.182 67.8045 387.203 67.8003 387.203 67.7982C387.224 67.8003 387.244 67.8045 387.265 67.8045H391.023C393.93 74.2926 394.532 88.8538 394.511 96.0944H392.248ZM388.262 96.0944H386.061V89.1992H388.262V96.0944ZM327.613 84.9396C329.024 83.5498 330.52 82.0634 331.682 80.3242C332.824 82.0634 334.34 83.5498 335.752 84.9396C339.531 88.6441 341.856 90.9569 338.223 96.0944H325.121C321.508 90.9569 323.834 88.6441 327.613 84.9396ZM265.697 28.779H273.359C273.359 28.779 273.379 28.7768 273.4 28.7748C273.421 28.7768 273.442 28.779 273.442 28.779H281.082C287.81 42.5735 289.159 86.2244 289.367 96.0944H284.654C286.419 92.5214 285.983 89.6885 284.674 87.3017C284.716 83.184 284.799 58.804 280.169 50.7308C279.816 50.114 279.151 49.7338 278.446 49.7338H273.442C273.442 49.7338 273.421 49.738 273.4 49.74C273.379 49.738 273.359 49.7338 273.359 49.7338H268.355C267.649 49.7338 266.984 50.114 266.631 50.7308C261.877 59.0301 262.084 84.5593 262.126 87.5937C260.942 89.9167 260.61 92.6653 262.313 96.0944H257.599C259.551 92.3363 259.261 89.3245 258.015 86.7753C258.056 82.306 258.575 43.0422 265.697 28.779ZM266.922 96.0944C263.309 90.9569 265.635 88.6441 269.414 84.9396C270.825 83.5498 272.321 82.0634 273.483 80.3242C274.625 82.0634 276.141 83.5498 277.553 84.9396C278.902 86.2656 280.065 87.4127 280.833 88.5722C280.916 88.7572 281.02 88.9238 281.145 89.0759C282.245 91.0063 282.162 93.06 280.024 96.0944H266.922ZM273.359 53.6728C273.359 53.6728 273.379 53.6686 273.4 53.6686C273.421 53.6686 273.442 53.6728 273.442 53.6728H277.2C279.795 59.6285 280.563 73.5422 280.688 82.4726C280.584 82.3636 280.46 82.2505 280.356 82.1415C277.885 79.7157 275.539 77.4214 275.539 74.313C275.539 73.2255 274.646 72.3435 273.566 72.3435C273.525 72.3435 273.504 72.3497 273.483 72.3517C273.442 72.3497 273.421 72.3435 273.4 72.3435C272.3 72.3435 271.407 73.2255 271.407 74.313C271.407 77.4214 269.081 79.7157 266.611 82.1415C266.444 82.3019 266.278 82.4664 266.112 82.6288C266.237 73.7025 266.984 59.6613 269.601 53.6728H273.359ZM241.01 83.4676C242.629 81.8743 244.353 80.1659 245.619 78.1492C246.906 80.1659 248.63 81.8743 250.249 83.4676C254.36 87.5011 257.122 90.2332 252.948 96.0944H238.31C234.137 90.2332 236.899 87.5011 241.01 83.4676ZM200.833 4.37647H208.785C208.848 4.37647 208.91 4.36411 208.972 4.35589C209.034 4.36411 209.097 4.37647 209.18 4.37647H217.111C226.829 16.2755 227.618 72.6108 227.078 96.0944H222.883C227.285 88.3871 224.025 83.1654 220.08 78.953C220.143 71.7824 220.205 34.4571 215.554 26.3285C215.201 25.7117 214.537 25.3293 213.831 25.3293H208.827C208.827 25.3293 208.827 25.3333 208.806 25.3333L208.785 25.3293H203.802C203.075 25.3293 202.411 25.7117 202.058 26.3285C197.407 34.4571 197.49 71.7824 197.532 78.953C193.587 83.1654 190.327 88.3871 194.729 96.0944H190.887C190.327 72.6108 191.137 16.2755 200.833 4.37647ZM208.827 96.0944H199.463C194.417 89.1539 196.763 85.4022 200.957 81.1096C200.957 81.1034 200.958 81.0993 200.978 81.0932C201.539 80.5134 202.12 79.9255 202.743 79.319C204.903 77.2056 207.207 74.9319 208.806 72.21C210.405 74.9319 212.709 77.2056 214.869 79.319C215.492 79.9255 216.073 80.5134 216.655 81.0932C216.655 81.0993 216.654 81.1034 216.675 81.1096C220.869 85.4022 223.195 89.1539 218.15 96.0944H208.827ZM208.785 29.2703L208.806 29.266C208.827 29.266 208.827 29.2703 208.827 29.2703H212.564C215.429 36.5807 216.073 61.3204 216.115 74.9689C213.332 72.1504 210.986 69.305 210.799 65.6107C210.799 65.4463 210.82 65.288 210.82 65.1215C210.82 64.0339 209.927 63.152 208.827 63.152L208.806 63.1562L208.785 63.152C207.685 63.152 206.792 64.0339 206.792 65.1215C206.792 65.288 206.813 65.4463 206.813 65.6107C206.626 69.3071 204.3 72.1504 201.518 74.9689C201.539 61.3224 202.183 36.5807 205.048 29.2703H208.785ZM167.363 83.4676C168.982 81.8743 170.726 80.1659 171.993 78.1492C173.259 80.1659 175.004 81.8743 176.623 83.4676C180.734 87.5011 183.475 90.2332 179.302 96.0944H164.684C160.511 90.2332 163.252 87.5011 167.363 83.4676ZM136.53 28.779H144.17C144.191 28.779 144.212 28.7768 144.212 28.7748C144.233 28.7768 144.253 28.779 144.274 28.779H151.915C159.037 43.0422 159.577 82.306 159.597 86.7753C158.352 89.3245 158.061 92.3363 160.013 96.0944H155.299C157.023 92.6653 156.69 89.9167 155.486 87.5937C155.528 84.5593 155.736 59.0301 150.981 50.7308C150.628 50.114 149.963 49.7338 149.257 49.7338H144.274C144.253 49.7338 144.233 49.738 144.212 49.74C144.212 49.738 144.191 49.7338 144.17 49.7338H139.187C138.46 49.7338 137.796 50.114 137.443 50.7308C132.834 58.804 132.896 83.184 132.938 87.3017C131.629 89.6885 131.193 92.5214 132.979 96.0944H128.245C128.474 86.2244 129.802 42.5755 136.53 28.779ZM137.589 96.0944C135.45 93.06 135.388 91.0063 136.467 89.0759C136.592 88.9238 136.716 88.7572 136.779 88.5722C137.568 87.4106 138.71 86.2635 140.059 84.9396C141.492 83.5498 142.987 82.0634 144.15 80.3242C145.292 82.0634 146.786 83.5498 148.219 84.9396C151.977 88.6441 154.324 90.9569 150.69 96.0944H137.589ZM144.17 53.6728C144.191 53.6728 144.212 53.6686 144.212 53.6686C144.233 53.6686 144.253 53.6728 144.274 53.6728H148.011C150.628 59.6613 151.396 73.7025 151.5 82.6288C151.334 82.4664 151.167 82.3019 151.022 82.1415C148.551 79.7157 146.205 77.4214 146.205 74.313C146.205 73.2255 145.312 72.3435 144.212 72.3435C144.191 72.3435 144.17 72.3497 144.15 72.3517C144.108 72.3497 144.087 72.3435 144.066 72.3435C142.966 72.3435 142.073 73.2255 142.073 74.313C142.073 77.4214 139.727 79.7157 137.256 82.1415C137.152 82.2505 137.049 82.3636 136.924 82.4726C137.049 73.5422 137.817 59.6285 140.412 53.6728H144.17ZM81.8602 84.9396C83.2721 83.5498 84.7877 82.0634 85.9297 80.3242C87.0924 82.0634 88.5874 83.5498 90.0201 84.9396C93.7782 88.6441 96.1245 90.9569 92.491 96.0944H79.3893C75.7558 90.9569 78.1021 88.6441 81.8602 84.9396ZM22.7122 42.9105H30.3573C30.3739 42.9105 30.3883 42.9065 30.4049 42.9045C30.4216 42.9065 30.4383 42.9105 30.4528 42.9105H38.0999C44.6195 55.9197 44.8852 87.9163 44.8436 96.0944H41.6898C41.6961 90.0359 41.3452 72.1442 37.1739 64.8625C36.8188 64.2457 36.1586 63.8655 35.4422 63.8655H30.4528C30.4383 63.8655 30.4216 63.8675 30.4049 63.8695C30.3883 63.8675 30.3739 63.8655 30.3573 63.8655H25.3679C24.6515 63.8655 23.9912 64.2457 23.6383 64.8625C19.467 72.1442 19.1161 90.0359 19.1223 96.0944H15.9685C15.9249 87.9163 16.1926 55.9197 22.7122 42.9105ZM35.5377 96.0944V87.2297C35.5377 86.1421 34.647 85.2602 33.5486 85.2602H27.359C26.2606 85.2602 25.3699 86.1421 25.3699 87.2297V96.0944H23.0985C23.0861 88.8538 23.6798 74.2926 26.595 67.8045H30.3573C30.3739 67.8045 30.3883 67.8003 30.4049 67.7982C30.4216 67.8003 30.4383 67.8045 30.4528 67.8045H34.2171C37.1323 74.2926 37.7261 88.8538 37.7116 96.0944H35.5377ZM31.5575 96.0944H29.3481V89.1992H31.5575V96.0944ZM13.998 100.033H407.717V102.658H9.89729V100.033H13.998ZM9.45283 151.466H44.823V154.311H42.3896C41.2912 154.311 40.4004 155.193 40.4004 156.28C40.4004 157.368 41.2912 158.25 42.3896 158.25H44.823V169.849H4.72111L9.45283 151.466ZM4.15012 173.788H44.823V191.515H42.3896C41.2912 191.515 40.4004 192.399 40.4004 193.486C40.4004 194.572 41.2912 195.456 42.3896 195.456H43.6414L36.2788 210.556H4.15012V173.788ZM48.0599 195.456H135.014V210.556H40.6973L48.0599 195.456ZM208.785 210.556H138.98V206.418H278.632V210.556H208.785ZM282.619 210.556V195.456H369.554L376.925 210.556H282.619ZM381.348 210.556L373.977 195.456H375.223C376.323 195.456 377.216 194.572 377.216 193.486C377.216 192.399 376.323 191.515 375.223 191.515H372.793V173.788H413.468V210.556H381.348ZM375.223 169.849H372.793V158.25H375.223C376.323 158.25 377.216 157.368 377.216 156.28C377.216 155.193 376.323 154.311 375.223 154.311H372.793V151.466H408.174L412.887 169.849H375.223Z" fill="#E6F7FF" fill-opacity="0.39"/>
</svg>
