<svg width="23" height="16" viewBox="0 0 23 16" fill="none" xmlns="http://www.w3.org/2000/svg">
<path d="M21.8767 11.7139C21.8081 11.3973 21.7459 10.8998 21.7002 10.5401C21.5092 8.98588 21.2911 7.22408 19.8606 6.30719C19.3186 5.95976 18.4154 5.6329 17.178 6.01528C16.7544 6.14686 16.5198 6.10776 16.5239 6.13654C16.5052 6.09337 16.4824 5.83832 16.7191 5.43126C17.5829 3.94491 17.1863 2.8267 16.8727 2.29013C15.9135 0.645481 13.7188 0.509766 11.5553 0.509766C9.39179 0.509766 7.19713 0.645481 6.23788 2.29013C5.92435 2.8267 5.52777 3.94496 6.38944 5.42926C6.62199 5.82808 6.60537 6.07903 6.63651 6.08314C6.5846 6.10781 6.35413 6.14686 5.93264 6.01528C4.69516 5.6329 3.79198 5.96182 3.25006 6.30719C1.81948 7.22408 1.60147 8.98588 1.41045 10.5401C1.36477 10.8998 1.30246 11.3973 1.23394 11.7139C0.617274 12.1518 0.285081 12.9248 0.447033 13.7081C0.640131 14.6415 1.46858 15.2829 2.39462 15.2829C2.52542 15.2829 2.66037 15.2685 2.79533 15.2417C4.89033 14.8162 5.16027 12.6206 5.35752 11.0191C5.39489 10.7189 5.4468 10.3077 5.50909 9.96228C7.20959 10.2686 8.7419 9.77115 9.70531 8.58083C10.6044 7.47069 10.812 5.98034 10.3012 4.48166C10.6147 4.4611 11.0238 4.44873 11.5553 4.44873C12.0827 4.44873 12.4897 4.4611 12.8032 4.48166C12.2945 5.95978 12.5 7.46247 13.4053 8.58083C14.3687 9.77115 15.901 10.2624 17.6015 9.96228C17.6638 10.3077 17.7157 10.7189 17.751 11.0191C17.9504 12.6206 18.2203 14.8162 20.3153 15.2417C20.4502 15.2685 20.5852 15.2829 20.716 15.2829C21.642 15.2829 22.4705 14.6415 22.6636 13.7081C22.8255 12.9248 22.4933 12.1518 21.8767 11.7139Z" fill="#E6F7FF" fill-opacity="0.39"/>
</svg>
