<svg width="124" height="214" viewBox="0 0 124 214" fill="none" xmlns="http://www.w3.org/2000/svg">
<path d="M121.671 151.728C122.77 151.728 123.661 150.846 123.661 149.759C123.661 148.671 122.77 147.789 121.671 147.789H121.582V93.785C121.582 92.6975 120.691 91.8155 119.593 91.8155H93.8966V57.8372H94.8081C95.9064 57.8372 96.7972 56.9553 96.7972 55.8677C96.7972 54.7802 95.9064 53.8983 94.8081 53.8983H93.8966V44.3777C93.8966 35.6384 91.1787 16.1103 67.436 13.4891L66.1985 2.62835C66.0843 1.63129 65.233 0.878906 64.2219 0.878906H59.5793C58.566 0.878906 57.7147 1.63129 57.6026 2.62835L56.3651 13.4891C32.6225 16.1103 29.9046 35.6384 29.9046 44.3777V53.8983H28.9931C27.8947 53.8983 27.004 54.7802 27.004 55.8677C27.004 56.9553 27.8947 57.8372 28.9931 57.8372H29.9046V91.8155H4.20809C3.10972 91.8155 2.21902 92.6975 2.21902 93.785V147.789H2.1297C1.03133 147.789 0.140625 148.671 0.140625 149.759C0.140625 150.846 1.03133 151.728 2.1297 151.728H2.21902V191.451H2.1297C1.03133 191.451 0.140625 192.334 0.140625 193.422C0.140625 194.507 1.03133 195.391 2.1297 195.391H2.21902V211.149C2.21902 212.237 3.10972 213.119 4.20809 213.119H119.593C120.691 213.119 121.582 212.237 121.582 211.149V195.391H121.671C122.77 195.391 123.661 194.507 123.661 193.422C123.661 192.334 122.77 191.451 121.671 191.451H121.582V151.728H121.671ZM61.9006 128.255H6.19722V117.094H117.604V128.255H61.9006ZM15.3164 106.916H12.3307V102.812C12.3307 101.998 13.0013 101.336 13.8235 101.336C14.6457 101.336 15.3164 101.998 15.3164 102.812V106.916ZM10.3415 110.856H117.604V113.155H6.19722V110.856H10.3415ZM28.9391 106.916H25.9554V102.812C25.9554 101.998 26.624 101.336 27.4483 101.336C28.2705 101.336 28.9391 101.998 28.9391 102.812V106.916ZM42.5638 106.916H39.5802V102.812C39.5802 101.998 40.2488 101.336 41.071 101.336C41.8932 101.336 42.5638 101.998 42.5638 102.812V106.916ZM56.1866 106.916H53.2029V102.812C53.2029 101.998 53.8736 101.336 54.6958 101.336C55.518 101.336 56.1866 101.998 56.1866 102.812V106.916ZM70.5982 106.916H67.6125V102.812C67.6125 101.998 68.2831 101.336 69.1054 101.336C69.9276 101.336 70.5982 101.998 70.5982 102.812V106.916ZM84.2209 106.916H81.2373V102.812C81.2373 101.998 81.9059 101.336 82.7302 101.336C83.5524 101.336 84.2209 101.998 84.2209 102.812V106.916ZM97.8457 106.916H94.8621V102.812C94.8621 101.998 95.5306 101.336 96.3528 101.336C97.1751 101.336 97.8457 101.998 97.8457 102.812V106.916ZM111.468 106.916H108.485V102.812C108.485 101.998 109.155 101.336 109.978 101.336C110.8 101.336 111.468 101.998 111.468 102.812V106.916ZM61.3566 4.81777H62.4445L63.4017 13.2261C62.9034 13.2117 62.4155 13.189 61.9006 13.189C61.3856 13.189 60.8956 13.2117 60.3994 13.2261L61.3566 4.81777ZM61.9006 17.1279C72.0662 17.1279 88.9196 20.475 89.8706 42.4084H33.9306C34.8794 20.475 51.7349 17.1279 61.9006 17.1279ZM33.8828 46.3472H89.9183V53.8983H33.8828V46.3472ZM33.8828 57.8372H89.9183V91.8155H88.6746V68.2006C88.6746 63.5853 84.8812 59.8292 80.2199 59.8292C75.5565 59.8292 71.7651 63.5853 71.7651 68.2006V91.8155H70.3553V68.2006C70.3553 63.5853 66.5619 59.8292 61.9006 59.8292C57.2372 59.8292 53.4458 63.5853 53.4458 68.2006V91.8155H52.036V68.2006C52.036 63.5853 48.2447 59.8292 43.5813 59.8292C38.9179 59.8292 35.1265 63.5853 35.1265 68.2006V91.8155H33.8828V57.8372ZM84.6944 91.8155H75.7433V68.2006C75.7433 65.7562 77.7512 63.7702 80.2199 63.7702C82.6886 63.7702 84.6944 65.7562 84.6944 68.2006V91.8155ZM61.9006 91.8155H57.424V68.2006C57.424 65.7562 59.4318 63.7702 61.9006 63.7702C64.3693 63.7702 66.3771 65.7562 66.3771 68.2006V91.8155H61.9006ZM48.0578 91.8155H39.1047V68.2006C39.1047 65.7562 41.1125 63.7702 43.5813 63.7702C46.05 63.7702 48.0578 65.7562 48.0578 68.2006V91.8155ZM6.19722 95.7545H117.604V106.916H115.449V102.812C115.449 99.8271 112.994 97.3951 109.978 97.3951C106.961 97.3951 104.507 99.8271 104.507 102.812V106.916H101.824V102.812C101.824 99.8271 99.3697 97.3951 96.3528 97.3951C93.336 97.3951 90.8818 99.8271 90.8818 102.812V106.916H88.1992V102.812C88.1992 99.8271 85.745 97.3951 82.7302 97.3951C79.7133 97.3951 77.2591 99.8271 77.2591 102.812V106.916H74.5765V102.812C74.5765 99.8271 72.1223 97.3951 69.1054 97.3951C66.0885 97.3951 63.6343 99.8271 63.6343 102.812V106.916H60.1668V102.812C60.1668 99.8271 57.7127 97.3951 54.6958 97.3951C51.6789 97.3951 49.2247 99.8271 49.2247 102.812V106.916H46.5421V102.812C46.5421 99.8271 44.0879 97.3951 41.071 97.3951C38.0541 97.3951 35.5999 99.8271 35.5999 102.812V106.916H32.9173V102.812C32.9173 99.8271 30.4631 97.3951 27.4483 97.3951C24.4314 97.3951 21.9772 99.8271 21.9772 102.812V106.916H19.2946V102.812C19.2946 99.8271 16.8404 97.3951 13.8235 97.3951C10.8066 97.3951 8.35246 99.8271 8.35246 102.812V106.916H6.19722V95.7545ZM6.19722 132.196H117.604V147.789H111.07V143.918C111.07 140.078 107.916 136.955 104.037 136.955C100.159 136.955 97.0069 140.078 97.0069 143.918V147.789H90.0014V143.918C90.0014 140.078 86.8475 136.955 82.9689 136.955C79.0904 136.955 75.9365 140.078 75.9365 143.918V147.789H68.9309V143.918C68.9309 140.078 65.7771 136.955 61.9006 136.955C58.022 136.955 54.8681 140.078 54.8681 143.918V147.789H47.8626V143.918C47.8626 140.078 44.7087 136.955 40.8322 136.955C36.9537 136.955 33.7997 140.078 33.7997 143.918V147.789H26.7942V143.918C26.7942 140.078 23.6403 136.955 19.7639 136.955C15.8853 136.955 12.7314 140.078 12.7314 143.918V147.789H6.19722V132.196ZM90.0014 151.728H97.0069V191.451H90.0014V151.728ZM90.0014 195.391H97.0069V209.18H90.0014V195.391ZM68.9309 151.728H75.9365V191.451H68.9309V151.728ZM68.9309 195.391H75.9365V209.18H68.9309V195.391ZM47.8626 151.728H54.8681V191.451H47.8626V151.728ZM47.8626 195.391H54.8681V209.18H47.8626V195.391ZM26.7942 151.728H33.7997V191.451H26.7942V151.728ZM26.7942 195.391H33.7997V209.18H26.7942V195.391ZM6.19722 151.728H12.7314V191.451H6.19722V151.728ZM6.19722 195.391H12.7314V209.18H6.19722V195.391ZM16.7096 209.18V195.272C17.4841 195.003 18.0447 194.279 18.0447 193.422C18.0447 192.563 17.4841 191.839 16.7096 191.57V151.611C17.4841 151.342 18.0447 150.618 18.0447 149.759C18.0447 148.899 17.4841 148.176 16.7096 147.906V143.918C16.7096 142.251 18.08 140.894 19.7639 140.894C21.4478 140.894 22.816 142.251 22.816 143.918V147.826C21.8962 148.001 21.2007 148.799 21.2007 149.759C21.2007 150.719 21.8962 151.516 22.816 151.691V191.487C21.8962 191.662 21.2007 192.46 21.2007 193.422C21.2007 194.382 21.8962 195.18 22.816 195.355V209.18H16.7096ZM37.778 209.18V195.27C38.5504 194.999 39.1047 194.277 39.1047 193.422C39.1047 192.565 38.5504 191.843 37.778 191.572V151.607C38.5504 151.336 39.1047 150.616 39.1047 149.759C39.1047 148.901 38.5504 148.182 37.778 147.908V143.918C37.778 142.251 39.1483 140.894 40.8322 140.894C42.5161 140.894 43.8844 142.251 43.8844 143.918V147.824C42.9604 147.997 42.2607 148.795 42.2607 149.759C42.2607 150.721 42.9604 151.52 43.8844 151.691V191.487C42.9604 191.658 42.2607 192.458 42.2607 193.422C42.2607 194.384 42.9604 195.184 43.8844 195.355V209.18H37.778ZM61.9006 209.18H58.8484V195.268C59.6146 194.995 60.1668 194.273 60.1668 193.422C60.1668 192.569 59.6146 191.847 58.8484 191.574V151.605C59.6146 151.331 60.1668 150.612 60.1668 149.759C60.1668 148.906 59.6146 148.186 58.8484 147.912V143.918C58.8484 142.251 60.2167 140.894 61.9006 140.894C63.5845 140.894 64.9527 142.251 64.9527 143.918V147.912C64.1866 148.186 63.6343 148.906 63.6343 149.759C63.6343 150.612 64.1866 151.331 64.9527 151.605V191.574C64.1866 191.847 63.6343 192.569 63.6343 193.422C63.6343 194.273 64.1866 194.995 64.9527 195.268V209.18H61.9006ZM79.9168 209.18V195.355C80.8386 195.184 81.5384 194.384 81.5384 193.422C81.5384 192.458 80.8386 191.658 79.9168 191.487V151.691C80.8386 151.52 81.5384 150.721 81.5384 149.759C81.5384 148.795 80.8386 147.997 79.9168 147.824V143.918C79.9168 142.251 81.285 140.894 82.9689 140.894C84.6528 140.894 86.0211 142.251 86.0211 143.918V147.908C85.2508 148.182 84.6944 148.901 84.6944 149.759C84.6944 150.616 85.2508 151.336 86.0211 151.607V191.572C85.2508 191.843 84.6944 192.565 84.6944 193.422C84.6944 194.277 85.2508 194.999 86.0211 195.27V209.18H79.9168ZM100.985 209.18V195.355C101.905 195.18 102.6 194.382 102.6 193.422C102.6 192.46 101.905 191.662 100.985 191.487V151.691C101.905 151.516 102.6 150.719 102.6 149.759C102.6 148.799 101.905 148.001 100.985 147.826V143.918C100.985 142.251 102.353 140.894 104.037 140.894C105.721 140.894 107.09 142.251 107.09 143.918V147.906C106.315 148.176 105.757 148.899 105.757 149.759C105.757 150.618 106.315 151.342 107.09 151.611V191.57C106.315 191.839 105.757 192.563 105.757 193.422C105.757 194.279 106.315 195.003 107.09 195.272V209.18H100.985ZM117.604 209.18H111.07V195.391H117.604V209.18ZM117.604 191.451H111.07V151.728H117.604V191.451Z" fill="#E6F7FF" fill-opacity="0.39"/>
</svg>
