<svg width="10" height="10" viewBox="0 0 10 10" fill="none" xmlns="http://www.w3.org/2000/svg">
<path d="M2.88756 6.6909H3.2862V7.0856C3.2862 8.17312 4.17695 9.05508 5.27532 9.05508C6.37369 9.05508 7.26445 8.17312 7.26445 7.0856V6.6909H7.66511C8.76348 6.6909 9.65424 5.80894 9.65424 4.72142C9.65424 3.63389 8.76348 2.75193 7.66511 2.75193H7.26445V2.35523C7.26445 1.2677 6.37369 0.385742 5.27532 0.385742C4.17695 0.385742 3.2862 1.2677 3.2862 2.35523V2.75193H2.88756C1.78919 2.75193 0.898438 3.63389 0.898438 4.72142C0.898438 5.80894 1.78919 6.6909 2.88756 6.6909Z" fill="#E6F7FF" fill-opacity="0.39"/>
</svg>
