<svg width="10" height="9" viewBox="0 0 10 9" fill="none" xmlns="http://www.w3.org/2000/svg">
<path d="M2.64437 6.40569H3.05964V6.80039C3.05964 7.88791 3.95245 8.77188 5.03213 8.77188C6.13258 8.77188 7.02531 7.88791 7.02531 6.80039V6.40569H7.44058C8.52026 6.40569 9.41307 5.52373 9.41307 4.4362C9.41307 3.34868 8.52026 2.46672 7.44058 2.46672H7.02531V2.07202C7.02531 0.984498 6.13258 0.102539 5.03213 0.102539C3.95245 0.102539 3.05964 0.984498 3.05964 2.07202V2.46672H2.64437C1.56469 2.46672 0.671875 3.34868 0.671875 4.4362C0.671875 5.52373 1.56469 6.40569 2.64437 6.40569Z" fill="#E6F7FF" fill-opacity="0.39"/>
</svg>
