<svg width="12" height="12" viewBox="0 0 12 12" fill="none" xmlns="http://www.w3.org/2000/svg">
<path d="M6.26863 11.2461C7.59332 11.2461 8.66876 10.1813 8.66876 8.86759V8.39269H9.15053C10.4752 8.39269 11.5507 7.32781 11.5507 6.01415C11.5507 4.70254 10.4752 3.63762 9.15053 3.63762H8.66876V3.16061C8.66876 1.84695 7.59332 0.78418 6.26863 0.78418C4.94187 0.78418 3.86627 1.84695 3.86627 3.16061V3.63762H3.38674C2.05997 3.63762 0.984375 4.70254 0.984375 6.01415C0.984375 7.32781 2.05997 8.39269 3.38674 8.39269H3.86627V8.86759C3.86627 10.1813 4.94187 11.2461 6.26863 11.2461Z" fill="#E6F7FF" fill-opacity="0.39"/>
</svg>
