<svg width="10" height="9" viewBox="0 0 10 9" fill="none" xmlns="http://www.w3.org/2000/svg">
<path d="M2.51156 6.57469H2.92682V6.96939C2.92682 8.05691 3.81964 8.94098 4.89932 8.94098C5.99977 8.94098 6.8925 8.05691 6.8925 6.96939V6.57469H7.30776C8.38745 6.57469 9.28026 5.69273 9.28026 4.6052C9.28026 3.51768 8.38745 2.63582 7.30776 2.63582H6.8925V2.23901C6.8925 1.15149 5.99977 0.269531 4.89932 0.269531C3.81964 0.269531 2.92682 1.15149 2.92682 2.23901V2.63582H2.51156C1.41111 2.63582 0.539062 3.51768 0.539062 4.6052C0.539062 5.69273 1.41111 6.57469 2.51156 6.57469Z" fill="#E6F7FF" fill-opacity="0.39"/>
</svg>
