<svg width="213" height="151" viewBox="0 0 213 151" fill="none" xmlns="http://www.w3.org/2000/svg">
<path d="M210.816 102.595H197.341C196.781 76.8565 185.215 53.7594 167.11 37.7426C166.944 37.5062 166.716 37.3108 166.446 37.171C162.065 33.3637 157.31 29.9737 152.244 27.0524C152.015 26.8468 151.745 26.6967 151.455 26.6063C145.039 22.9922 138.125 20.1346 130.858 18.1528V11.3172H134.782C135.882 11.3172 136.775 10.4352 136.775 9.34772V2.34551C136.775 1.25799 135.882 0.374023 134.782 0.374023H78.9497C77.8493 0.374023 76.9565 1.25799 76.9565 2.34551V9.34772C76.9565 10.4352 77.8493 11.3172 78.9497 11.3172H82.874V18.1528C75.6069 20.1346 68.6928 22.9921 62.2769 26.6083C61.9863 26.6967 61.7164 26.8467 61.488 27.0502C56.4218 29.9715 51.6669 33.3636 47.2859 37.173C47.016 37.3128 46.7876 37.504 46.6215 37.7384C28.516 53.7552 16.951 76.8544 16.3904 102.595H2.89437C1.79393 102.595 0.921875 103.477 0.921875 104.565V148.543C0.921875 149.63 1.79393 150.512 2.89437 150.512H210.816C211.917 150.512 212.81 149.63 212.81 148.543V104.565C212.81 103.477 211.917 102.595 210.816 102.595ZM106.855 125.715C102.225 125.715 98.4671 129.446 98.4671 134.033V146.573H87.1096V121.556H126.601V146.573H115.265V134.033C115.265 129.446 111.486 125.715 106.855 125.715ZM4.88755 121.556H83.1439V132.501H4.88755V121.556ZM106.855 84.4834C116.884 84.4834 124.151 87.8241 126.601 89.1274V92.9698C122.864 91.2553 115.929 88.7946 106.855 88.7946C97.782 88.7946 90.8469 91.2553 87.1096 92.9698V89.1274C89.5804 87.8241 96.8476 84.4834 106.855 84.4834ZM87.1096 97.3776C89.5804 96.0721 96.8476 92.7333 106.855 92.7333C116.884 92.7333 124.151 96.0742 126.601 97.3776V102.595H87.1096V97.3776ZM106.855 106.534H126.601V117.617H87.1096V106.534H106.855ZM130.588 121.556H208.844V132.501H130.588V121.556ZM208.844 117.617H130.588V106.534H208.844V117.617ZM106.855 36.9285H53.8056C56.8786 34.5602 60.1175 32.3974 63.5019 30.4505H150.23C153.614 32.3974 156.832 34.5602 159.905 36.9285H106.855ZM106.855 18.8723C119.562 18.8723 131.626 21.621 142.506 26.5117H71.2051C82.085 21.621 94.1484 18.8723 106.855 18.8723ZM80.9222 4.315H132.788V7.37824H80.9222V4.315ZM86.8397 11.3172H126.871V17.168C120.434 15.7207 113.749 14.9333 106.855 14.9333C99.9828 14.9333 93.297 15.7207 86.8397 17.168V11.3172ZM49.0508 40.8673H164.681C181.852 56.1543 192.794 78.1249 193.355 102.595H130.588V98.2059H134.782C135.882 98.2059 136.775 97.324 136.775 96.2364C136.775 95.1489 135.882 94.267 134.782 94.267H130.588V89.956H134.782C135.882 89.956 136.775 89.074 136.775 87.9865C136.775 86.899 135.882 86.017 134.782 86.017H130.588V77.1957C130.588 76.1082 129.695 75.2262 128.594 75.2262C127.494 75.2262 126.601 76.1082 126.601 77.1957V84.7199C122.864 83.0053 115.929 80.5444 106.855 80.5444C97.782 80.5444 90.8469 83.0053 87.1096 84.7199V77.1957C87.1096 76.1082 86.2375 75.2262 85.1371 75.2262C84.0366 75.2262 83.1439 76.1082 83.1439 77.1957V86.017H78.9497C77.8493 86.017 76.9565 86.899 76.9565 87.9865C76.9565 89.074 77.8493 89.956 78.9497 89.956H83.1439V94.267H78.9497C77.8493 94.267 76.9565 95.1489 76.9565 96.2364C76.9565 97.324 77.8493 98.2059 78.9497 98.2059H83.1439V102.595H20.3561C20.9375 78.1249 31.8797 56.1543 49.0508 40.8673ZM83.1439 106.534V117.617H4.88755V106.534H83.1439ZM4.88755 136.44H83.1439V146.573H4.88755V136.44ZM106.855 146.573H102.433V134.033C102.433 131.619 104.426 129.656 106.855 129.656C109.305 129.656 111.278 131.619 111.278 134.033V146.573H106.855ZM130.588 146.573V136.44H208.844V146.573H130.588Z" fill="#E6F7FF" fill-opacity="0.39"/>
</svg>
