<svg width="10" height="9" viewBox="0 0 10 9" fill="none" xmlns="http://www.w3.org/2000/svg">
<path d="M2.89538 6.52776H3.29401V6.92246C3.29401 8.00998 4.18684 8.89194 5.28521 8.89194C6.38151 8.89194 7.27434 8.00998 7.27434 6.92246V6.52776H7.67298C8.77135 6.52776 9.6621 5.6458 9.6621 4.55828C9.6621 3.47075 8.77135 2.58879 7.67298 2.58879H7.27434V2.19409C7.27434 1.10657 6.38358 0.224609 5.28521 0.224609C4.18684 0.224609 3.29401 1.10657 3.29401 2.19409V2.58879H2.89538C1.797 2.58879 0.90625 3.47075 0.90625 4.55828C0.90625 5.6458 1.797 6.52776 2.89538 6.52776Z" fill="#E6F7FF" fill-opacity="0.39"/>
</svg>
