<svg width="15" height="15" viewBox="0 0 15 15" fill="none" xmlns="http://www.w3.org/2000/svg">
<path d="M2.52523 9.4911H4.80299V11.7463C4.80299 13.0599 5.87853 14.1229 7.20322 14.1229C8.52999 14.1229 9.60345 13.0599 9.60345 11.7463V9.4911H11.8811C13.2079 9.4911 14.2834 8.42628 14.2834 7.11467C14.2834 5.80307 13.2079 4.73804 11.8811 4.73804H9.60345V2.48287C9.60345 1.17127 8.52791 0.106445 7.20322 0.106445C5.87853 0.106445 4.80299 1.17127 4.80299 2.48287V4.73804H2.52523C1.20054 4.73804 0.125 5.80307 0.125 7.11467C0.125 8.42628 1.20054 9.4911 2.52523 9.4911Z" fill="#E6F7FF" fill-opacity="0.39"/>
</svg>
