<svg width="40" height="49" viewBox="0 0 40 49" fill="none" xmlns="http://www.w3.org/2000/svg">
<path d="M28.9042 0.668945C25.3267 0.668945 22.1645 2.42658 20.2293 5.10942C18.2942 2.42658 15.13 0.668945 11.5545 0.668945C5.67442 0.668945 0.890625 5.40541 0.890625 11.2275C0.890625 12.315 1.78341 13.199 2.88178 13.199H18.2403V46.8424C18.2403 47.9299 19.131 48.8119 20.2293 48.8119C21.3277 48.8119 22.2185 47.9299 22.2185 46.8424V13.199H37.577C38.6754 13.199 39.5661 12.315 39.5661 11.2275C39.5661 5.40541 34.7844 0.668945 28.9042 0.668945ZM5.17201 9.25798C6.02122 6.56898 8.56258 4.60992 11.5545 4.60992C14.5486 4.60992 17.09 6.56898 17.9392 9.25798H5.17201ZM22.5216 9.25798C23.3708 6.56898 25.9102 4.60992 28.9042 4.60992C31.8962 4.60992 34.4376 6.56898 35.2868 9.25798H22.5216Z" fill="#E6F7FF" fill-opacity="0.39"/>
</svg>
