<svg width="15" height="15" viewBox="0 0 15 15" fill="none" xmlns="http://www.w3.org/2000/svg">
<path d="M7.46093 14.916C8.7877 14.916 9.86319 13.8511 9.86319 12.5395V10.2843H12.1389C13.4657 10.2843 14.5412 9.2194 14.5412 7.9078C14.5412 6.59413 13.4657 5.52926 12.1389 5.52926H9.86319V3.27399C9.86319 1.96238 8.7877 0.897461 7.46093 0.897461C6.13625 0.897461 5.0607 1.96238 5.0607 3.27399V5.52926H2.78304C1.45628 5.52926 0.382812 6.59413 0.382812 7.9078C0.382812 9.2194 1.45628 10.2843 2.78304 10.2843H5.0607V12.5395C5.0607 13.8511 6.13625 14.916 7.46093 14.916Z" fill="#E6F7FF" fill-opacity="0.39"/>
</svg>
