<svg width="12" height="12" viewBox="0 0 12 12" fill="none" xmlns="http://www.w3.org/2000/svg">
<path d="M5.89937 11.925C6.99981 11.925 7.89255 11.043 7.89255 9.95547V8.08677H9.78211C10.8826 8.08677 11.7753 7.20481 11.7753 6.11729C11.7753 5.02977 10.8826 4.1458 9.78211 4.1458H7.89255V2.27911C7.89255 1.19158 6.99981 0.307617 5.89937 0.307617C4.79892 0.307617 3.90619 1.19158 3.90619 2.27911V4.1458H2.01662C0.916171 4.1458 0.0234375 5.02977 0.0234375 6.11729C0.0234375 7.20481 0.916171 8.08677 2.01662 8.08677H3.90619V9.95547C3.90619 11.043 4.79892 11.925 5.89937 11.925Z" fill="#E6F7FF" fill-opacity="0.39"/>
</svg>
