<svg width="243" height="95" viewBox="0 0 243 95" fill="none" xmlns="http://www.w3.org/2000/svg">
<path d="M232.298 68.4125C231.991 67.6765 231.264 67.1974 230.461 67.1974H223.497V64.8991C223.497 63.8116 222.606 62.9296 221.508 62.9296H202.275V41.3723C202.275 40.2848 201.386 39.4028 200.286 39.4028C199.187 39.4028 198.297 40.2848 198.297 41.3723V62.9296H196.972V34.8616C196.972 33.7741 196.081 32.8921 194.983 32.8921C193.885 32.8921 192.994 33.7741 192.994 34.8616V39.4028H170.667V21.7845C170.667 20.697 169.776 19.815 168.678 19.815C167.578 19.815 166.689 20.697 166.689 21.7845V28.2398H145.91V2.9636C145.91 1.87607 145.019 0.994114 143.92 0.994114C142.821 0.994114 141.931 1.87607 141.931 2.9636V17.0788H135.521V2.9636C135.521 1.87607 134.631 0.994114 133.532 0.994114C132.433 0.994114 131.542 1.87607 131.542 2.9636V17.0788H129.773V11.4994C129.773 6.3599 126.391 1.71365 121.906 0.685742C121.882 0.681631 121.859 0.681622 121.835 0.677511C121.784 0.667232 121.731 0.665208 121.679 0.659041C121.605 0.650817 121.531 0.642578 121.459 0.642578C121.385 0.642578 121.311 0.650817 121.237 0.659041C121.186 0.665208 121.134 0.667232 121.084 0.677511C121.059 0.681622 121.035 0.681631 121.01 0.685742C116.525 1.71365 113.143 6.3599 113.143 11.4994V17.0788H111.374V2.9636C111.374 1.87607 110.484 0.994114 109.385 0.994114C108.286 0.994114 107.395 1.87607 107.395 2.9636V17.0788H100.985V2.9636C100.985 1.87607 100.095 0.994114 98.996 0.994114C97.897 0.994114 97.0067 1.87607 97.0067 2.9636V28.2398H76.2282V21.7845C76.2282 20.697 75.3376 19.815 74.2386 19.815C73.1398 19.815 72.2493 20.697 72.2493 21.7845V39.4028H49.9231V34.8616C49.9231 33.7741 49.0326 32.8921 47.9336 32.8921C46.8348 32.8921 45.9443 33.7741 45.9443 34.8616V62.9296H44.6194V41.3723C44.6194 40.2848 43.7289 39.4028 42.6301 39.4028C41.5311 39.4028 40.6406 40.2848 40.6406 41.3723V62.9296H21.4085C20.3095 62.9296 19.4192 63.8116 19.4192 64.8991V67.1974H12.4563C11.6521 67.1974 10.926 67.6765 10.6185 68.4125L1.00311 91.3922C0.748557 92.0007 0.817901 92.6936 1.18686 93.2404C1.55603 93.7893 2.17643 94.1161 2.84085 94.1161H240.076C240.741 94.1161 241.359 93.7893 241.729 93.2404C242.099 92.6936 242.167 92.0007 241.914 91.3922L232.298 68.4125ZM192.994 46.8429H129.773V43.3418H192.994V46.8429ZM166.689 39.4028H129.773V32.1808H166.689V39.4028ZM141.931 28.2398H129.773V21.0178H141.931V28.2398ZM121.458 4.68433C123.734 5.44704 125.232 7.78662 125.656 10.1467C124.56 9.27502 123.292 8.63759 121.906 8.31894C121.884 8.31483 121.862 8.31703 121.84 8.31292C121.784 8.30059 121.726 8.29841 121.669 8.29224C121.599 8.28402 121.528 8.27578 121.459 8.27578C121.388 8.27578 121.318 8.28402 121.246 8.29224C121.19 8.29841 121.134 8.30059 121.079 8.31292C121.056 8.31703 121.033 8.31483 121.01 8.31894C119.624 8.63759 118.357 9.27502 117.26 10.1467C117.685 7.78662 119.182 5.44704 121.458 4.68433ZM100.985 21.0178H113.143V28.2398H100.985V21.0178ZM76.2282 32.1808H113.143V39.4028H76.2282V32.1808ZM113.143 43.3418V46.8429H49.9231V43.3418H113.143ZM49.9231 57.459V50.7817H115.132C116.231 50.7817 117.122 49.8999 117.122 48.8124V18.9393C117.122 15.8802 118.961 13.1398 121.458 12.3113C123.955 13.1398 125.794 15.8802 125.794 18.9393V48.8124C125.794 49.8999 126.685 50.7817 127.784 50.7817H192.994V62.9296H189.9V56.8012C189.9 55.7136 189.009 54.8317 187.909 54.8317H181.389C180.289 54.8317 179.398 55.7136 179.398 56.8012V62.9296H176.637V56.8012C176.637 55.7136 175.746 54.8317 174.647 54.8317H168.126C167.027 54.8317 166.137 55.7136 166.137 56.8012V62.9296H163.373V56.8012C163.373 55.7136 162.484 54.8317 161.384 54.8317H154.862C153.764 54.8317 152.873 55.7136 152.873 56.8012V62.9296H150.111V56.8012C150.111 55.7136 149.221 54.8317 148.122 54.8317H141.601C140.502 54.8317 139.611 55.7136 139.611 56.8012V62.9296H103.305V56.8012C103.305 55.7136 102.415 54.8317 101.316 54.8317H94.7943C93.6954 54.8317 92.805 55.7136 92.805 56.8012V62.9296H90.0425V56.8012C90.0425 55.7136 89.152 54.8317 88.053 54.8317H81.5319C80.4329 54.8317 79.5424 55.7136 79.5424 56.8012V62.9296H76.7798V56.8012C76.7798 55.7136 75.8893 54.8317 74.7905 54.8317H68.2692C67.1702 54.8317 66.2799 55.7136 66.2799 56.8012V62.9296H63.5172V56.8012C63.5172 55.7136 62.6269 54.8317 61.5279 54.8317H55.0066C53.9078 54.8317 53.0173 55.7136 53.0173 56.8012V62.9296H49.9231V57.459ZM185.92 62.9296H183.378V58.7706H185.92V62.9296ZM172.658 62.9296H170.115V58.7706H172.658V62.9296ZM159.395 62.9296H156.853V58.7706H159.395V62.9296ZM146.132 62.9296H143.59V58.7706H146.132V62.9296ZM99.3261 62.9296H96.7839V58.7706H99.3261V62.9296ZM86.0637 62.9296H83.5212V58.7706H86.0637V62.9296ZM72.801 62.9296H70.2585V58.7706H72.801V62.9296ZM59.5385 62.9296H56.9961V58.7706H59.5385V62.9296ZM13.7851 71.1364H19.4192V90.1774H5.8185L13.7851 71.1364ZM23.3978 78.3605H63.8488C64.9477 78.3605 65.8381 77.4785 65.8381 76.391C65.8381 75.3035 64.9477 74.4215 63.8488 74.4215H23.3978V66.8684H219.519V74.4215H179.068C177.97 74.4215 177.079 75.3035 177.079 76.391C177.079 77.4785 177.97 78.3605 179.068 78.3605H219.519V90.1774H168.568V75.9531C168.568 74.8656 167.677 73.9836 166.579 73.9836H154.422C153.322 73.9836 152.432 74.8656 152.432 75.9531V90.1774H128.891V79.2362C128.891 75.2376 126.543 71.2022 122.61 68.4372C122.593 68.4248 122.574 68.4185 122.557 68.4082C122.497 68.3671 122.434 68.3364 122.37 68.3014C122.316 68.2747 122.263 68.246 122.207 68.2234C122.147 68.2007 122.086 68.1822 122.023 68.1637C121.961 68.1452 121.899 68.1246 121.836 68.1143C121.775 68.102 121.713 68.0978 121.652 68.0917C121.587 68.0855 121.523 68.0774 121.458 68.0774C121.393 68.0774 121.329 68.0855 121.264 68.0917C121.203 68.0978 121.142 68.102 121.081 68.1143C121.017 68.1246 120.954 68.1452 120.892 68.1657C120.83 68.1822 120.77 68.2007 120.71 68.2234C120.653 68.246 120.599 68.2746 120.543 68.3055C120.481 68.3363 120.419 68.3672 120.361 68.4062C120.344 68.4186 120.324 68.4248 120.307 68.4372C116.373 71.2022 114.025 75.2376 114.025 79.2362V90.1774H90.4841V75.9531C90.4841 74.8656 89.5936 73.9836 88.4946 73.9836H76.3382C75.2392 73.9836 74.3487 74.8656 74.3487 75.9531V90.1774H23.3978V78.3605ZM121.458 90.1774H118.004V79.2362C118.004 76.9398 119.304 74.4832 121.458 72.5693C123.612 74.4832 124.912 76.9398 124.912 79.2362V90.1774H121.458ZM78.3275 77.9226H80.4271V90.1774H78.3275V77.9226ZM84.4057 90.1774V77.9226H86.5053V90.1774H84.4057ZM156.411 77.9226H158.51V90.1774H156.411V77.9226ZM162.489 90.1774V77.9226H164.588V90.1774H162.489ZM223.497 90.1774V71.1364H229.132L237.099 90.1774H223.497Z" fill="#E6F7FF" fill-opacity="0.39"/>
</svg>
