<svg width="18" height="16" viewBox="0 0 18 16" fill="none" xmlns="http://www.w3.org/2000/svg">
<path d="M10.4112 1.47994C10.3946 1.45116 10.3738 1.43058 10.3551 1.40385C10.3157 1.34218 10.2721 1.28053 10.2223 1.22297C10.1849 1.17774 10.1434 1.13459 10.1018 1.09347C10.0541 1.04619 10.0063 1.00093 9.95234 0.957759C9.89836 0.912531 9.84436 0.875511 9.78623 0.838506C9.75716 0.817948 9.73226 0.793318 9.70111 0.776872C9.67828 0.762481 9.65334 0.756282 9.62842 0.743947C9.56613 0.711054 9.50386 0.682289 9.43742 0.657619C9.38136 0.635005 9.32528 0.612431 9.26715 0.595985C9.2007 0.575427 9.13427 0.562995 9.06991 0.548605C9.00969 0.538326 8.95154 0.528071 8.8934 0.521903C8.82073 0.51368 8.75013 0.513672 8.67953 0.513672C8.62555 0.513672 8.56953 0.513728 8.51763 0.519896C8.44288 0.526063 8.37019 0.540438 8.29545 0.554828C8.24354 0.565107 8.19163 0.57537 8.13972 0.589761C8.0712 0.610319 8.00477 0.637117 7.9404 0.663842C7.88227 0.686456 7.82619 0.713206 7.76805 0.739932C7.74521 0.754322 7.71612 0.762481 7.69121 0.776872C7.65799 0.795374 7.63101 0.822164 7.59986 0.842722C7.54588 0.877671 7.49397 0.912628 7.44414 0.953744C7.38808 0.998972 7.33824 1.04619 7.28841 1.09347C7.24896 1.13459 7.20742 1.17779 7.17005 1.22096C7.12022 1.28058 7.07664 1.34012 7.03511 1.40385C7.0185 1.43058 6.99773 1.45116 6.97904 1.47994L0.569491 12.3141C0.0151153 13.2536 0.332777 14.4603 1.28165 15.0071C1.59725 15.1922 1.94401 15.2786 2.28453 15.2786C2.96764 15.2786 3.63206 14.929 4.00164 14.3041L8.69616 6.37073L13.3907 14.3041C13.7603 14.929 14.4247 15.2786 15.1078 15.2786C15.4484 15.2786 15.7951 15.1922 16.1107 15.0071C17.0595 14.4603 17.3773 13.2536 16.8229 12.3141L10.4112 1.47994Z" fill="#E6F7FF" fill-opacity="0.39"/>
</svg>
