<svg width="12" height="12" viewBox="0 0 12 12" fill="none" xmlns="http://www.w3.org/2000/svg">
<path d="M11.9754 6.07134C11.9754 4.98381 11.0847 4.10185 9.98631 4.10185H8.09898V2.23315C8.09898 1.14563 7.20822 0.263672 6.10985 0.263672C5.01148 0.263672 4.11865 1.14563 4.11865 2.23315V4.10185H2.23339C1.13502 4.10185 0.242188 4.98381 0.242188 6.07134C0.242188 7.15886 1.13502 8.04283 2.23339 8.04283H4.11865V9.90952C4.11865 10.997 5.01148 11.881 6.10985 11.881C7.20822 11.881 8.09898 10.997 8.09898 9.90952V8.04283H9.98631C11.0847 8.04283 11.9754 7.15886 11.9754 6.07134Z" fill="#E6F7FF" fill-opacity="0.39"/>
</svg>
