<svg width="11" height="11" viewBox="0 0 11 11" fill="none" xmlns="http://www.w3.org/2000/svg">
<path d="M5.50667 10.6272C6.83343 10.6272 7.90892 9.56227 7.90892 8.24861V7.7716H8.39059C9.71736 7.7716 10.793 6.70677 10.793 5.39517C10.793 4.08356 9.71736 3.01854 8.39059 3.01854H7.90892V2.53972C7.90892 1.22811 6.83343 0.163086 5.50667 0.163086C4.18198 0.163086 3.10643 1.22811 3.10643 2.53972V3.01854H2.62679C1.30003 3.01854 0.226562 4.08356 0.226562 5.39517C0.226562 6.70677 1.30003 7.7716 2.62679 7.7716H3.10643V8.24861C3.10643 9.56227 4.18198 10.6272 5.50667 10.6272Z" fill="#E6F7FF" fill-opacity="0.39"/>
</svg>
