<svg width="63" height="37" viewBox="0 0 63 37" fill="none" xmlns="http://www.w3.org/2000/svg">
<path d="M2.12599 12.7633H10.8051C8.60425 15.2652 7.27541 18.5094 7.27541 22.0639C7.27541 24.4095 7.85674 26.6195 8.8949 28.5746H2.12599C1.02555 28.5746 0.132812 29.4566 0.132812 30.5441C0.132812 31.6316 1.02555 32.5136 2.12599 32.5136H9.45554C10.12 32.5136 10.7221 32.1784 11.075 31.6665C13.7327 34.5344 17.5532 36.3455 21.8096 36.3455H49.2999C56.5255 36.3455 62.4015 30.5687 62.4015 23.47C62.4015 16.3713 56.5255 10.5945 49.2999 10.5945C47.9503 10.5945 46.6214 10.8 45.3549 11.1948C44.1506 5.30898 38.8561 0.862305 32.5026 0.862305C27.5402 0.862305 23.1177 3.54921 20.8753 7.8109C19.2973 7.90958 17.8022 8.26728 16.3903 8.82235H2.12599C1.02555 8.82235 0.132812 9.70431 0.132812 10.7918C0.132812 11.8794 1.02555 12.7633 2.12599 12.7633ZM21.851 11.7252L22.1211 11.7395H22.1624C22.9722 11.7395 23.7197 11.2461 24.0104 10.4937C25.4016 7.03582 28.7237 4.80117 32.5026 4.80117C37.5481 4.80117 41.6384 8.80999 41.6384 13.8303L41.6175 14.0317C41.5968 14.7533 41.9705 15.4318 42.5934 15.8039C43.2163 16.1698 44.0053 16.176 44.6282 15.806C46.0401 14.9754 47.6596 14.5355 49.2999 14.5355C54.3246 14.5355 58.415 18.5443 58.415 23.47C58.415 28.3978 54.3246 32.4067 49.2999 32.4067H21.8096C15.9959 32.4067 11.2411 27.7667 11.2411 22.0639C11.2411 16.361 15.975 11.7252 21.851 11.7252Z" fill="#E6F7FF" fill-opacity="0.39"/>
</svg>
