<svg width="23" height="16" viewBox="0 0 23 16" fill="none" xmlns="http://www.w3.org/2000/svg">
<path d="M21.8688 11.7139C21.7982 11.3973 21.7381 10.8998 21.6945 10.5401C21.5014 8.98588 21.2833 7.22408 19.8507 6.30719C19.3108 5.95976 18.4056 5.6329 17.1702 6.01528C16.7466 6.14686 16.5119 6.10776 16.5161 6.13654C16.4974 6.09337 16.4746 5.83832 16.7113 5.43126C17.573 3.94491 17.1764 2.8267 16.865 2.29013C15.9036 0.645481 13.711 0.509766 11.5475 0.509766C9.3819 0.509766 7.18934 0.645481 6.23009 2.29013C5.91656 2.8267 5.51998 3.94496 6.38165 5.42926C6.62458 5.84864 6.60588 6.12631 6.6308 6.08314C6.58305 6.10781 6.35259 6.14686 5.9228 6.01528C4.68739 5.6329 3.78208 5.96182 3.24224 6.30719C1.80959 7.22408 1.59368 8.98588 1.40058 10.5401C1.35698 10.8998 1.29674 11.3973 1.22615 11.7139C0.609485 12.1518 0.277267 12.9248 0.439219 13.7081C0.632316 14.6415 1.46079 15.2829 2.38475 15.2829C2.51763 15.2829 2.65258 15.2685 2.78754 15.2417C4.88254 14.8162 5.15248 12.6206 5.35181 11.0191C5.38711 10.7189 5.43693 10.3077 5.49922 9.96228C7.19972 10.2686 8.73203 9.77115 9.69752 8.58083C10.5966 7.47069 10.8042 5.98034 10.2913 4.48166C10.6069 4.4611 11.016 4.44873 11.5475 4.44873C12.0749 4.44873 12.4818 4.4611 12.7954 4.48166C12.2887 5.95978 12.4923 7.46247 13.3975 8.58083C14.363 9.77115 15.8932 10.2624 17.5937 9.96228C17.656 10.3077 17.7079 10.7189 17.7432 11.0191C17.9405 12.6206 18.2125 14.8162 20.3054 15.2417C20.4403 15.2685 20.5753 15.2829 20.7082 15.2829C21.6343 15.2829 22.4627 14.6415 22.6558 13.7081C22.8177 12.9248 22.4855 12.1518 21.8688 11.7139Z" fill="#E6F7FF" fill-opacity="0.39"/>
</svg>
