<svg width="13" height="13" viewBox="0 0 13 13" fill="none" xmlns="http://www.w3.org/2000/svg">
<path d="M2.92865 8.60918H4.81396V10.4779C4.81396 11.5654 5.70467 12.4474 6.80511 12.4474C7.90348 12.4474 8.79424 11.5654 8.79424 10.4779V8.60918H10.6816C11.7799 8.60918 12.6707 7.72722 12.6707 6.6397C12.6707 5.55217 11.7799 4.67021 10.6816 4.67021H8.79424V2.80151C8.79424 1.71399 7.90348 0.832031 6.80511 0.832031C5.70467 0.832031 4.81396 1.71399 4.81396 2.80151V4.67021H2.92865C1.82821 4.67021 0.9375 5.55217 0.9375 6.6397C0.9375 7.72722 1.82821 8.60918 2.92865 8.60918Z" fill="#E6F7FF" fill-opacity="0.39"/>
</svg>
