<svg width="10" height="10" viewBox="0 0 10 10" fill="none" xmlns="http://www.w3.org/2000/svg">
<path d="M5.07999 9.02676C6.18043 9.02676 7.07119 8.1448 7.07119 7.05728V6.66258H7.46982C8.57027 6.66258 9.45895 5.78062 9.45895 4.6931C9.45895 3.60557 8.57027 2.72371 7.46982 2.72371H7.07119V2.3269C7.07119 1.23938 6.18043 0.357422 5.07999 0.357422C3.98162 0.357422 3.09089 1.23938 3.09089 2.3269V2.72371H2.69222C1.59385 2.72371 0.703125 3.60557 0.703125 4.6931C0.703125 5.78062 1.59385 6.66258 2.69222 6.66258H3.09089V7.05728C3.09089 8.1448 3.98162 9.02676 5.07999 9.02676Z" fill="#E6F7FF" fill-opacity="0.39"/>
</svg>
