<svg width="136" height="409" viewBox="0 0 136 409" fill="none" xmlns="http://www.w3.org/2000/svg">
<path d="M101.673 74.5896C101.671 74.5854 101.671 74.5792 101.667 74.5751L69.1083 2.31133C68.7387 1.49106 67.9351 0.948261 67.0298 0.905089C66.1453 0.861917 65.2734 1.33071 64.8249 2.10987L0.996919 113.769C0.984462 113.792 0.980179 113.818 0.967721 113.841C0.888821 113.995 0.822396 114.154 0.776717 114.318C0.770488 114.337 0.762215 114.355 0.758062 114.374C0.712383 114.559 0.693786 114.75 0.693786 114.941C0.693786 114.959 0.6875 114.978 0.6875 114.996L6.18142 344.059V344.061L7.66809 406.124C7.70131 407.413 8.76653 408.445 10.0705 408.445H47.2778C47.2861 408.445 47.2965 408.447 47.3028 408.447C47.3111 408.447 47.3194 408.445 47.3277 408.445H116.203C116.211 408.445 116.222 408.447 116.228 408.447C116.236 408.447 116.245 408.445 116.253 408.445H132.737C134.062 408.445 135.137 407.38 135.137 406.066V149.366C135.137 149.033 135.067 148.702 134.93 148.397L101.673 74.5896ZM12.4146 403.69L12.1113 391.053L20.0159 403.69H12.4146ZM25.6635 403.69L11.885 381.66L11.1958 352.85L42.9904 403.69H25.6635ZM48.638 403.69L10.9693 343.459L10.2801 314.649L65.9626 403.69H48.638ZM71.6123 403.69L10.0538 305.256L9.3624 276.441L88.9412 403.69H71.6123ZM94.5888 403.69L9.13814 267.051L8.44671 238.24L111.914 403.69H94.5888ZM130.335 403.69H117.563L8.22042 228.847L7.52899 200.035L130.335 396.408V403.69ZM130.335 387.375L7.30474 190.642L6.61331 161.832L130.335 359.671V387.375ZM130.335 350.638L6.38905 152.439L5.69762 123.631L130.335 322.934V350.638ZM130.335 313.9L125.383 305.981H130.335V313.9ZM130.335 187.18H120.941C119.617 187.18 118.541 188.245 118.541 189.557C118.541 190.868 119.617 191.933 120.941 191.933H130.335V225.196H120.941C119.617 225.196 118.541 226.261 118.541 227.573C118.541 228.884 119.617 229.949 120.941 229.949H130.335V263.212H120.941C119.617 263.212 118.541 264.277 118.541 265.589C118.541 266.9 119.617 267.965 120.941 267.965H130.335V301.226H122.409L113.805 287.469H123.682C125.009 287.469 126.084 286.404 126.084 285.092C126.084 283.781 125.009 282.716 123.682 282.716H110.834L101.609 267.965H104.985C106.31 267.965 107.385 266.9 107.385 265.589C107.385 264.277 106.31 263.212 104.985 263.212H98.6356L89.0387 247.864C89.1259 247.617 89.1841 247.354 89.1841 247.076C89.1841 245.863 88.2623 244.874 87.0768 244.729L66.2574 211.437H86.784C88.1087 211.437 89.1841 210.372 89.1841 209.06C89.1841 207.747 88.1087 206.684 86.784 206.684H65.8402C65.0408 206.684 64.3369 207.074 63.9009 207.668L54.0611 191.933H68.0825C69.4093 191.933 70.4849 190.868 70.4849 189.557C70.4849 188.245 69.4093 187.18 68.0825 187.18H51.088L42.4837 173.423H49.8838C51.2085 173.423 52.2839 172.358 52.2839 171.046C52.2839 169.732 51.2085 168.668 49.8838 168.668H39.5125L5.87828 114.885L27.0277 77.885H31.1844C32.5091 77.885 33.5847 76.8221 33.5847 75.5085C33.5847 74.1948 32.5091 73.1319 31.1844 73.1319H29.7456L37.6106 59.3703H49.8838C51.2085 59.3703 52.2839 58.3075 52.2839 56.9938C52.2839 55.6801 51.2085 54.6173 49.8838 54.6173H40.3285L48.7582 39.8689H68.0825C69.4093 39.8689 70.4849 38.804 70.4849 37.4924C70.4849 36.1787 69.4093 35.1139 68.0825 35.1139H51.4763L66.6603 8.55074L70.2876 16.6012H65.8402C64.5155 16.6012 63.44 17.6641 63.44 18.9778C63.44 20.2914 64.5155 21.3563 65.8402 21.3563H72.4304L87.4671 54.7263C87.247 54.6626 87.0227 54.6173 86.784 54.6173H65.8402C64.5155 54.6173 63.44 55.6801 63.44 56.9938C63.44 58.3075 64.5155 59.3703 65.8402 59.3703H86.784C87.7411 59.3703 88.5592 58.8132 88.9454 58.0115L95.7577 73.1319H84.0412C82.7144 73.1319 81.6388 74.1948 81.6388 75.5085C81.6388 76.8221 82.7144 77.885 84.0412 77.885H97.9006L104.547 92.6334H102.738C101.414 92.6334 100.338 93.6983 100.338 95.012C100.338 96.3236 101.414 97.3885 102.738 97.3885H106.687L121.674 130.649H102.738C101.414 130.649 100.338 131.714 100.338 133.026C100.338 134.34 101.414 135.402 102.738 135.402H123.682C123.726 135.402 123.767 135.392 123.811 135.39L130.017 149.164H120.941C119.617 149.164 118.541 150.229 118.541 151.541C118.541 152.852 119.617 153.917 120.941 153.917H130.335V187.18Z" fill="#E6F7FF" fill-opacity="0.39"/>
</svg>
