<svg width="31" height="37" viewBox="0 0 31 37" fill="none" xmlns="http://www.w3.org/2000/svg">
<path d="M30.9352 15.5053C30.7338 11.5376 28.5226 8.01188 25.0842 6.0568C23.7512 2.48175 20.3251 0.0722656 16.3864 0.0722656C11.2662 0.0722656 7.09913 4.19637 7.09913 9.266C7.09913 9.41813 7.10117 9.56819 7.10947 9.72032C3.38872 10.9189 0.6875 14.391 0.6875 18.4615C0.6875 23.5312 4.85253 27.6573 9.97272 27.6573L11.8726 27.6695C12.346 27.6736 12.8754 27.6756 13.4173 27.6818V34.2461C13.4173 35.5598 14.4929 36.6225 15.8176 36.6225C17.1423 36.6225 18.2178 35.5598 18.2178 34.2461V27.6818C18.8759 27.6735 19.4427 27.6614 19.8455 27.6408C22.9621 27.4866 25.8336 26.1401 27.9286 23.8458C30.0236 21.5536 31.0909 18.5931 30.9352 15.5053ZM24.3678 20.6571C23.1324 22.0077 21.4422 22.8013 19.6047 22.8938C18.1222 22.9678 14.362 22.935 11.912 22.9145L9.97272 22.902C7.49983 22.902 5.48999 20.91 5.48999 18.4615C5.48999 16.0254 7.49156 14.0354 9.95406 14.0251C10.7389 14.021 11.4718 13.6386 11.9203 12.9972C12.3646 12.3558 12.4663 11.5396 12.1902 10.8119C11.9971 10.3061 11.9016 9.78612 11.9016 9.266C11.9016 6.81753 13.9114 4.82532 16.3864 4.82532C18.4772 4.82532 20.2691 6.23359 20.7446 8.25034C20.9149 8.96987 21.4112 9.5702 22.0922 9.87652C24.4592 10.9394 26.0082 13.1864 26.139 15.7438C26.2303 17.5611 25.6011 19.3064 24.3678 20.6571Z" fill="#E6F7FF" fill-opacity="0.39"/>
</svg>
