<svg width="13" height="13" viewBox="0 0 13 13" fill="none" xmlns="http://www.w3.org/2000/svg">
<path d="M8.62207 4.25908V2.39038C8.62207 1.30286 7.72913 0.420898 6.62868 0.420898C5.52824 0.420898 4.6355 1.30286 4.6355 2.39038V4.25908H2.74594C1.64549 4.25908 0.773438 5.14104 0.773438 6.22856C0.773438 7.31609 1.64549 8.19805 2.74594 8.19805H4.6355V10.0667C4.6355 11.1543 5.52824 12.0362 6.62868 12.0362C7.72913 12.0362 8.62207 11.1543 8.62207 10.0667V8.19805H10.5114C11.6119 8.19805 12.5046 7.31609 12.5046 6.22856C12.5046 5.14104 11.6119 4.25908 10.5114 4.25908H8.62207Z" fill="#E6F7FF" fill-opacity="0.39"/>
</svg>
