<svg width="55" height="34" viewBox="0 0 55 34" fill="none" xmlns="http://www.w3.org/2000/svg">
<path d="M2.51682 15.8949H6.83551C5.38209 17.7389 4.51 20.0517 4.51 22.568C4.51 28.5586 9.43095 33.435 15.4938 33.435H43.3786C49.4415 33.435 54.3622 28.5586 54.3622 22.568C54.3622 17.2167 50.5211 12.807 45.3718 11.886C44.0222 5.23753 38.167 0.404297 31.1491 0.404297C24.1727 0.404297 18.3383 5.24777 16.9472 11.7976C16.4696 11.7339 15.9713 11.701 15.4938 11.701C14.684 11.701 13.8949 11.7915 13.1474 11.9539H2.51682C1.41637 11.9539 0.523438 12.8358 0.523438 13.9254C0.523438 15.0129 1.41637 15.8949 2.51682 15.8949ZM17.9438 16.086C18.5252 16.3101 19.2103 16.2319 19.7293 15.8845C20.2692 15.5371 20.6014 14.9574 20.6221 14.3283C20.8713 8.72827 25.5015 4.34326 31.1491 4.34326C36.6513 4.34326 41.157 8.43428 41.6553 13.8575C41.7384 14.8525 42.5689 15.6235 43.5863 15.6522C47.3859 15.7571 50.3759 18.7935 50.3759 22.568C50.3759 26.3877 47.2406 29.4961 43.3786 29.4961H15.4938C11.6318 29.4961 8.49656 26.3877 8.49656 22.568C8.49656 18.7463 11.6318 15.6399 15.4938 15.6399C16.3035 15.6399 17.134 15.7899 17.9438 16.086Z" fill="#E6F7FF" fill-opacity="0.39"/>
</svg>
