<svg width="76" height="44" viewBox="0 0 76 44" fill="none" xmlns="http://www.w3.org/2000/svg">
<path d="M2.71263 15.2761H13.1836C10.5342 18.2961 8.9146 22.2124 8.9146 26.5008C8.9146 29.3317 9.62675 31.9981 10.8622 34.3561H2.71263C1.38794 34.3561 0.3125 35.421 0.3125 36.7346C0.3125 38.0462 1.38794 39.1112 2.71263 39.1112H11.5453C12.3613 39.1112 13.0798 38.7061 13.5137 38.0894C16.7258 41.5493 21.3352 43.7367 26.4657 43.7367H59.6348C68.3554 43.7367 75.4521 36.7655 75.4521 28.1969C75.4521 19.6303 68.3554 12.659 59.6348 12.659C58.0195 12.659 56.4186 12.9057 54.8863 13.3827C53.4329 6.27987 47.0317 0.912109 39.3784 0.912109C33.3883 0.912109 28.0437 4.15624 25.3424 9.29988C23.4384 9.41706 21.6238 9.85083 19.9316 10.521H2.71263C1.38794 10.521 0.3125 11.5859 0.3125 12.8996C0.3125 14.2112 1.38794 15.2761 2.71263 15.2761ZM26.53 14.0241H26.5383L26.8228 14.0385C27.8174 14.0693 28.7497 13.4649 29.1213 12.5357C30.7866 8.36443 34.8147 5.66718 39.3784 5.66718C45.4516 5.66718 50.3952 10.5045 50.3869 16.563L50.3723 16.8077C50.337 17.6773 50.7855 18.4975 51.5392 18.9436C52.2971 19.3918 53.2356 19.3939 53.9955 18.9498C55.7085 17.9446 57.6582 17.4141 59.6348 17.4141C65.7081 17.4141 70.6496 22.2515 70.6496 28.1969C70.6496 34.1443 65.7081 38.9817 59.6348 38.9817H26.4657C19.4353 38.9817 13.7171 33.3816 13.7171 26.5008C13.7171 19.618 19.429 14.0241 26.53 14.0241Z" fill="#E6F7FF" fill-opacity="0.39"/>
</svg>
