<svg width="10" height="9" viewBox="0 0 10 9" fill="none" xmlns="http://www.w3.org/2000/svg">
<path d="M2.43849 6.42234H2.83307V6.81714C2.83307 7.90467 3.72581 8.78653 4.82625 8.78653C5.9267 8.78653 6.79875 7.90467 6.79875 6.81714V6.42234H7.21401C8.31446 6.42234 9.20719 5.54048 9.20719 4.45296C9.20719 3.36544 8.31446 2.48137 7.21401 2.48137H6.79875V2.08667C6.79875 0.999146 5.9267 0.117188 4.82625 0.117188C3.72581 0.117188 2.83307 0.999146 2.83307 2.08667V2.48137H2.43849C1.33805 2.48137 0.445312 3.36544 0.445312 4.45296C0.445312 5.54048 1.33805 6.42234 2.43849 6.42234Z" fill="#E6F7FF" fill-opacity="0.39"/>
</svg>
