<svg width="44" height="55" viewBox="0 0 44 55" fill="none" xmlns="http://www.w3.org/2000/svg">
<path d="M37.1908 20.895C37.6081 19.4724 37.8178 18.0046 37.8178 16.5059C37.8178 7.70913 30.5902 0.552734 21.7056 0.552734C12.8211 0.552734 5.59553 7.70913 5.59553 16.5059C5.59553 16.7753 5.60589 17.0508 5.6225 17.3345C2.43121 19.9598 0.5625 23.8514 0.5625 28.0083C0.5625 35.662 6.85166 41.887 14.5818 41.887H19.7995V52.2873C19.7995 53.5989 20.8751 54.6637 22.1998 54.6637C23.5244 54.6637 24.6 53.5989 24.6 52.2873V41.887H32.7661C38.8705 41.887 43.835 36.9714 43.835 30.9273C43.835 26.5197 41.1233 22.6055 37.1908 20.895ZM32.7661 37.1339H14.5818C9.49896 37.1339 5.36499 33.0409 5.36499 28.0083C5.36499 24.9492 6.9036 22.1101 9.48031 20.41C10.2527 19.9001 10.6597 18.9976 10.5268 18.089C10.4375 17.4825 10.398 16.9808 10.398 16.5059C10.398 10.3323 15.4704 5.308 21.7056 5.308C27.9408 5.308 33.0174 10.3323 33.0174 16.5059C33.0174 18.2041 32.6291 19.8487 31.8629 21.3987C31.5266 22.0813 31.539 22.8811 31.8982 23.5533C32.2553 24.2256 32.9156 24.6861 33.6755 24.795C36.7298 25.235 39.0345 27.8724 39.0345 30.9273C39.0345 34.3503 36.2232 37.1339 32.7661 37.1339Z" fill="#E6F7FF" fill-opacity="0.39"/>
</svg>
