<svg width="47" height="57" viewBox="0 0 47 57" fill="none" xmlns="http://www.w3.org/2000/svg">
<path d="M37.542 9.49956C35.7356 3.99615 30.5904 0.242188 24.648 0.242188C17.1588 0.242188 11.0669 6.27402 11.0669 13.6873C11.0669 14.302 11.1084 14.9126 11.1956 15.519C5.17011 16.8923 0.65625 22.2518 0.65625 28.6186C0.65625 36.0319 6.74814 42.0637 14.2353 42.0637C14.8852 42.0637 15.9898 42.0739 17.3311 42.0842C18.525 42.0924 19.9078 42.1047 21.3239 42.1109V54.2464C21.3239 55.558 22.3974 56.6228 23.7241 56.6228C25.0509 56.6228 26.1264 55.558 26.1264 54.2464V42.1171C27.9743 42.1089 29.326 42.0842 30.1877 42.041C39.8135 41.5641 47.2529 33.421 46.7712 23.8902C46.4639 17.7763 42.9591 12.3592 37.542 9.49956ZM29.9489 37.292C28.9481 37.3413 27.1251 37.366 24.5297 37.366C22.1108 37.366 19.4551 37.3476 17.3685 37.3291C16.0105 37.3188 14.8935 37.3106 14.2353 37.3106C9.39544 37.3106 5.45874 33.4107 5.45874 28.6186C5.45874 23.8491 9.37676 19.9534 14.1959 19.9328C14.9807 19.9307 15.7158 19.5463 16.1622 18.9049C16.6086 18.2635 16.7082 17.4474 16.4321 16.7176C16.0583 15.7329 15.8673 14.7131 15.8673 13.6873C15.8673 8.89518 19.8061 4.99725 24.648 4.99725C28.7404 4.99725 32.2494 7.75412 33.1817 11.7033C33.3499 12.4229 33.8482 13.0232 34.5293 13.3275C38.8833 15.2826 41.7382 19.423 41.9769 24.1287C42.3257 31.0424 36.9295 36.9466 29.9489 37.292Z" fill="#E6F7FF" fill-opacity="0.39"/>
</svg>
