<svg width="18" height="16" viewBox="0 0 18 16" fill="none" xmlns="http://www.w3.org/2000/svg">
<path d="M10.7404 1.47994C10.7238 1.45116 10.7009 1.43058 10.6843 1.40385C10.6428 1.34218 10.5992 1.28053 10.5514 1.22297C10.512 1.17774 10.4704 1.13258 10.4289 1.09147C10.3812 1.04418 10.3334 1.00088 10.2836 0.959767C10.2275 0.914539 10.1714 0.873551 10.1133 0.834491C10.0842 0.818044 10.0593 0.793318 10.0303 0.776872C10.0074 0.762481 9.9825 0.756282 9.95966 0.743947C9.8953 0.711054 9.83095 0.682337 9.7645 0.655611C9.70844 0.635053 9.65237 0.612431 9.59631 0.595985C9.53194 0.575427 9.46343 0.562995 9.39699 0.548605C9.33885 0.538326 9.2807 0.528071 9.22048 0.521903C9.14989 0.51368 9.07929 0.513672 9.0087 0.513672C8.95264 0.513672 8.89864 0.513728 8.84466 0.519896C8.76991 0.526063 8.69936 0.538382 8.62669 0.554828C8.5727 0.565107 8.51871 0.575523 8.46681 0.591969C8.40037 0.610472 8.33596 0.637117 8.26952 0.663842C8.21138 0.686456 8.15328 0.71115 8.09722 0.739932C8.0723 0.754322 8.04529 0.762481 8.02037 0.776872C7.98715 0.795374 7.96017 0.822164 7.92902 0.842722C7.87504 0.877671 7.82313 0.912628 7.77122 0.953744C7.71724 0.998972 7.66533 1.04619 7.61758 1.09347C7.57605 1.13459 7.53659 1.17779 7.49921 1.22096C7.44938 1.28058 7.4058 1.34012 7.36427 1.40385C7.34766 1.43058 7.32482 1.45116 7.30821 1.47994L0.898603 12.3141C0.342151 13.2536 0.661938 14.4603 1.60874 15.0071C1.92434 15.1922 2.27105 15.2786 2.61364 15.2786C3.29675 15.2786 3.96117 14.929 4.33076 14.3041L9.02532 6.37073L13.7178 14.3041C14.0895 14.929 14.7538 15.2786 15.4349 15.2786C15.7775 15.2786 16.1242 15.1922 16.4398 15.0071C17.3866 14.4603 17.7064 13.2536 17.1499 12.3141L10.7404 1.47994Z" fill="#E6F7FF" fill-opacity="0.39"/>
</svg>
