<svg width="24" height="25" viewBox="0 0 24 25" fill="none" xmlns="http://www.w3.org/2000/svg">
<mask id="mask0_955_583" style="mask-type:alpha" maskUnits="userSpaceOnUse" x="0" y="0" width="24" height="25">
<rect y="0.666504" width="24" height="24" fill="#D9D9D9"/>
</mask>
<g mask="url(#mask0_955_583)">
<path d="M10.95 16.2165L16.6 10.5665L15.175 9.1415L10.95 13.3665L8.85 11.2665L7.425 12.6915L10.95 16.2165ZM12 22.6665C9.68333 22.0832 7.77083 20.754 6.2625 18.679C4.75417 16.604 4 14.2998 4 11.7665V5.6665L12 2.6665L20 5.6665V11.7665C20 14.2998 19.2458 16.604 17.7375 18.679C16.2292 20.754 14.3167 22.0832 12 22.6665ZM12 20.5665C13.7333 20.0165 15.1667 18.9165 16.3 17.2665C17.4333 15.6165 18 13.7832 18 11.7665V7.0415L12 4.7915L6 7.0415V11.7665C6 13.7832 6.56667 15.6165 7.7 17.2665C8.83333 18.9165 10.2667 20.0165 12 20.5665Z" fill="white"/>
</g>
</svg>
